<svg width="41" height="41" viewBox="0 0 41 41" fill="none" xmlns="http://www.w3.org/2000/svg">
<g id="Frame" clip-path="url(#clip0_1212_7600)">
<path id="Vector" d="M33.399 0.773926H8.2138C4.12281 0.773926 0.806396 4.35565 0.806396 8.77393V32.7739C0.806396 37.1922 4.12281 40.7739 8.2138 40.7739H33.399C37.49 40.7739 40.8064 37.1922 40.8064 32.7739V8.77393C40.8064 4.35565 37.49 0.773926 33.399 0.773926Z" fill="white"/>
<path id="Vector_2" d="M18.5137 22.1148H16.127C15.7418 22.1148 15.6211 21.9588 15.6211 21.5676V18.418C15.6211 18.002 15.7655 17.8716 16.127 17.8716H18.5137V15.5804C18.5137 14.5388 18.6826 13.55 19.1641 12.6388C19.6707 11.702 20.3937 11.0772 21.31 10.7124C21.9052 10.4826 22.5334 10.3683 23.1655 10.3748H25.5285C25.8655 10.3748 26.01 10.5308 26.01 10.8948V13.8628C26.01 14.2276 25.8655 14.3836 25.5285 14.3836C24.8766 14.3836 24.2263 14.3836 23.5752 14.41C22.9248 14.41 22.587 14.7484 22.587 15.4772C22.5633 16.258 22.587 17.0132 22.587 17.8204H25.3833C25.7685 17.8204 25.9137 17.9764 25.9137 18.3932V21.5428C25.9137 21.9588 25.7929 22.0892 25.3833 22.0892H22.587V30.5764C22.587 31.0188 22.4663 31.1748 22.0329 31.1748H19.0196C18.6581 31.1748 18.5137 31.0188 18.5137 30.6284V22.1148Z" fill="url(#paint0_linear_1212_7600)"/>
</g>
<defs>
<linearGradient id="paint0_linear_1212_7600" x1="15.6211" y1="20.7746" x2="26.01" y2="20.7746" gradientUnits="userSpaceOnUse">
<stop stop-color="#2B388F"/>
<stop offset="1" stop-color="#304996"/>
</linearGradient>
<clipPath id="clip0_1212_7600">
<rect width="40" height="40" fill="white" transform="translate(0.806396 0.774902)"/>
</clipPath>
</defs>
</svg>
