<svg width="41" height="41" viewBox="0 0 41 41" fill="none" xmlns="http://www.w3.org/2000/svg">
<g id="Frame" clip-path="url(#clip0_1212_7608)">
<path id="Vector" d="M33.399 0.773926H8.2138C4.12281 0.773926 0.806396 4.35565 0.806396 8.77393V32.7739C0.806396 37.1922 4.12281 40.7739 8.2138 40.7739H33.399C37.49 40.7739 40.8064 37.1922 40.8064 32.7739V8.77393C40.8064 4.35565 37.49 0.773926 33.399 0.773926Z" fill="white"/>
<path id="Vector_2" d="M20.4354 25.2923C21.4466 25.2923 22.4163 24.8585 23.1313 24.0863C23.8463 23.3141 24.248 22.2668 24.248 21.1747C24.248 20.0827 23.8463 19.0353 23.1313 18.2631C22.4163 17.4909 21.4466 17.0571 20.4354 17.0571C19.4242 17.0571 18.4545 17.4909 17.7395 18.2631C17.0245 19.0353 16.6228 20.0827 16.6228 21.1747C16.6228 22.2668 17.0245 23.3141 17.7395 24.0863C18.4545 24.8585 19.4242 25.2923 20.4354 25.2923Z" fill="url(#paint0_linear_1212_7608)"/>
<path id="Vector_3" d="M25.0426 11.226C22.7463 11.1564 18.1515 11.1564 15.8559 11.226C14.6611 11.2612 13.307 11.5868 12.4559 12.582C11.5715 13.6164 11.2367 14.866 11.2033 16.2644C11.1441 18.7188 11.2033 26.0836 11.2033 26.0836C11.2419 27.4812 11.5715 28.7316 12.4552 29.766C13.307 30.7612 14.6611 31.086 15.8559 31.122C18.1522 31.1916 22.7463 31.1916 25.0426 31.122C26.2367 31.0868 27.5907 30.7612 28.4426 29.766C29.327 28.7316 29.6611 27.482 29.6952 26.0836V16.2644C29.6611 14.8668 29.327 13.6164 28.4426 12.582C27.5907 11.5868 26.2367 11.262 25.0426 11.226ZM20.4485 27.71C19.2657 27.7093 18.1103 27.3256 17.1315 26.6084C16.1466 25.8862 15.3814 24.8655 14.9322 23.6748C14.4801 22.479 14.362 21.1664 14.5922 19.8988C14.821 18.6343 15.3893 17.4705 16.2263 16.5524C17.0578 15.6404 18.1226 15.0175 19.2841 14.7636C20.4425 14.5115 21.6443 14.6411 22.7337 15.1356C23.8284 15.6335 24.7612 16.4717 25.4137 17.5436C26.0705 18.6215 26.4202 19.8837 26.4196 21.174C26.4196 22.9076 25.7907 24.57 24.6715 25.7956C24.1203 26.401 23.4632 26.882 22.7383 27.2107C22.0135 27.5393 21.2347 27.7091 20.4485 27.71ZM26.4456 15.9876C26.2093 15.9876 25.9789 15.9108 25.7819 15.7668C25.5851 15.6224 25.4323 15.4184 25.3426 15.1804C25.2528 14.9416 25.2294 14.6796 25.2755 14.4266C25.3215 14.1737 25.435 13.9408 25.6019 13.7564C25.7674 13.5737 25.9801 13.4489 26.2122 13.3984C26.4443 13.3479 26.6851 13.374 26.9033 13.4732C27.1211 13.5716 27.3078 13.7388 27.4389 13.9532C27.5927 14.2053 27.662 14.5066 27.635 14.8071C27.608 15.1076 27.4865 15.389 27.2907 15.6044C27.1802 15.7253 27.0486 15.8214 26.9036 15.8872C26.7585 15.9529 26.6029 15.9871 26.4456 15.9876Z" fill="url(#paint1_linear_1212_7608)"/>
</g>
<defs>
<linearGradient id="paint0_linear_1212_7608" x1="16.6228" y1="21.1747" x2="24.248" y2="21.1747" gradientUnits="userSpaceOnUse">
<stop stop-color="#2B388F"/>
<stop offset="1" stop-color="#304996"/>
</linearGradient>
<linearGradient id="paint1_linear_1212_7608" x1="11.177" y1="21.174" x2="29.6952" y2="21.174" gradientUnits="userSpaceOnUse">
<stop stop-color="#2B388F"/>
<stop offset="1" stop-color="#304996"/>
</linearGradient>
<clipPath id="clip0_1212_7608">
<rect width="40" height="40" fill="white" transform="translate(0.806396 0.774902)"/>
</clipPath>
</defs>
</svg>
