<svg width="41" height="41" viewBox="0 0 41 41" fill="none" xmlns="http://www.w3.org/2000/svg">
<g id="Frame" clip-path="url(#clip0_1212_7612)">
<path id="Vector" d="M33.399 0.773926H8.2138C4.12281 0.773926 0.806396 4.35565 0.806396 8.77393V32.7739C0.806396 37.1922 4.12281 40.7739 8.2138 40.7739H33.399C37.49 40.7739 40.8064 37.1922 40.8064 32.7739V8.77393C40.8064 4.35565 37.49 0.773926 33.399 0.773926Z" fill="white"/>
<path id="Vector_2" d="M11.8086 30.3735H14.339C14.5066 30.3735 14.6673 30.3016 14.7858 30.1736C14.9043 30.0457 14.9708 29.8721 14.9708 29.6911V17.7479C14.9708 17.5669 14.9043 17.3934 14.7858 17.2654C14.6673 17.1374 14.5066 17.0655 14.339 17.0655H11.8086C11.641 17.0655 11.4803 17.1374 11.3618 17.2654C11.2433 17.3934 11.1768 17.5669 11.1768 17.7479V29.6919C11.1768 30.0679 11.4597 30.3735 11.8086 30.3735ZM11.8086 14.9655H14.339C14.422 14.9655 14.5041 14.9479 14.5808 14.9136C14.6574 14.8793 14.7271 14.829 14.7858 14.7656C14.8444 14.7023 14.891 14.6271 14.9227 14.5443C14.9545 14.4615 14.9708 14.3727 14.9708 14.2831V11.8567C14.9708 11.6757 14.9043 11.5022 14.7858 11.3742C14.6673 11.2462 14.5066 11.1743 14.339 11.1743H11.8086C11.641 11.1743 11.4803 11.2462 11.3618 11.3742C11.2433 11.5022 11.1768 11.6757 11.1768 11.8567V14.2831C11.1768 14.6599 11.4597 14.9655 11.8086 14.9655ZM29.6864 18.4511C29.3308 17.9463 28.8064 17.5303 28.1131 17.2047C27.4205 16.8791 26.6553 16.7167 25.8182 16.7167C24.1182 16.7167 22.679 17.4167 21.4982 18.8175C21.2634 19.0967 21.0923 19.0359 21.0923 18.6583V17.7487C21.0923 17.5677 21.0257 17.3942 20.9072 17.2662C20.7888 17.1382 20.628 17.0663 20.4605 17.0663H18.2005C18.0329 17.0663 17.8722 17.1382 17.7537 17.2662C17.6352 17.3942 17.5686 17.5677 17.5686 17.7487V29.6919C17.5686 30.0679 17.8516 30.3743 18.2005 30.3743H20.7308C20.8138 30.3743 20.896 30.3567 20.9726 30.3224C21.0493 30.2881 21.1189 30.2378 21.1776 30.1744C21.2363 30.1111 21.2828 30.0359 21.3146 29.9531C21.3463 29.8703 21.3627 29.7815 21.3627 29.6919V25.5383C21.3627 23.8079 21.459 22.6215 21.6523 21.9799C21.8389 21.349 22.2174 20.8046 22.7264 20.4351C23.2479 20.0455 23.8375 19.8511 24.4945 19.8511C25.0079 19.8511 25.4464 19.9871 25.8116 20.2591C26.176 20.5319 26.439 20.9135 26.6012 21.4039C26.7634 21.8951 26.8442 22.9767 26.8442 24.6487V29.6919C26.8442 30.0679 27.1271 30.3743 27.476 30.3743H30.0064C30.0894 30.3743 30.1715 30.3567 30.2482 30.3224C30.3248 30.2881 30.3945 30.2378 30.4532 30.1744C30.5118 30.1111 30.5584 30.0359 30.5901 29.9531C30.6219 29.8703 30.6382 29.7815 30.6382 29.6919V22.9271C30.6382 21.7319 30.5679 20.8127 30.4286 20.1711C30.2969 19.5475 30.0439 18.9612 29.6864 18.4511Z" fill="url(#paint0_linear_1212_7612)"/>
</g>
<defs>
<linearGradient id="paint0_linear_1212_7612" x1="11.1768" y1="20.7743" x2="30.6382" y2="20.7743" gradientUnits="userSpaceOnUse">
<stop stop-color="#2B388F"/>
<stop offset="1" stop-color="#304996"/>
</linearGradient>
<clipPath id="clip0_1212_7612">
<rect width="40" height="40" fill="white" transform="translate(0.806396 0.774902)"/>
</clipPath>
</defs>
</svg>
