<svg width="25" height="24" viewBox="0 0 25 24" fill="none" xmlns="http://www.w3.org/2000/svg">
<g id="Frame" clip-path="url(#clip0_1212_7656)">
<path id="Vector" d="M12.8064 4C9.498 4 6.8064 6.59945 6.8064 9.79458C6.8064 13.7599 12.1758 19.5811 12.4044 19.8269C12.6191 20.0579 12.994 20.0575 13.2084 19.8269C13.437 19.5811 18.8064 13.7599 18.8064 9.79458C18.8064 6.59945 16.1148 4 12.8064 4ZM12.8064 12.71C11.1418 12.71 9.78768 11.4022 9.78768 9.79458C9.78768 8.18705 11.1419 6.87921 12.8064 6.87921C14.4709 6.87921 15.8251 8.18705 15.8251 9.79458C15.8251 11.4022 14.4709 12.71 12.8064 12.71Z" fill="white"/>
</g>
<defs>
<clipPath id="clip0_1212_7656">
<rect width="24" height="24" fill="white" transform="translate(0.806396)"/>
</clipPath>
</defs>
</svg>
