<svg width="56" height="56" viewBox="0 0 56 56" fill="none" xmlns="http://www.w3.org/2000/svg">
<path d="M37.6929 5.8086H11.0769C10.0797 5.8086 9.12331 6.20474 8.41817 6.90987C7.71304 7.61501 7.31689 8.57138 7.31689 9.5686V37.6326L20.9601 50.191H37.6961C38.6933 50.191 39.6497 49.7949 40.3548 49.0897C41.06 48.3846 41.4561 47.4282 41.4561 46.431V9.571C41.4564 9.07675 41.3593 8.5873 41.1703 8.13063C40.9813 7.67396 40.7041 7.25903 40.3545 6.90959C40.005 6.56015 39.59 6.28304 39.1333 6.09412C38.6766 5.9052 38.1871 5.80817 37.6929 5.8086Z" fill="url(#paint0_linear_944_24108)"/>
<path d="M24.2613 28.3009C28.3177 28.3009 31.6061 25.0126 31.6061 20.9561C31.6061 16.8997 28.3177 13.6113 24.2613 13.6113C20.2049 13.6113 16.9165 16.8997 16.9165 20.9561C16.9165 25.0126 20.2049 28.3009 24.2613 28.3009Z" fill="white"/>
<path d="M22.1665 18.7295C22.1665 18.5073 22.2864 18.2778 22.5086 18.2778C22.6287 18.2778 22.7466 18.3099 22.8506 18.3708L26.4977 20.7746C26.6857 20.8987 26.6857 21.1014 26.4977 21.2255L22.8506 23.6293C22.7466 23.6902 22.6287 23.7223 22.5086 23.7223C22.2864 23.7223 22.1665 23.4928 22.1665 23.2706V18.7295Z" fill="#FD8600"/>
<path d="M17.8049 35.3599H9.59131L23.2321 47.9151V40.8503C23.2321 37.8175 20.8001 35.3599 17.8049 35.3599Z" fill="white"/>
<path d="M39.7526 50.1912C46.0376 50.1912 51.1326 45.0962 51.1326 38.8112C51.1326 32.5262 46.0376 27.4312 39.7526 27.4312C33.4676 27.4312 28.3726 32.5262 28.3726 38.8112C28.3726 45.0962 33.4676 50.1912 39.7526 50.1912Z" fill="white"/>
<path d="M39.7528 47.9114C44.7786 47.9114 48.8528 43.8372 48.8528 38.8114C48.8528 33.7856 44.7786 29.7114 39.7528 29.7114C34.727 29.7114 30.6528 33.7856 30.6528 38.8114C30.6528 43.8372 34.727 47.9114 39.7528 47.9114Z" fill="#C62F8F"/>
<path d="M43.4617 38.4134H40.2615V35.4916C40.268 35.4294 40.2602 35.3665 40.2385 35.3072C40.2169 35.2478 40.1819 35.1932 40.1358 35.147C40.0897 35.1007 40.0335 35.0637 39.9708 35.0384C39.9082 35.0131 39.8404 35 39.7719 35C39.7033 35 39.6356 35.0131 39.5729 35.0384C39.5102 35.0637 39.454 35.1007 39.4079 35.147C39.3618 35.1932 39.3268 35.2478 39.3052 35.3072C39.2835 35.3665 39.2757 35.4294 39.2822 35.4916V38.4134H36.0815C35.9597 38.424 35.8465 38.4757 35.7642 38.5584C35.6819 38.641 35.6362 38.7488 35.6362 38.8605C35.6362 38.9723 35.6819 39.08 35.7642 39.1626C35.8465 39.2453 35.9597 39.297 36.0815 39.3076H39.2842V42.2298C39.2958 42.3411 39.3524 42.4444 39.4429 42.5195C39.5334 42.5947 39.6514 42.6364 39.7738 42.6364C39.8962 42.6364 40.0142 42.5947 40.1047 42.5195C40.1953 42.4444 40.2519 42.3411 40.2635 42.2298V39.3076H41.8636H43.4637C43.5855 39.297 43.6987 39.2453 43.781 39.1626C43.8633 39.08 43.909 38.9723 43.909 38.8605C43.909 38.7488 43.8692 38.6513 43.781 38.5584C43.6872 38.4596 43.5855 38.424 43.4637 38.4134H43.4617Z" fill="white"/>
<defs>
<linearGradient id="paint0_linear_944_24108" x1="24.3865" y1="-0.53175" x2="24.3865" y2="50.191" gradientUnits="userSpaceOnUse">
<stop stop-color="#FD7800"/>
<stop offset="1" stop-color="#FFC900"/>
</linearGradient>
</defs>
</svg>
