<svg width="36" height="56" viewBox="0 0 36 56" fill="none" xmlns="http://www.w3.org/2000/svg">
<g clip-path="url(#clip0_1368_19358)">
<mask id="mask0_1368_19358" style="mask-type:luminance" maskUnits="userSpaceOnUse" x="-9" y="1" width="54" height="54">
<path d="M44.842 1.12012H-8.91797V54.8801H44.842V1.12012Z" fill="white"/>
</mask>
<g mask="url(#mask0_1368_19358)">
<path d="M7.88367 12.3201H28.0437C28.6619 12.3201 29.1637 11.8184 29.1637 11.2001V8.96012C29.1637 7.10764 27.6562 5.60012 25.8037 5.60012H22.4437C22.4437 3.1294 20.4344 1.12012 17.9637 1.12012C15.493 1.12012 13.4837 3.1294 13.4837 5.60012H10.1237C8.27119 5.60012 6.76367 7.10764 6.76367 8.96012V11.2001C6.76367 11.8184 7.26543 12.3201 7.88367 12.3201Z" fill="url(#paint0_linear_1368_19358)"/>
<path d="M32.523 7.83984H31.2887C31.3626 8.20272 31.403 8.5768 31.403 8.95984V11.1998C31.403 13.0523 29.8954 14.5598 28.043 14.5598H7.88297C6.03049 14.5598 4.52297 13.0523 4.52297 11.1998V8.95984C4.52297 8.5768 4.56329 8.20272 4.63721 7.83984H3.40297C1.55049 7.83984 0.0429688 9.34736 0.0429688 11.1998V51.5198C0.0429688 53.3723 1.55049 54.8798 3.40297 54.8798H32.523C34.3755 54.8798 35.883 53.3723 35.883 51.5198V11.1998C35.883 9.34736 34.3755 7.83984 32.523 7.83984ZM7.88297 43.6798C7.26473 43.6798 6.76297 43.1781 6.76297 42.5598C6.76297 41.9416 7.26473 41.4398 7.88297 41.4398C8.50121 41.4398 9.00297 41.9416 9.00297 42.5598C9.00297 43.1781 8.50121 43.6798 7.88297 43.6798ZM7.88297 36.9598C7.26473 36.9598 6.76297 36.4581 6.76297 35.8398C6.76297 35.2216 7.26473 34.7198 7.88297 34.7198C8.50121 34.7198 9.00297 35.2216 9.00297 35.8398C9.00297 36.4581 8.50121 36.9598 7.88297 36.9598ZM7.88297 30.2398C7.26473 30.2398 6.76297 29.7381 6.76297 29.1198C6.76297 28.5016 7.26473 27.9998 7.88297 27.9998C8.50121 27.9998 9.00297 28.5016 9.00297 29.1198C9.00297 29.7381 8.50121 30.2398 7.88297 30.2398ZM7.88297 23.5198C7.26473 23.5198 6.76297 23.0181 6.76297 22.3998C6.76297 21.7816 7.26473 21.2798 7.88297 21.2798C8.50121 21.2798 9.00297 21.7816 9.00297 22.3998C9.00297 23.0181 8.50121 23.5198 7.88297 23.5198ZM28.043 43.6798H12.363C11.7447 43.6798 11.243 43.1781 11.243 42.5598C11.243 41.9416 11.7447 41.4398 12.363 41.4398H28.043C28.6612 41.4398 29.163 41.9416 29.163 42.5598C29.163 43.1781 28.6612 43.6798 28.043 43.6798ZM28.043 36.9598H12.363C11.7447 36.9598 11.243 36.4581 11.243 35.8398C11.243 35.2216 11.7447 34.7198 12.363 34.7198H28.043C28.6612 34.7198 29.163 35.2216 29.163 35.8398C29.163 36.4581 28.6612 36.9598 28.043 36.9598ZM28.043 30.2398H12.363C11.7447 30.2398 11.243 29.7381 11.243 29.1198C11.243 28.5016 11.7447 27.9998 12.363 27.9998H28.043C28.6612 27.9998 29.163 28.5016 29.163 29.1198C29.163 29.7381 28.6612 30.2398 28.043 30.2398ZM28.043 23.5198H12.363C11.7447 23.5198 11.243 23.0181 11.243 22.3998C11.243 21.7816 11.7447 21.2798 12.363 21.2798H28.043C28.6612 21.2798 29.163 21.7816 29.163 22.3998C29.163 23.0181 28.6612 23.5198 28.043 23.5198Z" fill="url(#paint1_linear_1368_19358)"/>
</g>
</g>
<defs>
<linearGradient id="paint0_linear_1368_19358" x1="17.9637" y1="1.12012" x2="17.9637" y2="54.8801" gradientUnits="userSpaceOnUse">
<stop stop-color="#FD7800"/>
<stop offset="1" stop-color="#FFC900"/>
</linearGradient>
<linearGradient id="paint1_linear_1368_19358" x1="17.963" y1="1.11984" x2="17.963" y2="54.8798" gradientUnits="userSpaceOnUse">
<stop stop-color="#FD7800"/>
<stop offset="1" stop-color="#FFC900"/>
</linearGradient>
<clipPath id="clip0_1368_19358">
<rect width="36" height="56" fill="white"/>
</clipPath>
</defs>
</svg>
