<svg width="56" height="56" viewBox="0 0 56 56" fill="none" xmlns="http://www.w3.org/2000/svg">
<path d="M37.6929 5.8086H11.0769C10.0797 5.8086 9.12331 6.20474 8.41817 6.90987C7.71304 7.61501 7.31689 8.57138 7.31689 9.5686V37.6326L20.9601 50.191H37.6961C38.6933 50.191 39.6497 49.7949 40.3548 49.0897C41.06 48.3846 41.4561 47.4282 41.4561 46.431V9.571C41.4564 9.07675 41.3593 8.5873 41.1703 8.13063C40.9813 7.67396 40.7041 7.25903 40.3545 6.90959C40.005 6.56015 39.59 6.28304 39.1333 6.09412C38.6766 5.9052 38.1871 5.80817 37.6929 5.8086Z" fill="url(#paint0_linear_944_24246)"/>
<path d="M24.2613 28.3009C28.3177 28.3009 31.6061 25.0126 31.6061 20.9561C31.6061 16.8997 28.3177 13.6113 24.2613 13.6113C20.2049 13.6113 16.9165 16.8997 16.9165 20.9561C16.9165 25.0126 20.2049 28.3009 24.2613 28.3009Z" fill="white"/>
<path d="M22.1665 18.7295C22.1665 18.5073 22.2864 18.2778 22.5086 18.2778C22.6287 18.2778 22.7466 18.3099 22.8506 18.3708L26.4977 20.7746C26.6857 20.8987 26.6857 21.1014 26.4977 21.2255L22.8506 23.6293C22.7466 23.6902 22.6287 23.7223 22.5086 23.7223C22.2864 23.7223 22.1665 23.4928 22.1665 23.2706V18.7295Z" fill="#FD8600"/>
<path d="M17.8049 35.3599H9.59131L23.2321 47.9151V40.8503C23.2321 37.8175 20.8001 35.3599 17.8049 35.3599Z" fill="white"/>
<defs>
<linearGradient id="paint0_linear_944_24246" x1="24.3865" y1="-0.53175" x2="24.3865" y2="50.191" gradientUnits="userSpaceOnUse">
<stop stop-color="#FD7800"/>
<stop offset="1" stop-color="#FFC900"/>
</linearGradient>
</defs>
</svg>
