<svg width="24" height="24" viewBox="0 0 24 24" fill="none" xmlns="http://www.w3.org/2000/svg">
<path d="M10 24C12.2091 24 14 22.2091 14 20C14 17.7909 12.2091 16 10 16C7.79086 16 6 17.7909 6 20C6 22.2091 7.79086 24 10 24Z" fill="#CE2786"/>
<path d="M17.008 11.921C13.618 11.437 11 8.522 11 5C11 4 11.214 3.051 11.593 2.19C11.0711 2.06554 10.5365 2.00178 9.99999 2C6.13999 2 2.99999 5.14 2.99999 9V11.788C3.00037 12.766 2.78682 13.7322 2.3743 14.6189C1.96178 15.5056 1.36029 16.2913 0.611988 16.921C0.341548 17.1541 0.148792 17.4643 0.0595338 17.81C-0.0297245 18.1557 -0.0112235 18.5205 0.112559 18.8554C0.236342 19.1903 0.459496 19.4794 0.752138 19.684C1.04478 19.8885 1.39294 19.9988 1.74999 20H18.25C18.6083 19.9989 18.9576 19.888 19.2509 19.6822C19.5442 19.4764 19.7673 19.1857 19.8902 18.8491C20.0132 18.5126 20.03 18.1465 19.9384 17.8001C19.8468 17.4537 19.6512 17.1438 19.378 16.912C18.6505 16.2966 18.0628 15.5331 17.6541 14.6724C17.2454 13.8117 17.0251 12.8737 17.008 11.921Z" fill="#FFC107"/>
<path d="M18 10C20.7614 10 23 7.76142 23 5C23 2.23858 20.7614 0 18 0C15.2386 0 13 2.23858 13 5C13 7.76142 15.2386 10 18 10Z" fill="#CE2786"/>
</svg>
