<svg width="56" height="56" viewBox="0 0 56 56" fill="none" xmlns="http://www.w3.org/2000/svg">
<g clip-path="url(#clip0_1229_17794)">
<path d="M20.8906 47.7969V52.1719C20.8906 54.2861 22.6045 56 24.7188 56H31.2812C33.3955 56 35.1094 54.2861 35.1094 52.1719V47.7969H20.8906Z" fill="#1A2049"/>
<path d="M28 56H31.2812C33.3955 56 35.1094 54.2861 35.1094 52.1719V47.7969H28V56Z" fill="#002C3C"/>
<path d="M54.3594 19.6875H51.0781C50.1721 19.6875 49.4375 18.9529 49.4375 18.0469C49.4375 17.1408 50.1721 16.4062 51.0781 16.4062H54.3594C55.2654 16.4062 56 17.1408 56 18.0469C56 18.9529 55.2654 19.6875 54.3594 19.6875Z" fill="#FFCD00"/>
<path d="M4.92188 19.6875H1.64062C0.734562 19.6875 0 18.9529 0 18.0469C0 17.1408 0.734562 16.4062 1.64062 16.4062H4.92188C5.82794 16.4062 6.5625 17.1408 6.5625 18.0469C6.5625 18.9529 5.82794 19.6875 4.92188 19.6875Z" fill="#DCFF61"/>
<path d="M48.1511 10.7523C47.8413 9.90077 48.2802 8.95938 49.1317 8.64941L52.215 7.52711C53.0664 7.21725 54.0078 7.65617 54.3178 8.50766C54.6277 9.35914 54.1887 10.3005 53.3373 10.6105L50.254 11.7328C49.4025 12.0427 48.461 11.6037 48.1511 10.7523Z" fill="#FFCD00"/>
<path d="M1.68238 27.5862C1.37252 26.7348 1.81145 25.7934 2.66293 25.4834L5.74621 24.3611C6.5977 24.0512 7.53909 24.4902 7.84906 25.3416C8.15892 26.1931 7.71999 27.1345 6.86851 27.4445L3.78523 28.5668C2.93374 28.8768 1.99235 28.4377 1.68238 27.5862Z" fill="#DCFF61"/>
<path d="M52.215 28.5668L49.1317 27.4445C48.2802 27.1346 47.8413 26.1931 48.1511 25.3416C48.461 24.4902 49.4025 24.0512 50.254 24.3611L53.3373 25.4834C54.1887 25.7933 54.6277 26.7348 54.3178 27.5862C54.0078 28.4377 53.0664 28.8768 52.215 28.5668Z" fill="#FFCD00"/>
<path d="M5.74632 11.7327L2.66293 10.6104C1.81145 10.3006 1.37252 9.35908 1.68238 8.50759C1.99235 7.65622 2.93374 7.21719 3.78523 7.52716L6.86851 8.64945C7.71999 8.95931 8.15892 9.90081 7.84906 10.7523C7.5392 11.6037 6.5977 12.0426 5.74632 11.7327Z" fill="#DCFF61"/>
<path d="M17.6094 44.5156C17.6094 47.2295 19.8173 49.4375 22.5312 49.4375H33.4688C36.1827 49.4375 38.3906 47.2295 38.3906 44.5156V39.9219L28 37.0781L17.6094 39.9219V44.5156Z" fill="#2B388F"/>
<path d="M33.4688 49.4375C36.1827 49.4375 38.3906 47.2295 38.3906 44.5156V39.9219L28 37.0781V49.4375H33.4688Z" fill="#2B388F"/>
<path d="M46.0469 18.0469C46.0469 8.09583 37.951 0 28 0C18.049 0 9.95312 8.09583 9.95312 18.0469C9.95312 22.1339 11.3628 26.1379 13.9223 29.3214C16.2999 32.2783 17.6094 36.043 17.6094 39.9219H38.3906C38.3906 36.043 39.7001 32.2783 42.0778 29.3214C44.6372 26.1379 46.0469 22.1339 46.0469 18.0469Z" fill="#DCFF61"/>
<path d="M38.3906 39.9219C38.3906 36.043 39.7001 32.2783 42.0778 29.3214C44.6372 26.1379 46.0469 22.1339 46.0469 18.0469C46.0469 8.09583 37.951 0 28 0V39.9219H38.3906Z" fill="#FFCD00"/>
<path d="M28 9.33301C24.1402 9.33301 21 12.4732 21 16.333C21 17.6216 22.0447 18.6663 23.3333 18.6663C24.622 18.6663 25.6667 17.6216 25.6667 16.333C25.6667 15.0464 26.7134 13.9997 28 13.9997C29.2866 13.9997 30.3333 15.0464 30.3333 16.333C30.3333 17.1585 29.8898 17.931 29.176 18.3492C26.9786 19.6364 25.6667 21.816 25.6667 24.1795V25.6663C25.6667 26.955 26.7114 27.9997 28 27.9997C29.2886 27.9997 30.3333 26.955 30.3333 25.6663V24.1797C30.3333 23.1868 31.1735 22.5876 31.5348 22.3759C33.6722 21.1238 35 18.8084 35 16.333C35 12.4732 31.8598 9.33301 28 9.33301Z" fill="#2B388F"/>
<path d="M30.3333 16.333C30.3333 17.1585 29.8898 17.931 29.176 18.3492C28.7582 18.5937 28.3644 18.8772 28 19.1959V27.9997C29.2886 27.9997 30.3333 26.955 30.3333 25.6663V24.1797C30.3333 23.1868 31.1735 22.5876 31.5348 22.3759C33.6722 21.1238 35 18.8084 35 16.333C35 12.4732 31.8598 9.33301 28 9.33301V13.9997C29.2866 13.9997 30.3333 15.0464 30.3333 16.333Z" fill="#2B388F"/>
<path d="M27.9997 34.9997C26.711 34.9997 25.6663 33.955 25.6663 32.6663C25.6663 31.3777 26.711 30.333 27.9997 30.333C29.2883 30.333 30.333 31.3777 30.333 32.6663C30.333 33.955 29.2883 34.9997 27.9997 34.9997Z" fill="#2B388F"/>
<path d="M25.6667 32.6663C25.6667 31.3777 26.7114 30.333 28 30.333V34.9997C26.7114 34.9997 25.6667 33.955 25.6667 32.6663Z" fill="#2B388F"/>
<path d="M39.38 55.76C45.665 55.76 50.76 50.665 50.76 44.38C50.76 38.095 45.665 33 39.38 33C33.095 33 28 38.095 28 44.38C28 50.665 33.095 55.76 39.38 55.76Z" fill="white"/>
<path d="M39.3793 53.4803C44.4051 53.4803 48.4793 49.4061 48.4793 44.3803C48.4793 39.3545 44.4051 35.2803 39.3793 35.2803C34.3535 35.2803 30.2793 39.3545 30.2793 44.3803C30.2793 49.4061 34.3535 53.4803 39.3793 53.4803Z" fill="#C62F8F"/>
<path d="M43.0892 43.9818H39.889V41.06C39.8955 40.9977 39.8876 40.9349 39.866 40.8755C39.8443 40.8162 39.8093 40.7616 39.7632 40.7153C39.7171 40.669 39.6609 40.632 39.5983 40.6067C39.5356 40.5814 39.4678 40.5684 39.3993 40.5684C39.3308 40.5684 39.263 40.5814 39.2003 40.6067C39.1377 40.632 39.0815 40.669 39.0354 40.7153C38.9893 40.7616 38.9543 40.8162 38.9326 40.8755C38.911 40.9349 38.9031 40.9977 38.9096 41.06V43.9818H35.7089C35.5871 43.9924 35.474 44.0441 35.3916 44.1267C35.3093 44.2094 35.2637 44.3171 35.2637 44.4289C35.2637 44.5406 35.3093 44.6483 35.3916 44.731C35.474 44.8137 35.5871 44.8654 35.7089 44.8759H38.9116V47.7982C38.9232 47.9094 38.9798 48.0127 39.0703 48.0879C39.1609 48.1631 39.2789 48.2047 39.4013 48.2047C39.5237 48.2047 39.6416 48.1631 39.7322 48.0879C39.8227 48.0127 39.8793 47.9094 39.8909 47.7982V44.8759H41.491H43.0911C43.213 44.8654 43.3261 44.8137 43.4084 44.731C43.4908 44.6483 43.5364 44.5406 43.5364 44.4289C43.5364 44.3171 43.4967 44.2197 43.4084 44.1267C43.3146 44.0279 43.213 43.9924 43.0911 43.9818H43.0892Z" fill="white"/>
</g>
<defs>
<clipPath id="clip0_1229_17794">
<rect width="56" height="56" fill="white"/>
</clipPath>
</defs>
</svg>
