<svg width="48" height="48" viewBox="0 0 48 48" fill="none" xmlns="http://www.w3.org/2000/svg">
<g clip-path="url(#clip0_347_19083)">
<mask id="mask0_347_19083" style="mask-type:luminance" maskUnits="userSpaceOnUse" x="0" y="0" width="48" height="48">
<path d="M48 0H0V48H48V0Z" fill="white"/>
</mask>
<g mask="url(#mask0_347_19083)">
<path d="M35.4739 35.8119H9.8426C7.45154 35.8119 5.51318 33.8735 5.51318 31.4825C5.51318 29.0914 7.45154 27.1531 9.8426 27.1531H35.4739V35.8119Z" fill="url(#paint0_linear_347_19083)"/>
<path d="M5.74989 30.0706C5.59723 30.5132 5.51318 30.9878 5.51318 31.4823C5.51318 33.8734 7.45154 35.8117 9.8426 35.8117H35.4739V30.0706H5.74989Z" fill="url(#paint1_linear_347_19083)"/>
<path d="M5.56299 32.1411C5.88035 34.2195 7.67555 35.8117 9.84261 35.8117H35.474V32.1411H5.56299Z" fill="url(#paint2_linear_347_19083)"/>
<path d="M36.7604 36.9881H9.8428C6.80684 36.9881 4.33691 34.5182 4.33691 31.4822C4.33691 28.4463 6.80684 25.9763 9.8428 25.9763H36.7604C37.4101 25.9763 37.9369 26.503 37.9369 27.1528C37.9369 27.8026 37.4101 28.3293 36.7604 28.3293H9.8428C8.10426 28.3293 6.68986 29.7437 6.68986 31.4822C6.68986 33.2208 8.10426 34.6352 9.8428 34.6352H36.7604C37.4101 34.6352 37.9369 35.1618 37.9369 35.8116C37.9369 36.4614 37.4101 36.9881 36.7604 36.9881Z" fill="url(#paint3_linear_347_19083)"/>
<path d="M4.33927 31.3882C4.3387 31.4196 4.33691 31.4508 4.33691 31.4823C4.33691 34.5183 6.80684 36.9882 9.8428 36.9882H36.7604C37.4101 36.9882 37.9369 36.4615 37.9369 35.8117C37.9369 35.1619 37.4101 34.6352 36.7604 34.6352H9.8428C8.10426 34.6352 6.68986 33.2208 6.68986 31.4823C6.68986 31.4508 6.69127 31.4195 6.69221 31.3882H4.33927Z" fill="url(#paint4_linear_347_19083)"/>
<path d="M41.2 46.8236H15.5687C13.1776 46.8236 11.2393 44.8852 11.2393 42.4942C11.2393 40.1031 13.1776 38.1648 15.5687 38.1648H41.2V46.8236Z" fill="url(#paint5_linear_347_19083)"/>
<path d="M11.476 41.0823C11.3233 41.5249 11.2393 41.9995 11.2393 42.494C11.2393 44.8851 13.1776 46.8235 15.5687 46.8235H41.2V41.0823H11.476Z" fill="url(#paint6_linear_347_19083)"/>
<path d="M11.2891 43.1528C11.6063 45.2312 13.4015 46.8234 15.5687 46.8234H41.2V43.1528H11.2891Z" fill="url(#paint7_linear_347_19083)"/>
<path d="M19.5296 41.0823L16.0581 44.146L18.7356 46.8235H25.2708L19.5296 41.0823Z" fill="url(#paint8_linear_347_19083)"/>
<path d="M17.9827 43.2378L18.833 44.0881C19.09 44.3451 19.5295 44.1631 19.5295 43.7996V41.0823H16.0724C15.9545 41.0823 15.8589 41.1779 15.8589 41.2958V43.7996C15.8589 44.1631 16.2983 44.3451 16.5554 44.0881L17.4057 43.2378C17.5651 43.0784 17.8234 43.0784 17.9827 43.2378Z" fill="url(#paint9_linear_347_19083)"/>
<path d="M42.4865 48H15.5689C12.5329 48 10.063 45.5301 10.063 42.4941C10.063 39.4582 12.5329 36.9883 15.5689 36.9883H42.4865C43.1362 36.9883 43.663 37.5149 43.663 38.1647C43.663 38.8145 43.1362 39.3412 42.4865 39.3412H15.5689C13.8303 39.3412 12.4159 40.7556 12.4159 42.4941C12.4159 44.2327 13.8303 45.6471 15.5689 45.6471H42.4865C43.1362 45.6471 43.663 46.1738 43.663 46.8236C43.663 47.4733 43.1362 48 42.4865 48Z" fill="url(#paint10_linear_347_19083)"/>
<path d="M10.0653 42.3999C10.0648 42.4313 10.063 42.4625 10.063 42.494C10.063 45.53 12.5329 47.9999 15.5689 47.9999H42.4865C43.1362 47.9999 43.663 47.4732 43.663 46.8234C43.663 46.1736 43.1362 45.647 42.4865 45.647H15.5689C13.8303 45.647 12.4159 44.2326 12.4159 42.494C12.4159 42.4625 12.4174 42.4312 12.4183 42.3999H10.0653Z" fill="url(#paint11_linear_347_19083)"/>
<path d="M35.1475 7.74667C33.8678 6.14103 32.0544 5.20277 30.0414 5.1046C29.923 5.09886 29.8031 5.09595 29.6851 5.09595C28.6499 5.09595 27.6467 5.31524 26.7294 5.73124C25.9216 6.09764 25.0451 6.28776 24.1581 6.28776H23.8416C22.9546 6.28776 22.0781 6.09764 21.2701 5.73124C20.353 5.31524 19.3499 5.09595 18.3148 5.09595C18.1967 5.09595 18.0767 5.09886 17.9584 5.1046C15.9454 5.20277 14.1322 6.14103 12.8525 7.74658C11.4707 9.48032 10.9053 11.7494 11.3014 13.9722C11.4013 14.5331 12.418 17.0732 13.3089 19.2367C14.0573 21.0539 15.0601 22.7532 16.2861 24.2845C16.6934 24.7932 17.2119 25.2017 17.7951 25.4923C18.9295 26.0575 20.2465 26.131 21.4367 25.6956L22.4155 25.3376C23.4387 24.9633 24.5614 24.9633 25.5847 25.3376L26.5634 25.6956C27.7536 26.131 29.0706 26.0575 30.205 25.4923C30.7883 25.2017 31.3068 24.7932 31.714 24.2845C32.9401 22.7531 33.9429 21.0539 34.6912 19.2366C35.5821 17.0731 36.5988 14.533 36.6987 13.9721C37.0946 11.7495 36.5293 9.48032 35.1475 7.74667Z" fill="url(#paint12_linear_347_19083)"/>
<path d="M35.1476 7.74667C33.8679 6.14103 32.0545 5.20277 30.0415 5.1046C29.9231 5.09886 29.8032 5.09595 29.6852 5.09595C28.65 5.09595 27.6468 5.31524 26.7295 5.73124C25.9217 6.09764 25.0452 6.28776 24.1582 6.28776H23.8417C22.9547 6.28776 22.0782 6.09764 21.2703 5.73124C20.3531 5.31524 19.35 5.09595 18.3149 5.09595C18.2049 5.09595 18.0933 5.09905 17.9829 5.10404V5.97971L33.561 21.5577C33.985 20.8095 34.3627 20.0345 34.6911 19.2366C35.5821 17.0731 36.5987 14.533 36.6986 13.9721C37.0947 11.7495 36.5294 9.48032 35.1476 7.74667Z" fill="url(#paint13_linear_347_19083)"/>
<path d="M12.7554 17.8822C12.9392 18.336 13.1266 18.7941 13.3088 19.2365C14.0571 21.0538 15.0599 22.7531 16.286 24.2844C16.6933 24.7931 17.2117 25.2015 17.795 25.4922C18.9294 26.0573 20.2464 26.1309 21.4366 25.6955L22.4153 25.3374C23.4386 24.9631 24.5613 24.9631 25.5845 25.3374L26.5633 25.6955C27.7535 26.1309 29.0705 26.0573 30.2049 25.4922C30.7881 25.2015 31.3066 24.7931 31.7139 24.2844C32.9399 22.753 33.9428 21.0537 34.6911 19.2365C34.8733 18.794 35.0607 18.3359 35.2445 17.8821L12.7554 17.8822Z" fill="url(#paint14_linear_347_19083)"/>
<path d="M23.9997 9.09817C26.8066 9.09817 29.0821 7.45479 29.0821 5.42759C29.0821 5.32556 29.0748 5.22486 29.0636 5.125C28.2492 5.19493 27.4616 5.39926 26.7293 5.7314C25.9215 6.0978 25.045 6.28792 24.158 6.28792H23.8415C22.9545 6.28792 22.078 6.0978 21.27 5.7314C20.5378 5.39935 19.7503 5.19493 18.936 5.12509C18.9247 5.22495 18.9175 5.32566 18.9175 5.42768C18.9174 7.45479 21.1929 9.09817 23.9997 9.09817Z" fill="url(#paint15_linear_347_19083)"/>
<path d="M22.259 1.70348C23.4788 2.92325 24.0323 4.59176 23.9555 6.34348C23.9238 7.0664 23.3456 7.64456 22.6228 7.67619C20.8711 7.75299 19.2025 7.19939 17.9828 5.97972C16.7631 4.76005 16.2095 3.09143 16.2863 1.33972C16.318 0.616798 16.8962 0.0386337 17.619 0.0070102C19.3707 -0.0697898 21.0392 0.483716 22.259 1.70348Z" fill="url(#paint16_linear_347_19083)"/>
<path d="M22.6228 7.67633C20.8711 7.75313 19.2025 7.19953 17.9828 5.97986C16.7631 4.76019 16.2095 3.09167 16.2863 1.33986C16.3021 0.978354 16.4546 0.653177 16.6935 0.414307L23.5483 7.26918C23.3095 7.50805 22.9842 7.66052 22.6228 7.67633Z" fill="url(#paint17_linear_347_19083)"/>
<path d="M27.6255 1.25917C26.9676 1.78153 25.5069 3.41447 24.866 6.24647C24.6768 7.08412 24.5591 8.02623 24.5554 9.07659C24.3728 9.09071 24.1874 9.09823 24.0001 9.09823C23.6725 9.09823 23.3516 9.07565 23.041 9.03235C23.0787 8.02623 23.2001 7.10576 23.3789 6.27C24.0848 2.97965 25.698 0.988114 26.7474 0.15329C27.0523 -0.0885923 27.4965 -0.0387101 27.7394 0.267172C27.9822 0.572114 27.9314 1.01635 27.6255 1.25917Z" fill="url(#paint18_linear_347_19083)"/>
</g>
</g>
<defs>
<linearGradient id="paint0_linear_347_19083" x1="20.4238" y1="29.6644" x2="23.9375" y2="37.0056" gradientUnits="userSpaceOnUse">
<stop stop-color="#E6EEFF"/>
<stop offset="1" stop-color="#BAC8FA"/>
</linearGradient>
<linearGradient id="paint1_linear_347_19083" x1="21.1054" y1="30.9333" x2="22.7367" y2="24.4079" gradientUnits="userSpaceOnUse">
<stop stop-color="#A7B7F1" stop-opacity="0"/>
<stop offset="1" stop-color="#A7B7F1"/>
</linearGradient>
<linearGradient id="paint2_linear_347_19083" x1="20.506" y1="34.1168" x2="20.8824" y2="29.9129" gradientUnits="userSpaceOnUse">
<stop stop-color="#A7B7F1" stop-opacity="0"/>
<stop offset="1" stop-color="#A7B7F1"/>
</linearGradient>
<linearGradient id="paint3_linear_347_19083" x1="4.33691" y1="31.4822" x2="37.9369" y2="31.4822" gradientUnits="userSpaceOnUse">
<stop stop-color="#FEE45A"/>
<stop offset="1" stop-color="#FEA613"/>
</linearGradient>
<linearGradient id="paint4_linear_347_19083" x1="21.1369" y1="34.3999" x2="21.1369" y2="37.0352" gradientUnits="userSpaceOnUse">
<stop stop-color="#FE7701" stop-opacity="0"/>
<stop offset="0.1854" stop-color="#F87204" stop-opacity="0.185"/>
<stop offset="0.4314" stop-color="#E7630C" stop-opacity="0.431"/>
<stop offset="0.7114" stop-color="#CB4B19" stop-opacity="0.711"/>
<stop offset="1" stop-color="#A72B2B"/>
</linearGradient>
<linearGradient id="paint5_linear_347_19083" x1="26.1498" y1="40.6761" x2="29.6635" y2="48.0173" gradientUnits="userSpaceOnUse">
<stop stop-color="#E6EEFF"/>
<stop offset="1" stop-color="#BAC8FA"/>
</linearGradient>
<linearGradient id="paint6_linear_347_19083" x1="26.8314" y1="41.9451" x2="28.4628" y2="35.4196" gradientUnits="userSpaceOnUse">
<stop stop-color="#A7B7F1" stop-opacity="0"/>
<stop offset="1" stop-color="#A7B7F1"/>
</linearGradient>
<linearGradient id="paint7_linear_347_19083" x1="26.232" y1="45.1285" x2="26.6085" y2="40.9246" gradientUnits="userSpaceOnUse">
<stop stop-color="#A7B7F1" stop-opacity="0"/>
<stop offset="1" stop-color="#A7B7F1"/>
</linearGradient>
<linearGradient id="paint8_linear_347_19083" x1="22.3259" y1="47.1254" x2="17.4945" y2="42.3254" gradientUnits="userSpaceOnUse">
<stop stop-color="#A7B7F1" stop-opacity="0"/>
<stop offset="1" stop-color="#A7B7F1"/>
</linearGradient>
<linearGradient id="paint9_linear_347_19083" x1="16.9363" y1="41.7682" x2="19.1516" y2="43.9835" gradientUnits="userSpaceOnUse">
<stop stop-color="#FE93BB"/>
<stop offset="1" stop-color="#FE0364"/>
</linearGradient>
<linearGradient id="paint10_linear_347_19083" x1="10.063" y1="42.4941" x2="43.663" y2="42.4941" gradientUnits="userSpaceOnUse">
<stop stop-color="#09A76D"/>
<stop offset="1" stop-color="#026841"/>
</linearGradient>
<linearGradient id="paint11_linear_347_19083" x1="26.863" y1="45.4117" x2="26.863" y2="48.047" gradientUnits="userSpaceOnUse">
<stop stop-color="#026841" stop-opacity="0"/>
<stop offset="1" stop-color="#433F43"/>
</linearGradient>
<linearGradient id="paint12_linear_347_19083" x1="19.6448" y1="9.92879" x2="31.8705" y2="22.1545" gradientUnits="userSpaceOnUse">
<stop stop-color="#FD4755"/>
<stop offset="1" stop-color="#A72B2B"/>
</linearGradient>
<linearGradient id="paint13_linear_347_19083" x1="29.7328" y1="10.7745" x2="18.5014" y2="1.61378" gradientUnits="userSpaceOnUse">
<stop stop-color="#A72B2B" stop-opacity="0"/>
<stop offset="1" stop-color="#42210B"/>
</linearGradient>
<linearGradient id="paint14_linear_347_19083" x1="23.9999" y1="20.4704" x2="23.9999" y2="26.8732" gradientUnits="userSpaceOnUse">
<stop stop-color="#A72B2B" stop-opacity="0"/>
<stop offset="1" stop-color="#42210B"/>
</linearGradient>
<linearGradient id="paint15_linear_347_19083" x1="23.9997" y1="6.7138" x2="23.9997" y2="11.5489" gradientUnits="userSpaceOnUse">
<stop stop-color="#A72B2B" stop-opacity="0"/>
<stop offset="1" stop-color="#42210B"/>
</linearGradient>
<linearGradient id="paint16_linear_347_19083" x1="22.7228" y1="1.22423" x2="17.0818" y2="6.86525" gradientUnits="userSpaceOnUse">
<stop stop-color="#CCFC5C"/>
<stop offset="0.1591" stop-color="#C6F95A"/>
<stop offset="0.3653" stop-color="#B6F053"/>
<stop offset="0.5975" stop-color="#9BE248"/>
<stop offset="0.8469" stop-color="#76CF38"/>
<stop offset="1" stop-color="#5CC12D"/>
</linearGradient>
<linearGradient id="paint17_linear_347_19083" x1="17.7691" y1="5.22576" x2="22.9327" y2="2.23287" gradientUnits="userSpaceOnUse">
<stop stop-color="#026841" stop-opacity="0"/>
<stop offset="1" stop-color="#006E66"/>
</linearGradient>
<linearGradient id="paint18_linear_347_19083" x1="24.069" y1="3.32525" x2="27.2148" y2="6.47103" gradientUnits="userSpaceOnUse">
<stop stop-color="#5A5A5A"/>
<stop offset="1" stop-color="#444444"/>
</linearGradient>
<clipPath id="clip0_347_19083">
<rect width="48" height="48" fill="white"/>
</clipPath>
</defs>
</svg>
