<svg width="48" height="48" viewBox="0 0 48 48" fill="none" xmlns="http://www.w3.org/2000/svg">
<g clip-path="url(#clip0_347_19074)">
<mask id="mask0_347_19074" style="mask-type:luminance" maskUnits="userSpaceOnUse" x="0" y="0" width="48" height="48">
<path d="M48 0H0V48H48V0Z" fill="white"/>
</mask>
<g mask="url(#mask0_347_19074)">
<path d="M46.3662 19.5004L39.9692 9.67315C39.6575 9.19428 39.1608 8.86628 38.598 8.76774L35.2166 8.17536C27.9804 6.90769 20.5789 6.90769 13.3427 8.17536L9.96136 8.76774C9.39854 8.86637 8.90188 9.19428 8.59016 9.67315L2.19298 19.5004C1.70696 20.247 1.7559 21.2215 2.31421 21.9157L22.674 47.2306C23.4988 48.2561 25.0604 48.2561 25.8851 47.2306L46.2449 21.9156C46.8032 21.2214 46.8522 20.247 46.3662 19.5004Z" fill="url(#paint0_linear_347_19074)"/>
<path d="M46.3654 19.5004L39.9683 9.67306C39.6566 9.19419 39.16 8.86637 38.5972 8.76774L35.2157 8.17536C27.9795 6.90769 20.578 6.90769 13.3418 8.17536L9.96038 8.76774C9.39756 8.86637 8.90109 9.19428 8.58928 9.67306L2.1922 19.5004C1.94457 19.8809 1.83662 20.3204 1.86335 20.7519H46.6942C46.721 20.3204 46.613 19.8809 46.3654 19.5004Z" fill="url(#paint1_linear_347_19074)"/>
<path d="M39.4661 9.1427C39.2118 8.95466 38.9164 8.82355 38.5983 8.76774L35.2169 8.17536C27.9806 6.90769 20.5791 6.90769 13.343 8.17536L9.96151 8.76774C9.64349 8.82346 9.34815 8.95456 9.09375 9.1427L9.86391 20.752L23.6002 47.8844C24.0394 48.037 24.5205 48.037 24.9597 47.8844L38.6959 20.752L39.4661 9.1427Z" fill="url(#paint2_linear_347_19074)"/>
<path d="M9.86719 20.752L23.6035 47.8844C24.0427 48.037 24.5238 48.037 24.963 47.8844L38.6993 20.752C38.6993 20.752 26.5868 7.22461 24.2832 7.22461C21.9797 7.2247 9.86719 20.752 9.86719 20.752Z" fill="url(#paint3_linear_347_19074)"/>
<path d="M9.86224 20.7516L23.5986 47.8834C23.2485 47.7631 22.9263 47.5455 22.6727 47.2304L2.31297 21.9157C1.99608 21.5217 1.84436 21.0375 1.86055 20.5557C1.85838 20.621 1.85932 20.6863 1.86337 20.7515L9.86224 20.7516Z" fill="url(#paint4_linear_347_19074)"/>
<path d="M38.6973 20.7516L24.9609 47.8833C25.3111 47.763 25.6332 47.5454 25.8869 47.2303L46.2466 21.9157C46.5635 21.5217 46.7152 21.0375 46.699 20.5557C46.7012 20.621 46.7002 20.6863 46.6962 20.7515L38.6973 20.7516Z" fill="url(#paint5_linear_347_19074)"/>
<path d="M24.2801 7.22461C21.9769 7.22461 9.86363 20.7518 9.86363 20.7518L9.09375 9.14339C9.34787 8.9544 9.64321 8.82414 9.96142 8.76767L13.343 8.17586C16.961 7.54169 20.6206 7.22461 24.2801 7.22461Z" fill="url(#paint6_linear_347_19074)"/>
<path d="M25.8867 47.2309L46.2465 21.9159C46.8048 21.2217 46.8538 20.2472 46.3677 19.5005L39.9708 9.67342C39.659 9.19455 39.1624 8.86664 38.5996 8.76801L35.2182 8.17563C31.6001 7.54175 27.9406 7.22485 24.2812 7.22485V48C24.8778 48 25.4744 47.7436 25.8867 47.2309Z" fill="url(#paint7_linear_347_19074)"/>
<path d="M41.3226 28.0412L20.6135 7.33203C20.6131 7.33203 20.6126 7.33213 20.6122 7.33213C20.3087 7.34973 20.0053 7.36949 19.7019 7.39151C19.7018 7.39151 19.7021 7.39151 19.7019 7.39151C19.1038 7.43481 18.5059 7.48676 17.909 7.547C17.8832 7.54963 17.8574 7.55236 17.8316 7.555C17.5681 7.58191 17.3047 7.61071 17.0413 7.64093C17.0035 7.64525 16.9658 7.64949 16.9279 7.65382C16.3614 7.71998 15.7955 7.79387 15.2305 7.87537C15.1633 7.88507 15.0961 7.89514 15.0289 7.90511C14.816 7.93655 14.6032 7.96902 14.3905 8.00271C14.3155 8.01457 14.2404 8.02624 14.1654 8.03838C13.8922 8.08253 13.6193 8.12789 13.3466 8.1757L12.5787 8.3102L12.0938 8.39518C12.2817 8.56497 12.4645 8.74041 12.6449 8.9182L12.621 8.92243C12.7453 9.03471 12.8672 9.14954 12.9882 9.2653C13.0458 9.32544 13.1024 9.38671 13.1592 9.4477L13.1482 9.44968C13.1831 9.48121 13.2167 9.51415 13.2513 9.54596C13.9208 10.276 14.5291 11.0631 15.0659 11.9007L36.8454 33.6083L41.3226 28.0412Z" fill="url(#paint8_linear_347_19074)"/>
<path d="M35.4352 35.3605L12.066 11.8948C11.9181 11.664 11.5757 11.664 11.4278 11.8948C10.77 12.9212 9.90047 13.7991 8.8807 14.4663C8.65435 14.6144 8.65435 14.9522 8.8807 15.1002L32.6625 38.808L35.4352 35.3605Z" fill="url(#paint9_linear_347_19074)"/>
<path d="M46.0637 22.1413L43.2425 25.6499L38.5732 20.9957L34.7171 17.1515C34.4901 17.0027 34.4901 16.665 34.7171 16.5174C35.7367 15.8506 36.6066 14.9721 37.2635 13.946C37.4123 13.7146 37.7543 13.7146 37.902 13.946L44.6791 20.7513L46.0637 22.1413Z" fill="url(#paint10_linear_347_19074)"/>
<path d="M21.4376 6.75725C19.398 8.09165 17.6589 9.8476 16.3432 11.9005C16.0473 12.3621 15.3626 12.3621 15.0666 11.9005C13.751 9.8476 12.012 8.09174 9.97234 6.75725C9.51964 6.46106 9.51964 5.78567 9.97234 5.48948C12.012 4.15508 13.751 2.39913 15.0666 0.346235C15.3625 -0.115412 16.0473 -0.115412 16.3432 0.346235C17.6588 2.39913 19.3979 4.15508 21.4376 5.48948C21.8903 5.78567 21.8903 6.46096 21.4376 6.75725Z" fill="url(#paint11_linear_347_19074)"/>
<path d="M14.6132 15.1001C13.5935 15.7673 12.7239 16.6454 12.066 17.6718C11.9181 17.9026 11.5757 17.9026 11.4278 17.6718C10.77 16.6454 9.90047 15.7674 8.8807 15.1002C8.65435 14.9521 8.65435 14.6145 8.8807 14.4663C9.90047 13.7991 10.77 12.9212 11.4278 11.8948C11.5758 11.664 11.9182 11.664 12.066 11.8948C12.7239 12.9212 13.5935 13.7991 14.6132 14.4663C14.8396 14.6143 14.8396 14.952 14.6132 15.1001Z" fill="url(#paint12_linear_347_19074)"/>
<path d="M44.9023 26.7779C43.8825 27.4451 43.013 28.3231 42.3551 29.3495C42.2071 29.5803 41.8647 29.5803 41.7169 29.3495C41.0591 28.3231 40.1895 27.4452 39.1698 26.778C38.9434 26.6298 38.9434 26.2922 39.1698 26.1441C40.1895 25.4769 41.0591 24.5988 41.7169 23.5725C41.8648 23.3417 42.2072 23.3417 42.3551 23.5725C43.013 24.5989 43.8825 25.4769 44.9023 26.1441C45.1286 26.292 45.1286 26.6297 44.9023 26.7779Z" fill="url(#paint13_linear_347_19074)"/>
<path d="M7.19916 29.8394C6.17939 30.5066 5.30984 31.3846 4.65196 32.4111C4.504 32.6418 4.1616 32.6418 4.01375 32.4111C3.35596 31.3846 2.4864 30.5067 1.46664 29.8395C1.24029 29.6913 1.24029 29.3537 1.46664 29.2056C2.4864 28.5384 3.35596 27.6604 4.01375 26.634C4.1617 26.4032 4.5041 26.4032 4.65196 26.634C5.30984 27.6605 6.17939 28.5384 7.19916 29.2056C7.42551 29.3536 7.42551 29.6912 7.19916 29.8394Z" fill="url(#paint14_linear_347_19074)"/>
<path d="M40.4492 17.1519C39.4294 17.8191 38.5598 18.6971 37.902 19.7236C37.754 19.9543 37.4116 19.9543 37.2637 19.7236C36.606 18.6971 35.7364 17.8192 34.7166 17.152C34.4903 17.0038 34.4903 16.6662 34.7166 16.5181C35.7364 15.8509 36.606 14.973 37.2637 13.9465C37.4117 13.7157 37.7541 13.7157 37.902 13.9465C38.5598 14.973 39.4294 15.8509 40.4492 16.5181C40.6755 16.666 40.6755 17.0037 40.4492 17.1519Z" fill="url(#paint15_linear_347_19074)"/>
<path d="M46.6976 20.7119C46.6976 20.725 46.6976 20.738 46.6964 20.751H46.6953C46.6964 20.738 46.6976 20.725 46.6976 20.7119Z" fill="url(#paint16_linear_347_19074)"/>
</g>
</g>
<defs>
<linearGradient id="paint0_linear_347_19074" x1="16.095" y1="12.3598" x2="36.6176" y2="34.0226" gradientUnits="userSpaceOnUse">
<stop stop-color="#D4F7FF"/>
<stop offset="1" stop-color="#A2E3E9"/>
</linearGradient>
<linearGradient id="paint1_linear_347_19074" x1="22.1489" y1="9.97847" x2="26.4925" y2="31.588" gradientUnits="userSpaceOnUse">
<stop stop-color="#A2E3E9" stop-opacity="0"/>
<stop offset="1" stop-color="#518CD2"/>
</linearGradient>
<linearGradient id="paint2_linear_347_19074" x1="20.0875" y1="22.9256" x2="40.1769" y2="32.6988" gradientUnits="userSpaceOnUse">
<stop stop-color="#A2E3E9" stop-opacity="0"/>
<stop offset="1" stop-color="#518CD2"/>
</linearGradient>
<linearGradient id="paint3_linear_347_19074" x1="28.776" y1="25.2938" x2="46.4763" y2="15.955" gradientUnits="userSpaceOnUse">
<stop stop-color="#A2E3E9" stop-opacity="0"/>
<stop offset="1" stop-color="#518CD2"/>
</linearGradient>
<linearGradient id="paint4_linear_347_19074" x1="7.11429" y1="24.3343" x2="25.3109" y2="43.5418" gradientUnits="userSpaceOnUse">
<stop stop-color="#A2E3E9" stop-opacity="0"/>
<stop offset="1" stop-color="#518CD2"/>
</linearGradient>
<linearGradient id="paint5_linear_347_19074" x1="30.3237" y1="28.5463" x2="37.4906" y2="35.9305" gradientUnits="userSpaceOnUse">
<stop stop-color="#A2E3E9" stop-opacity="0"/>
<stop offset="1" stop-color="#518CD2"/>
</linearGradient>
<linearGradient id="paint6_linear_347_19074" x1="13.9008" y1="12.4455" x2="22.0237" y2="16.3972" gradientUnits="userSpaceOnUse">
<stop stop-color="#A2E3E9" stop-opacity="0"/>
<stop offset="1" stop-color="#518CD2"/>
</linearGradient>
<linearGradient id="paint7_linear_347_19074" x1="31.1717" y1="25.0724" x2="14.5573" y2="31.3706" gradientUnits="userSpaceOnUse">
<stop stop-color="#A2E3E9" stop-opacity="0"/>
<stop offset="1" stop-color="#518CD2"/>
</linearGradient>
<linearGradient id="paint8_linear_347_19074" x1="26.4161" y1="18.0087" x2="13.8196" y2="4.10916" gradientUnits="userSpaceOnUse">
<stop stop-color="#A2E3E9" stop-opacity="0"/>
<stop offset="1" stop-color="#518CD2"/>
</linearGradient>
<linearGradient id="paint9_linear_347_19074" x1="21.0216" y1="24.0453" x2="8.01153" y2="11.0351" gradientUnits="userSpaceOnUse">
<stop stop-color="#A2E3E9" stop-opacity="0"/>
<stop offset="1" stop-color="#518CD2"/>
</linearGradient>
<linearGradient id="paint10_linear_347_19074" x1="44.5045" y1="23.743" x2="36.9786" y2="16.2171" gradientUnits="userSpaceOnUse">
<stop stop-color="#A2E3E9" stop-opacity="0"/>
<stop offset="1" stop-color="#518CD2"/>
</linearGradient>
<linearGradient id="paint11_linear_347_19074" x1="9.7043" y1="-1.41819" x2="18.5286" y2="9.67188" gradientUnits="userSpaceOnUse">
<stop stop-color="#FFE548"/>
<stop offset="0.1758" stop-color="#FFDE50"/>
<stop offset="0.4446" stop-color="#FFCA65"/>
<stop offset="0.7709" stop-color="#FFAA87"/>
<stop offset="1" stop-color="#FF90A4"/>
</linearGradient>
<linearGradient id="paint12_linear_347_19074" x1="8.74658" y1="11.0124" x2="13.1587" y2="16.5574" gradientUnits="userSpaceOnUse">
<stop stop-color="#FFE548"/>
<stop offset="0.1758" stop-color="#FFDE50"/>
<stop offset="0.4446" stop-color="#FFCA65"/>
<stop offset="0.7709" stop-color="#FFAA87"/>
<stop offset="1" stop-color="#FF90A4"/>
</linearGradient>
<linearGradient id="paint13_linear_347_19074" x1="39.0356" y1="22.6901" x2="43.4477" y2="28.2352" gradientUnits="userSpaceOnUse">
<stop stop-color="#FFE548"/>
<stop offset="0.1758" stop-color="#FFDE50"/>
<stop offset="0.4446" stop-color="#FFCA65"/>
<stop offset="0.7709" stop-color="#FFAA87"/>
<stop offset="1" stop-color="#FF90A4"/>
</linearGradient>
<linearGradient id="paint14_linear_347_19074" x1="1.33252" y1="25.7518" x2="5.74466" y2="31.2967" gradientUnits="userSpaceOnUse">
<stop stop-color="#FFE548"/>
<stop offset="0.1758" stop-color="#FFDE50"/>
<stop offset="0.4446" stop-color="#FFCA65"/>
<stop offset="0.7709" stop-color="#FFAA87"/>
<stop offset="1" stop-color="#FF90A4"/>
</linearGradient>
<linearGradient id="paint15_linear_347_19074" x1="34.5825" y1="13.0642" x2="38.9947" y2="18.6092" gradientUnits="userSpaceOnUse">
<stop stop-color="#FFE548"/>
<stop offset="0.1758" stop-color="#FFDE50"/>
<stop offset="0.4446" stop-color="#FFCA65"/>
<stop offset="0.7709" stop-color="#FFAA87"/>
<stop offset="1" stop-color="#FF90A4"/>
</linearGradient>
<linearGradient id="paint16_linear_347_19074" x1="46.6868" y1="20.7215" x2="46.7061" y2="20.7415" gradientUnits="userSpaceOnUse">
<stop stop-color="#A2E3E9" stop-opacity="0"/>
<stop offset="1" stop-color="#518CD2"/>
</linearGradient>
<clipPath id="clip0_347_19074">
<rect width="48" height="48" fill="white"/>
</clipPath>
</defs>
</svg>
