<svg width="113" height="162" viewBox="0 0 113 162" fill="none" xmlns="http://www.w3.org/2000/svg">
<g clip-path="url(#clip0_944_24727)">
<path d="M35.7477 145.146C48.2893 145.146 58.4563 134.923 58.4563 122.312C58.4563 109.702 48.2893 99.479 35.7477 99.479C23.2061 99.479 13.0391 109.702 13.0391 122.312C13.0391 134.923 23.2061 145.146 35.7477 145.146Z" fill="#E9B420"/>
<path d="M35.6831 118.666L82.2513 118.686H83.5005L98.2455 132.759C98.2455 132.759 84.5881 147.807 59.4154 140.579C59.3978 140.582 41.6206 134.748 35.6831 118.666Z" fill="#CA5C28"/>
<path d="M41.9459 77.9502L83.0214 118.666L35.9908 118.645C35.9908 118.645 24.9065 98.0675 41.9459 77.9502Z" fill="#BF2B83"/>
<path d="M85.1715 93.5069C85.214 93.5069 85.2664 93.5312 85.2914 93.5587C86.1948 94.7836 86.1423 95.1674 84.8993 96.0983C84.3 96.5706 83.7893 97.1407 83.3885 97.7837C82.1811 99.6 81.5 101.638 80.7202 103.638C79.77 106.055 78.6618 108.41 77.402 110.686C77.0087 111.337 76.5342 111.937 75.9898 112.472C75.7807 112.667 75.6352 112.918 75.5728 113.194C75.5097 113.47 75.5322 113.759 75.6364 114.022C75.9367 114.915 76.1977 115.821 76.4736 116.721C76.3144 117.005 76.523 117.222 76.6253 117.444C76.7152 117.609 76.7427 117.799 76.7034 117.981C76.6641 118.163 76.5598 118.327 76.41 118.441C75.4573 119.372 74.4228 120.218 73.3178 120.97C70.9966 122.568 68.4525 123.83 65.763 124.714C65.1174 124.936 64.4713 125.23 63.7546 125.188C63.5192 123.942 63.38 122.68 63.3382 121.413C63.2995 120.721 63.3594 120.029 63.2676 119.365C63.1715 118.758 63.1559 118.142 63.2214 117.531C63.4125 116.095 63.2995 114.659 63.3169 113.223C63.3213 112.915 63.2489 112.61 63.1066 112.334C62.9636 112.06 62.7551 111.823 62.4979 111.645C62.3086 111.502 62.1399 111.334 61.9967 111.147C60.7294 109.51 59.9563 107.641 59.2857 105.718C58.7738 104.247 58.6961 102.718 58.5796 101.199C58.4402 99.4106 58.4898 97.6136 58.7279 95.8354C58.7985 95.3444 58.7808 94.8497 58.8621 94.3612C59.0879 93.0434 59.328 91.7249 59.568 90.4065C59.9211 88.4862 60.2458 86.5659 60.7259 84.673C60.9642 83.6598 61.4085 82.7047 62.032 81.8635C62.272 81.5451 62.4979 81.1713 62.9817 81.0815C62.883 81.8841 62.7981 82.628 62.7026 83.3682C62.5297 84.7216 62.3497 86.0711 62.1767 87.4201C62.0461 88.4201 61.912 89.4239 61.8237 90.4271C61.7284 91.3374 61.7072 92.2546 61.5272 93.1574C61.5147 93.216 61.5238 93.277 61.5529 93.3294C61.582 93.3823 61.6292 93.4228 61.6861 93.4446C61.7178 93.4608 61.7529 93.4708 61.7888 93.4727C61.8247 93.4745 61.8606 93.4689 61.894 93.4559C61.9275 93.4434 61.9578 93.4235 61.9828 93.3985C62.0078 93.373 62.027 93.3431 62.039 93.3094C62.1571 93.1044 62.2428 92.8826 62.2932 92.6521C62.4629 91.4446 62.6464 90.2302 62.7451 89.0189C62.7981 88.3859 62.8862 87.7559 62.9748 87.1298C63.1297 86.0605 63.3063 84.9951 63.4967 83.9327C63.7159 82.7078 63.7615 81.4554 64.083 80.2472C64.3583 79.2092 64.5668 78.1232 65.1418 77.1886C65.5233 76.5829 65.954 75.9985 66.7694 75.9225C67.1577 75.8876 67.2389 75.9879 67.1471 76.3723C66.966 77.2453 66.848 78.13 66.7937 79.0192C66.7057 80.0261 66.5821 81.0292 66.4766 82.033C66.3317 83.3651 66.1232 84.6867 66.067 86.0294C66.0314 86.898 65.9715 87.7597 65.9047 88.6351C65.8235 89.7598 65.6537 90.8738 65.5233 91.9947C65.5233 92.0639 65.5233 92.1368 65.5233 92.206C65.5233 92.4895 65.5233 92.8596 65.876 92.8633C66.2293 92.8664 66.2044 92.5175 66.2293 92.2508C66.2212 91.991 66.23 91.7312 66.2537 91.472C66.4972 89.9149 66.5821 88.3578 66.702 86.7734C66.7694 85.9085 66.7656 85.0431 66.8961 84.1714C67.0765 82.9882 67.2139 81.7975 67.3837 80.6142C67.5597 78.9768 67.9512 77.368 68.5487 75.829C68.7684 75.2745 69.1336 74.786 69.6075 74.4134C70.3417 73.8495 71.0796 73.7629 71.7926 74.4688C72.2989 74.976 72.6541 75.6091 72.8196 76.2994C72.8689 76.4047 72.8739 76.5256 72.8327 76.6346C72.7915 76.7431 72.7084 76.8315 72.601 76.8808C72.0685 77.2035 71.6109 77.6316 71.2557 78.1369C70.4016 79.3581 70.1968 80.77 70.1756 82.1782C70.1225 84.41 70.0913 86.6381 70.0133 88.8669C70.0152 89.4557 69.9758 90.0439 69.8972 90.6277C69.8297 91.3324 69.8728 92.0433 70.0239 92.735C70.0239 92.7711 70.0314 92.806 70.0451 92.839C70.0595 92.8714 70.0801 92.9013 70.1063 92.9262C70.1319 92.9512 70.1631 92.9705 70.1968 92.9836C70.2305 92.9966 70.2668 93.0029 70.303 93.0016C70.376 92.9966 70.4441 92.9642 70.494 92.9113C70.5439 92.8589 70.5714 92.7898 70.5714 92.7181C70.592 92.5069 70.592 92.2926 70.592 92.0813C70.592 90.9704 70.5252 89.8563 70.6239 88.756C70.7231 87.6556 70.7937 86.4618 70.868 85.3129C70.9135 83.9047 71.0677 82.5015 71.33 81.1158C71.5304 79.9669 72.0879 78.9058 72.9257 78.0777C73.8965 77.1817 75.4741 77.0122 76.2189 78.393C76.2932 78.5313 76.3569 78.7008 76.5442 78.7388C76.6934 79.059 76.7758 79.4048 76.7877 79.7563C76.9569 81.8648 76.9887 83.9826 76.8826 86.0954C76.7877 88.0675 76.7277 90.0395 76.8051 92.0122C76.7733 92.2701 76.8164 92.5312 76.9288 92.7661C76.8545 94.0397 77.1298 95.2958 77.0842 96.5725C76.8258 97.0778 76.4842 97.5383 76.0747 97.9358C74.6806 99.3994 73.1292 100.711 71.4467 101.846C70.6738 102.339 70.0614 103.039 69.6818 103.863C69.5881 104.043 69.5532 104.246 69.5819 104.446C69.61 104.646 69.7005 104.833 69.8403 104.981C70.0233 105.214 70.2699 105.391 70.5521 105.492C70.8343 105.592 71.1395 105.611 71.4323 105.548C71.9973 105.425 72.5105 105.134 72.9007 104.714C73.741 103.841 74.5364 102.928 75.2837 101.977C76.9637 99.9845 78.4608 97.8529 80.0878 95.8148C80.9318 94.7768 81.9058 93.9637 83.2649 93.6347C83.8517 93.5126 84.4511 93.4565 85.051 93.4689H85.0335C85.0585 93.5692 85.0935 93.6278 85.1715 93.5069Z" fill="#A77154"/>
<path d="M26.8017 93.9812C27.7548 93.5656 28.6408 93.8909 29.5092 94.2547C30.3462 94.6192 31.1278 95.0953 31.8319 95.6698C32.0187 95.8193 32.2196 95.9514 32.432 96.0642C32.5521 96.1265 32.5662 95.9844 32.6015 95.9084C32.8486 96.1576 32.6862 96.4935 32.8062 96.7807C33.1062 97.6474 33.326 98.539 33.4628 99.445C33.551 99.8394 33.5652 100.237 33.6464 100.624C33.6852 100.801 33.7629 101.009 34.0276 100.971C34.1072 100.953 34.1782 100.909 34.2284 100.846C34.2786 100.783 34.3049 100.705 34.303 100.624C34.333 100.319 34.333 100.01 34.303 99.7042C34.0559 98.3446 33.8017 96.9845 33.5158 95.628C32.8097 92.2995 31.8919 89.019 31.3236 85.6594C31.0604 84.2481 30.9515 82.8132 30.9989 81.3795C31.0135 81.0368 31.1064 80.7022 31.2707 80.3994C31.4351 80.0972 31.6667 79.8349 31.9484 79.6318C32.2238 79.4174 32.372 79.4729 32.4391 79.805C32.5662 80.4729 32.6403 81.1546 32.7921 81.8119C33.4805 84.7634 34.243 87.6938 34.8784 90.6596C35.369 92.9538 35.9021 95.2373 36.195 97.5795C36.2133 97.7907 36.2902 97.9932 36.4174 98.1646C36.4428 98.2057 36.4801 98.2387 36.5246 98.2586C36.569 98.2792 36.6186 98.2861 36.667 98.2786C36.7155 98.2711 36.7606 98.2499 36.7966 98.2169C36.8327 98.1845 36.8579 98.1421 36.8693 98.0954C36.8993 98.0069 36.9137 97.9147 36.9116 97.8219C36.9719 96.7402 36.908 95.6548 36.721 94.5868C36.4775 93.4136 36.2621 92.2372 35.9091 91.0883C35.4608 89.6247 35.2031 88.1162 34.7724 86.6457C34.3418 85.1753 34.0241 83.7839 33.6746 82.3446C33.4522 81.4312 33.3958 80.4897 33.2439 79.5763C33.1392 78.9613 33.2696 78.3302 33.6102 77.803C33.9509 77.2765 34.4779 76.8915 35.0901 76.722C35.4961 76.6148 35.8421 76.8566 36.2233 76.8154C36.7354 77.1307 37.1054 77.6254 37.2576 78.1993C36.1385 78.618 35.7291 79.4448 35.7538 80.5763C35.8059 81.5172 35.9803 82.4474 36.2727 83.3447C36.7528 85.0438 37.3035 86.7218 37.7765 88.4209C38.4437 90.8185 38.9414 93.2647 39.4956 95.6872C39.4989 95.8991 39.5445 96.1084 39.6297 96.3028C39.6827 96.3788 39.718 96.476 39.8416 96.4623C39.8895 96.4586 39.9351 96.4399 39.9718 96.4094C40.0086 96.3794 40.0346 96.3383 40.0463 96.2922C40.0723 96.1545 40.0876 96.0143 40.0922 95.8741C40.1212 95.1694 40.0608 94.4635 39.9122 93.7737C39.5315 91.6721 39.0318 89.5923 38.4155 87.5455C37.9848 86.009 37.3564 84.5248 37.1305 82.9328C36.9736 82.101 36.9026 81.2561 36.9187 80.4106C36.9822 79.2822 37.8153 78.6803 38.9343 78.947C39.1885 79.0056 39.4462 79.0542 39.7039 79.1059C40.0392 79.2791 40.2228 79.6143 40.5193 79.8293C40.5211 79.8685 40.5364 79.9059 40.5627 79.9352C40.5889 79.9645 40.6247 79.9844 40.664 79.9919C41.1689 80.8879 41.4336 81.8811 41.8325 82.8219L41.8713 83.6388C41.656 83.8219 41.4266 83.9846 41.2289 84.1958C41.0215 84.4101 40.8694 84.6693 40.7853 84.9528C40.7011 85.2363 40.6875 85.536 40.7453 85.8258C40.9466 86.9342 41.2334 88.0259 41.6031 89.0919C42.2545 91.0534 42.7698 93.0553 43.1457 95.0847C43.179 95.2697 43.2409 95.4479 43.3292 95.6143C43.3477 95.6579 43.3783 95.6959 43.4176 95.7233C43.4569 95.7508 43.5034 95.767 43.5516 95.7701C43.6999 95.7701 43.721 95.6317 43.7281 95.5102C43.7607 94.6666 43.6884 93.8217 43.5128 92.9949C43.1139 90.988 42.4538 89.0539 41.8713 87.1124C41.7542 86.7298 41.6959 86.3323 41.6983 85.9329C41.7196 84.5485 42.5209 83.9048 43.8799 84.2307C43.9053 84.2818 43.9466 84.3241 43.9979 84.3516C44.0492 84.379 44.1079 84.3896 44.1659 84.3827C44.3 84.4837 44.3947 84.6263 44.4341 84.7877C44.7871 85.7254 45.1649 86.6632 45.532 87.604C46.1709 89.2371 46.944 90.8222 47.4558 92.507C47.5017 92.6665 47.537 92.8323 47.7312 92.884C47.7757 93.3307 47.9152 93.7638 48.1406 94.1544C48.8467 95.8286 49.5526 97.5103 50.294 99.1646C50.9982 100.793 51.1504 102.6 50.7282 104.32C50.2375 106.549 49.7221 108.773 49.1997 110.998C48.9878 111.891 48.7302 112.773 48.4936 113.655C48.3324 114.251 48.0723 114.815 47.7241 115.327C46.9472 116.521 46.4093 117.849 46.1391 119.24C45.6237 121.489 45.1096 123.739 44.5965 125.987C44.5913 126.058 44.5913 126.128 44.5965 126.199C44.4306 126.591 44.1651 126.935 43.8254 127.199C43.4855 127.462 43.0827 127.636 42.655 127.704C42.1412 127.824 41.6157 127.889 41.0877 127.898C38.679 127.864 36.3127 127.271 34.183 126.167C33.1125 125.679 32.1614 124.971 31.3942 124.091C31.8072 123.053 32.2132 121.977 32.6438 120.926C32.7136 120.803 32.7523 120.666 32.7566 120.526C32.7608 120.385 32.7307 120.246 32.6686 120.119C32.8627 119.327 32.9404 118.514 33.0569 117.697C33.4699 117.548 33.4099 117.143 33.431 116.867C33.5299 115.386 33.9817 113.967 34.0982 112.483C34.2699 111.017 34.2935 109.538 34.1688 108.068C33.9115 105.782 32.9484 103.628 31.4083 101.894C29.9571 100.327 28.6117 98.668 27.3806 96.929C26.8617 96.1607 26.3886 95.3377 26.8758 94.3619C26.9079 94.299 26.918 94.228 26.9046 94.1588C26.8912 94.0903 26.855 94.028 26.8017 93.9812Z" fill="#CE8F6C"/>
<path d="M36.6079 37.1372C37.9291 36.7204 39.2888 36.4318 40.6675 36.2757C41.9303 36.146 43.1996 36.0872 44.4693 36.0992C46.1652 36.2298 47.8497 36.4773 49.5102 36.8397C55.4512 38.3518 60.1602 41.5628 63.5701 46.5869C63.9796 47.1925 64.2762 47.8707 64.7388 48.4416C64.7881 48.5523 64.795 48.6838 64.9223 48.7496C64.961 48.8845 64.9966 49.0229 65.0353 49.1579C64.3361 49.4173 63.6956 49.8088 63.1499 50.3101C62.864 50.5766 62.6948 50.5766 62.3771 50.3343C61.0248 49.287 59.4711 48.5174 57.8086 48.0715C56.1462 47.6257 54.4093 47.5126 52.7013 47.7392C50.6352 47.9385 48.6377 48.5751 46.8471 49.605C45.0565 50.6349 43.5153 52.0337 42.3301 53.7045C40.4663 56.2547 39.4743 59.0781 39.9226 62.2753C39.9508 62.469 40.0956 62.6666 39.9826 62.874C39.7516 62.9364 39.5076 62.9364 39.2767 62.874C38.4489 62.7382 37.6127 62.6572 36.7739 62.6317C35.4041 62.5887 34.0329 62.6298 32.6685 62.7563C30.925 62.9289 29.2062 63.2884 27.5428 63.8292H27.3875C27.3898 63.5476 27.3602 63.2666 27.2993 62.9918C27.0006 61.5681 26.8433 60.1196 26.8298 58.6664C26.8184 57.0966 26.9483 55.5288 27.2181 53.9814C27.4354 52.3777 27.7969 50.796 28.2983 49.2548C28.9943 47.0801 29.9997 45.0125 31.2847 43.113C32.375 41.5701 33.5872 40.1135 34.91 38.7566C35.4501 38.1788 36.0467 37.6701 36.6079 37.1372Z" fill="#ED1B6D"/>
<path d="M65.0461 49.1578L64.9331 48.7495L65.0461 48.6388L65.3776 48.5385L68.378 47.58L70.8703 47.1752L75.0357 47.1475C75.4877 47.1994 75.9397 47.2443 76.3911 47.3032C80.6732 47.8845 84.4821 49.5661 87.9414 52.0644C89.2025 53.0041 90.4018 54.0211 91.5318 55.1093L92.8485 56.5142L94.7614 58.9363C95.0273 59.3985 95.3432 59.8312 95.7041 60.2269C95.9632 60.7824 96.284 61.3081 96.6605 61.7944L97.7693 63.9363C98.6308 65.7221 99.3794 67.5583 100.011 69.4344C100.262 70.4724 100.533 71.4899 100.752 72.5279C101.059 73.9336 101.271 75.3573 101.384 76.7904C101.426 77.3861 101.444 77.3755 102.026 77.5069C104.34 78.0397 106.42 79.2796 107.967 81.0466C109.759 82.9221 110.875 85.3216 111.144 87.8768C111.276 89.3653 110.995 90.8607 110.332 92.206C110.268 92.3817 110.146 92.5318 109.985 92.6328C109.823 92.7337 109.633 92.7792 109.443 92.763C106.001 92.763 102.56 92.801 99.1178 92.8284C98.9729 92.8284 98.8244 92.8633 98.7469 92.6969C98.9055 90.9573 98.554 89.2096 97.7337 87.6594C97.3023 86.8226 96.8078 86.0188 96.2547 85.2543C96.0855 85.0088 95.8314 84.787 95.8807 84.4412C96.0961 84.4412 96.3146 84.4412 96.53 84.4206C96.9945 84.4001 97.4328 84.205 97.7537 83.876C98.0752 83.5471 98.2544 83.1097 98.2544 82.6542C98.2544 82.1987 98.0752 81.7607 97.7537 81.4317C97.4328 81.1027 96.9945 80.9077 96.53 80.8878C95.6404 80.8703 94.7651 80.9083 93.8611 80.8878C93.0383 80.8466 92.2285 81.1052 91.588 81.6143C91.1497 81.3843 90.6703 81.2386 90.1758 81.185C89.9923 81.1607 89.7981 81.1021 89.883 80.8977C90.0522 80.4965 89.971 80.0709 90.0809 79.6591C90.3943 78.6117 90.601 77.5356 90.6984 76.4483C91.9076 76.1655 93.0888 75.7785 94.2282 75.2925C94.7039 75.1199 95.1191 74.8171 95.425 74.4202C95.656 74.133 95.8002 73.7878 95.8402 73.4245C95.8807 73.0607 95.8164 72.6937 95.6541 72.3641C95.4918 72.0345 95.2383 71.7566 94.9224 71.5615C94.6065 71.3665 94.2413 71.2625 93.8686 71.2612C93.3485 71.2494 92.8347 71.3759 92.3821 71.6282C91.7778 71.9622 91.1503 72.255 90.5042 72.5036C90.5042 72.1977 90.4542 71.8943 90.3562 71.6039C89.9991 69.2506 89.2375 66.9738 88.1037 64.8703C87.6061 63.9326 87.0449 63.0229 86.4905 62.1023C85.3387 60.2015 83.9646 58.4388 82.3957 56.8498C81.5248 56.0066 80.6089 55.2086 79.6531 54.4588C78.5043 53.4572 77.2233 52.6122 75.8442 51.9467C73.9868 51.1206 72.0577 50.4605 70.0799 49.9744C68.5335 49.5397 66.924 49.3585 65.3177 49.4381C65.2328 49.3585 65.1379 49.2582 65.0461 49.1578Z" fill="#CC9B2C"/>
<path d="M90.6536 76.4343C90.5562 77.5216 90.3495 78.5976 90.0361 79.645C89.9263 80.0569 90.0074 80.4824 89.8382 80.8837C89.7533 81.0881 89.9475 81.1466 90.131 81.1709C90.6255 81.2245 91.105 81.3703 91.5432 81.6002C91.4795 81.7491 91.4159 81.9012 91.3559 82.0532C91.2773 82.2183 91.2323 82.3971 91.2236 82.5797C91.2155 82.7616 91.2436 82.9436 91.3072 83.1149C91.3709 83.2863 91.4689 83.4439 91.5944 83.5779C91.7205 83.7124 91.8722 83.8209 92.0408 83.8975C92.273 84.0202 92.5228 84.105 92.7825 84.1505C93.7951 84.3337 94.8265 84.3131 95.8466 84.4377C95.7967 84.7835 96.0514 85.0047 96.2206 85.2508C96.7737 86.0154 97.2682 86.8191 97.6996 87.6553C98.5286 89.2036 98.8889 90.9514 98.7372 92.6935L95.4189 92.7109C95.2498 92.3645 95.1898 91.9358 94.8577 91.6729C93.8519 90.8361 92.697 90.1887 91.4515 89.7625C91.1418 89.6572 90.8047 89.661 90.4975 89.7725C90.1903 89.884 89.9325 90.0971 89.7677 90.375C89.5929 90.6454 89.5161 90.9657 89.5504 91.2841C89.5841 91.6025 89.7265 91.9003 89.955 92.1296C90.1454 92.3402 90.3677 92.5203 90.5724 92.714C89.0404 92.714 87.5083 92.7346 85.9838 92.752C85.6966 92.729 85.4081 92.7439 85.126 92.7969C85.2246 92.5583 85.3126 92.3159 85.415 92.081C86.9121 88.8173 87.4122 85.1985 86.8553 81.6625C86.2578 77.3864 84.0041 73.4996 80.5616 70.8079C76.95 67.9499 72.7952 66.7249 68.1603 66.9149C67.3731 66.9461 66.5858 67.0707 65.7986 67.1542C65.8142 67.0613 65.8354 66.9704 65.8623 66.8807C66.564 65.0077 67.016 63.0537 67.207 61.0675C67.4056 59.2427 67.3762 57.4009 67.119 55.5831C66.9142 53.7385 66.411 51.9375 65.6294 50.2476C65.4827 50.0052 65.3809 49.7393 65.3291 49.4621C66.9361 49.3825 68.5449 49.5637 70.0913 49.9984C72.0691 50.4845 73.9989 51.1446 75.8556 51.9707C77.2384 52.6333 78.5233 53.476 79.6751 54.4759C80.6316 55.2256 81.5468 56.0237 82.4183 56.8668C83.9866 58.4558 85.3607 60.2186 86.5132 62.1194C87.0707 63.0257 87.6282 63.936 88.1264 64.8874C89.2595 66.9909 90.0212 69.2677 90.3783 71.621C90.4769 71.9114 90.5269 72.2148 90.5269 72.5207C90.2622 72.6865 89.99 72.8391 89.7396 73.0155C88.8818 73.6242 88.5497 74.3476 88.7582 75.1227C88.9661 75.8978 89.5311 76.3165 90.6536 76.4343ZM85.5349 64.3235C85.2783 64.3678 85.0348 64.4687 84.8238 64.6195C84.6128 64.7697 84.4392 64.9659 84.3175 65.1921C84.0915 65.5379 83.9254 65.946 83.7138 66.3168C83.3885 66.9212 83.1606 67.571 83.0395 68.2439C82.959 68.5056 82.9646 68.7854 83.0545 69.044C83.1444 69.3026 83.3142 69.5275 83.5408 69.687C83.7899 69.8297 84.0784 69.8926 84.3662 69.8671C84.6533 69.8409 84.9256 69.7269 85.1434 69.5412C86.133 68.6801 86.9046 67.6059 87.3991 66.4028C87.8685 65.3996 87.0001 64.303 85.5349 64.313V64.3235Z" fill="#EEB31E"/>
<path d="M65.7984 67.1473C66.5857 67.0645 67.3729 66.9398 68.1602 66.9087C72.777 66.7186 76.9498 67.9467 80.5608 70.8017C84.0052 73.4946 86.2589 77.3839 86.8551 81.6631C87.4045 85.2016 86.8957 88.8204 85.3899 92.0816C85.2875 92.3165 85.1995 92.5589 85.1008 92.7975H83.8684C83.0662 92.6455 82.2421 92.6455 81.4399 92.7975H76.9217C76.8088 92.5626 76.7663 92.3009 76.7981 92.0436C76.7201 90.0709 76.78 88.0989 76.8756 86.1262C76.9817 84.0134 76.9498 81.8962 76.78 79.7877C76.7688 79.4356 76.6858 79.0898 76.5366 78.7702C76.3106 77.3552 75.5127 76.6144 74.108 76.5246C73.9906 76.5097 73.872 76.5097 73.7553 76.5246C73.4019 76.5901 73.2252 76.5246 73.1622 76.1265C73.096 75.757 72.9774 75.3981 72.8088 75.061C72.0534 73.5108 70.6381 72.6385 68.8095 73.646C68.6016 73.7625 68.3643 73.8192 68.1246 73.8086C66.6525 73.7463 65.53 74.3893 64.6759 75.5109C63.9592 76.4661 63.5022 77.5839 63.3486 78.7596C63.285 79.1995 63.2531 79.6494 63.2001 80.0918C63.1788 80.2513 63.1682 80.4382 62.9353 80.4382C62.1589 80.5279 61.7282 81.0818 61.3293 81.642C60.8131 82.3797 60.4309 83.199 60.1997 84.0645C59.8291 85.4309 59.5891 86.8322 59.3313 88.2167C59.049 89.7457 58.8725 91.2891 58.4983 92.8013L50.2169 92.7595C50.2287 92.5003 50.1702 92.2424 50.0474 92.0125C49.2177 89.4715 48.9599 86.7848 49.2919 84.1368C49.3837 83.3448 49.6626 82.5797 49.645 81.7734L49.7191 81.7323C49.9621 81.7566 50.2071 81.7124 50.4251 81.6039C52.5854 80.8425 54.6385 79.8163 56.5356 78.549C57.9987 77.5608 59.3862 76.4692 60.6869 75.2822C63.2038 73.0815 64.7252 70.2995 65.6854 67.1853C65.7198 67.1654 65.7585 67.1523 65.7984 67.1473ZM49.7297 85.6839C49.652 85.5624 49.6379 85.3723 49.4049 85.4035C49.3979 85.6041 49.5497 85.6596 49.7297 85.6839Z" fill="#FBE5DE"/>
<path d="M31.8567 92.805H25.0897C24.9767 91.7669 24.3342 91.289 23.3988 91.5595C23.2858 91.5906 23.1799 91.656 23.0458 91.6909C22.1774 91.9707 21.4326 92.514 20.5748 92.7944C15.2138 92.7807 9.85057 92.7607 4.48492 92.7358C3.38002 92.7358 2.27512 92.6698 1.17023 92.6355C0.953254 92.6411 0.737231 92.605 0.534821 92.5277C0.444706 92.4984 0.367382 92.4405 0.315456 92.3626C0.26353 92.2847 0.240066 92.1919 0.248888 92.099C0.317946 89.2017 1.31312 86.3985 3.09409 84.085C4.83792 81.7528 6.99829 79.9328 9.8364 78.9851C11.2252 78.4966 12.7336 78.4387 14.1572 78.8188C14.6867 78.9639 14.6867 78.9639 14.7997 78.4244C15.5805 74.7021 17.5178 71.3082 20.3453 68.7081C20.4477 68.6115 20.5642 68.528 20.6736 68.4346C20.685 68.695 20.7562 68.9492 20.8819 69.1785C21.129 69.6838 21.3972 70.1823 21.6514 70.6876C22.0044 71.4004 22.488 72.0509 22.7775 72.798C22.2586 72.7812 21.8491 72.4522 21.3655 72.3313C20.723 72.1923 20.0841 72.0958 19.5087 72.535C18.3402 73.4242 18.4779 74.9576 19.8194 75.6666C20.8606 76.2 21.9594 76.6181 23.0952 76.9122C24.2707 77.2343 24.7826 77.0193 25.485 76.0336C27.1388 77.4524 28.9492 78.6861 30.8824 79.7116C30.3447 80.8718 30.1467 82.1566 30.3106 83.4208C30.4897 85.3386 30.7952 87.2434 31.2249 89.1232C31.5027 90.3382 31.7137 91.5675 31.8567 92.805ZM19.7064 82.7323V82.7529C19.3216 82.7529 18.9368 82.7354 18.5556 82.7529C18.2681 82.7635 17.9828 82.8052 17.7049 82.8775C17.3398 82.961 17.0146 83.1641 16.7827 83.4532C16.5508 83.7417 16.4261 84.0993 16.429 84.467C16.4319 84.8346 16.5621 85.1897 16.7985 85.4751C17.0349 85.7605 17.3632 85.9586 17.7295 86.0365C17.9399 86.0876 18.1554 86.1138 18.372 86.1162C19.3566 86.12 20.3373 85.9947 21.2878 85.7424C21.616 85.6664 21.9247 85.525 22.195 85.3274C22.382 85.1966 22.5325 85.0227 22.633 84.8202C22.7334 84.6177 22.7805 84.3941 22.77 84.1691C22.7595 83.9448 22.6916 83.7261 22.5727 83.5336C22.4538 83.3411 22.2875 83.1809 22.0892 83.0682C21.7444 82.8476 21.3429 82.7273 20.9313 82.7217C20.5218 82.7255 20.1158 82.7323 19.7064 82.7323Z" fill="#EEB31E"/>
<path d="M94.7439 58.933L92.8311 56.511C92.8311 55.2861 92.8698 54.0646 92.9403 52.8432C93.0533 50.8432 92.9403 48.8398 93.0814 46.8398C93.2194 44.7014 93.0814 42.5561 93.2225 40.4108C93.3286 38.8606 93.2581 37.2966 93.265 35.7431L96.5725 34.5251C97.7313 34.2721 98.8581 33.8962 99.9332 33.404C101.529 32.9784 103.11 32.532 104.748 32.2448C106.951 31.8777 109.204 31.9094 111.396 32.3383C111.504 32.3433 111.61 32.3728 111.705 32.4244C111.799 32.476 111.881 32.5484 111.942 32.6358C111.678 33.1133 111.897 33.6047 111.889 34.0856C111.858 36.2759 111.889 38.4662 111.787 40.6599C111.681 43.2724 111.745 45.8952 111.752 48.5145C111.752 50.729 111.543 52.94 111.603 55.158C111.603 55.7705 111.533 55.7912 110.873 55.8258C110.213 55.8604 109.634 55.6944 109.009 55.6805C107.357 55.6488 105.706 55.7344 104.067 55.9365C101.876 56.2144 99.7278 56.7548 97.6707 57.5455C96.6431 57.9331 95.7116 58.4798 94.7439 58.933ZM107.537 44.4454C107.758 44.4359 107.976 44.383 108.176 44.2896C108.301 44.2417 108.41 44.1607 108.491 44.0556C108.572 43.9505 108.622 43.8255 108.635 43.6945C108.642 43.5518 108.607 43.4103 108.532 43.2873C108.458 43.1643 108.35 43.0652 108.218 43.0025C108.093 42.9327 107.957 42.8825 107.816 42.8537C106.474 42.5606 105.088 42.5243 103.732 42.7464C100.836 43.3417 98.0315 44.3012 95.387 45.6011C95.2396 45.6805 95.0979 45.7695 94.9631 45.8675C94.8426 45.9266 94.7489 46.0286 94.7027 46.1527C94.6559 46.2768 94.6597 46.4136 94.7127 46.5353C94.7689 46.6644 94.8732 46.7679 95.0036 46.825C95.1348 46.8821 95.2827 46.8886 95.4182 46.8432C95.6754 46.7832 95.9289 46.7092 96.1774 46.6218C98.2638 45.9056 100.36 45.2378 102.482 44.608C103.931 44.1589 105.472 44.0709 106.965 44.3519C107.17 44.39 107.361 44.4142 107.537 44.4454ZM105.116 49.0093C104.612 49.0072 104.109 49.043 103.612 49.1166C101.91 49.3969 100.332 50.03 98.7508 50.6598C98.0565 50.9253 97.3866 51.2495 96.7492 51.6287C96.472 51.7798 96.2317 51.9875 96.0431 52.2376C95.9638 52.3284 95.9189 52.4428 95.9139 52.5621C95.9095 52.6815 95.9464 52.7988 96.0188 52.8951C96.0881 52.9926 96.188 53.0652 96.3035 53.102C96.4183 53.1389 96.5426 53.1379 96.6574 53.0992C96.7729 53.0657 96.8853 53.0216 96.9927 52.9677C98.6459 52.2627 100.34 51.6527 102.065 51.1408C103.379 50.7428 104.724 50.4487 106.114 50.7186C106.655 50.8225 107.173 50.9816 107.728 51.0646C107.964 51.1238 108.215 51.0937 108.43 50.9803C108.645 50.8669 108.809 50.6784 108.889 50.4522C109.002 50.0266 108.692 49.6183 108.084 49.4626C107.117 49.2273 106.149 48.9401 105.116 49.0093ZM106.281 35.9922C104.958 35.9758 103.643 36.189 102.397 36.6219C100.727 37.1617 99.1216 37.8572 97.5084 38.532C96.758 38.8527 96.0469 39.2568 95.3901 39.736C95.2147 39.86 95.0523 40.0015 94.9069 40.1582C94.8363 40.2252 94.7908 40.3131 94.7764 40.4082C94.7627 40.5034 94.7808 40.6004 94.8288 40.6842C94.875 40.7673 94.9443 40.8359 95.0286 40.8818C95.1129 40.9278 95.2091 40.9492 95.3058 40.9437C95.5718 40.9314 95.8309 40.8566 96.0612 40.7257C97.7038 39.9499 99.3863 39.257 101.102 38.6496C102.425 38.0861 103.821 37.6998 105.25 37.5008C105.968 37.4392 106.689 37.4207 107.41 37.4454C107.961 37.4454 108.356 37.1687 108.377 36.7914C108.398 36.4143 107.996 36.0476 107.435 36.0129C107.053 35.9887 106.665 35.9887 106.281 35.9887V35.9922Z" fill="#ED1B6D"/>
<path d="M31.3839 124.081C32.1511 124.961 33.1021 125.668 34.1726 126.157C36.3024 127.26 38.6686 127.853 41.0773 127.887C41.6054 127.878 42.1309 127.813 42.6447 127.693C43.0723 127.625 43.4752 127.451 43.815 127.188C44.1548 126.925 44.4203 126.58 44.5861 126.188C44.7627 126.188 44.8404 126.264 44.805 126.454C44.5227 128.102 44.3567 129.769 43.8766 131.378C43.8448 131.489 43.8237 131.606 43.799 131.724C43.4001 131.683 43.093 131.742 43.0683 132.24C43.0581 132.406 42.9978 132.565 42.8953 132.697C42.2175 133.513 41.7269 134.479 40.8585 135.139C40.4066 135.486 39.9124 135.78 39.4747 136.139C38.8323 136.665 38.218 137.198 37.9321 138.036C37.7717 138.645 37.6537 139.265 37.5791 139.89C37.4687 140.492 37.4532 141.107 37.5332 141.714C37.6826 142.804 37.7686 143.901 37.7908 145.001C37.7908 145.447 37.8156 145.897 37.7908 146.343C37.7606 146.591 37.784 146.842 37.8594 147.081C37.9348 147.32 38.0606 147.54 38.2286 147.727C37.2437 148.343 36.1106 148.461 34.9951 148.589C33.5513 148.755 32.1146 148.589 30.6814 148.423C28.8652 148.271 27.0814 147.859 25.3864 147.201C24.8388 146.999 24.3249 146.718 23.8614 146.368C23.0707 145.717 22.2234 145.132 21.4928 144.409C21.0158 143.972 20.634 143.445 20.3702 142.859C20.2925 142.668 20.222 142.485 20.4902 142.409C20.6561 142.358 20.6915 142.24 20.7514 142.111C23.1942 136.866 25.6653 131.628 28.2315 126.437C28.7646 125.357 29.2058 124.233 29.7389 123.154C29.8907 122.849 29.7389 122.493 30.0071 122.24C30.0425 122.295 30.1095 122.354 30.1095 122.413C30.1484 123.254 30.7167 123.704 31.3839 124.081Z" fill="#4150A1"/>
<path d="M85.4459 131.697C86.3537 133.302 87.0985 134.991 87.9563 136.624C88.0087 136.702 88.0368 136.795 88.0368 136.889C88.0368 136.983 88.0087 137.075 87.9563 137.154C87.8888 137.25 87.8358 137.357 87.7758 137.458C86.9667 138.797 86.0802 140.09 85.1213 141.33C84.3746 142.314 83.5124 143.208 82.5516 143.994C81.1338 145.231 79.653 146.396 78.114 147.485C78.0216 147.49 77.9292 147.504 77.8387 147.527C76.7287 147.928 75.5556 148.135 74.3725 148.14C74.3482 148.133 74.3226 148.133 74.2983 148.14C73.8506 147.56 73.3393 147.031 72.7731 146.561C71.8285 145.653 70.6579 145.002 69.3774 144.672C68.0502 144.326 66.7691 144.326 65.6747 145.32H65.5261C64.9011 145.102 64.4673 144.627 64.019 144.195C63.7468 143.939 63.5526 143.603 63.1855 143.454C62.7198 142.281 62.2503 141.112 61.8691 139.911C61.7566 139.653 61.727 139.367 61.7844 139.091C62.7111 138.74 63.5851 138.268 64.3823 137.686C65.3201 137.319 66.2085 136.843 67.03 136.268C67.1605 136.216 67.2985 136.17 67.4252 136.109C70.726 134.465 73.8394 132.506 76.9809 130.6C77.5497 130.254 78.0897 129.859 78.6441 129.485C78.9019 130.54 79.4707 131.496 80.2779 132.236C80.6425 132.614 81.1032 132.89 81.6127 133.037C82.1215 133.183 82.6615 133.193 83.1766 133.067C84.0543 132.841 84.8447 132.363 85.4459 131.697ZM75.1667 140.105C76.2542 140.181 77.4329 138.898 77.6377 137.773C77.7757 137.029 77.7682 136.323 77.1932 135.731C76.9747 135.504 76.7118 135.321 76.4215 135.193C76.1306 135.066 75.8166 134.996 75.4982 134.988C75.1798 134.98 74.8626 135.033 74.5655 135.145C74.2677 135.257 73.9961 135.426 73.7651 135.641C72.7837 136.52 72.632 137.624 73.2713 138.987C73.6277 139.734 74.2102 140.084 75.1667 140.105Z" fill="#ED1B6D"/>
<path d="M64.7496 48.4446C64.2832 47.8737 63.9904 47.1955 63.5809 46.59C60.1709 41.5658 55.4619 38.3548 49.5208 36.8427C47.8604 36.4803 46.1759 36.2329 44.48 36.1022C44.5012 36.0607 44.5188 36.0157 44.5435 35.9742C44.8514 35.4 45.306 34.9139 45.8629 34.5634C46.4197 34.2128 47.0597 34.0098 47.7206 33.9742C49.1272 33.7678 50.564 33.8996 51.9071 34.3583C52.8402 34.686 53.682 35.2231 54.3654 35.9266C55.0489 36.6302 55.5549 37.4807 55.8432 38.4101C55.9067 38.637 55.9869 38.859 56.0832 39.0745C56.1274 39.1863 56.215 39.2764 56.3268 39.325C56.4386 39.3737 56.5655 39.3769 56.6797 39.334C56.788 39.308 56.8831 39.2448 56.9478 39.1559C57.0126 39.067 57.0427 38.9584 57.0328 38.8496C57.0281 38.7074 57.0092 38.566 56.9763 38.4275C56.0373 34.3548 52.2143 32.5106 49.002 32.7874C48.8832 32.795 48.7652 32.8112 48.6489 32.8358C48.2959 32.9189 48.176 32.7632 48.1653 32.4345C48.1181 31.0312 48.5824 29.6572 49.475 28.559C49.5032 28.5245 49.5385 28.4899 49.5703 28.4552C50.2269 27.8047 50.8517 27.0227 51.8507 26.9674C53.3227 26.8878 54.7983 26.9674 56.0055 28.0054C56.128 28.1184 56.2617 28.2192 56.4044 28.3064C56.5089 28.3846 56.6397 28.4212 56.7706 28.409C56.9014 28.3968 57.0227 28.3367 57.1104 28.2407C57.1523 28.1899 57.1831 28.1311 57.201 28.0682C57.2189 28.0053 57.2235 27.9394 57.2146 27.8746C57.2057 27.8099 57.1834 27.7475 57.1491 27.6915C57.1148 27.6355 57.0692 27.5869 57.0151 27.5487C56.3963 26.9153 55.6087 26.4646 54.7418 26.2477C54.2542 26.1467 53.7575 26.0934 53.2591 26.0885C53.9652 24.6076 55.1725 23.8083 56.6727 23.355C56.8921 23.4899 57.0808 23.6678 57.2269 23.8775C57.6976 24.4974 58.2536 25.0505 58.879 25.521C59.0672 25.664 59.2295 25.8372 59.359 26.0332C59.9643 26.9094 60.2945 27.9403 60.3086 28.9985C60.3086 29.4241 60.3333 29.7909 60.8487 29.9327C61.1382 30.0089 61.0111 30.2787 61.0358 30.4725C60.5734 30.5936 60.1568 30.7528 60.1604 31.3341C60.1604 31.8255 60.4957 31.9673 60.8981 32.0469V32.739C60.7537 32.7526 60.6181 32.8135 60.5134 32.9119C59.9556 33.4033 60.0651 33.95 60.7711 34.1956C61.0032 34.2545 61.2391 34.2984 61.477 34.3272C62.0171 34.4517 62.5152 34.6144 62.6775 35.2718C62.9846 36.5278 63.4185 36.8357 64.7421 36.8877L64.7208 37.1749C64.6865 37.2261 64.6678 37.2863 64.6678 37.3479C64.6678 37.4095 64.6865 37.4697 64.7208 37.5209C64.7708 38.1093 64.7708 38.7006 64.7208 39.2891C64.7133 39.2958 64.7077 39.3041 64.7034 39.3134C64.699 39.3226 64.6971 39.3326 64.6971 39.3426C64.6971 39.3527 64.699 39.3628 64.7034 39.372C64.7077 39.3812 64.7133 39.3895 64.7208 39.3963C64.7208 39.5416 64.7208 39.6835 64.7208 39.8288C64.6597 39.9977 64.6597 40.1824 64.7208 40.3513C64.9225 43.0433 64.7633 45.7423 64.7496 48.4446Z" fill="#F26723"/>
<path d="M36.6079 37.1372C36.036 37.6701 35.4394 38.1753 34.8993 38.7428C33.5766 40.0997 32.3643 41.5563 31.274 43.0991C29.989 44.9986 28.9837 47.0662 28.2876 49.2409C27.7891 50.787 27.4311 52.3733 27.218 53.9813C26.9457 55.5297 26.8134 57.0986 26.8227 58.6698C26.8374 60.1173 26.9946 61.5599 27.2921 62.9775C27.3531 63.2529 27.3827 63.5339 27.3804 63.8149C27.275 63.9015 27.1557 63.9706 27.0274 64.0192C25.2627 64.6984 23.6295 65.6685 22.1983 66.8879C21.6865 67.3446 21.2276 67.8568 20.7439 68.3446C20.0385 66.8493 19.5536 65.2641 19.3037 63.6354C17.514 53.2858 23.2362 42.7219 33.3885 38.2583C34.4231 37.7858 35.5011 37.4104 36.6079 37.1372Z" fill="#B01F79"/>
<path d="M65.3775 48.5383L65.046 48.6387C65.046 45.0678 65.046 41.4981 65.046 37.9295C65.046 37.5316 65.0248 37.1337 65.0142 36.7323C65.0142 36.5697 65.0566 36.407 65.0566 36.2444C65.0566 34.3413 65.0566 32.4382 65.0566 30.5317C65.0566 29.4729 65.1128 28.4175 65.0316 27.3587C65.046 26.083 65.0572 24.8063 65.0672 23.5283C65.1515 22.9124 65.1165 22.2757 65.42 21.6979L65.9956 21.1269C66.633 21.0008 67.2823 20.9382 67.9334 20.9401C68.1981 20.9401 68.4591 20.9851 68.7207 20.9782C69.4867 20.9539 70.2527 20.9193 71.015 20.8882C71.1168 20.961 71.2423 20.9953 71.3678 20.9851C72.9248 20.9851 74.4781 21.0577 76.0314 21.0993C79.2715 21.1789 82.5123 21.1304 85.7531 21.1374C86.1058 21.1374 86.4199 21.1927 86.7482 21.2169C87.9688 21.2913 89.1924 21.2913 90.4123 21.2169C90.451 21.2169 90.4904 21.165 90.5291 21.1374H90.8256C90.8681 21.4833 90.6383 21.6321 90.363 21.7602C88.9883 22.4028 87.6872 23.1856 86.4798 24.0958C86.0496 24.421 85.5377 24.646 85.1881 25.0681L84.7292 25.1096C84.6125 25.0891 84.4945 25.0752 84.3759 25.0681L69.0803 25.1822H69.0097C68.431 25.1996 68.4241 25.203 68.4166 25.7982C68.3886 28.1096 68.4166 30.4175 68.3324 32.7185C68.2581 35.4312 68.3036 38.1441 68.3036 40.8533C68.3036 41.0817 68.2331 41.3274 68.4098 41.5454L68.343 41.9191C68.2724 41.9352 68.2069 41.967 68.1513 42.012C68.0958 42.057 68.0514 42.114 68.0215 42.1786C67.4777 43.2651 66.8321 44.3031 66.3414 45.4208C66.0305 46.1335 65.8507 46.8844 65.5367 47.5903C65.4424 47.7281 65.38 47.884 65.3525 48.0475C65.3251 48.211 65.3338 48.3783 65.3775 48.5383Z" fill="#34438B"/>
<path d="M71.0085 20.8882C70.2455 20.9194 69.4801 20.954 68.7141 20.9782C68.4525 20.9782 68.1916 20.954 67.9269 20.9401C67.9756 20.8336 68.0623 20.7476 68.1703 20.6979C69.3565 20.082 69.688 19.0716 69.0987 17.9298C68.9919 17.6643 68.8071 17.4359 68.5674 17.2739C68.3283 17.1118 68.0449 17.0233 67.7539 17.0198C67.4399 17.0008 67.1278 17.0678 66.8506 17.2132C66.574 17.3587 66.3436 17.5769 66.1863 17.8433C65.8929 18.3337 65.7555 18.8987 65.7911 19.4661C65.7911 19.9782 65.7699 19.9851 65.2723 19.9955C64.9189 19.9955 64.598 19.9955 64.259 19.9955C63.4012 19.9955 63.4012 19.9955 63.3444 19.1339C63.3444 19.0163 63.3163 18.8987 63.2989 18.7879C63.1609 18.0094 62.7907 17.4038 61.9573 17.2101C60.9196 16.9471 59.9135 17.4419 59.6558 18.3866C59.4193 19.262 59.7688 20.3554 60.9796 20.608C61.3078 20.6772 61.6326 20.7567 61.9609 20.826C62.4798 20.9298 62.4835 20.9263 62.4866 21.4419C62.4866 22.4073 62.4269 23.3726 62.3739 24.3346C62.2716 26.1512 62.4866 27.9608 62.501 29.7739C62.3563 29.7739 62.2115 29.7739 62.0668 29.7739C61.2761 29.7739 61.2443 29.6909 61.1772 28.9296C61.149 28.2989 61.0603 27.6722 60.9125 27.0577C60.6881 26.4602 60.3381 25.9155 59.8853 25.4591C59.1499 24.6555 58.589 23.7137 58.2367 22.691C57.8691 21.3528 57.8064 19.9518 58.0532 18.5872C58.3169 17.0256 58.894 15.5309 59.7511 14.1894C60.7525 12.462 62.2688 11.0759 64.0967 10.2171C64.3046 10.1237 64.3227 10.0026 64.2235 9.82953C66.3405 9.73738 68.4169 10.4208 70.0483 11.7467C71.6796 13.0726 72.749 14.9461 73.0487 17.0025C73.2035 18.2882 73.0968 19.5913 72.7347 20.8363L71.0085 20.8882Z" fill="#EEB31E"/>
<path d="M78.6161 129.503C78.0617 129.877 77.5216 130.271 76.9535 130.617C73.8114 132.524 70.6979 134.482 67.3972 136.126C67.2705 136.188 67.1325 136.233 67.002 136.285C65.9114 134.863 65.3357 133.219 64.9193 131.513C64.619 130.282 64.3475 129.039 64.0615 127.804C66.6818 127.112 69.2002 126.093 71.5557 124.773C72.2618 124.365 72.9679 123.995 73.6528 123.538C75.0338 122.602 76.3205 121.539 77.4967 120.365C78.2309 122.607 78.9632 124.848 79.6924 127.088C79.786 127.515 79.924 127.931 80.1057 128.33C79.703 128.818 79.0749 129.067 78.6161 129.503Z" fill="#A77154"/>
<path d="M58.4942 92.8175C58.8684 91.3059 59.0449 89.7625 59.3273 88.2329C59.585 86.849 59.8251 85.4477 60.1957 84.0807C60.4268 83.2158 60.809 82.3959 61.3253 81.6588C61.7242 81.098 62.1549 80.5447 62.9312 80.4544C63.1647 80.4307 63.1747 80.2575 63.1959 80.1086C63.249 79.6656 63.2809 79.2157 63.3445 78.7764C63.4981 77.6007 63.9551 76.4823 64.6718 75.5271C65.5259 74.4062 66.6484 73.7625 68.1205 73.8248C68.3602 73.836 68.5975 73.7793 68.8054 73.6622C70.634 72.6522 72.0493 73.5276 72.8047 75.0772C72.9733 75.4149 73.0919 75.7738 73.1581 76.1433C73.2217 76.5309 73.4084 76.6069 73.7512 76.5415C73.8679 76.5259 73.9865 76.5259 74.1039 76.5415C75.5161 76.6312 76.3064 77.3714 76.5324 78.787C76.3458 78.7316 76.2821 78.5621 76.2078 78.4406C75.463 77.0567 73.8854 77.2299 72.9146 78.1259C72.0768 78.954 71.5192 80.0145 71.3188 81.1641C71.0566 82.5336 70.8999 83.9199 70.8494 85.3125C70.7751 86.4615 70.7083 87.6104 70.6059 88.7556C70.5035 89.9008 70.5778 90.97 70.574 92.081C70.574 92.2916 70.574 92.5065 70.5528 92.7171C70.5528 92.7894 70.5253 92.8586 70.4754 92.9109C70.4261 92.9639 70.3574 92.9957 70.2844 93.0013C70.2481 93.0019 70.2119 92.9957 70.1782 92.9832C70.1445 92.9701 70.1139 92.9502 70.0877 92.9259C70.0615 92.901 70.0409 92.871 70.0271 92.838C70.0128 92.8056 70.0053 92.7701 70.0059 92.7346C69.8542 92.043 69.8118 91.3321 69.8786 90.6273C69.9578 90.0435 69.9966 89.4553 69.9953 88.8665C70.0727 86.6378 70.1046 84.4097 70.1576 82.1778C70.1926 80.7696 70.3836 79.3578 71.2377 78.1365C71.5923 77.6306 72.0505 77.2032 72.5824 76.8804C72.6898 76.8312 72.7735 76.7427 72.8141 76.6337C72.8553 76.5246 72.8509 76.4044 72.8016 76.2991C72.6355 75.6087 72.2803 74.9757 71.774 74.4685C71.0679 73.7762 70.3231 73.8491 69.5889 74.413C69.1156 74.7856 68.7504 75.2735 68.53 75.8286C67.9332 77.3676 67.5418 78.9758 67.3651 80.6139C67.1959 81.7971 67.0579 82.9872 66.8781 84.171C66.7476 85.0359 66.7508 85.9007 66.684 86.773C66.5641 88.3438 66.4792 89.9145 66.2357 91.4716C66.2114 91.7308 66.2032 91.9906 66.2107 92.2505C66.2107 92.5134 66.1789 92.8661 65.858 92.8629C65.5365 92.8592 65.5046 92.4891 65.5046 92.2056C65.5046 92.1358 65.5046 92.0635 65.5046 91.9944C65.6357 90.8735 65.8049 89.7588 65.8861 88.6341C65.9529 87.7662 66.0135 86.9045 66.0484 86.029C66.1015 84.6863 66.3131 83.3648 66.458 82.0326C66.5641 81.0288 66.6871 80.0257 66.7757 79.0188C66.8294 78.129 66.9474 77.2449 67.1285 76.3713C67.2203 75.9875 67.1285 75.8872 66.7508 75.9215C65.9354 75.9981 65.5046 76.5826 65.1238 77.1882C64.5338 78.1222 64.3259 79.202 64.0644 80.2469C63.7435 81.4544 63.7116 82.7074 63.4788 83.9318C63.2877 84.9941 63.1254 86.0602 62.9562 87.1294C62.8682 87.7556 62.7795 88.3855 62.7265 89.0186C62.6241 90.2329 62.4443 91.4405 62.2748 92.6517C62.2244 92.8823 62.1387 93.1041 62.0207 93.3091C62.0086 93.3421 61.9895 93.3726 61.9644 93.3976C61.9394 93.4231 61.9091 93.443 61.8757 93.4555C61.8421 93.4686 61.8062 93.4742 61.7704 93.4723C61.7345 93.4698 61.6995 93.4605 61.6677 93.4443C61.6108 93.4225 61.5636 93.3813 61.5345 93.329C61.5054 93.2767 61.4963 93.2156 61.5088 93.157C61.6889 92.2536 61.71 91.337 61.8054 90.4267C61.9112 89.4236 62.0454 88.4198 62.1583 87.4197C62.3313 86.0702 62.5111 84.7212 62.6846 83.3679C62.7795 82.6277 62.8644 81.8837 62.9631 81.0812C62.4799 81.1846 62.2572 81.5448 62.0136 81.8631C61.3901 82.7037 60.9459 83.6595 60.7075 84.6726C60.2274 86.5655 59.8885 88.479 59.5497 90.4062C59.3202 91.7246 59.0802 93.0424 58.8437 94.3608C58.7625 94.8487 58.7801 95.3434 58.7095 95.835C58.4714 97.6133 58.4217 99.4102 58.5613 101.198C58.6601 102.718 58.7378 104.247 59.2673 105.717C59.938 107.641 60.7111 109.523 61.9784 111.147C62.1215 111.334 62.2902 111.502 62.4799 111.644C62.7365 111.823 62.9456 112.059 63.0879 112.334C63.2309 112.609 63.3027 112.914 63.2983 113.223C63.2809 114.658 63.3939 116.094 63.2034 117.531C63.1373 118.141 63.1529 118.757 63.249 119.364C63.3408 120.035 63.2809 120.728 63.3196 121.412C63.3789 122.681 63.5362 123.943 63.789 125.188C63.6973 125.264 63.5899 125.319 63.4744 125.351C63.3583 125.382 63.2372 125.389 63.1185 125.371C62.6278 125.343 62.5148 125.229 62.5011 124.738C62.5242 124.455 62.4593 124.173 62.3137 123.928C62.1866 122.426 62.0913 120.921 61.9254 119.43C61.7983 118.264 61.5724 117.108 61.41 115.945C61.3147 115.319 61.357 114.682 61.2194 114.056C61.1 113.481 60.93 112.917 60.7111 112.371C60.0878 110.768 59.3808 109.198 58.593 107.665C57.6363 105.856 57.2505 103.808 57.4846 101.783C57.5234 101.574 57.5234 101.359 57.4846 101.15C57.5935 100.936 57.627 100.693 57.5799 100.458C57.6171 99.6638 57.6983 98.8725 57.8235 98.0874C58.0388 96.3435 58.2542 94.5789 58.4942 92.8175Z" fill="#674532"/>
<path d="M20.7234 68.348C21.207 67.8601 21.6658 67.348 22.1777 66.8913C23.6105 65.6694 25.2462 64.6968 27.0138 64.0158C27.1421 63.9672 27.2614 63.8986 27.3668 63.812H27.5222C27.5679 63.8569 27.6031 63.9111 27.6257 63.9709C27.6481 64.0307 27.6574 64.0943 27.6528 64.1578C26.3466 64.9086 25.9584 65.7529 26.4879 66.9262C27.0153 68.0882 27.7305 69.1599 28.6059 70.0989C28.8306 70.3767 29.1291 70.588 29.4686 70.7101C29.8079 70.8322 30.1752 70.8603 30.5298 70.7911C30.583 70.9699 30.6564 71.1431 30.7486 71.3064C31.5429 72.4441 32.4282 73.5177 33.3961 74.5177C33.9397 75.0779 34.4975 75.628 35.0481 76.182C33.5797 76.2268 32.5242 76.9502 32.3336 78.4481C32.3336 78.5901 32.2877 78.7459 32.1324 78.7945C31.617 78.9708 31.3275 79.4413 30.8757 79.7011C28.9424 78.6755 27.132 77.4418 25.4783 76.0225C25.6266 74.9501 25.097 74.2267 24.2145 73.6903C23.7874 73.4342 23.3532 73.1856 22.9226 72.9326C22.9226 72.846 22.8767 72.77 22.7602 72.7837C22.4707 72.0366 21.9906 71.3998 21.6341 70.6733C21.3799 70.168 21.1116 69.6696 20.8645 69.1649C20.7388 68.9349 20.6677 68.6807 20.6562 68.4209C20.6823 68.3997 20.7049 68.3754 20.7234 68.348Z" fill="#34438B"/>
<path d="M85.167 25.086C85.5204 24.6639 86.0285 24.439 86.4593 24.1137C87.6661 23.2036 88.9678 22.4207 90.3425 21.7781C90.6178 21.6501 90.847 21.5048 90.8045 21.1553C93.2299 21.183 95.6585 21.1933 98.0833 21.2418C99.0329 21.2626 99.6297 21.8231 99.8239 22.7401C99.8788 23.0658 99.8994 23.3964 99.8838 23.7262C99.8838 26.695 99.8901 29.6638 99.9013 32.6327C99.9013 32.8887 99.9225 33.1482 99.9332 33.4077C98.8581 33.9 97.7312 34.2759 96.5725 34.5288C96.5725 31.6361 96.5725 28.7423 96.5725 25.8473C96.5725 25.1967 96.5725 25.1933 95.8914 25.1898C93.5652 25.1726 91.2353 25.1691 88.9091 25.1518C87.6592 25.1414 86.4131 25.1103 85.167 25.086Z" fill="#4150A1"/>
<path d="M94.7446 58.9329C95.7117 58.4693 96.6438 57.933 97.6564 57.5488C99.7135 56.7581 101.862 56.2178 104.053 55.9399C105.692 55.7377 107.344 55.6521 108.995 55.6838C109.62 55.6838 110.231 55.8603 110.859 55.8291C111.487 55.798 111.603 55.7738 111.59 55.1613C111.53 52.9434 111.741 50.7324 111.738 48.5178C111.738 45.8985 111.667 43.2757 111.773 40.6633C111.865 38.4695 111.844 36.2792 111.876 34.0889C111.876 33.608 111.664 33.1167 111.929 32.6392C112.165 32.7672 112.134 32.9852 112.134 33.2032C112.094 36.1028 112.264 38.9989 112.341 41.8951C112.423 44.9123 112.574 47.9262 112.695 50.94C112.779 53.1798 112.853 55.4174 112.917 57.6526C112.991 58.4683 113.016 59.2875 112.991 60.1059C112.836 60.2512 112.709 60.144 112.582 60.1059C109.051 59.0648 105.349 58.7006 101.678 59.0333C101.1 59.0452 100.526 59.1112 99.962 59.2305C98.8282 59.2992 97.7107 59.5324 96.6469 59.9225C96.3098 59.9633 95.9826 60.0616 95.6798 60.2132C95.3221 59.8204 95.0087 59.3912 94.7446 58.9329Z" fill="#B01F79"/>
<path d="M38.2144 147.72C38.0465 147.533 37.9207 147.313 37.8453 147.074C37.7698 146.836 37.7465 146.584 37.7767 146.336C37.8085 145.89 37.7767 145.441 37.7767 144.994C37.7544 143.895 37.6684 142.797 37.519 141.707C37.4391 141.1 37.4546 140.485 37.5649 139.883C37.6396 139.258 37.7575 138.638 37.9179 138.029C38.2039 137.192 38.8181 136.645 39.4605 136.132C39.8982 135.787 40.3924 135.479 40.8443 135.132C41.7127 134.472 42.2034 133.506 42.8811 132.69C42.9837 132.558 43.0439 132.399 43.0541 132.233C43.0753 131.735 43.3859 131.676 43.7848 131.717C43.4001 134.517 42.8882 137.295 42.3304 140.063C42.0374 141.52 41.8044 142.984 41.5291 144.44C41.4585 144.811 41.3315 145.167 41.2361 145.534C41.1763 145.764 41.0411 145.968 40.8514 146.115C40.283 146.551 39.7147 146.987 39.1393 147.413C38.8822 147.627 38.5514 147.737 38.2144 147.72Z" fill="#34438B"/>
<path d="M64.2237 9.81211C64.3224 9.98507 64.3049 10.1062 64.0964 10.1996C62.2662 11.0631 60.7496 12.4554 59.751 14.1892C58.8957 15.5265 58.3186 17.0164 58.0531 18.5733C57.8063 19.9378 57.869 21.3388 58.2366 22.677C58.5889 23.6997 59.1498 24.6415 59.8851 25.4451C60.3381 25.9015 60.6881 26.4461 60.9124 27.0437C61.0603 27.6581 61.1489 28.2849 61.1771 28.9156C61.2442 29.6769 61.276 29.7427 62.0667 29.7599C62.2114 29.7599 62.3562 29.7599 62.5006 29.7599C62.6167 29.8561 62.7641 29.9088 62.9158 29.9088C63.0675 29.9088 63.2142 29.8561 63.3303 29.7599C63.6412 29.7599 63.9515 29.7599 64.2624 29.7599C64.9261 29.7599 64.9117 29.7599 64.9404 29.0921C64.9648 28.5143 64.838 27.9261 65.0284 27.3621C65.1096 28.4209 65.0497 29.4762 65.0534 30.535C65.0534 32.4381 65.0534 34.3412 65.0534 36.2478C65.0534 36.4104 65.0247 36.573 65.011 36.7356C64.9779 36.7475 64.9417 36.7475 64.9086 36.7356C64.9086 35.6319 64.9261 34.5246 64.9086 33.4208C64.9086 32.9225 64.8836 32.8879 64.3792 32.8983C63.2067 32.919 62.0456 32.6699 60.87 32.7426C60.87 32.5142 60.87 32.2824 60.87 32.0505C61.2327 31.9326 61.6144 31.881 61.9961 31.8983C62.8115 31.8983 63.6237 31.8983 64.4354 31.8983C64.7675 31.8983 64.9329 31.7876 64.9086 31.4519C64.9086 31.3585 64.9086 31.2651 64.9086 31.1717C64.9086 30.6353 64.9086 30.625 64.333 30.6215C63.4502 30.6215 62.568 30.6215 61.6784 30.6215C61.449 30.6215 61.1913 30.6976 61.0113 30.4762C60.9865 30.2824 61.1136 30.0125 60.8242 29.9364C60.3088 29.7946 60.2841 29.4277 60.2841 29.0021C60.27 27.944 59.9398 26.9131 59.3345 26.0368C59.205 25.8408 59.0427 25.6677 58.8544 25.5247C58.2375 25.0514 57.6899 24.4972 57.2271 23.8776C57.0818 23.6614 56.8918 23.4775 56.6693 23.3379C56.7223 23.1302 56.581 22.9919 56.4893 22.8223C53.6017 17.7497 56.6128 11.3034 62.6561 9.95049C63.1655 9.81117 63.6968 9.76425 64.2237 9.81211Z" fill="#CC9B2C"/>
<path d="M62.3 123.929C62.4452 124.174 62.5108 124.456 62.4871 124.738C62.4871 125.23 62.6144 125.344 63.1045 125.372C63.2238 125.39 63.3449 125.383 63.4604 125.351C63.5759 125.319 63.6839 125.264 63.7756 125.188C64.4817 125.23 65.1379 124.936 65.784 124.714C68.4729 123.83 71.0176 122.568 73.3382 120.97C74.4432 120.218 75.4783 119.372 76.4304 118.441C76.5809 118.327 76.6851 118.163 76.7244 117.981C76.7638 117.799 76.7363 117.609 76.6458 117.444C76.5434 117.223 76.3355 117.005 76.4941 116.721L76.7095 116.69C77.1933 116.604 77.7402 116.41 78.1216 116.856C78.563 117.393 78.8733 117.991 78.5312 118.738C78.259 119.327 77.8251 119.797 77.5248 120.365C76.3461 121.537 75.0569 122.597 73.6734 123.53C72.9992 123.987 72.2794 124.358 71.577 124.766C69.2215 126.086 66.7024 127.105 64.0828 127.797L62.8754 128.046C62.0246 128.074 61.7881 127.434 61.5163 126.838C61.289 126.339 61.2428 125.777 61.3853 125.248C61.5279 124.719 61.8505 124.253 62.3 123.929Z" fill="#EEB31E"/>
<path d="M49.6378 81.8042C49.6554 82.6105 49.3766 83.375 49.2848 84.1675C48.9528 86.815 49.2105 89.5023 50.0402 92.0426C50.163 92.2731 50.2215 92.5311 50.2096 92.7903H47.7034C47.5092 92.7386 47.4739 92.5722 47.428 92.4133C46.9197 90.7279 46.1431 89.1434 45.5042 87.5097C45.1511 86.5689 44.7734 85.6311 44.4063 84.6934C44.3668 84.5326 44.2721 84.3893 44.138 84.2884C44.1166 84.2342 44.0761 84.1887 44.0237 84.1607C43.9713 84.1326 43.9104 84.1245 43.8521 84.1364C43.8274 83.7906 43.5449 83.7906 43.3049 83.704C42.8289 83.5793 42.3353 83.5314 41.8435 83.5619C41.8435 83.2884 41.8188 83.0186 41.8047 82.7457C43.0504 82.7843 44.2974 82.7345 45.5359 82.5968C46.583 82.5045 47.6179 82.3083 48.6246 82.0117L49.6378 81.8042Z" fill="#EEB31E"/>
<path d="M58.4947 92.8188C58.2688 94.5802 58.0535 96.3447 57.8099 98.1056C57.6847 98.8913 57.6034 99.6819 57.5663 100.476C57.6133 100.711 57.5799 100.954 57.471 101.168C55.2392 99.7729 53.3181 97.9498 51.823 95.8083C51.2913 95.0824 50.8192 94.3166 50.411 93.5178C50.298 93.2892 50.1286 93.0711 50.2062 92.7876L58.4947 92.8188Z" fill="#F26723"/>
<path d="M81.44 92.7903C82.2422 92.6383 83.0663 92.6383 83.8686 92.7903L84.9736 93.2856C84.9979 93.3511 85.0192 93.4202 85.0441 93.4863C84.4442 93.4738 83.8448 93.5299 83.258 93.652C81.9057 93.981 80.9318 94.7804 80.0809 95.8321C78.4571 97.8702 76.9568 100.002 75.2768 101.994C74.5295 102.945 73.7342 103.859 72.8938 104.732C72.503 105.15 71.9905 105.442 71.4255 105.565C71.1327 105.629 70.8268 105.609 70.5452 105.509C70.263 105.408 70.0164 105.231 69.8335 104.998C69.6936 104.85 69.6031 104.664 69.5744 104.464C69.5463 104.264 69.5813 104.061 69.6743 103.88C70.0539 103.057 70.6663 102.356 71.4392 101.863C73.1217 100.728 74.6737 99.4167 76.0672 97.9531C76.4774 97.5556 76.8182 97.0951 77.0767 96.5898C77.3096 96.4758 77.3914 96.244 77.5287 96.0502C78.5663 94.6489 79.6045 93.2576 81.44 92.7903Z" fill="#674532"/>
<path d="M30.8753 79.7179C31.3272 79.4587 31.6166 78.9876 32.1321 78.8113C32.2874 78.7596 32.3156 78.6038 32.3333 78.4655C32.5239 76.967 33.5793 76.2442 35.0478 76.1987C35.4941 76.2529 35.9078 76.4561 36.2198 76.7732C35.8386 76.815 35.4926 76.5726 35.0867 76.6797C34.4744 76.8492 33.9474 77.2343 33.6068 77.7614C33.2661 78.2879 33.1357 78.9197 33.2405 79.5347C33.3922 80.4587 33.4487 81.3996 33.6711 82.303C34.0242 83.7423 34.3489 85.1847 34.769 86.6035C35.1891 88.0222 35.4573 89.583 35.9056 91.0466C36.2586 92.1956 36.474 93.372 36.7176 94.5446C36.9045 95.6126 36.9685 96.698 36.9082 97.7802C36.9102 97.8731 36.8959 97.9653 36.8658 98.0532C36.8545 98.0999 36.8291 98.1423 36.7932 98.1753C36.7571 98.2077 36.712 98.2289 36.6636 98.2363C36.6151 98.2438 36.5655 98.237 36.5211 98.217C36.4766 98.1965 36.4394 98.1634 36.414 98.1223C36.2867 97.951 36.2097 97.7491 36.1916 97.5379C35.8986 95.2057 35.3656 92.9221 34.8748 90.6174C34.2395 87.6521 33.4629 84.7355 32.7887 81.7697C32.6333 81.1123 32.5592 80.4307 32.4356 79.7627C32.3686 79.4169 32.2203 79.3752 31.945 79.5901C31.6632 79.7926 31.4317 80.0556 31.2673 80.3578C31.1029 80.66 31.01 80.9952 30.9954 81.3372C30.9445 82.7766 31.051 84.2177 31.3131 85.6346C31.8814 88.9949 32.8028 92.2747 33.5052 95.6038C33.7912 96.9603 34.0453 98.3198 34.2924 99.6794C34.3225 99.9859 34.3225 100.294 34.2924 100.6C34.2944 100.68 34.2681 100.759 34.2179 100.821C34.1677 100.884 34.0967 100.929 34.0171 100.946C33.7523 100.991 33.6641 100.783 33.6358 100.6C33.5546 100.213 33.5405 99.8146 33.4523 99.4202C33.3154 98.5142 33.0957 97.6226 32.7957 96.7559C32.6757 96.4687 32.838 96.1328 32.5909 95.8836C32.3191 95.0188 32.2132 94.1159 31.9909 93.2405C31.952 93.0847 31.892 92.9321 31.8426 92.7801C31.6999 91.5445 31.4878 90.3177 31.2072 89.1051C30.7774 87.2259 30.4721 85.3212 30.2929 83.4034C30.137 82.1454 30.3386 80.8706 30.8753 79.7179Z" fill="#A77154"/>
<path d="M65.5126 145.33H65.6612C65.7399 145.446 65.8335 145.552 65.9396 145.644C66.9011 146.335 67.9399 146.916 69.0356 147.375C69.9739 147.784 70.9722 148.044 71.9942 148.147C72.7527 148.191 73.5225 148.147 74.2848 148.147C74.3091 148.14 74.3347 148.14 74.3591 148.147C74.6138 148.513 74.7649 148.939 74.7967 149.381C72.7471 150.471 70.5127 151.187 68.2028 151.496C67.797 151.54 67.3837 151.524 66.981 151.568C66.6282 151.606 66.4728 151.44 66.3211 151.157C65.5732 149.684 64.9339 148.161 64.4082 146.599L65.5126 145.33Z" fill="#C95B28"/>
<path d="M78.6147 129.503C79.0599 129.049 79.6736 128.81 80.1044 128.329C80.9959 127.883 81.7831 127.26 82.4168 126.499C82.865 126.398 83.0061 126.741 83.1547 127.022C83.7403 128.119 84.3159 129.224 84.8803 130.333C85.1394 130.754 85.3254 131.215 85.4316 131.696C84.8279 132.371 84.0325 132.852 83.1472 133.08C82.6328 133.206 82.0928 133.196 81.5833 133.05C81.0739 132.904 80.6138 132.628 80.2492 132.25C79.442 131.51 78.8738 130.555 78.6147 129.503Z" fill="#F26723"/>
<path d="M26.802 93.9805C26.8545 94.0291 26.8891 94.0926 26.9006 94.1624C26.9121 94.2316 26.8998 94.3032 26.8656 94.3649C26.3784 95.3406 26.8656 96.1644 27.3703 96.9326C28.6015 98.6716 29.9469 100.33 31.3981 101.898C32.9382 103.632 33.9013 105.785 34.1586 108.071C34.2833 109.541 34.2596 111.02 34.088 112.486C33.9715 113.97 33.5196 115.389 33.4208 116.87C33.4208 117.146 33.4597 117.562 33.0466 117.7C33.0784 116.852 33.1278 116.008 33.1384 115.164C33.1595 113.582 33.2019 112.005 33.1631 110.427C33.1243 108.849 32.9196 107.223 32.1747 105.759C31.4867 104.385 30.6588 103.082 29.7037 101.87C28.6992 100.668 27.7567 99.4168 26.8797 98.1227C26.5112 97.5713 26.2013 96.985 25.9548 96.3718C25.8054 95.9955 25.7521 95.5893 25.7995 95.1886C25.8595 94.5861 26.1278 94.1194 26.802 93.9805Z" fill="#A77154"/>
<path d="M96.6542 59.9328C97.718 59.5427 98.8349 59.3094 99.9686 59.2407C99.9686 62.643 99.9768 66.0444 99.9936 69.4445C99.3624 67.5684 98.6139 65.7322 97.7517 63.9464L96.6436 61.8047L96.6542 59.9328Z" fill="#4150A1"/>
<path d="M62.8672 128.053L64.0746 127.804C64.3605 129.039 64.6327 130.281 64.9324 131.513C65.3488 133.219 65.9244 134.863 67.0151 136.284C66.1941 136.86 65.3051 137.336 64.368 137.703C64.1945 137.219 64.1807 136.693 63.9229 136.233C63.7699 134.998 63.6157 133.763 63.4603 132.527C63.2661 131.032 63.0826 129.545 62.8672 128.053Z" fill="#674532"/>
<path d="M90.5577 92.7076C90.353 92.5138 90.1301 92.3344 89.9397 92.1232C89.7118 91.8939 89.5694 91.596 89.5351 91.2776C89.5014 90.9593 89.5782 90.639 89.7524 90.3686C89.9172 90.0907 90.175 89.8776 90.4822 89.7661C90.7894 89.6545 91.1271 89.6508 91.4368 89.7561C92.6823 90.1823 93.8366 90.8297 94.843 91.6665C95.1745 91.9362 95.235 92.3581 95.4042 92.7045C94.9984 94.2616 93.9465 94.684 92.5555 93.8254C91.9175 93.4073 91.2495 93.0335 90.5577 92.7076Z" fill="#ED1B6D"/>
<path d="M79.6068 9.69168C79.6174 10.0012 79.5375 10.3071 79.3758 10.5733C79.2147 10.8395 78.9787 11.0547 78.6965 11.1935C77.7207 11.7068 76.6725 12.0743 75.5862 12.2836C75.2878 12.3396 74.9794 12.2998 74.7059 12.1702C74.4325 12.0405 74.209 11.8278 74.0685 11.5638C73.9318 11.2985 73.8831 10.9978 73.9299 10.7041C73.9767 10.4104 74.1166 10.1386 74.3295 9.92696C74.5205 9.71542 74.749 9.53953 75.0037 9.40787C75.7311 9.04107 76.4478 8.65351 77.1963 8.33518C78.375 7.82301 79.5787 8.51855 79.6068 9.69168Z" fill="#F26723"/>
<path d="M20.5824 92.8042C21.4508 92.5238 22.1956 91.9805 23.0534 91.7001C23.1699 91.6658 23.2758 91.5998 23.4064 91.5686C24.3419 91.2988 24.9843 91.773 25.0973 92.8148C25.018 93.0883 24.8783 93.3406 24.6878 93.555C23.875 94.3625 22.9345 95.0354 21.9026 95.5482C21.7522 95.623 21.5898 95.6722 21.4226 95.694C21.1501 95.7582 20.8643 95.7413 20.6015 95.646C20.3387 95.5501 20.1109 95.38 19.947 95.1575C19.7749 94.9264 19.6821 94.6478 19.6821 94.3612C19.6821 94.0752 19.7749 93.7967 19.947 93.5656C20.1441 93.3001 20.3562 93.0459 20.5824 92.8042Z" fill="#F26723"/>
<path d="M78.8174 18.6358C78.2243 18.6264 77.6337 18.5626 77.0525 18.4455C76.3676 18.2656 75.9724 17.8642 75.9443 17.3105C75.9487 17.0263 76.0455 16.7509 76.2197 16.524C76.3945 16.297 76.6373 16.1301 76.9151 16.0474C77.1599 15.9501 77.4202 15.8951 77.6843 15.8848C78.4541 15.8848 79.2201 15.864 79.9861 15.8605C80.2021 15.8542 80.4175 15.8919 80.6179 15.9713C80.8964 16.0756 81.1342 16.2638 81.2972 16.5089C81.4601 16.7539 81.5394 17.0433 81.5244 17.3353C81.5088 17.6274 81.3995 17.9072 81.2123 18.1346C81.0243 18.3621 80.7684 18.5254 80.4806 18.6012C80.2258 18.6713 79.9605 18.6971 79.6964 18.6773L78.8174 18.6358Z" fill="#F26723"/>
<path d="M64.8163 2.70513C64.8163 3.1757 64.8163 3.64629 64.8163 4.11687C64.8144 4.37665 64.7476 4.63202 64.6222 4.8608C64.5348 5.04965 64.3962 5.21181 64.2226 5.33015C64.049 5.44849 63.8455 5.51863 63.6345 5.53316C63.4235 5.54769 63.2118 5.50607 63.0233 5.4127C62.8341 5.31933 62.6743 5.17767 62.5607 5.00267C62.3781 4.75035 62.2573 4.4603 62.2075 4.15493C62.0478 3.27251 61.9862 2.37568 62.024 1.48023C62.0192 1.14532 62.1313 0.818866 62.342 0.55512C62.5526 0.291377 62.8491 0.10622 63.1819 0.0304169C63.3779 -0.0111039 63.5808 -0.0101046 63.7768 0.0333447C63.9722 0.0767942 64.1558 0.161643 64.3144 0.281952C64.4736 0.40226 64.6034 0.555121 64.6952 0.729829C64.7876 0.904539 64.8394 1.09688 64.8482 1.29338C64.8937 1.7605 64.8482 2.23454 64.8482 2.70513H64.8163Z" fill="#F26723"/>
<path d="M52.062 12.3423C51.9077 12.3175 51.7555 12.2816 51.6066 12.235C50.9006 11.9789 50.1558 11.7401 49.4533 11.4356C48.532 11.0342 48.1649 10.2521 48.4932 9.50815C48.8214 8.76413 49.6122 8.53228 50.53 8.87136C51.2471 9.14034 51.9334 9.48248 52.5774 9.89221C52.847 10.0499 53.0744 10.2682 53.2411 10.5289C53.372 10.7154 53.4445 10.9352 53.4496 11.1615C53.4546 11.3878 53.3919 11.6106 53.2693 11.8024C53.1413 11.9957 52.9597 12.1491 52.7459 12.2447C52.532 12.3403 52.2948 12.3742 52.062 12.3423Z" fill="#F26723"/>
<path d="M57.8762 6.57734C57.8968 6.77797 57.8553 6.97998 57.757 7.15712C57.6588 7.33426 57.5084 7.47831 57.3255 7.5704C57.1546 7.65907 56.9609 7.69683 56.7684 7.67901C56.5759 7.66119 56.3928 7.58854 56.2418 7.47009C56.0281 7.32055 55.8358 7.14366 55.6699 6.94415C55.1392 6.30194 54.68 5.60597 54.3003 4.86804C54.2447 4.76304 54.1998 4.65293 54.1661 4.53933C54.0433 4.20742 54.0507 3.84257 54.1871 3.51576C54.3235 3.18894 54.5789 2.92354 54.9039 2.77118C55.0688 2.69951 55.2466 2.66056 55.4269 2.65659C55.6073 2.65261 55.7867 2.68369 55.9547 2.74803C56.1228 2.81237 56.2761 2.9087 56.406 3.03145C56.5358 3.1542 56.6396 3.30095 56.7113 3.46322C57.1036 4.21569 57.4456 4.99241 57.735 5.78845C57.8235 6.04266 57.8711 6.3088 57.8762 6.57734Z" fill="#F26723"/>
<path d="M69.3815 5.83694C69.5532 4.80022 70.0058 3.8276 70.6907 3.02011C70.8961 2.78181 71.1857 2.62859 71.5016 2.59135C71.8169 2.5541 72.1353 2.6356 72.3925 2.81941C72.651 2.97921 72.8395 3.2269 72.9232 3.51495C73.0062 3.80299 72.9781 4.11109 72.8445 4.38008C72.4206 5.25401 71.8506 6.05183 71.157 6.74011C71.0115 6.90043 70.818 7.01109 70.6039 7.05589C70.3897 7.10069 70.1669 7.07738 69.9671 6.98928C69.5507 6.80242 69.3603 6.47019 69.3815 5.83694Z" fill="#F26723"/>
<path d="M49.2176 16.6111C49.6597 16.5802 50.104 16.6175 50.5343 16.7218C50.7704 16.7714 50.9845 16.8928 51.1461 17.0686C51.3077 17.2444 51.4086 17.4658 51.4345 17.7011C51.4432 17.9397 51.371 18.1744 51.2293 18.3685C51.0874 18.5626 50.884 18.7052 50.6508 18.7738C49.7496 19.1031 48.7843 19.2286 47.8268 19.1406C47.5174 19.1285 47.2238 19.0036 47.0034 18.7904C46.7831 18.5772 46.6518 18.2909 46.6355 17.9878C46.6192 17.6848 46.7189 17.3865 46.915 17.1517C47.1112 16.9169 47.3898 16.7623 47.6962 16.7183C48.1972 16.6238 48.7079 16.5878 49.2176 16.6111Z" fill="#F26723"/>
<path d="M50.2164 26.3769C50.0249 26.3852 49.8346 26.3425 49.6659 26.2531C49.4972 26.1638 49.3565 26.0312 49.2586 25.8695C49.1608 25.7079 49.1095 25.5233 49.1104 25.3353C49.1112 25.1474 49.1641 24.9632 49.2633 24.8023C49.3555 24.6368 49.4832 24.4928 49.6375 24.3802C50.3284 23.9106 51.086 23.5433 51.8861 23.2901C52.0896 23.2119 52.3141 23.2035 52.5231 23.2663C52.7321 23.3291 52.9132 23.4595 53.0369 23.6362C53.1351 23.8148 53.1703 24.0202 53.1371 24.2204C53.1039 24.4207 53.0042 24.6046 52.8533 24.7435C52.238 25.375 51.5092 25.89 50.7035 26.2627C50.5522 26.3367 50.3856 26.3757 50.2164 26.3769Z" fill="#F26723"/>
<path d="M31.3845 124.081C30.7173 123.704 30.149 123.254 30.1102 122.413C30.1102 122.354 30.0432 122.296 30.0078 122.24C30.0073 122.018 30.0672 121.799 30.1814 121.607C30.2956 121.415 30.4598 121.256 30.6573 121.147C31.273 120.713 31.9465 120.364 32.6589 120.109C32.721 120.235 32.7512 120.374 32.7469 120.515C32.7426 120.655 32.704 120.792 32.6342 120.915C32.2035 121.967 31.7976 123.026 31.3845 124.081Z" fill="#34438B"/>
<path d="M71.0083 20.8881L72.7345 20.8188C72.9256 20.8188 73.116 20.85 73.3064 20.85C78.9545 20.85 84.6307 21.068 90.2932 21.1268C90.365 21.1298 90.4374 21.1379 90.5086 21.1511C90.4693 21.1787 90.4306 21.2272 90.3919 21.2306C89.1713 21.305 87.9477 21.305 86.7278 21.2306C86.3994 21.2064 86.0673 21.1545 85.732 21.1511C82.4918 21.1511 79.2511 21.1926 76.0103 21.113C74.457 21.0714 72.9043 21.0057 71.3473 20.9988C71.2249 21.0018 71.1051 20.9626 71.0083 20.8881Z" fill="#4150A1"/>
<path d="M63.9231 136.233C64.181 136.693 64.1947 137.219 64.3676 137.704C63.571 138.285 62.697 138.758 61.7698 139.109C61.7603 138.992 61.7756 138.876 61.8144 138.766C61.8533 138.655 61.915 138.554 61.9958 138.468C62.5247 137.636 63.174 136.883 63.9231 136.233Z" fill="#B01F79"/>
<path d="M65.5124 145.33L64.4074 146.586C63.9729 145.548 63.5034 144.534 63.1719 143.472C63.5246 143.621 63.7331 143.956 64.0047 144.213C64.4636 144.638 64.8875 145.119 65.5124 145.33Z" fill="#B01F79"/>
<path d="M74.796 149.375C74.7642 148.932 74.6131 148.506 74.3584 148.139C75.5415 148.135 76.7145 147.928 77.8246 147.526C77.9151 147.504 78.0075 147.49 78.1005 147.485C77.1153 148.312 75.9398 148.814 74.796 149.375Z" fill="#B01F79"/>
<path d="M82.4321 126.499C81.7991 127.26 81.0118 127.883 80.1197 128.33C79.9386 127.931 79.8001 127.515 79.707 127.088C80.4518 127.022 81.1192 126.652 81.864 126.565C82.0501 126.521 82.2405 126.499 82.4321 126.499Z" fill="#B01F79"/>
<path d="M84.9703 93.2823L83.8652 92.7876H85.097L84.9703 93.2823Z" fill="#F26723"/>
<path d="M85.171 93.5064C85.093 93.6279 85.058 93.5694 85.0293 93.4722L85.171 93.5064Z" fill="#674532"/>
<path d="M81.4406 92.7902C79.6014 93.2576 78.5638 94.6489 77.5293 96.0471C77.392 96.2371 77.3108 96.4726 77.0773 96.5867C77.1235 95.3131 76.8482 94.057 76.9225 92.7803L81.4406 92.7902Z" fill="#F26723"/>
<path d="M36.2196 76.7699C35.9075 76.4521 35.4939 76.2496 35.0476 76.1954C34.4969 75.6415 33.9392 75.0913 33.3956 74.5312C32.4276 73.5311 31.5423 72.4576 30.7481 71.3198C30.6558 71.1566 30.5824 70.9834 30.5292 70.8045C30.8827 70.617 31.1547 70.3104 31.295 69.9416C31.4352 69.5721 31.434 69.1658 31.2916 68.7976C31.1938 68.4568 31.0759 68.1216 30.9387 67.7938C30.6527 67.119 30.3068 66.4685 30.0491 65.7838C29.6325 64.6728 28.8842 64.0884 27.6487 64.175C27.6533 64.1114 27.6441 64.0473 27.6215 63.9881C27.599 63.9283 27.5637 63.8741 27.5181 63.8286C29.1814 63.2884 30.9002 62.9288 32.6436 62.7563C34.0081 62.6298 35.3793 62.588 36.749 62.6316C37.5879 62.6566 38.4241 62.7376 39.2518 62.8734C39.4829 62.9363 39.7268 62.9363 39.9579 62.8734C40.0708 62.6659 39.9261 62.469 39.8979 62.2751C39.4496 59.0779 40.4415 56.2544 42.3053 53.7043C43.4958 52.0318 45.0431 50.6332 46.8401 49.6055C48.6371 48.5778 50.6407 47.9456 52.7118 47.7528C54.4197 47.5262 56.1568 47.6392 57.8192 48.0851C59.4816 48.531 61.0353 49.3005 62.3876 50.3479C62.7055 50.5901 62.8746 50.5901 63.1606 50.3237C63.7062 49.8224 64.3468 49.4309 65.046 49.1714C65.1378 49.2718 65.2327 49.3721 65.3282 49.469C65.38 49.7462 65.4811 50.0122 65.6285 50.2545C66.4101 51.9444 66.9127 53.7454 67.1181 55.5901C67.3747 57.4078 67.4046 59.2496 67.2061 61.0744C67.0151 63.0609 66.5631 65.0143 65.8613 66.8873C65.8345 66.977 65.8133 67.0686 65.7977 67.1608C65.7571 67.1689 65.7184 67.1857 65.6847 67.2094C65.0628 67.253 64.451 67.3838 63.8667 67.5969C59.6698 68.7714 55.9577 71.2133 53.259 74.576C51.5529 76.6901 50.3472 79.15 49.7289 81.7763L49.6548 81.8181L48.6488 82.0255C48.1878 81.8455 47.6941 81.7595 47.1979 81.7732C45.7469 81.6641 44.3199 81.3482 42.9619 80.8354C42.1747 80.5688 41.451 80.1432 40.6533 79.9289C40.6463 79.8915 40.6292 79.8566 40.6037 79.8279C40.5782 79.7993 40.5453 79.7781 40.5086 79.7663C40.212 79.5519 40.0285 79.2161 39.6931 79.0429C39.4133 78.6933 39.0129 78.4559 38.567 78.3749C38.1364 78.2678 37.6881 78.2229 37.2468 78.1537C37.0963 77.5811 36.7291 77.0864 36.2196 76.7699Z" fill="#4150A1"/>
<path d="M37.2543 78.1431C37.6956 78.2122 38.1439 78.2571 38.5746 78.3643C39.0204 78.4453 39.4209 78.6827 39.7006 79.0322C39.443 78.9805 39.1853 78.9319 38.9311 78.8733C37.8121 78.6035 36.979 79.2191 36.9155 80.3369C36.8994 81.1824 36.9703 82.0273 37.1273 82.8591C37.3638 84.4511 37.9815 85.9353 38.4122 87.4718C39.0286 89.5192 39.5282 91.5984 39.9089 93.7C40.0575 94.3898 40.118 95.0957 40.0889 95.8004C40.0843 95.9406 40.069 96.0808 40.0431 96.2191C40.0314 96.2646 40.0053 96.3058 39.9686 96.3363C39.9318 96.3668 39.8863 96.3849 39.8383 96.3886C39.7147 96.3886 39.6795 96.3058 39.6265 96.2291C39.5412 96.0347 39.4956 95.8254 39.4924 95.6135C38.9382 93.1916 38.4333 90.7517 37.7733 88.3472C37.3002 86.6481 36.7495 84.9701 36.2695 83.271C35.9771 82.3738 35.8027 81.4435 35.7506 80.5027C35.7258 79.3886 36.1353 78.5481 37.2543 78.1431Z" fill="#A77154"/>
<path d="M41.8496 83.562C42.3414 83.5308 42.835 83.5788 43.3111 83.7034C43.5511 83.78 43.8335 83.8037 43.8582 84.1364C42.4992 83.8112 41.6978 84.4442 41.6766 85.8387C41.6742 86.2381 41.7325 86.6356 41.8496 87.0182C42.425 88.9771 43.0922 90.9111 43.4911 92.9006C43.6668 93.7275 43.7391 94.5723 43.7064 95.416C43.7064 95.5375 43.6782 95.6652 43.5299 95.6758C43.4817 95.6727 43.4353 95.6565 43.3959 95.6291C43.3566 95.6017 43.3259 95.5637 43.3075 95.52C43.2192 95.3537 43.1573 95.1755 43.124 94.9904C42.7481 92.9611 42.2328 90.9591 41.5814 88.9977C41.2117 87.9316 40.9249 86.84 40.7236 85.7315C40.6673 85.4449 40.6808 85.1496 40.763 84.8698C40.8452 84.5894 40.9938 84.3321 41.1966 84.119C41.4048 83.9184 41.6343 83.7383 41.8496 83.562Z" fill="#A77154"/>
<path d="M40.6431 79.9326C41.4408 80.1575 42.1645 80.5725 42.9517 80.8392C44.3096 81.352 45.7367 81.6679 47.1877 81.7769C47.6838 81.7632 48.1776 81.8492 48.6385 82.0293C47.6318 82.3258 46.5969 82.5221 45.5498 82.6143C44.3113 82.752 43.0643 82.8019 41.8186 82.7633C41.4126 81.8043 41.1478 80.8112 40.6431 79.9326Z" fill="#34438B"/>
<path d="M43.8521 84.1336C43.9104 84.1217 43.9712 84.1305 44.0237 84.1579C44.0761 84.1859 44.1166 84.2314 44.138 84.2856C44.08 84.2931 44.0213 84.2825 43.97 84.2551C43.9187 84.2277 43.8775 84.1853 43.8521 84.1336Z" fill="#A77154"/>
<path d="M40.5161 79.7559C40.5529 79.7677 40.5858 79.7889 40.6113 79.8175C40.6368 79.8462 40.6539 79.8811 40.6608 79.9185C40.6215 79.9116 40.5857 79.8917 40.5594 79.8618C40.5332 79.8325 40.5179 79.7951 40.5161 79.7559Z" fill="#34438B"/>
<path d="M64.9196 36.7188C64.9527 36.7307 64.9889 36.7307 65.022 36.7188C65.022 37.1201 65.0532 37.518 65.0532 37.9159C65.0532 41.4868 65.0532 45.0623 65.0532 48.6425L64.9408 48.7532C64.8135 48.6874 64.8066 48.556 64.7566 48.4452C64.7566 45.7463 64.9302 43.0473 64.7217 40.3484C64.7573 40.2658 64.776 40.177 64.776 40.0872C64.776 39.9974 64.7573 39.9086 64.7217 39.826C64.7217 39.6806 64.7217 39.5387 64.7217 39.3934C64.7673 39.3658 64.771 39.3277 64.7217 39.2861C64.771 38.6978 64.771 38.1064 64.7217 37.518C64.7467 37.4637 64.7598 37.4047 64.7598 37.345C64.7598 37.2853 64.7467 37.2264 64.7217 37.172L64.7429 36.8814L64.9196 36.7188Z" fill="#FBE6DD"/>
<path d="M91.5145 55.1089C90.3845 54.0207 89.1858 53.0037 87.9247 52.0639C84.4654 49.5657 80.6565 47.8841 76.3744 47.3027C75.9224 47.2439 75.471 47.1989 75.019 47.147C74.8105 46.9706 74.5601 47.0467 74.3129 47.0432C73.6424 47.0432 72.9681 47.0432 72.2939 47.0432C71.7289 47.0432 71.7289 47.0432 71.7145 46.5035C71.7145 46.3616 71.7145 46.2197 71.7145 46.0778C71.644 41.6731 71.8669 37.2718 71.8525 32.8704C71.8525 32.7978 71.8525 32.7285 71.8525 32.6559C71.8575 32.4903 71.9074 32.3291 71.9973 32.1888C73.4938 32.078 74.9803 31.8808 76.4836 31.8428C77.0805 31.8912 77.6842 31.905 78.2773 31.9916C80.6977 32.3865 83.0657 33.0457 85.337 33.9569C87.1019 34.6489 88.8674 35.2925 90.6323 35.9603C90.4276 36.1818 90.4981 36.4552 90.5087 36.7043C90.5687 38.2268 90.6954 39.7492 90.7628 41.2682C90.8508 43.2405 91.0132 45.2059 91.0806 47.1748C91.1156 48.2543 91.2111 49.3338 91.2816 50.41C91.3309 51.2058 91.2816 52.012 91.4196 52.7975C91.5176 53.5639 91.5495 54.3372 91.5145 55.1089ZM78.0369 36.424C77.8215 36.424 77.603 36.424 77.3907 36.424C76.9824 36.4463 76.581 36.5388 76.2052 36.6974C76.0035 36.7675 75.835 36.9066 75.7301 37.0891C75.6252 37.2716 75.5909 37.4852 75.6339 37.6904C75.677 37.8956 75.7938 38.0787 75.9636 38.2059C76.1334 38.3331 76.3444 38.3957 76.5579 38.3825C76.7733 38.3861 76.9887 38.3687 77.2003 38.3306C77.6979 38.2426 78.2067 38.2426 78.7043 38.3306C79.9304 38.5604 81.1385 38.8749 82.319 39.2717C83.7593 39.7284 85.1784 40.2405 86.608 40.725C87.0875 40.8789 87.582 40.9833 88.0833 41.0364C88.2275 41.0682 88.378 41.0479 88.5078 40.9791C88.6377 40.9105 88.7376 40.7981 88.7894 40.6627C88.8312 40.5391 88.8325 40.4057 88.7925 40.2814C88.7526 40.1572 88.6739 40.0484 88.5671 39.9707C88.3536 39.7794 88.107 39.626 87.8398 39.5174C85.9513 38.588 83.9847 37.8182 81.9626 37.2164C80.6846 36.86 79.4029 36.4274 78.0369 36.4274V36.424ZM77.2041 42.9084C76.6747 42.8644 76.1421 42.9184 75.6333 43.0675C75.4111 43.1304 75.2194 43.2704 75.0945 43.4615C74.9703 43.6525 74.9203 43.8814 74.9553 44.1056C74.9803 44.2168 75.0277 44.3219 75.0945 44.4147C75.162 44.5076 75.2475 44.5862 75.3461 44.6459C75.4448 44.7056 75.5553 44.7453 75.6701 44.7624C75.785 44.7796 75.9018 44.7739 76.0141 44.7457C77.2284 44.5796 78.4077 44.7976 79.5902 45.0017C81.5461 45.3478 83.3847 46.0398 85.2558 46.6453C85.8033 46.8218 86.3465 47.0087 86.9046 47.154C87.0494 47.2182 87.2136 47.2276 87.366 47.1803C87.5177 47.1331 87.6463 47.0325 87.7268 46.8979C87.7824 46.7414 87.7849 46.5713 87.733 46.4134C87.6819 46.2555 87.5788 46.1183 87.4409 46.0225C87.1631 45.797 86.8553 45.6085 86.5269 45.4619C85.1172 44.7919 83.6513 44.2409 82.1461 43.8149C80.5435 43.3116 78.8835 43.0071 77.2041 42.9084Z" fill="#ED1B6D"/>
<path d="M91.5146 55.1091C91.5508 54.3352 91.5202 53.5597 91.4228 52.7909C91.2955 52.0054 91.3348 51.1992 91.2849 50.4034C91.2143 49.3272 91.1194 48.2477 91.0838 47.1681C91.017 45.1993 90.8547 43.2339 90.7661 41.2616C90.6993 39.7426 90.5719 38.2201 90.512 36.6977C90.512 36.4485 90.4308 36.1751 90.6356 35.9537C90.7985 35.99 90.9571 36.0434 91.1088 36.1129C91.3323 36.2727 91.6057 36.3527 91.8823 36.3394C92.1589 36.3262 92.423 36.2206 92.6302 36.0402C92.8075 35.8827 93.0286 35.7804 93.2652 35.7461C93.2652 37.3032 93.3288 38.8602 93.2233 40.4139C93.0748 42.5591 93.2233 44.7044 93.0816 46.8428C92.9549 48.8428 93.0535 50.8462 92.9405 52.8463C92.87 54.0677 92.8313 55.2891 92.8313 56.514L91.5146 55.1091Z" fill="#B01F79"/>
<path d="M90.6531 76.4339C89.5306 76.3161 88.9656 75.9217 88.7471 75.1086C88.5279 74.2955 88.8707 73.6107 89.7285 73.0014C89.9788 72.825 90.251 72.673 90.5157 72.5066C91.1582 72.2562 91.7818 71.9627 92.383 71.6281C92.8188 71.3782 93.3145 71.2455 93.8196 71.2437C94.1929 71.2449 94.5581 71.3489 94.874 71.544C95.1893 71.739 95.4428 72.0169 95.6051 72.3465C95.7674 72.6761 95.8324 73.0431 95.7918 73.407C95.7512 73.7702 95.6076 74.1154 95.3766 74.4027C95.0707 74.7996 94.6555 75.1024 94.1798 75.275C93.0411 75.7622 91.8611 76.1504 90.6531 76.4339Z" fill="#ED1B6D"/>
<path d="M95.8563 84.4304C94.8356 84.3064 93.8048 84.327 92.7922 84.1438C92.5325 84.0983 92.2828 84.013 92.0505 83.8909C91.882 83.8142 91.7303 83.7058 91.6041 83.5712C91.478 83.4373 91.3806 83.2796 91.317 83.1083C91.2533 82.9369 91.2252 82.755 91.2333 82.5724C91.2414 82.3905 91.287 82.2117 91.3657 82.0465C91.4256 81.8945 91.4893 81.7419 91.553 81.5929C92.1935 81.0845 93.0032 80.8259 93.8261 80.8664C94.7157 80.8976 95.591 80.8664 96.495 80.8664C96.9588 80.8864 97.3977 81.0814 97.7186 81.4104C98.0395 81.74 98.2193 82.1774 98.2193 82.6329C98.2193 83.0883 98.0395 83.5263 97.7186 83.8553C97.3977 84.1843 96.9588 84.3793 96.495 84.3993C96.2902 84.4304 96.0711 84.4304 95.8563 84.4304Z" fill="#F26723"/>
<path d="M68.3184 41.9325C68.3396 41.808 68.3646 41.6834 68.3858 41.5554C68.9183 40.9775 69.2573 40.2682 69.7305 39.6488C70.2038 39.0295 70.5247 38.4101 71.1427 37.9741C71.1427 38.6662 71.1427 39.379 71.114 40.0814C71.0341 42.4435 70.9461 44.808 70.8493 47.1747L68.3783 47.5795C68.3783 46.0017 68.3783 44.4204 68.3783 42.8426C68.4133 42.5382 68.3933 42.23 68.3184 41.9325Z" fill="#FBE6DD"/>
<path d="M68.318 41.9331C68.3904 42.231 68.4086 42.5391 68.3711 42.8431C68.3711 44.4209 68.3711 46.0022 68.3711 47.5801L65.3881 48.5385C65.3426 48.3823 65.3313 48.2184 65.3544 48.0575C65.3775 47.8966 65.435 47.7422 65.5224 47.6043C65.8364 46.9123 66.0168 46.1476 66.3271 45.4348C66.8178 44.3172 67.464 43.2791 68.0077 42.1926C68.0358 42.1292 68.0789 42.073 68.1326 42.0281C68.1863 41.9831 68.25 41.9507 68.318 41.9331Z" fill="#4150A1"/>
<path d="M70.8496 47.175C70.9414 44.8106 71.0294 42.4461 71.1143 40.0817C71.1393 39.3896 71.1318 38.6768 71.1424 37.9744C71.1424 36.3032 71.3472 34.6354 71.291 32.9607C71.2698 32.3274 71.291 32.3274 71.9971 32.1821C71.9072 32.3225 71.8572 32.4837 71.8523 32.6493C71.8523 32.7219 71.8523 32.7911 71.8523 32.8638C71.8523 37.2651 71.6437 41.6664 71.7143 46.0712C71.7143 46.2131 71.7143 46.355 71.7143 46.4968C71.7143 47.0263 71.7143 47.0332 72.2936 47.0366C72.9679 47.0366 73.6421 47.0366 74.3127 47.0366C74.5455 47.0366 74.7965 46.9639 75.0187 47.1404L70.8496 47.175Z" fill="#B2234F"/>
<path d="M96.6537 59.9326V61.7909C96.2772 61.3045 95.9564 60.7788 95.6973 60.2233C95.9963 60.0728 96.3203 59.9745 96.6537 59.9326Z" fill="#FBE6DD"/>
<path d="M85.5343 64.3135C86.9996 64.3135 87.8674 65.3895 87.3979 66.3896C86.9041 67.5927 86.1318 68.6669 85.1423 69.528C84.9244 69.7137 84.6528 69.8271 84.365 69.8533C84.0778 69.8794 83.7888 69.8165 83.5397 69.6732C83.313 69.5143 83.1432 69.2894 83.0533 69.0308C82.9634 68.7722 82.9584 68.4925 83.0383 68.2308C83.1601 67.5578 83.3873 66.9073 83.7126 66.303C83.9249 65.9329 84.0903 65.5384 84.3163 65.1789C84.4387 64.9534 84.6122 64.7577 84.8232 64.6082C85.0343 64.458 85.2777 64.3577 85.5343 64.3135Z" fill="#F26723"/>
<path d="M49.7114 81.7628C50.3297 79.136 51.5353 76.6767 53.2415 74.5619C55.9402 71.1998 59.6522 68.7574 63.8494 67.5829C64.4331 67.3698 65.0456 67.2396 65.6674 67.1953C64.7072 70.3095 63.1964 73.0778 60.6686 75.2922C59.3733 76.4748 57.9917 77.5627 56.535 78.5484C54.6324 79.8245 52.572 80.8581 50.4033 81.6245C50.1906 81.7336 49.9508 81.7815 49.7114 81.7628Z" fill="#ED1B6D"/>
<path d="M49.7288 85.6837C49.5488 85.6594 49.397 85.6039 49.404 85.4033C49.637 85.3721 49.6688 85.5622 49.7288 85.6837Z" fill="#9F857B"/>
<path d="M22.922 72.9498C23.3526 73.2022 23.7868 73.4514 24.214 73.7075C25.0964 74.2439 25.626 74.9673 25.4777 76.0396C24.7717 77.026 24.2634 77.2403 23.0879 76.9188C21.952 76.6241 20.8533 76.2066 19.812 75.6727C18.4706 74.981 18.3329 73.4308 19.5014 72.5417C20.0768 72.1018 20.7157 72.1953 21.3582 72.3373C21.8488 72.4445 22.2583 72.7872 22.7702 72.8046C22.7779 72.8408 22.7965 72.8738 22.8235 72.9C22.8505 72.9255 22.8848 72.943 22.922 72.9498Z" fill="#F26723"/>
<path d="M19.7067 82.7314C20.1162 82.7314 20.5221 82.7314 20.9316 82.7314C21.3432 82.7371 21.7447 82.8573 22.0894 83.0779C22.2878 83.1907 22.454 83.3508 22.573 83.5433C22.6919 83.7358 22.7597 83.9545 22.7703 84.1795C22.7808 84.4038 22.7337 84.6275 22.6333 84.83C22.5328 85.0325 22.3823 85.2069 22.1953 85.3371C21.925 85.5353 21.6163 85.6761 21.2881 85.7527C20.3376 86.0045 19.3569 86.1303 18.3723 86.1266C18.1558 86.1241 17.9402 86.0973 17.7299 86.0468C17.3635 85.9683 17.0351 85.7708 16.7988 85.4854C16.5625 85.2001 16.4321 84.8443 16.4292 84.4767C16.4264 84.1091 16.5511 83.7514 16.783 83.4629C17.0148 83.1738 17.3401 82.9713 17.7051 82.8872C17.9831 82.8149 18.2684 82.7732 18.5559 82.7626C18.9371 82.7383 19.3219 82.7626 19.7067 82.7626V82.7314Z" fill="#ED1B6D"/>
<path d="M93.265 35.7467C93.0284 35.7811 92.8074 35.8834 92.6301 36.0408C92.4228 36.2213 92.1587 36.3269 91.8821 36.3401C91.6056 36.3533 91.3328 36.2733 91.1086 36.1135C90.9569 36.044 90.7983 35.9907 90.6354 35.9543C88.8705 35.2865 87.1056 34.6256 85.3406 33.9509C83.0694 33.0397 80.7014 32.3805 78.2803 31.9855C77.6872 31.899 77.0835 31.8852 76.4873 31.8367C78.9583 29.29 81.616 26.9544 84.7013 25.1275L85.1602 25.0859C86.4063 25.1102 87.6525 25.1413 88.9023 25.1517C91.2285 25.1517 93.5584 25.1725 95.8846 25.1897C96.5551 25.1897 96.5626 25.1897 96.5657 25.8472C96.5657 28.7399 96.5657 31.6337 96.5657 34.5287L93.265 35.7467Z" fill="#FBE5DE"/>
<path d="M107.538 44.445C107.361 44.4138 107.184 44.3896 106.983 44.3515C105.491 44.0705 103.95 44.1585 102.5 44.6076C100.382 45.2236 98.2642 45.9053 96.1952 46.6216C95.9468 46.7091 95.6933 46.783 95.4367 46.8431C95.3006 46.8884 95.1527 46.8819 95.0222 46.8248C94.8911 46.7677 94.7868 46.6642 94.7306 46.5351C94.6776 46.4134 94.6738 46.2766 94.7206 46.1524C94.7675 46.0283 94.8605 45.9263 94.981 45.8672C95.1158 45.7692 95.2575 45.6802 95.4049 45.6008C98.0495 44.3008 100.854 43.3412 103.75 42.7459C105.105 42.5237 106.492 42.5601 107.834 42.8532C107.975 42.882 108.111 42.9322 108.236 43.0019C108.367 43.0648 108.477 43.1638 108.55 43.2868C108.625 43.4098 108.66 43.5514 108.653 43.6941C108.64 43.8252 108.59 43.9501 108.509 44.0552C108.428 44.1602 108.319 44.2413 108.194 44.2893C107.988 44.3849 107.765 44.4379 107.538 44.445Z" fill="#EFAC21"/>
<path d="M105.116 49.0095C106.146 48.9403 107.117 49.2275 108.095 49.4767C108.702 49.6324 109.013 50.0407 108.9 50.4664C108.82 50.6926 108.656 50.8811 108.441 50.9945C108.226 51.1079 107.975 51.138 107.738 51.0789C107.195 50.982 106.68 50.8228 106.125 50.7329C104.734 50.4699 103.39 50.757 102.076 51.155C100.35 51.667 98.6566 52.277 97.0035 52.9822C96.8961 53.036 96.7837 53.08 96.6682 53.1136C96.5533 53.1523 96.4291 53.1533 96.3136 53.1165C96.1987 53.0796 96.0988 53.007 96.0295 52.9094C95.9571 52.8132 95.9203 52.6959 95.9247 52.5765C95.929 52.4572 95.9746 52.3428 96.0539 52.252C96.2424 52.0018 96.4828 51.7941 96.76 51.6429C97.3974 51.2637 98.0667 50.9395 98.7615 50.674C100.343 50.0442 101.921 49.4109 103.622 49.1306C104.116 49.053 104.616 49.0125 105.116 49.0095Z" fill="#EFAC21"/>
<path d="M106.28 35.9881C106.665 35.9881 107.053 35.9709 107.434 35.9881C107.996 36.0228 108.402 36.3722 108.377 36.7667C108.353 37.1611 107.961 37.4276 107.41 37.4207C106.69 37.3959 105.968 37.4144 105.249 37.476C103.821 37.6749 102.425 38.0614 101.102 38.6248C99.3863 39.2322 97.7038 39.9251 96.0606 40.7009C95.8303 40.8318 95.5712 40.9066 95.3052 40.9189C95.2091 40.9245 95.1129 40.903 95.0287 40.857C94.9444 40.8111 94.8751 40.7425 94.8289 40.6593C94.7808 40.5756 94.7627 40.4786 94.7764 40.3835C94.7908 40.2884 94.8364 40.2004 94.9063 40.1334C95.0524 39.9767 95.2147 39.8352 95.3901 39.7113C96.0469 39.2319 96.7574 38.8279 97.5084 38.5072C99.1216 37.8324 100.727 37.1231 102.397 36.5971C103.645 36.1713 104.96 35.9651 106.28 35.9881Z" fill="#EFAC21"/>
<path d="M75.1669 140.104C74.2099 140.084 73.628 139.734 73.2746 138.987C72.636 137.623 72.7877 136.52 73.7691 135.641C73.9995 135.425 74.2717 135.257 74.5688 135.145C74.866 135.033 75.1832 134.979 75.5015 134.987C75.8206 134.996 76.134 135.066 76.4249 135.193C76.7158 135.321 76.978 135.504 77.1966 135.731C77.7722 136.322 77.779 137.028 77.6411 137.772C77.4332 138.897 76.2538 140.18 75.1669 140.104Z" fill="#F26723"/>
<path d="M74.2833 148.143C73.521 148.143 72.7512 148.192 71.9927 148.143C70.9707 148.041 69.9724 147.78 69.0341 147.371C67.9384 146.912 66.8996 146.332 65.9387 145.641C65.832 145.548 65.7383 145.443 65.6597 145.326C66.7541 144.343 68.0352 144.347 69.3624 144.679C70.6429 145.008 71.8135 145.66 72.7587 146.568C73.3237 147.037 73.8356 147.565 74.2833 148.143Z" fill="#F26723"/>
<path d="M64.9192 36.7191L64.7394 36.8714C63.4153 36.8229 62.9745 36.5253 62.6742 35.2588C62.5119 34.6013 62.0141 34.4386 61.474 34.3141C61.236 34.2853 61.0002 34.2414 60.768 34.1826C60.062 33.923 59.9526 33.3901 60.5103 32.8987C60.6151 32.8003 60.7507 32.7394 60.8951 32.7257C62.0706 32.653 63.2317 32.9022 64.4042 32.8815C64.9086 32.8815 64.9299 32.9057 64.9336 33.404C64.9367 34.5079 64.9261 35.6152 64.9192 36.7191Z" fill="#EEB31E"/>
<path d="M61.0357 30.4521C61.2158 30.6737 61.4734 30.594 61.7028 30.5975C62.5889 30.5975 63.4679 30.5975 64.3576 30.5975C64.9188 30.5975 64.9188 30.5975 64.9326 31.1478C64.9326 31.2411 64.9326 31.3346 64.9326 31.428C64.9576 31.7741 64.7915 31.8814 64.46 31.8744C63.6478 31.8744 62.8361 31.8744 62.0206 31.8744C61.6388 31.8571 61.2571 31.9087 60.8945 32.0267C60.4921 31.9471 60.1567 31.8052 60.1567 31.3138C60.1567 30.7429 60.5733 30.5837 61.0357 30.4521Z" fill="#EEB31E"/>
<path d="M64.7002 39.8223C64.7357 39.9049 64.7545 39.9937 64.7545 40.0835C64.7545 40.1733 64.7357 40.2622 64.7002 40.3448C64.6384 40.1759 64.6384 39.9912 64.7002 39.8223Z" fill="#EEB31E"/>
<path d="M64.7178 37.1611C64.7427 37.2155 64.7558 37.2745 64.7558 37.3342C64.7558 37.3939 64.7427 37.4529 64.7178 37.5072C64.6828 37.456 64.6641 37.3958 64.6641 37.3342C64.6641 37.2725 64.6828 37.2123 64.7178 37.1611Z" fill="#EEB31E"/>
<path d="M64.7175 39.2827C64.7521 39.3241 64.7491 39.3621 64.7175 39.3897C64.7094 39.3829 64.7039 39.3746 64.6995 39.3654C64.6952 39.3562 64.6934 39.3462 64.6934 39.3362C64.6934 39.3261 64.6952 39.3162 64.6995 39.307C64.7039 39.2978 64.7094 39.2895 64.7175 39.2827Z" fill="#EEB31E"/>
<path d="M84.7082 25.127C81.6229 26.954 78.9683 29.2896 76.4973 31.8363C74.9933 31.8744 73.5075 32.0716 72.0104 32.1823C71.3043 32.3277 71.2762 32.3277 71.3043 32.9608C71.3611 34.6356 71.1526 36.3034 71.1563 37.9746C70.5351 38.4107 70.1855 39.0681 69.7441 39.6494C69.3027 40.2307 68.9325 40.978 68.3994 41.5559C68.2227 41.3518 68.2932 41.1061 68.2932 40.8639C68.2932 38.1546 68.2477 35.4418 68.3213 32.7291C68.3888 30.4211 68.3781 28.1132 68.4062 25.8087C68.4062 25.2136 68.4062 25.2101 68.9993 25.1928H69.0699L84.3655 25.0786C84.4803 25.0885 84.5946 25.1046 84.7082 25.127Z" fill="#DDC7C0"/>
<path d="M63.3306 29.7603C63.2145 29.8563 63.0678 29.9091 62.9161 29.9091C62.7638 29.9091 62.6171 29.8563 62.5009 29.7603C62.5009 27.9471 62.2716 26.1375 62.374 24.3209C62.427 23.359 62.4903 22.3936 62.4872 21.4282C62.4872 20.9126 62.4872 20.9161 61.961 20.8123C61.6327 20.743 61.3079 20.6635 60.9796 20.5943C59.7688 20.3417 59.4194 19.2483 59.6559 18.3729C59.9136 17.4282 60.9196 16.9334 61.9575 17.1964C62.7906 17.4075 63.1615 17.9957 63.2988 18.7742C63.2988 18.8884 63.3375 19.0061 63.345 19.1202C63.4012 19.9818 63.4012 19.9818 64.259 19.9818C64.6124 19.9818 64.9332 19.9818 65.2722 19.9818C65.7698 19.9818 65.7979 19.9818 65.791 19.4524C65.7555 18.885 65.8928 18.32 66.1862 17.8296C66.3436 17.5632 66.5739 17.345 66.8505 17.1996C67.1277 17.0541 67.4405 16.9871 67.7539 17.0061C68.0429 17.0126 68.3232 17.1029 68.5605 17.2655C68.7971 17.428 68.9794 17.6556 69.0843 17.9196C69.6743 19.0718 69.3421 20.0822 68.1559 20.6877C68.0479 20.7374 67.9618 20.8234 67.9124 20.9299C67.2607 20.9282 66.6101 20.9907 65.9708 21.1168C65.9253 20.878 65.7455 20.8468 65.537 20.8468H64.0224C63.3481 20.8468 63.3556 20.8468 63.3481 21.5077C63.3481 22.5458 63.4262 23.5838 63.4611 24.6219C63.4998 25.8468 63.2951 27.044 63.3413 28.2862C63.3731 28.7672 63.3413 29.262 63.3306 29.7603ZM62.3246 19.3382C62.3457 19.1045 62.3181 18.8691 62.2434 18.6462C62.199 18.4636 62.0921 18.3015 61.9405 18.1869C61.7889 18.0723 61.6017 18.0122 61.4103 18.0165C61.2297 18.0239 61.0559 18.0861 60.913 18.1946C60.77 18.3031 60.6651 18.4524 60.6125 18.622C60.5455 18.8089 60.5439 19.0123 60.6078 19.2002C60.6716 19.3882 60.7975 19.5499 60.9655 19.66C61.2868 19.8137 61.6313 19.9153 61.9857 19.9611C62.1799 20.0061 62.2964 19.878 62.2999 19.6773C62.3281 19.5701 62.3246 19.4524 62.3246 19.3348V19.3382ZM67.2139 19.9991C67.3999 20.0083 67.5847 19.9709 67.752 19.8903C67.9187 19.8097 68.0623 19.6887 68.1684 19.5387C68.2746 19.3887 68.3395 19.2147 68.3576 19.0331C68.3763 18.8514 68.347 18.6683 68.2727 18.5009C68.1316 18.0926 67.8775 17.8677 67.5916 17.8988C67.4211 17.9475 67.2707 18.0457 67.1589 18.1804C67.0472 18.3152 66.9804 18.4801 66.9666 18.6531C66.9685 18.9569 66.9354 19.2599 66.868 19.5562C66.7831 19.8296 66.8892 20.0164 67.2139 19.9957V19.9991Z" fill="#F26723"/>
<path d="M63.3301 29.7602C63.3301 29.2654 63.3725 28.7706 63.3551 28.2758C63.3089 27.0509 63.5136 25.8537 63.4749 24.6115C63.4393 23.5734 63.3476 22.5354 63.3619 21.4973C63.3619 20.8399 63.3619 20.8364 64.0362 20.8364H65.5501C65.7586 20.8364 65.9384 20.8676 65.9846 21.1063L65.4128 21.698C65.1874 21.9415 65.0351 22.2413 64.9726 22.5644C64.9102 22.8875 64.9408 23.2211 65.06 23.5284C65.06 24.8064 65.0482 26.0832 65.0245 27.3589C64.834 27.9298 64.9608 28.518 64.9364 29.089C64.9077 29.7464 64.9364 29.7498 64.2584 29.7568C63.9513 29.7602 63.641 29.7602 63.3301 29.7602Z" fill="#EEB31E"/>
<path d="M65.0631 23.5323C64.9438 23.2249 64.9138 22.8912 64.9756 22.5681C65.0381 22.245 65.1904 21.9452 65.4158 21.7017C65.1124 22.2761 65.1473 22.9128 65.0631 23.5323Z" fill="#CC9B2C"/>
<path d="M27.6672 64.1749C28.9027 64.0883 29.6511 64.6734 30.0676 65.7837C30.3253 66.4759 30.6713 67.1196 30.9572 67.7944C31.0945 68.1215 31.2123 68.4567 31.3102 68.7975C31.4526 69.1658 31.4538 69.5726 31.3135 69.9415C31.1733 70.3104 30.9012 70.6169 30.5477 70.8045C30.1932 70.8736 29.8259 70.8456 29.4866 70.7235C29.1471 70.6013 28.8486 70.3901 28.6238 70.1122C27.7484 69.1732 27.0333 68.1022 26.5059 66.9395C25.9728 65.77 26.3717 64.9257 27.6672 64.1749Z" fill="#ED1B6D"/>
<path d="M22.9227 72.9505C22.883 72.9455 22.846 72.928 22.8168 72.9012C22.7875 72.8744 22.7676 72.8396 22.7598 72.8009C22.8766 72.7872 22.905 72.8632 22.9227 72.9505Z" fill="#EEB31E"/>
<path d="M78.0362 36.4276C79.4022 36.4276 80.6832 36.8602 81.9687 37.2339C83.9908 37.8358 85.9568 38.6056 87.8459 39.5352C88.1131 39.6438 88.3591 39.7972 88.5733 39.9885C88.6794 40.0663 88.7587 40.175 88.7986 40.2992C88.8386 40.4235 88.8373 40.5569 88.7955 40.6806C88.7437 40.8159 88.6438 40.9284 88.514 40.997C88.3841 41.0657 88.233 41.0861 88.0894 41.0543C87.5881 41.0012 87.093 40.8968 86.6142 40.7429C85.202 40.2584 83.7654 39.7463 82.3252 39.2895C81.144 38.8926 79.9359 38.578 78.7104 38.3482C78.2128 38.2603 77.7034 38.2603 77.2065 38.3482C76.9948 38.3864 76.7794 38.4038 76.564 38.4001C76.3505 38.4134 76.1395 38.3507 75.9697 38.2235C75.7999 38.0963 75.6825 37.9132 75.6394 37.708C75.597 37.5027 75.6307 37.2892 75.7356 37.1067C75.8411 36.9242 76.0097 36.785 76.2107 36.7149C76.5871 36.5563 76.9886 36.4638 77.3969 36.4415C77.6016 36.4104 77.8208 36.4276 78.0362 36.4276Z" fill="#EFAC21"/>
<path d="M77.2026 42.9081C78.8819 43.0045 80.542 43.3068 82.1446 43.8078C83.6467 44.2343 85.1082 44.7854 86.5147 45.455C86.8475 45.6029 87.1584 45.7937 87.44 46.0225C87.5773 46.1195 87.6791 46.2577 87.729 46.4162C87.7796 46.5748 87.7759 46.7451 87.7184 46.9014C87.6379 47.036 87.5093 47.1366 87.3576 47.1839C87.2059 47.2312 87.041 47.2218 86.8962 47.1575C86.3387 47.0122 85.7949 46.8115 85.2474 46.6488C83.377 46.0398 81.5378 45.3373 79.5818 45.0051C78.3994 44.8009 77.22 44.583 76.0058 44.749C75.8934 44.7772 75.7766 44.7829 75.6618 44.7658C75.5469 44.7486 75.437 44.709 75.3377 44.6493C75.2391 44.5895 75.1536 44.5109 75.0861 44.418C75.0193 44.3252 74.9719 44.22 74.9469 44.1089C74.912 43.8846 74.9619 43.6557 75.0868 43.4647C75.211 43.2737 75.4027 43.1336 75.6249 43.0707C76.1356 42.9195 76.6713 42.8644 77.2026 42.9081Z" fill="#EFAC21"/>
<path d="M62.3243 19.3347C62.3243 19.4524 62.3243 19.57 62.3243 19.6808C62.3243 19.8814 62.2043 20.0268 62.0102 19.9645C61.6558 19.9188 61.3112 19.8171 60.99 19.6634C60.822 19.5533 60.6961 19.3916 60.6322 19.2036C60.5683 19.0157 60.57 18.8122 60.6369 18.6253C60.6889 18.4573 60.7923 18.3092 60.9331 18.2008C61.074 18.0925 61.2454 18.0292 61.4241 18.0198C61.6155 18.0154 61.8027 18.0756 61.9543 18.1902C62.1059 18.3048 62.2129 18.4669 62.2573 18.6496C62.3262 18.8712 62.349 19.1042 62.3243 19.3347Z" fill="#EFAC21"/>
<path d="M67.2132 19.996C66.8885 20.0167 66.7824 19.8298 66.8604 19.5564C66.9303 19.2603 66.9659 18.9573 66.9659 18.6533C66.979 18.48 67.0452 18.3147 67.1563 18.1793C67.2668 18.0439 67.4173 17.9449 67.5871 17.8954C67.8731 17.8643 68.1278 18.0892 68.2689 18.4976C68.3425 18.6647 68.3719 18.8476 68.3538 19.0289C68.3357 19.2102 68.2707 19.384 68.1652 19.5339C68.0597 19.6839 67.9167 19.8049 67.7501 19.8858C67.5834 19.9666 67.3986 20.0045 67.2132 19.996Z" fill="#EFAC21"/>
<path d="M64.8481 153.185C65.8015 152.289 67.0438 151.78 68.0253 150.912C68.7357 150.582 69.3944 150.154 69.9806 149.641C71.7461 148.531 73.5741 147.462 75.1911 146.119C75.5351 146.015 75.8585 145.855 76.1475 145.645C81.6795 142.015 87.2284 138.406 92.7392 134.745C93.7025 134.105 93.7662 134.054 94.4048 135.192C95.787 137.638 96.4807 140.4 96.4139 143.195C96.3502 146.053 95.7639 148.794 94.172 151.254C94.0177 151.272 93.8692 151.323 93.7356 151.401C93.6026 151.48 93.4877 151.585 93.3991 151.71C92.9283 152.236 92.4283 152.737 91.9026 153.209C89.4316 155.285 86.5435 156.551 83.4869 157.493C79.6212 158.709 75.4689 158.736 71.5869 157.572C68.9005 156.783 66.8247 155.043 64.8481 153.185Z" fill="#4251A3"/>
<path d="M64.8481 153.184C66.8247 155.042 68.9005 156.783 71.5801 157.572C75.462 158.736 79.6143 158.708 83.4794 157.492C86.5366 156.551 89.4278 155.284 91.8951 153.208C92.4214 152.736 92.9208 152.236 93.3916 151.71C93.4808 151.585 93.5957 151.479 93.7287 151.401C93.8617 151.322 94.0102 151.272 94.1651 151.253C94.1051 151.921 93.512 152.346 93.3497 152.966L90.1545 156.578C89.4572 157.002 88.8135 157.506 88.2379 158.08C87.9239 158.249 87.6023 158.405 87.2989 158.589C82.0042 161.824 76.2574 162.741 70.2241 161.412C66.9926 160.747 64.0353 159.157 61.7275 156.841C61.5404 156.651 61.3534 156.461 61.1804 156.257C61.0809 156.108 60.9913 155.953 60.9121 155.793C62.1334 154.799 63.4516 153.925 64.8481 153.184Z" fill="#36448D"/>
</g>
<defs>
<clipPath id="clip0_944_24727">
<rect width="113" height="162" fill="white"/>
</clipPath>
</defs>
</svg>
