<svg width="1439" height="708" viewBox="0 0 1439 708" fill="none" xmlns="http://www.w3.org/2000/svg">
<g clip-path="url(#clip0_231_8140)">
<path d="M297.534 708C270.251 708 243.757 704.668 218.451 697.985C143.714 677.965 80.446 624.548 40.895 547.347C3.3316 474.331 -8.92645 386.694 6.49834 306.583C21.9136 227.296 57.5085 163.873 112.475 117.972C128.289 105.037 145.692 93.3461 164.274 83.331C185.234 72.483 206.983 62.4679 227.942 53.2857C263.927 37.0187 301.091 20.7417 334.308 -2.62018C395.209 -46.0223 445.43 -116.128 479.436 -205.421C511.066 -288.462 527.28 -378.598 542.705 -465.392C550.607 -508.784 558.519 -553.852 568.409 -597.665C585.803 -674.033 638.002 -740.797 695.336 -760.827C736.466 -775.017 778.384 -764.58 815.948 -731.193C844.81 -705.323 867.348 -672.779 889.496 -641.479C909.267 -613.521 929.437 -584.319 953.953 -560.114C999.819 -515.046 1053.21 -478.739 1105.01 -443.274C1126.75 -428.673 1149.29 -413.229 1170.65 -397.785C1268.32 -326.435 1344.24 -228.793 1389.72 -115.706C1434.79 -3.04169 1449.43 122.98 1431.64 248.58C1421.75 317.431 1395.65 375.846 1355.31 417.161C1313.4 460.553 1256.86 483.503 1192.4 484.346C1137.03 484.758 1083.66 469.324 1032.25 454.301C971.346 436.358 908.078 417.994 842.043 426.755C751.091 438.445 681.899 499.369 615.464 558.205C570.378 598.255 523.723 639.149 470.336 665.441C413.001 693.82 353.689 708 297.534 708ZM731.72 -764.58C719.852 -764.58 707.993 -762.493 696.125 -758.318C639.19 -738.71 587.781 -672.357 570.378 -596.833C560.497 -553.44 552.585 -508.373 544.683 -464.97C529.258 -378.176 513.044 -288.04 481.414 -204.588C447.008 -114.874 396.787 -44.3564 335.497 -0.954346C302.28 22.4075 265.106 39.106 228.731 55.373C207.772 64.9767 185.624 74.5703 165.064 85.4183C146.482 95.022 129.478 106.703 113.654 119.638C59.4866 165.118 23.8916 228.128 8.47636 306.995C-6.94843 386.694 5.30962 473.91 42.4832 546.103C81.6252 622.46 144.104 675.456 218.451 695.486C295.556 715.928 384.529 704.668 469.156 663.354C522.535 637.483 568.799 596.168 613.876 556.529C680.71 497.693 749.912 436.358 841.253 424.667C907.688 415.906 970.957 434.682 1032.25 452.214C1083.66 467.236 1136.64 482.671 1192 482.259C1255.67 481.838 1311.81 458.887 1353.34 415.906C1393.27 375.013 1419.38 317.01 1429.26 248.58C1447.05 123.391 1432.43 -2.20874 1387.35 -114.452C1341.87 -227.538 1266.35 -324.769 1169.06 -395.708C1147.71 -411.142 1125.18 -426.586 1103.43 -441.187C1051.63 -476.651 997.841 -512.959 951.975 -558.027C927.06 -582.231 906.899 -611.434 887.128 -639.813C866.169 -671.113 843.631 -703.657 814.759 -729.116C788.664 -752.478 760.192 -764.58 731.72 -764.58ZM312.17 694.232C285.276 694.232 259.571 690.9 234.656 684.217C161.897 665.029 100.607 613.278 62.2539 539.008C25.8697 469.324 13.2217 384.195 26.659 306.162C40.1057 230.216 72.1345 167.626 121.966 120.471C138.969 104.204 155.183 92.5132 172.186 82.9196C193.536 71.2386 216.074 61.2235 238.222 51.2084C273.018 35.7643 308.604 19.4872 340.242 -3.04169C399.555 -46.0223 447.408 -113.619 481.804 -204.177C512.255 -283.876 527.679 -369.416 543.095 -452.457C551.007 -496.27 559.309 -541.749 569.988 -585.985C587.381 -659.843 638.791 -724.52 694.946 -743.717C735.676 -757.486 776.796 -747.059 813.97 -713.672C842.442 -687.801 864.581 -655.669 885.94 -624.79C904.921 -597.254 924.692 -568.875 948.418 -545.091C992.306 -501.278 1044.11 -466.225 1093.94 -432.005C1114.9 -417.404 1137.03 -402.793 1157.6 -387.358C1252.11 -318.086 1325.26 -223.364 1369.16 -113.208C1412.66 -3.87457 1426.89 118.384 1409.49 240.652C1400 307.828 1374.29 364.587 1335.54 405.058C1294.81 447.206 1240.64 470.157 1178.55 471.411C1125.18 472.244 1074.17 458.054 1024.73 443.864C966.211 427.176 905.71 410.487 842.043 419.248C755.048 431.351 689.012 490.187 624.954 546.936C580.268 586.575 534.403 627.468 481.414 653.338C425.259 680.463 367.126 694.232 312.17 694.232ZM123.544 122.558C73.7226 169.292 42.0838 231.47 28.637 306.995C15.1997 384.617 27.8477 468.902 63.8325 538.175C102.195 612.034 162.696 663.354 235.055 682.551C310.582 702.581 397.577 691.733 480.226 651.673C533.214 626.213 579.079 585.32 623.366 545.681C687.433 488.511 753.859 429.675 841.653 417.572C905.71 408.4 966.601 425.51 1025.13 442.199C1074.56 455.967 1125.57 470.568 1178.55 469.324C1240.24 468.069 1294.02 445.53 1334.36 403.393C1372.71 363.332 1398.02 306.995 1407.51 240.231C1424.91 118.805 1410.68 -3.04163 1367.18 -112.365C1323.28 -222.119 1250.52 -316.841 1156.42 -385.693C1135.46 -401.127 1113.71 -415.738 1092.75 -430.339C1042.53 -464.559 990.727 -500.023 946.83 -543.837C922.714 -567.62 903.333 -596 884.351 -623.958C863.002 -654.836 840.854 -686.968 812.781 -712.006C776.406 -744.972 735.676 -754.987 695.735 -741.63C639.98 -722.433 589.359 -658.178 571.966 -585.152C561.686 -541.338 553.375 -495.849 545.073 -452.035C530.047 -368.994 514.233 -283.033 483.782 -203.334C448.986 -112.375 401.133 -44.3564 341.431 -1.37585C309.792 21.5746 273.807 37.4302 239.401 52.8743C217.652 62.4679 195.114 72.9045 173.765 84.5854C156.762 94.6005 140.947 106.281 123.544 122.558ZM327.195 680.042C301.091 680.042 275.386 676.71 250.87 670.448C180.488 651.673 121.167 602.019 83.6033 530.247C48.8071 463.473 35.3604 381.275 46.8291 305.329C57.8985 232.725 86.3706 171.38 131.846 122.98C144.504 109.623 159.919 94.6005 180.488 82.4981C202.237 69.9843 225.565 59.5477 247.713 49.5326C280.93 34.5099 315.726 19.0758 345.777 -3.04169C403.111 -44.7679 449.376 -111.953 483.782 -202.922C512.654 -278.868 528.069 -361.066 542.705 -439.933C551.007 -484.168 559.708 -530.069 570.378 -574.304C587.781 -645.654 638.791 -708.243 693.757 -726.607C734.088 -739.964 774.818 -729.528 811.203 -696.562C838.885 -671.524 860.235 -639.813 881.194 -609.346C899.386 -582.643 918.358 -554.685 941.296 -531.734C983.614 -489.175 1033.44 -454.955 1081.68 -421.99C1102.24 -407.8 1123.2 -393.199 1143.76 -378.598C1235.11 -311.412 1305.49 -219.189 1347.8 -112.365C1389.72 -6.38336 1403.16 112.543 1386.55 230.637C1377.06 296.147 1352.54 351.23 1314.98 390.869C1275.84 432.184 1223.64 454.713 1163.53 456.8C1112.13 458.054 1063.09 445.119 1015.64 432.183C959.488 417.161 901.355 401.305 840.464 410.487C757.815 423.001 694.547 479.75 632.857 534.412C588.97 573.639 543.494 614.532 490.506 639.57C437.118 667.107 380.973 680.042 327.195 680.042ZM728.953 -729.528C717.883 -729.528 706.415 -727.862 695.336 -724.109C640.769 -706.156 590.948 -643.988 573.155 -573.461C562.475 -529.236 553.774 -483.335 545.472 -439.1C530.447 -359.822 515.421 -278.035 486.16 -201.668C451.354 -110.699 404.699 -43.1021 347.356 -0.954346C316.906 21.1631 282.509 37.0187 248.892 52.0414C226.354 62.0565 203.416 72.483 181.668 85.0069C161.507 96.6878 145.692 111.71 133.434 125.067C88.3486 173.045 59.8765 233.969 48.8071 306.162C37.3384 381.687 50.3858 463.062 85.1914 529.404C122.355 600.764 181.278 650.007 251.269 668.361C325.217 687.558 410.234 677.122 490.506 638.737C543.095 613.7 588.57 573.218 632.467 533.579C694.157 478.496 757.815 421.336 840.854 408.812C902.544 399.63 960.677 415.495 1016.82 430.508C1064.28 443.453 1113.31 456.388 1164.32 455.134C1223.64 453.458 1275.84 430.929 1314.59 390.036C1351.75 350.808 1376.27 295.735 1385.37 231.049C1401.98 113.376 1388.93 -5.12897 1347.01 -110.699C1304.7 -217.112 1234.31 -308.914 1143.76 -376.089C1123.59 -391.112 1102.24 -405.723 1081.68 -419.491C1033.44 -452.457 983.215 -487.088 940.906 -529.647C917.968 -553.019 898.987 -580.555 880.405 -607.681C859.835 -638.147 838.087 -669.437 810.803 -694.475C785.098 -717.425 757.026 -729.528 728.953 -729.528ZM342.22 666.274C316.516 666.274 291.21 663.354 267.483 657.092C199.47 639.149 141.736 591.171 105.352 522.319C71.7446 458.466 57.8984 379.609 67.3892 305.329C76.49 234.39 101.006 175.976 142.126 125.9C153.994 111.289 168.62 95.022 189.19 82.9196C211.328 69.9843 234.656 59.5477 257.593 49.1212C290.022 34.5099 323.629 19.4873 352.5 -2.20874C408.256 -43.5235 452.143 -108.2 486.949 -200.413C514.622 -273.028 529.657 -351.051 543.884 -426.586C552.585 -471.232 561.287 -517.555 572.755 -561.78C590.548 -631.052 640.37 -691.143 694.157 -708.664C734.088 -721.6 774.428 -711.163 810.413 -678.208C837.297 -653.581 858.656 -622.292 878.817 -592.246C896.609 -565.954 914.802 -538.829 936.95 -516.3C977.281 -474.986 1025.52 -442.02 1072.19 -409.887C1091.96 -396.119 1112.52 -381.929 1132.29 -367.328C1220.07 -301.819 1288.1 -212.516 1328.82 -109.033C1369.16 -5.96191 1382.2 108.79 1365.6 223.121C1356.5 286.553 1332.77 340.793 1296.79 379.188C1259.22 419.66 1208.61 442.199 1150.88 444.286C1101.45 446.373 1054.39 434.271 1008.92 422.58C955.142 408.812 899.776 394.622 840.854 403.804C762.17 416.328 704.437 468.902 643.146 524.397C599.649 563.624 554.963 604.106 502.364 628.722C449.376 653.76 394.419 666.274 342.22 666.274ZM727.365 -712.006C716.695 -712.006 705.616 -710.33 694.547 -706.577C641.169 -689.467 591.737 -629.798 574.334 -561.368C562.865 -517.133 554.173 -470.811 545.472 -426.164C530.837 -350.64 516.211 -272.606 488.528 -199.58C453.332 -106.946 409.045 -41.8477 353.29 -0.542908C324.028 21.1631 290.421 36.5972 257.993 51.2084C235.455 61.6349 211.728 72.0716 189.979 85.0069C169.41 97.1093 155.183 113.376 143.315 127.566C102.585 177.22 78.0686 235.223 69.3672 305.75C59.8765 379.188 73.7226 457.633 106.94 521.065C142.915 589.495 200.259 637.071 267.873 655.014C340.242 673.79 423.281 663.775 501.575 626.635C553.774 602.019 598.46 561.537 641.958 522.731C700.871 469.735 761.771 414.652 840.854 401.717C899.776 392.123 955.532 406.313 1009.71 420.503C1055.18 432.183 1101.84 444.286 1150.88 442.199C1208.21 440.111 1258.04 417.572 1295.21 377.522C1330.8 339.127 1354.52 285.72 1363.62 222.709C1379.84 108.369 1367.18 -5.96191 1326.85 -108.612C1286.12 -211.683 1218.49 -300.564 1130.71 -366.074C1110.94 -380.685 1090.38 -394.865 1070.61 -408.643C1023.94 -440.766 975.702 -473.731 935.371 -515.046C913.223 -537.575 894.641 -564.7 877.238 -591.404C857.068 -621.449 836.109 -652.327 809.224 -676.953C783.13 -699.904 755.447 -712.006 727.365 -712.006ZM356.846 652.505C331.541 652.505 307.025 649.585 283.298 643.323C216.473 626.213 162.296 581.156 126.311 513.549C93.8833 453.047 79.6472 376.679 87.1599 304.907C94.2827 236.899 115.242 179.307 151.227 128.82C163.086 112.543 176.133 95.4334 197.092 82.9196C219.241 69.5627 242.967 58.7147 265.895 48.2882C297.534 34.0985 329.962 19.0759 358.035 -2.20874C412.212 -43.1021 453.732 -105.28 488.927 -198.747C515.421 -268.02 529.657 -342.29 543.884 -414.062C552.585 -459.13 561.686 -505.452 573.545 -549.677C591.337 -616.441 640.37 -674.444 693.358 -691.143C732.909 -703.657 772.84 -693.22 808.036 -660.676C834.53 -636.471 855.09 -605.593 874.87 -575.969C891.874 -550.51 909.267 -523.807 930.626 -502.111C969.378 -462.05 1015.64 -429.918 1060.32 -399.039C1079.7 -385.693 1099.47 -371.914 1118.45 -357.735C1203.07 -294.302 1268.72 -207.93 1307.87 -107.779C1346.62 -8.04919 1358.88 102.95 1343.05 213.949C1334.36 275.705 1311.02 328.279 1276.63 365.831C1240.24 405.058 1192 427.587 1136.25 430.508C1089.19 433.016 1044.11 422.168 1000.62 411.32C949.208 398.797 896.22 385.861 840.065 395.876C765.727 408.812 710.361 459.309 651.838 512.716C609.13 551.522 564.843 592.003 512.654 616.198C461.634 639.992 408.256 652.505 356.846 652.505ZM152.806 130.075C116.821 180.14 95.8613 237.311 89.1379 305.329C82.0246 377.1 96.2607 452.625 128.289 512.716C163.875 579.901 217.652 624.126 284.087 641.657C355.268 659.6 435.939 650.007 511.855 614.532C564.054 590.328 607.951 550.277 650.659 511.461C709.572 458.054 764.938 407.146 840.065 394.21C896.619 384.195 949.997 397.131 1001.41 409.645C1044.9 420.081 1089.58 430.929 1136.64 428.842C1191.61 425.922 1239.85 403.804 1275.44 364.998C1309.85 327.446 1332.77 275.284 1341.47 213.949C1357.29 103.361 1345.03 -7.21631 1306.28 -106.524C1267.14 -206.254 1202.28 -292.637 1117.66 -355.647C1098.68 -369.837 1078.91 -383.605 1059.53 -396.952C1014.84 -427.83 968.189 -459.963 929.437 -500.023C908.078 -522.141 890.285 -548.844 873.282 -574.304C853.511 -603.927 833.341 -634.384 806.847 -658.589C772.051 -690.722 733.299 -701.158 694.157 -688.634C641.958 -673.2 593.315 -615.608 575.523 -549.677C563.664 -505.452 554.563 -459.13 545.862 -414.062C531.626 -342.29 517.39 -268.02 490.905 -198.326C455.31 -104.437 413.391 -41.8477 359.224 -0.542908C330.752 20.7417 298.324 35.7643 266.694 49.954C243.757 60.3806 220.03 71.2386 197.882 84.5854C177.721 96.6878 164.274 113.798 152.806 130.075ZM371.872 638.737C346.966 638.737 322.84 635.817 299.512 629.977C160.318 594.502 97.05 439.278 106.94 304.496C111.686 237.311 128.689 182.649 160.718 131.319C172.186 112.965 184.045 95.4334 205.005 82.4981C227.143 68.7299 250.87 57.8818 274.207 47.4453C305.047 33.2656 336.686 19.0759 363.969 -2.20874C431.194 -53.5286 467.178 -133.649 491.295 -197.493C516.211 -263.424 530.447 -333.941 544.283 -402.381C553.375 -447.449 562.475 -493.761 575.123 -538.418C592.926 -602.673 641.558 -658.589 692.968 -674.444C732.51 -686.547 771.661 -675.699 806.058 -643.566C832.162 -619.361 851.933 -589.326 870.914 -560.114C887.128 -535.076 904.132 -509.617 924.692 -487.921C961.865 -449.115 1006.15 -418.237 1049.25 -388.191C1067.83 -375.256 1087.21 -361.899 1105.8 -348.131C1187.26 -286.796 1250.13 -202.922 1287.7 -106.113C1324.87 -9.71503 1336.73 97.5207 1321.3 204.767C1303.12 330.367 1229.17 409.645 1122.41 416.739C1077.32 419.66 1034.22 410.066 993.095 400.472C944.063 389.203 893.452 377.933 840.065 387.948C770.073 401.305 717.085 449.705 661.329 501.035C619.02 539.841 575.523 579.901 523.324 603.684C473.502 627.056 421.703 638.737 371.872 638.737ZM162.696 132.574C131.057 183.482 114.053 238.144 109.308 304.496C99.4179 438.446 161.897 592.415 300.302 627.889C369.504 645.411 448.587 636.228 522.535 602.019C574.334 578.225 617.832 538.175 659.75 499.78C715.905 448.461 768.894 399.629 839.675 386.283C893.842 376.267 944.462 387.537 993.495 398.797C1034.62 408.4 1077.32 417.994 1122.41 415.073C1227.99 408.4 1301.53 329.534 1319.34 204.767C1334.36 97.9422 1322.89 -9.30365 1285.72 -105.28C1248.16 -201.668 1185.68 -285.12 1104.62 -346.465C1086.42 -360.233 1067.04 -373.59 1048.46 -386.526C1005.36 -416.571 960.677 -447.449 923.503 -486.255C902.943 -507.951 885.94 -533.822 869.725 -558.448C850.744 -587.65 830.973 -617.696 805.268 -641.479C771.262 -673.2 732.509 -683.627 693.757 -671.946C642.747 -656.502 594.904 -601.007 577.101 -537.163C564.843 -492.928 555.353 -446.195 546.261 -401.127C532.425 -332.697 518.578 -262.17 493.273 -195.827C469.147 -131.562 432.373 -51.4513 365.148 0.300049C337.475 21.5746 305.836 36.1858 274.996 49.954C252.059 60.3806 227.942 71.6501 206.193 85.0069C185.624 97.1093 173.765 114.631 162.696 132.574ZM386.897 624.547C362.781 624.547 338.654 621.627 315.726 615.787C253.637 600.343 202.627 559.038 169.02 496.439C139.359 441.366 124.333 372.926 127.101 303.663C129.868 238.143 143.714 184.315 170.598 133.828C180.878 114.209 191.957 95.8549 213.307 82.0867C235.055 67.897 259.181 57.0489 282.509 46.2009C312.56 32.4226 343.4 18.2429 369.894 -2.62018C433.561 -51.8627 468.358 -128.23 494.062 -196.239C517.789 -258.838 531.626 -326.013 545.073 -390.7C554.173 -435.758 564.054 -482.502 576.711 -526.727C594.904 -589.738 641.558 -642.312 692.569 -657.335C731.72 -669.025 770.073 -658.177 804.479 -626.045C829.785 -602.262 849.165 -572.628 867.747 -543.837C883.562 -519.632 899.776 -494.594 919.157 -473.731C954.343 -436.18 997.051 -406.556 1038.57 -377.765C1056.76 -365.241 1075.35 -352.306 1093.15 -338.537C1171.44 -278.868 1231.54 -197.915 1267.53 -104.437C1303.12 -11.3909 1314.19 92.5132 1299.56 195.996C1282.16 317.843 1210.98 395.043 1108.96 403.393C1065.86 406.724 1025.13 398.385 985.583 390.036C938.928 380.021 891.075 370.006 839.675 380.442C773.639 393.789 723.418 440.523 670.43 489.765C628.91 528.16 585.803 568.22 534.003 591.582C485.76 613.278 435.14 624.547 386.897 624.547ZM722.619 -659.422C712.739 -659.422 702.849 -657.756 692.968 -654.836C642.348 -639.813 596.482 -588.072 578.29 -525.482C565.633 -481.247 555.752 -434.514 546.661 -389.446C533.214 -324.769 519.767 -257.584 495.641 -194.573C469.946 -126.143 434.75 -49.7755 371.083 -0.12146C344.198 20.7416 313.349 34.9315 283.298 49.1212C260.361 59.9692 236.244 70.8171 214.495 84.5854C193.536 97.9422 182.856 116.297 172.576 135.494C145.692 185.569 132.246 239.398 129.478 304.496C126.711 373.347 141.337 441.366 170.998 496.027C204.605 558.205 254.826 599.098 316.516 614.532C384.529 631.642 461.244 622.882 533.214 589.916C584.614 566.544 627.722 526.905 668.842 488.511C722.229 438.857 772.45 392.123 839.275 378.766C890.685 368.34 938.928 378.355 985.982 388.37C1025.13 396.709 1065.86 405.058 1108.56 401.717C1209.4 393.789 1280.18 317.01 1297.19 196.417C1311.81 93.3461 1300.74 -10.1365 1265.55 -102.771C1229.96 -195.827 1169.86 -276.781 1091.96 -336.029C1074.17 -349.385 1055.57 -362.321 1037.39 -374.835C995.872 -403.635 953.164 -433.259 917.569 -471.232C897.798 -492.095 881.584 -517.545 865.769 -541.749C847.187 -570.54 827.807 -600.174 802.901 -623.536C777.985 -647.741 750.702 -659.422 722.619 -659.422ZM401.533 610.779C377.806 610.779 354.479 607.859 331.94 602.43C272.229 587.407 223.197 548.19 190.369 488.099C161.897 436.358 146.872 370.839 147.271 303.242C147.661 237.732 157.95 186.402 180.089 136.327C187.212 120.893 197.492 97.5208 221.219 82.0867C242.967 67.897 267.084 56.6274 290.022 45.7794C319.283 32.0112 349.733 18.2429 375.438 -2.20874C435.539 -49.7755 468.757 -122.801 496.04 -194.573C518.578 -254.242 532.025 -317.674 544.683 -379.009C554.173 -424.077 564.054 -470.811 577.101 -515.046C595.294 -575.548 641.169 -626.045 691.389 -640.646C730.142 -651.916 768.095 -640.646 801.712 -608.935C826.627 -585.563 845.209 -556.361 863.401 -527.981C878.427 -504.198 893.842 -479.993 912.824 -459.551C946.44 -423.244 987.561 -394.453 1027.11 -366.907C1044.5 -354.814 1062.7 -342.29 1079.7 -328.934C1154.44 -271.352 1212.17 -193.318 1246.57 -102.771C1280.57 -13.0568 1291.25 87.0942 1277.02 186.824C1260.01 304.496 1192 380.021 1094.33 389.203C1053.21 392.956 1014.45 385.45 977.281 378.355C932.994 370.006 887.518 360.823 838.885 371.672C776.796 385.45 729.343 430.096 678.732 477.251C638.002 515.636 595.693 555.275 544.283 578.235C497.619 599.931 448.587 610.779 401.533 610.779ZM180.878 137.16L181.668 137.581C159.529 187.235 149.249 238.143 148.85 303.663C148.46 370.427 163.875 435.937 191.957 487.266C224.376 546.936 273.018 586.163 332.33 600.764C398.366 617.041 473.502 608.692 543.095 577.392C594.105 554.442 636.423 514.803 677.153 476.83C727.764 429.263 775.608 384.607 838.087 370.839C887.128 359.99 932.994 368.751 977.281 377.522C1014.45 384.617 1052.81 392.123 1093.94 388.37C1190.42 379.188 1258.04 304.075 1274.65 187.657C1288.89 88.3386 1278.61 -11.8024 1244.6 -101.105C1210.59 -191.231 1152.86 -268.853 1078.51 -326.435C1061.51 -339.37 1043.32 -351.884 1025.92 -364.408C986.381 -392.366 945.252 -420.735 911.644 -457.464C892.663 -477.906 877.238 -502.532 862.213 -525.894C844.021 -554.273 825.439 -583.476 800.922 -606.426C768.095 -637.726 730.531 -648.574 692.569 -637.304C643.146 -623.125 598.061 -573.461 579.869 -513.38C566.431 -469.145 556.941 -422.823 547.45 -377.765C534.403 -316.42 521.346 -252.576 498.418 -192.907C471.125 -121.136 437.917 -47.6881 377.416 0.300049C351.312 21.1631 320.862 34.9314 291.6 48.6996C268.672 59.5477 244.546 70.3957 223.197 84.5854C199.86 100.03 189.58 122.98 182.856 138.003L180.878 137.16ZM416.558 597.011C393.231 597.011 370.293 594.502 348.544 589.083C220.819 557.784 171.388 420.914 167.441 303.242C165.853 256.508 167.441 200.17 189.979 139.668C197.492 119.217 206.983 97.5208 229.521 82.4981C250.87 67.8969 274.996 57.0489 297.934 46.2009C326.796 32.8441 356.457 19.0758 381.363 -1.37585C441.474 -49.364 471.924 -121.968 498.418 -192.074C519.767 -248.401 532.815 -308.492 545.073 -366.495C554.563 -411.563 564.843 -458.297 578.69 -502.111C597.272 -560.525 642.348 -608.935 690.99 -622.292C729.343 -632.718 766.916 -621.87 800.133 -590.571C824.25 -567.62 842.442 -538.829 859.835 -510.871C874.071 -487.921 889.097 -464.138 906.899 -444.529C938.928 -409.476 978.07 -381.929 1015.64 -355.226C1032.25 -343.545 1049.65 -331.021 1066.25 -318.507C1137.82 -263.013 1193.19 -187.478 1225.62 -100.684C1258.04 -14.3112 1267.93 82.0867 1254.09 178.474C1237.88 291.972 1172.63 365.831 1079.7 376.268C1040.55 380.854 1004.17 374.18 968.979 368.34C925.481 360.823 883.961 353.729 838.087 364.587C780.353 378.355 735.277 421.335 687.433 466.403C647.093 504.376 605.574 544.015 554.563 566.966C509.487 586.574 462.433 597.011 416.558 597.011ZM719.063 -624.79C709.971 -624.79 700.481 -623.536 691.389 -621.037C643.147 -607.681 598.85 -560.114 580.668 -502.111C566.821 -458.297 556.941 -411.975 547.051 -366.907C534.403 -308.914 521.745 -248.823 500.386 -192.074C473.892 -121.547 443.052 -48.9425 382.951 -0.542908C357.636 19.9088 327.585 33.677 299.113 47.4453C276.185 58.2933 252.458 69.1513 230.709 83.7525C208.561 98.7751 199.47 119.638 191.957 140.09C169.41 200.592 168.23 256.086 169.809 302.82C173.366 420.081 222.797 556.118 349.334 586.996C414.19 602.852 486.949 594.924 554.563 564.878C605.574 542.339 647.093 503.122 687.034 464.728C734.887 419.248 779.963 376.268 838.486 362.499C885.15 351.23 928.248 358.736 970.167 366.252C1005.36 372.514 1041.74 378.766 1080.49 374.18C1172.23 363.744 1237.08 290.728 1253.29 178.053C1267.14 82.0866 1257.25 -13.8896 1224.82 -99.8509C1192.4 -186.645 1137.43 -261.758 1065.86 -316.841C1049.65 -329.355 1032.25 -341.879 1015.24 -353.56C977.281 -380.264 938.138 -407.8 906.1 -443.274C887.918 -462.883 873.282 -487.088 858.656 -510.038C841.253 -537.996 823.061 -566.787 798.944 -589.326C774.428 -612.688 747.145 -624.79 719.063 -624.79ZM431.583 583.233C408.646 583.233 386.108 580.734 364.759 575.305C307.814 561.537 257.993 524.397 225.165 470.568C194.325 420.503 180.878 359.158 187.602 302.409C179.699 273.196 173.765 228.55 199.86 141.756C205.794 121.304 214.495 97.9422 237.823 81.6652C259.181 67.064 282.899 55.7945 305.836 44.9465C333.918 31.5897 363.18 18.2429 387.696 -2.20874C444.241 -48.5211 473.502 -118.215 501.185 -191.653C521.346 -245.07 534.003 -301.819 545.862 -356.48C555.752 -401.548 566.032 -447.86 580.268 -491.263C598.85 -547.179 643.146 -593.491 690.591 -606.015C728.553 -616.03 765.727 -605.182 798.155 -573.882C821.882 -551.353 839.275 -522.552 856.279 -495.016C870.125 -472.898 884.351 -449.536 901.355 -430.75C931.805 -396.952 968.979 -370.248 1004.96 -344.799C1021.18 -333.53 1037.78 -321.427 1053.6 -309.325C1122.01 -255.496 1174.61 -182.892 1205.45 -99.4294C1236.29 -16.3985 1245.78 76.2361 1232.33 168.881C1216.52 278.204 1154.44 350.397 1065.86 362.078C1028.69 367.085 994.683 361.656 961.066 356.659C919.946 350.397 881.194 344.556 837.297 356.237C783.52 370.427 741.211 410.899 696.125 454.301C656.584 492.274 615.854 531.491 564.453 554.03C521.745 573.228 475.87 583.233 431.583 583.233ZM717.484 -607.269C708.783 -607.269 699.691 -606.015 690.99 -603.506C643.936 -590.992 600.438 -545.503 582.246 -490.008C568.01 -446.616 557.73 -400.294 547.84 -355.226C535.582 -300.564 523.324 -243.815 503.163 -189.987C475.48 -116.539 446.219 -46.4437 388.875 0.300049C363.969 20.7417 334.708 34.5099 306.626 47.4453C283.698 58.2933 259.971 69.1513 239.011 83.7525C216.074 99.6081 207.772 122.558 201.838 142.589C176.133 228.961 182.067 273.196 189.979 301.987V302.82C183.256 358.736 196.703 419.66 227.143 469.735C259.571 523.152 309.003 559.871 365.548 573.639C428.816 588.662 499.597 581.567 564.843 552.776C615.464 530.658 656.194 491.431 695.735 453.468C740.811 410.066 783.13 369.173 837.697 354.983C881.584 343.713 922.714 349.564 962.255 355.404C995.473 360.412 1029.48 365.42 1066.25 360.823C1153.65 349.143 1215.33 277.792 1230.75 169.714C1243.8 77.4905 1234.71 -14.7226 1203.87 -97.7636C1173.02 -181.216 1120.43 -253.409 1052.42 -306.826C1036.59 -318.929 1019.99 -331.021 1003.77 -342.29C967.4 -367.75 930.226 -394.453 899.776 -428.673C882.773 -447.86 868.147 -471.232 854.7 -493.35C837.697 -520.886 820.294 -549.266 796.966 -571.795C772.45 -595.167 745.557 -607.269 717.484 -607.269ZM446.219 569.053C423.681 569.053 401.932 566.544 380.573 561.537C325.607 548.601 277.364 513.137 245.335 461.807C215.285 414.241 201.448 355.816 207.372 301.987C192.746 261.094 193.136 213.949 208.961 144.676C214.096 121.726 222.398 98.3536 245.735 81.6652C266.694 66.6425 290.421 55.7945 313.349 44.9465C341.032 32.0112 369.504 18.2429 393.621 -1.78729C451.354 -49.7755 479.037 -124.056 503.553 -189.565C522.535 -240.062 534.793 -293.048 546.261 -344.799C556.541 -389.446 566.821 -435.758 581.457 -479.16C600.039 -532.989 643.536 -576.802 689.801 -588.905C716.295 -595.578 755.837 -595.578 796.177 -556.361C819.105 -533.822 836.108 -505.864 852.722 -478.739C866.559 -456.21 879.216 -434.925 895.43 -416.149C923.902 -383.605 959.488 -358.146 993.894 -333.53C1009.31 -322.26 1025.52 -310.991 1040.55 -299.31C1173.02 -194.161 1236.69 -22.239 1210.58 160.532C1203.07 211.44 1185.28 255.675 1158.39 287.808C1131.11 321.185 1094.33 342.469 1052.02 348.721C1017.22 354.15 984.793 349.975 953.554 346.222C914.802 341.636 878.427 337.04 837.297 348.721C787.476 362.911 747.934 401.717 705.616 442.61C666.864 480.583 626.533 519.811 575.523 541.928C534.003 559.871 489.716 569.053 446.219 569.053ZM210.14 144.676L210.939 145.097C195.114 213.949 194.725 261.094 209.35 301.576V302.409C203.416 355.816 217.263 413.819 246.914 461.396C278.952 512.304 326.396 547.347 380.973 560.282C442.662 574.894 511.465 567.799 574.733 540.674C625.344 518.978 665.285 479.75 704.037 441.777C746.346 400.472 786.287 361.656 836.508 347.477C878.027 335.786 916.39 340.382 953.554 344.968C984.793 348.721 1016.82 352.896 1051.23 347.477C1092.75 341.215 1129.13 320.352 1156.42 287.386C1182.91 255.254 1200.7 211.44 1207.82 160.953C1233.92 -20.9846 1170.65 -192.074 1038.57 -296.811C1023.55 -308.492 1007.33 -320.173 991.916 -331.021C957.51 -355.647 921.924 -381.096 893.053 -414.062C876.839 -432.838 863.002 -454.955 849.955 -476.651C833.741 -503.776 816.737 -531.734 793.8 -553.852C762.56 -584.319 726.575 -595.578 689.411 -585.985C643.536 -574.304 600.828 -530.901 582.246 -477.906C567.611 -434.925 556.941 -388.613 547.051 -343.956C535.582 -292.215 523.324 -238.808 504.342 -188.311C479.826 -122.38 451.754 -48.1096 393.621 0.300049C369.504 20.3303 340.632 34.0985 312.959 47.0338C290.022 57.8818 266.694 68.7299 245.735 83.7525C222.008 100.441 214.885 124.224 210.14 145.509V144.676ZM461.244 555.275C439.496 555.275 417.747 552.776 396.787 548.19C343.799 536.088 297.135 502.289 265.505 453.458C236.244 408.4 222.398 352.896 227.143 301.576C209.75 263.181 206.983 216.869 218.451 147.175C222.398 123.391 229.121 98.7751 253.637 81.2437C274.207 66.2311 297.934 54.9616 320.472 44.525C347.755 31.5897 375.438 18.2429 399.165 -1.78729C452.942 -47.2767 478.248 -115.706 503.163 -181.638L505.531 -187.899C523.324 -235.055 534.793 -285.12 545.862 -333.53C556.151 -378.176 566.821 -424.499 582.246 -467.058C601.228 -519.221 642.747 -560.114 688.613 -571.383C714.717 -577.635 754.258 -577.224 793.41 -538.418C815.948 -516.3 832.162 -488.754 847.977 -462.05C861.024 -440.354 873.282 -419.491 888.707 -401.548C915.591 -369.837 949.598 -345.632 982.026 -322.26C997.051 -311.412 1012.08 -300.564 1026.71 -288.883C1152.46 -187.478 1212.56 -22.6504 1187.26 152.182C1180.14 201.425 1162.74 243.984 1137.82 275.705C1111.33 308.671 1077.72 328.701 1036.99 336.207C1004.17 342.048 974.123 339.127 944.852 336.629C908.877 333.287 874.471 329.945 835.719 342.048C789.844 356.237 752.68 392.956 713.528 431.762C675.175 469.735 636.024 508.963 585.013 530.247C545.862 546.514 503.163 555.275 461.244 555.275ZM713.927 -572.628C704.827 -572.628 696.924 -571.383 689.411 -569.707C644.326 -558.859 602.806 -518.388 584.224 -466.646C568.799 -424.077 558.12 -377.765 547.84 -333.108C536.771 -284.709 524.912 -234.633 507.11 -187.478L504.742 -181.226C479.826 -114.874 454.122 -46.4438 399.954 -0.542908C376.227 19.4873 348.145 32.8441 320.862 45.7794C298.324 56.6274 274.996 67.4755 254.436 82.4981C230.709 99.6081 223.986 123.391 220.03 146.763C208.561 216.026 211.328 261.927 228.731 299.9V300.743C223.986 351.651 237.823 406.724 266.694 451.381C297.934 499.78 343.799 532.746 396.787 545.27C456.889 559.038 523.723 552.776 585.013 526.905C635.624 505.621 674.776 466.403 712.739 428.842C752.28 389.614 789.454 352.896 835.719 338.294C874.87 326.192 909.267 329.534 945.651 332.865C974.513 335.786 1004.56 338.295 1037.39 332.865C1116.87 318.686 1171.04 252.333 1186.07 150.938C1210.98 -23.0718 1151.27 -187.478 1025.92 -288.04C1011.69 -299.731 996.262 -310.579 981.237 -321.006C948.418 -344.378 914.412 -368.994 887.518 -400.715C872.093 -418.658 859.046 -440.354 846.788 -461.639C830.973 -488.342 814.759 -515.467 792.221 -537.575C764.538 -564.7 736.855 -572.628 713.927 -572.628ZM476.669 541.507C455.31 541.507 433.961 539.008 413.391 534.412C362.381 522.731 317.305 491.02 286.465 444.697C257.993 402.138 243.757 349.564 247.713 300.743C227.543 264.847 221.609 218.113 228.731 149.684C231.099 126.312 237.033 99.6081 262.339 81.2437C282.899 66.2311 305.836 54.9616 328.374 44.1136C354.868 31.1783 382.551 18.2429 405.489 -1.78729C455.71 -45.1894 479.826 -109.445 502.764 -172.044C504.742 -177.051 506.32 -181.638 508.298 -186.645C524.912 -230.88 535.981 -277.614 546.661 -323.093C557.331 -367.328 568.01 -413.651 584.224 -455.788C603.206 -505.864 643.936 -544.67 688.613 -555.106C714.717 -560.947 753.469 -560.114 792.221 -521.719C813.97 -500.023 829.785 -472.898 845.209 -446.616C857.467 -425.332 869.326 -405.301 883.961 -388.191C909.267 -358.146 940.906 -335.196 971.746 -312.667C985.982 -302.23 1001.01 -291.382 1014.84 -280.113C1133.88 -183.303 1190.42 -25.5706 1166.3 142.167C1152.06 240.231 1099.87 305.75 1023.94 321.185C993.095 327.447 965.022 325.771 938.138 324.105C904.522 322.017 872.892 320.352 836.508 332.454C794.589 346.644 760.192 381.275 723.808 418.415C686.245 456.388 647.492 495.606 596.872 516.469C558.12 533.167 517 541.507 476.669 541.507ZM711.949 -555.106C703.248 -555.106 695.735 -553.852 688.613 -552.598C644.725 -542.582 604.394 -503.776 585.803 -454.544C569.988 -412.396 558.919 -366.495 548.629 -322.26C537.959 -276.781 526.88 -230.047 510.276 -185.391C508.298 -180.383 506.72 -175.797 504.742 -170.789C481.414 -108.2 457.288 -43.5135 406.677 0.300049C383.74 20.3303 356.057 33.6771 329.173 46.6124C306.626 57.4604 283.698 68.3083 263.527 83.331C239.011 101.695 233.077 127.566 230.709 150.516C223.587 218.956 229.521 265.269 249.691 300.743V301.576C242.178 395.465 301.49 507.708 413.791 533.167C472.713 546.514 537.56 540.262 596.083 516.057C646.703 495.194 685.056 455.967 722.229 418.415C758.604 381.275 793.41 346.644 835.719 332.033C872.493 319.519 904.522 321.606 938.138 323.693C965.022 325.359 992.705 327.025 1023.55 320.763C1098.68 305.329 1149.69 241.064 1164.32 143.422C1188.44 -23.4933 1131.9 -180.383 1013.66 -276.781C999.819 -288.04 984.793 -298.898 970.557 -309.325C939.717 -331.864 907.688 -354.814 882.383 -385.271C867.747 -402.793 855.889 -422.823 843.631 -444.107C828.206 -470.399 812.781 -497.103 791.032 -518.799C762.96 -547.179 734.887 -555.106 711.949 -555.106ZM491.694 527.317C470.735 527.317 449.776 525.24 429.605 520.644C321.261 496.439 262.339 390.036 267.873 300.321C244.546 266.523 235.455 221.034 238.222 152.182C239.011 129.232 243.757 100.862 270.251 80.8323C290.421 65.8096 313.349 54.5401 335.497 43.6921C361.592 31.1782 388.875 17.8214 411.023 -1.78729C458.477 -43.5135 479.826 -101.938 502.364 -163.273C505.132 -170.368 507.509 -177.884 510.276 -184.979C525.701 -226.284 536.371 -270.098 546.661 -312.245C557.331 -356.48 568.409 -401.96 585.013 -443.696C603.995 -491.263 644.326 -528.403 687.433 -537.996C713.138 -543.837 751.89 -542.171 789.844 -503.776C811.203 -482.502 826.228 -455.377 841.253 -429.918C852.722 -409.476 863.791 -390.279 877.638 -373.169C901.355 -344.378 931.415 -322.26 960.277 -300.986C974.123 -290.971 987.96 -280.534 1001.41 -269.686C1113.71 -177.051 1167.09 -25.9921 1143.76 133.828C1129.92 227.717 1080.89 291.139 1009.71 307.828C980.837 314.511 955.142 314.09 930.226 313.678C898.987 312.835 869.725 312.424 835.719 324.938C797.756 339.127 766.117 371.672 732.509 406.313C695.735 444.286 657.772 483.503 607.162 504.366C570.378 519.811 530.837 527.317 491.694 527.317ZM709.971 -537.996C702.059 -537.996 694.547 -537.163 687.823 -535.498C645.115 -526.315 605.184 -489.597 586.592 -442.441C569.988 -401.127 558.919 -355.647 548.239 -311.412C537.959 -269.265 527.28 -225.451 511.855 -183.725C509.088 -176.63 506.72 -169.124 503.953 -162.029C482.204 -102.771 459.666 -41.4362 411.813 0.300049C389.275 20.3303 361.991 33.2656 335.887 46.2009C313.748 57.0489 290.811 67.8969 271.04 82.9196C245.335 102.528 240.989 130.486 239.801 152.604C237.033 221.034 245.735 266.523 269.062 299.9L269.462 300.321V300.743C263.927 389.203 322.45 495.194 429.605 518.978C486.949 531.913 549.818 526.073 606.363 503.122C656.584 482.67 694.547 443.453 731.321 405.891C764.938 371.26 796.966 338.295 835.319 323.693C869.725 310.758 899.386 311.591 930.626 312.002C955.532 312.424 980.837 313.257 1009.71 306.583C1080.09 289.885 1128.73 227.296 1142.18 134.239C1165.12 -25.1592 1112.13 -174.964 1000.62 -267.177C987.56 -278.025 973.324 -288.462 959.488 -298.477C930.226 -319.762 900.176 -341.879 876.449 -371.081C862.603 -388.191 851.533 -407.389 839.675 -427.83C825.039 -453.701 810.014 -479.993 788.664 -501.278C760.982 -530.069 732.909 -537.996 709.971 -537.996ZM506.72 513.549C486.16 513.549 465.59 511.461 445.82 507.297C342.61 484.758 284.487 384.607 287.644 300.321C261.15 269.022 248.502 222.709 247.713 155.103C247.313 131.741 250.48 102.117 278.153 80.8323C297.934 65.3882 320.472 54.5401 342.61 43.6921C368.315 31.1782 394.809 18.2429 416.957 -1.37585C461.634 -41.4362 481.804 -96.9307 502.764 -155.345C505.931 -164.528 509.487 -173.71 513.044 -182.892C527.28 -221.698 537.56 -262.17 547.45 -301.397C558.919 -347.298 569.589 -390.279 586.592 -431.172C605.184 -477.073 644.725 -512.126 687.034 -520.886C712.739 -526.315 750.702 -524.228 787.866 -486.255C808.825 -464.97 823.461 -438.688 837.297 -413.229C848.376 -393.62 858.656 -374.835 871.703 -358.568C893.842 -331.021 921.924 -310.158 949.208 -289.716C962.255 -280.113 975.702 -270.098 988.35 -259.671C1093.94 -171.211 1143.76 -27.2465 1121.62 125.067C1108.17 214.782 1062.3 276.538 995.473 294.481C968.579 301.576 945.252 302.409 922.314 302.82C893.842 303.663 866.559 304.075 834.929 317.431C800.922 331.621 772.051 362.078 741.211 394.622C705.226 432.595 668.052 472.244 617.442 492.274C582.646 506.454 544.283 513.549 506.72 513.549ZM707.993 -520.886C700.481 -520.886 693.358 -520.053 687.433 -518.799C645.914 -510.038 607.162 -475.818 588.18 -431.172C571.177 -390.279 560.497 -347.298 549.029 -301.819C539.139 -262.591 528.859 -221.698 514.622 -182.892C511.066 -173.71 507.909 -164.116 504.342 -155.345C482.993 -96.5092 463.222 -41.0147 418.137 -0.542908C395.998 19.4873 369.504 32.4226 343.4 44.9465C321.651 55.7945 298.723 66.6425 279.342 81.6652C252.458 102.117 249.291 131.319 249.691 154.27C250.48 221.455 263.128 267.356 289.232 298.234L289.622 298.656V299.067C286.065 382.53 343.799 482.259 446.219 504.366C502.364 516.469 562.865 511.461 617.042 489.765C667.663 469.735 704.437 430.508 740.422 392.545C771.262 359.99 800.133 329.112 834.53 314.923C866.559 301.576 893.842 301.154 922.714 300.321C945.252 299.9 968.579 299.067 995.073 291.972C1061.12 274.029 1106.58 213.106 1119.64 124.224C1141.39 -27.2465 1091.96 -170.368 987.171 -258.838C974.513 -269.265 961.066 -279.28 948.418 -288.883C921.135 -309.325 892.663 -330.188 870.515 -358.146C857.467 -374.423 847.187 -393.199 836.109 -413.229C821.882 -438.688 807.246 -464.559 786.686 -485.834C759.004 -512.959 730.931 -520.886 707.993 -520.886ZM521.745 499.78C501.575 499.78 481.414 497.693 461.634 493.518C363.18 472.655 306.236 378.766 307.424 299.9C277.763 271.109 261.549 224.797 257.203 158.033C255.615 135.915 257.203 103.783 286.065 80.8323C305.446 65.3882 327.984 54.5401 349.733 43.6921C375.039 31.1782 401.133 18.2429 422.492 -1.37585C464.801 -40.1818 483.383 -92.756 503.163 -148.672C507.11 -159.52 511.066 -170.789 515.022 -181.638C528.469 -217.523 537.959 -255.075 547.45 -291.804C558.919 -337.283 569.988 -379.842 587.781 -419.902C606.762 -462.883 645.514 -495.849 686.245 -503.776C711.55 -508.784 749.513 -506.285 785.897 -468.724C806.058 -447.861 820.294 -421.99 833.741 -396.952C844.021 -378.176 853.911 -360.233 865.769 -344.378C885.94 -318.086 912.823 -298.055 938.528 -278.868C950.786 -269.686 963.444 -260.082 975.302 -250.077C1074.17 -165.36 1120.82 -28.5009 1099.47 115.885C1086.81 201.425 1044.11 261.515 981.636 280.713C957.12 288.219 935.761 289.885 915.201 291.561C889.097 293.648 864.191 295.735 834.929 309.082C804.879 322.85 778.384 351.651 750.702 381.687C715.506 420.081 679.122 459.72 628.112 479.339C594.904 493.107 558.12 499.78 521.745 499.78ZM706.015 -503.776C698.902 -503.776 692.569 -502.944 686.644 -502.111C646.304 -494.183 608.341 -462.05 589.759 -419.491C572.356 -379.431 561.287 -336.872 549.818 -291.382C540.327 -255.085 530.837 -217.112 517.39 -181.226C513.443 -170.368 509.487 -159.109 505.531 -148.261C485.76 -92.3446 467.178 -39.3489 424.47 -0.12146C402.721 19.9088 376.617 32.8441 351.312 45.358C329.563 56.216 307.424 67.064 288.044 82.0867C259.971 104.194 258.383 135.494 259.971 157.19C264.317 223.542 280.531 269.443 310.192 298.234L310.582 298.656V299.067C309.003 377.522 365.548 470.568 463.222 491.431C517.789 503.122 576.711 498.115 628.511 478.084C679.122 458.466 715.107 418.827 750.302 380.854C777.985 350.397 804.479 321.606 834.929 307.828C864.581 294.06 889.496 291.972 915.99 289.885C936.55 288.219 957.51 286.553 982.026 279.037C1043.72 259.85 1086.02 200.592 1098.68 115.885C1119.64 -28.0794 1073.77 -164.116 975.302 -248.401C963.444 -258.417 950.786 -268.02 938.528 -277.192C912.823 -296.39 885.94 -316.42 865.379 -343.123C853.112 -358.979 843.231 -376.922 832.951 -396.119C819.505 -421.157 805.268 -446.616 785.498 -467.479C757.026 -495.849 728.953 -503.776 706.015 -503.776ZM537.959 486.012C518.189 486.012 498.018 483.925 478.248 479.75C422.882 468.481 387.696 435.937 368.315 410.487C343.01 377.933 328.374 337.04 327.984 299.067C295.556 272.785 274.996 226.041 267.084 160.11C262.738 124.224 271.829 98.3536 294.367 79.9993C313.349 64.5552 335.497 53.7072 356.846 42.8592C381.762 30.3453 407.467 17.8214 428.426 -1.78729C468.757 -39.3489 485.76 -89.4144 503.953 -142.832C508.298 -155.345 512.654 -167.869 517.39 -180.383C529.657 -213.349 538.749 -248.401 547.84 -281.788C559.708 -326.856 570.777 -368.994 588.97 -408.222C607.951 -449.948 645.115 -479.993 685.455 -487.088C710.761 -491.674 748.324 -488.754 783.919 -451.202C803.69 -430.751 817.137 -405.301 830.184 -380.264C839.675 -361.899 848.766 -344.799 860.235 -329.777C878.817 -304.739 903.732 -285.963 927.849 -267.599C939.318 -258.838 951.576 -249.656 962.655 -240.062C1054.78 -159.52 1097.89 -29.7452 1077.72 107.536C1065.86 188.49 1025.52 246.904 967.79 267.777C945.252 275.705 926.27 278.625 908.078 281.124C884.351 284.466 861.813 287.808 834.53 301.987C808.036 315.755 784.708 342.048 759.793 370.006C726.975 406.724 690.201 448.46 638.791 468.069C606.762 479.75 572.356 486.012 537.959 486.012ZM269.062 160.11C272.619 191.41 279.342 218.535 288.443 240.652C298.723 265.269 312.56 284.466 329.563 297.813L329.962 298.234V298.656C329.962 336.629 344.588 376.679 369.894 409.233C389.275 434.271 424.071 466.403 478.638 477.663C532.815 488.932 588.18 484.346 638.401 465.56C689.012 446.373 726.185 404.637 758.604 368.34C783.52 340.382 807.246 313.678 833.741 299.9C861.423 285.72 883.961 282.379 907.688 278.625C925.88 276.117 944.852 273.196 967 265.269C1023.94 244.827 1063.49 187.235 1075.35 106.703C1095.52 -29.3337 1052.81 -158.687 961.066 -238.808C949.997 -248.401 938.138 -257.584 926.27 -266.344C902.154 -284.709 877.238 -303.484 858.257 -328.934C846.788 -343.956 837.697 -361.488 828.206 -379.842C815.159 -404.468 801.712 -429.918 782.331 -449.948C747.145 -487.088 710.361 -489.587 685.455 -485.422C645.514 -478.327 609.13 -448.693 590.548 -407.389C572.356 -368.161 561.287 -326.013 549.428 -281.367C540.727 -247.569 531.236 -212.937 518.978 -179.55C514.233 -167.036 509.877 -154.101 505.931 -141.999C487.738 -88.5814 470.336 -37.673 429.605 -0.12146C408.646 19.4872 382.551 32.4226 357.636 44.9465C336.286 55.373 314.138 66.6425 295.157 81.6652C273.408 99.608 264.716 125.067 269.062 160.11ZM552.985 472.244C533.604 472.244 513.833 470.157 494.062 466.403C402.322 448.039 350.123 366.664 347.356 299.067C310.981 274.862 287.254 229.383 276.185 163.452C270.251 126.733 278.553 100.03 301.88 80.8323C320.472 65.3882 342.61 54.5401 363.57 44.1136C388.086 32.0112 413.391 19.0759 433.961 -0.542908C471.924 -36.8401 488.128 -84.8282 504.742 -136.158C509.088 -149.926 513.833 -164.116 518.978 -177.884C530.447 -208.341 538.749 -240.062 547.45 -270.94C559.309 -315.165 570.777 -357.313 589.359 -395.708C608.341 -434.925 644.725 -463.305 683.477 -469.567C719.063 -475.407 753.469 -462.472 780.752 -432.838C799.734 -412.396 812.781 -387.358 825.039 -363.154C834.14 -345.632 842.442 -328.944 853.121 -314.754C870.125 -290.971 893.452 -273.028 915.591 -255.918C926.67 -247.569 937.739 -238.808 948.418 -229.626C1033.83 -153.268 1073.77 -30.1667 1054.39 99.1866C1042.93 175.976 1005.75 232.725 952.764 254.421C932.594 262.77 915.99 266.523 899.776 270.276C878.427 275.284 858.257 279.87 832.951 294.481C810.413 307.828 789.454 331.621 767.705 357.492C736.066 394.622 699.691 436.77 648.282 455.967C619.02 466.403 586.592 472.244 552.985 472.244ZM278.553 162.619C289.622 228.128 313.349 273.618 349.334 297.401L349.733 297.813V298.234C352.101 365.42 403.511 446.373 494.852 464.316C547.84 474.743 600.828 470.99 648.681 453.458C699.691 434.682 735.676 392.545 767.306 355.816C789.454 329.945 810.014 305.75 832.951 292.394C858.656 277.371 878.817 272.785 900.565 267.777C916.39 264.014 932.994 260.261 953.164 251.912C1005.75 230.216 1042.53 174.3 1053.61 98.3536C1072.58 -30.1667 1033.44 -152.425 948.418 -228.371C938.138 -237.553 926.67 -246.314 915.99 -254.663C893.452 -272.185 870.515 -289.716 853.121 -313.921C842.442 -328.522 834.14 -345.211 825.039 -362.742C812.781 -386.937 799.734 -411.563 781.152 -432.005C754.258 -460.796 720.251 -473.731 685.455 -467.891C647.093 -461.639 611.508 -433.681 592.526 -394.865C573.944 -356.892 562.475 -314.754 550.607 -270.519C542.305 -239.641 533.604 -207.93 522.135 -177.051C517 -163.273 512.255 -149.094 507.909 -135.325C490.905 -83.9954 475.081 -35.5858 436.329 1.13293C415.769 20.7416 390.064 33.677 365.548 46.2009C344.588 56.6274 322.84 67.4755 304.258 82.9196C280.93 100.441 272.619 127.145 278.553 162.619ZM568.409 458.054C549.428 458.054 530.047 456.388 510.276 452.625C470.336 445.119 435.14 424.667 408.646 393.378C384.929 365.831 369.894 331.2 367.526 298.234C327.984 276.95 299.902 231.049 286.065 165.539C278.153 128.82 286.465 100.03 310.192 79.9993C328.374 64.5552 350.123 53.7072 371.083 43.2806C395.209 31.1782 420.115 18.2429 439.885 -0.954346C476.27 -36.0072 490.905 -82.3295 506.32 -131.562C511.066 -146.585 515.811 -162.029 521.745 -177.051C532.025 -205.009 539.937 -233.8 547.84 -261.758C560.098 -305.572 571.567 -346.887 590.948 -384.438C609.929 -421.578 645.514 -447.861 683.078 -453.701C718.273 -458.708 752.28 -445.773 779.174 -416.571C797.756 -396.541 810.014 -371.914 821.882 -348.131C830.184 -331.443 838.087 -315.587 847.577 -301.819C863.401 -279.28 884.351 -262.591 905.311 -246.314C915.591 -238.386 926.27 -230.047 935.761 -220.865C1014.45 -148.672 1050.83 -32.6655 1032.65 89.1815C1021.97 161.786 987.56 216.448 938.928 239.819C921.525 248.159 907.289 252.755 893.842 257.341C874.87 263.603 856.678 269.855 832.951 285.72C813.97 298.234 796.177 319.93 777.196 343.302C746.346 381.275 711.55 423.834 659.351 442.61C631.278 453.047 600.438 458.054 568.409 458.054ZM698.503 -452.457C693.757 -452.457 689.012 -452.035 683.867 -451.202C646.703 -445.773 611.907 -419.902 593.315 -383.184C574.334 -346.044 562.475 -304.739 550.217 -260.925C542.305 -232.967 534.403 -203.755 524.113 -175.797C518.578 -160.774 513.833 -145.33 509.088 -130.318C493.273 -81.0751 478.638 -34.3414 441.863 1.13293C421.703 20.7416 396.787 33.677 372.271 45.7794C351.711 56.216 329.962 67.064 311.77 82.4981C288.443 102.117 280.531 130.075 288.044 165.961C301.88 231.049 329.962 276.538 369.104 297.401L369.504 297.813V298.234C373.85 359.991 424.47 434.682 510.676 451.381C562.475 461.396 613.486 458.054 658.961 441.777C710.361 423.423 745.167 380.854 776.007 343.302C794.988 319.93 812.781 298.234 832.162 285.299C855.889 269.443 874.071 263.603 893.452 256.919C906.899 252.333 921.135 247.747 938.528 239.398C986.771 216.448 1020.39 162.197 1031.06 90.4259C1049.25 -30.5781 1013.27 -145.752 934.972 -217.523C925.481 -226.284 914.802 -234.633 904.522 -242.561C883.961 -258.838 862.213 -275.948 846.398 -298.477C836.508 -312.667 828.596 -328.522 820.294 -345.211C808.435 -368.994 796.177 -393.62 777.985 -413.229C755.837 -439.521 727.764 -452.457 698.503 -452.457ZM584.224 444.286C565.633 444.286 546.261 442.61 526.88 438.857C488.927 431.762 455.31 413.408 429.605 385.028C406.677 359.99 391.643 328.279 388.086 297.813C344.988 278.625 313.349 233.969 295.956 168.048C286.465 130.908 294.367 100.441 318.494 79.5779C336.686 64.1438 357.636 53.2958 378.205 42.8592C401.932 30.7568 426.448 18.2429 445.82 -1.37585C480.226 -35.5858 494.062 -80.2422 508.298 -127.387C513.044 -143.253 518.189 -159.941 524.113 -175.797C533.214 -200.835 540.727 -227.127 548.239 -252.155C560.897 -295.557 572.755 -336.45 592.526 -372.757C611.907 -408.222 645.514 -432.426 682.688 -437.012C717.484 -441.609 751.491 -427.83 777.586 -399.039C795.388 -379.009 807.246 -354.814 818.316 -331.443C825.828 -315.587 832.951 -300.564 842.043 -287.207C856.279 -265.933 875.659 -250.077 894.641 -235.055C904.132 -227.538 914.012 -219.611 922.714 -210.85C994.683 -142.41 1027.5 -33.5084 1010.5 80.4108C1000.22 148.429 968.979 201.425 925.082 226.463C910.846 234.39 899.386 239.819 889.097 244.827C870.914 253.588 855.09 260.682 832.552 278.204C817.137 289.885 802.102 309.504 786.287 329.945C756.636 368.34 722.619 412.153 670.031 430.518C643.536 439.69 614.674 444.286 584.224 444.286ZM695.735 -435.758C691.389 -435.758 687.433 -435.347 683.078 -434.925C646.703 -430.339 613.486 -406.556 594.504 -371.503C574.733 -335.196 562.865 -294.302 550.607 -251.322C543.494 -225.873 535.582 -200.002 526.491 -174.543C520.557 -158.687 515.421 -141.999 510.676 -126.143C496.04 -78.5663 482.594 -33.9199 447.798 0.711487C428.027 20.3303 403.511 32.8441 379.385 45.358C358.824 55.7946 337.865 66.6425 320.072 81.6652C295.956 102.117 288.443 131.319 297.934 168.048C314.937 233.557 346.566 277.792 389.275 296.568L389.674 296.98V297.401C397.976 373.347 466.38 426.343 526.88 437.191C577.501 446.373 626.533 443.453 669.241 428.842C721.44 410.899 755.047 367.507 784.708 329.112C800.523 308.671 815.548 289.052 831.363 276.949C854.301 259.428 870.125 251.912 888.307 243.573C898.587 238.565 910.056 233.136 924.292 225.208C967.79 201.003 998.639 148.429 1008.92 80.8323C1025.92 -32.6655 993.495 -140.744 921.924 -208.763C913.223 -217.112 903.333 -225.04 893.842 -232.546C874.861 -247.99 855.09 -263.846 840.854 -285.12C831.763 -298.477 824.649 -313.5 817.137 -329.777C806.058 -353.139 794.589 -377.343 776.796 -396.952C753.859 -422.411 725.786 -435.758 695.735 -435.758ZM600.438 430.508C581.847 430.508 562.865 428.842 543.095 425.51C465.99 412.153 416.957 351.23 408.256 297.401C361.991 281.124 325.607 236.478 305.836 170.968C297.934 144.676 295.157 107.536 326.796 79.5779C344.588 64.1438 365.148 53.2857 385.718 42.8592C409.045 30.7568 433.172 18.2429 452.143 -0.954346C484.971 -34.3414 497.619 -77.322 510.676 -122.38C515.421 -139.078 520.557 -156.6 526.88 -173.71C535.192 -196.239 541.915 -219.611 548.629 -242.14C561.287 -285.12 573.545 -325.602 593.715 -361.066C613.086 -394.453 645.914 -416.571 681.899 -420.745C716.695 -424.499 749.912 -410.73 775.608 -381.518C793.01 -361.899 804.08 -338.116 814.759 -314.754C821.882 -299.731 828.206 -285.542 836.508 -272.606C849.165 -252.998 866.958 -237.975 884.351 -223.785C893.053 -216.69 902.154 -209.184 910.456 -200.835C975.702 -136.57 1004.96 -34.7528 989.149 71.6501C979.658 135.082 951.186 186.824 911.644 212.694C904.921 217.28 898.987 221.034 893.452 224.375C870.515 239.398 857.857 247.326 832.552 269.855C820.294 280.713 808.435 297.401 795.388 315.344C768.095 352.896 734.487 399.629 681.1 417.572C655.794 426.343 628.91 430.508 600.438 430.508ZM307.424 170.125C327.195 235.223 363.18 279.87 409.045 295.735H409.445V296.568C417.747 349.564 466.38 410.066 542.705 423.423C592.926 432.184 638.791 429.675 679.521 416.328C732.509 398.796 766.117 352.063 793.01 314.923C806.058 296.98 817.926 280.291 830.574 269.022C855.889 246.493 868.537 238.144 891.874 223.121C897.408 219.789 903.333 215.615 910.056 211.44C949.208 185.569 976.891 134.661 986.381 71.6501C1002.2 -34.3414 973.324 -135.315 908.478 -199.169C900.176 -207.097 891.474 -214.603 882.383 -221.698C864.98 -236.299 847.187 -250.91 834.14 -270.94C825.828 -283.876 819.505 -298.055 812.391 -313.5C801.712 -336.45 791.032 -360.233 773.639 -379.842C748.324 -408.222 715.906 -421.99 681.499 -418.237C646.304 -414.483 613.876 -392.366 594.904 -359.822C574.733 -324.769 562.475 -284.287 549.818 -241.728C543.095 -219.189 535.981 -195.827 528.069 -173.288C521.745 -156.6 517 -139.078 511.855 -122.38C498.418 -76.479 485.76 -33.5084 452.942 0.300049C433.561 19.9088 409.445 32.4226 386.108 44.525C365.947 54.9616 345.378 65.8096 327.585 80.8323C297.135 108.369 299.902 144.676 307.424 170.125ZM616.253 416.739C598.061 416.739 579.079 415.073 559.309 411.732C525.701 406.313 494.852 390.869 470.336 367.918C448.587 347.477 433.961 322.439 428.027 296.98C378.205 283.633 338.264 239.819 315.327 173.467C302.28 135.494 309.003 102.117 335.098 79.5779C352.5 64.1438 373.061 53.7072 392.831 43.2806C415.769 31.1782 439.496 18.6544 458.078 -0.542908C489.317 -33.087 500.786 -74.4017 513.044 -118.215C517.789 -135.737 522.934 -154.101 529.657 -172.044C536.771 -191.653 543.095 -212.104 549.428 -232.124C562.475 -274.694 574.733 -314.754 595.693 -348.964C615.064 -380.264 647.093 -400.715 681.899 -404.047C716.295 -406.967 749.113 -392.787 774.428 -363.987C791.432 -344.378 801.712 -321.006 811.592 -298.055C817.926 -283.876 823.85 -270.519 830.973 -258.005C842.043 -239.641 858.257 -225.873 873.681 -212.516C881.584 -205.842 889.896 -198.326 897.408 -190.82C956.72 -129.896 982.026 -37.2615 967 63.3008C957.909 122.558 932.594 172.213 897.798 199.759C871.703 220.201 863.002 229.804 844.81 249.413C841.253 253.588 836.907 257.762 832.162 262.77C823.061 272.363 814.36 285.72 804.08 301.154C778.384 339.96 746.346 388.37 691.779 405.891C668.452 412.986 643.536 416.739 616.253 416.739ZM690.591 -402.381C687.433 -402.381 684.666 -402.381 681.499 -401.96C647.492 -399.039 615.854 -378.598 596.872 -348.131C575.922 -313.921 563.664 -274.272 550.607 -231.713C544.683 -212.104 538.349 -191.231 530.837 -171.622C524.513 -154.101 519.368 -135.737 514.622 -118.215C502.364 -73.9802 490.905 -32.254 459.266 0.300049C440.285 19.9088 416.558 32.4226 393.621 44.525C373.85 54.9616 353.29 65.3882 336.286 80.8323C318.494 96.6879 300.701 125.067 317.305 172.634C340.242 238.565 379.784 281.957 429.216 294.892H430.005V295.735C443.452 358.736 505.531 400.472 559.708 409.645C609.13 417.572 653.027 415.906 690.99 403.804C745.167 386.694 776.796 338.706 802.501 299.9C812.781 284.466 821.882 270.698 830.973 261.094C835.719 256.086 839.675 251.5 843.631 247.747C861.813 228.128 870.515 218.535 896.609 198.083C931.415 170.968 956.321 121.726 965.022 62.8894C980.048 -36.8401 955.142 -128.642 896.22 -189.154C888.707 -196.66 880.405 -203.755 872.493 -210.428C856.678 -223.785 840.464 -237.975 829.395 -256.329C821.882 -268.432 815.948 -282.2 809.614 -296.39C799.734 -318.929 789.454 -342.291 772.45 -361.899C749.912 -388.191 721.041 -402.381 690.591 -402.381ZM632.857 402.971C615.064 402.971 596.083 401.305 575.523 398.385C505.531 387.537 460.455 338.294 448.197 296.568C395.599 286.132 350.522 241.897 324.818 175.976C316.116 153.858 307.025 111.289 343.01 79.1664C360.013 63.7223 380.183 53.2857 399.555 42.8592C422.093 30.7568 445.43 18.6544 463.612 -0.954346C493.273 -32.6655 503.953 -72.7259 515.022 -115.295C519.767 -133.649 524.912 -152.847 531.626 -171.211C537.959 -188.311 543.494 -205.842 548.629 -222.531C562.076 -264.679 574.733 -304.317 596.482 -337.704C615.854 -366.907 647.093 -385.693 680.71 -388.191C715.107 -390.279 747.535 -375.678 771.661 -346.887C787.875 -327.689 797.756 -304.317 807.246 -281.788C812.781 -268.432 818.316 -255.918 824.649 -244.227C834.14 -227.127 848.766 -214.182 862.603 -202.089C869.725 -195.406 877.638 -188.732 883.961 -181.638C936.55 -124.889 958.698 -39.3489 944.462 53.7072C934.572 119.217 912.824 165.961 883.172 185.148C867.348 206.854 859.445 217.28 848.376 231.892C843.631 238.143 838.087 244.827 831.373 253.999C825.039 261.927 819.105 272.785 811.592 284.877C789.054 323.272 757.815 375.846 701.669 392.956C681.1 399.629 658.172 402.971 632.857 402.971ZM687.433 -385.693C685.056 -385.693 683.078 -385.693 680.71 -385.271C647.892 -383.184 617.042 -364.829 598.061 -336.029C576.312 -303.063 564.054 -263.424 550.607 -221.698C545.073 -204.588 539.538 -187.067 533.604 -169.957C526.88 -151.592 522.135 -132.816 517.39 -114.452C506.32 -71.8929 495.641 -31.4211 465.59 0.711487C447.008 20.3303 423.681 32.8441 401.133 44.9465C381.762 55.373 361.592 65.8096 344.988 80.8323C310.192 112.132 318.884 153.437 327.585 175.133C352.89 240.652 397.577 284.044 450.175 294.481H450.964V294.892C462.823 335.786 507.11 385.028 576.711 395.465C625.744 402.971 666.864 401.305 702.059 390.869C757.815 373.759 788.664 322.017 811.203 283.633C818.316 271.531 824.649 260.682 830.973 252.755C837.697 243.984 843.231 236.899 847.977 230.637C859.046 216.026 866.958 205.599 883.172 183.903L883.562 183.482C912.034 165.118 934.182 117.551 944.063 53.2958C958.299 -38.9274 936.55 -124.056 884.351 -179.972C877.638 -187.067 870.125 -193.74 863.002 -200.413C849.165 -212.937 834.53 -225.872 824.649 -243.394C817.926 -255.075 812.781 -267.599 807.246 -280.956C797.756 -303.485 788.265 -326.435 772.051 -345.632C747.934 -371.503 718.673 -385.693 687.433 -385.693ZM649.86 389.203C632.467 389.203 613.086 387.537 591.737 384.607C526.88 375.435 482.993 333.708 468.358 296.147C411.813 288.219 363.18 245.66 334.708 178.896C318.094 140.501 324.028 104.194 351.312 79.1664C367.925 64.1438 387.696 53.2857 407.067 42.8592C429.216 30.7568 452.143 18.6544 469.946 -0.542908C498.418 -31.4211 507.909 -70.2271 517.789 -111.532C522.535 -130.729 527.28 -150.338 534.003 -169.124C539.148 -183.303 543.884 -197.915 548.629 -211.683C562.475 -253.409 575.523 -293.048 598.061 -325.181C617.442 -352.727 647.492 -369.416 680.311 -371.081C714.317 -372.757 746.346 -357.313 770.073 -328.934C785.897 -309.746 794.988 -286.796 804.08 -264.257C808.825 -251.743 813.57 -240.062 819.505 -229.204C827.807 -213.77 840.464 -201.668 852.722 -190.398C859.445 -184.146 866.169 -177.884 872.093 -171.211C917.968 -119.048 936.55 -40.1818 923.503 45.358C914.012 107.536 895.031 152.182 870.515 172.212C862.213 187.235 857.467 197.672 852.722 207.687C847.187 219.368 842.043 230.216 832.162 246.904C828.596 253.166 824.649 260.261 820.294 269.022C800.922 306.995 771.661 364.587 713.138 381.275C693.358 386.283 673.197 389.203 649.86 389.203ZM336.686 177.641C365.148 243.984 413.391 286.553 469.546 294.059H469.946L470.336 294.481C484.572 331.621 527.679 372.926 592.127 382.108C641.958 389.203 678.732 387.948 711.949 378.766C769.683 362.078 798.545 305.329 817.926 267.356C822.272 258.595 826.228 251.5 829.785 245.238C839.675 228.55 844.81 217.702 850.345 206.011C855.09 195.996 859.835 185.569 868.537 170.547L868.936 170.125C893.053 150.938 911.644 106.281 921.135 44.525C934.182 -40.1818 915.591 -118.215 870.515 -170.368C864.581 -177.051 857.857 -183.303 851.533 -189.565C839.275 -201.246 826.228 -212.937 817.926 -229.204C811.992 -240.062 807.646 -252.155 802.501 -264.679C793.8 -286.796 784.708 -309.746 768.894 -328.522C745.557 -356.892 713.927 -371.503 680.71 -370.248C648.681 -368.994 619.02 -352.306 600.039 -325.181C577.501 -293.048 564.843 -253.831 551.007 -212.104C546.261 -197.915 541.516 -183.303 536.371 -169.124C529.657 -150.338 524.912 -130.729 520.167 -111.953C509.877 -70.6385 500.386 -31.4211 471.924 -0.12146C453.732 19.4872 430.794 32.0112 408.646 43.6921C389.674 54.1287 369.894 64.5552 353.29 79.5779C337.076 94.6005 314.538 126.312 336.686 177.641ZM666.864 375.435C647.093 375.435 627.322 373.347 608.341 370.839C544.683 362.499 504.342 325.359 488.927 295.735C428.816 290.728 376.227 248.992 344.588 181.395C326.396 142.167 331.94 105.037 359.614 78.7449C375.828 63.7223 395.209 52.8743 414.19 42.8592C435.939 31.1783 458.477 18.6544 475.87 -0.542908C503.163 -30.5782 511.465 -68.5513 520.557 -108.2C524.912 -127.809 529.657 -148.261 536.371 -167.448C540.327 -178.717 544.283 -189.987 547.84 -200.835C561.287 -240.895 575.523 -282.2 598.85 -313.5C618.231 -339.37 647.492 -354.393 679.122 -354.814C712.339 -355.226 744.368 -339.37 767.306 -311.412C782.73 -292.215 791.432 -269.265 799.334 -247.569C803.69 -235.888 807.646 -225.451 812.391 -215.025C819.105 -200.835 830.184 -189.987 840.854 -179.55C846.788 -173.71 852.722 -167.869 857.857 -161.607C896.619 -113.619 912.034 -41.4362 899.776 36.1858C893.452 77.4905 880.405 132.152 855.09 158.033C848.376 174.3 845.999 185.991 843.231 197.25C840.464 209.774 837.697 221.455 830.574 238.144C828.995 241.485 827.417 245.238 825.828 249.834C810.413 287.807 784.309 351.651 723.019 368.34C704.437 373.347 685.455 375.435 666.864 375.435ZM346.177 180.562C377.416 247.747 429.605 289.052 489.317 293.648H489.716L490.106 294.059C512.654 337.873 565.633 363.332 608.341 368.751C645.514 373.347 685.056 376.679 722.619 366.252C783.13 349.975 808.825 286.553 824.25 248.992C825.828 244.827 827.417 241.064 828.995 237.311C836.109 220.622 838.885 208.941 841.653 196.839C844.42 185.569 847.187 173.467 853.911 156.778L854.301 156.357C879.216 130.908 892.263 76.6576 898.587 35.3428C910.456 -41.8477 895.43 -113.208 857.068 -160.774C851.933 -167.036 845.999 -172.877 840.464 -178.717C829.785 -189.154 818.715 -200.413 811.592 -215.025C806.847 -225.04 802.501 -235.888 798.545 -247.569C790.642 -269.265 781.941 -292.215 766.916 -310.991C743.579 -337.704 711.949 -353.56 679.521 -352.727C648.681 -352.306 619.81 -337.283 600.828 -312.245C577.501 -281.367 564.054 -242.14 549.818 -200.413C546.261 -189.565 542.305 -177.884 538.349 -166.615C531.236 -147.418 526.88 -127.387 522.535 -107.779C513.443 -67.7183 504.742 -29.7453 477.458 1.13293C460.056 20.7416 437.118 33.2656 415.369 44.9465C396.787 54.9615 377.416 65.8096 361.202 80.8323C333.519 105.87 328.374 142.167 346.177 180.562ZM684.666 361.656C665.285 361.656 645.514 359.579 624.165 357.07C566.431 350.397 526.88 320.763 508.698 294.892C445.82 292.805 388.086 251.5 354.079 183.903C333.918 144.255 339.054 105.87 367.526 78.7449C383.341 63.7223 402.322 53.2857 420.914 42.8592C442.263 31.1783 464.411 18.6544 481.414 -0.542908C507.509 -30.1667 515.022 -66.8854 522.934 -105.28C527.28 -125.31 531.236 -146.173 538.349 -165.782C541.117 -173.71 543.884 -181.638 546.661 -189.154C560.497 -229.204 575.123 -270.94 600.039 -301.397C619.42 -325.181 647.492 -338.537 677.543 -338.537C677.943 -338.537 678.333 -338.537 678.732 -338.537C711.55 -338.116 743.189 -321.849 765.328 -293.469C780.353 -274.272 788.265 -251.743 795.778 -229.626C799.334 -219.189 802.501 -209.596 806.847 -200.002C812.391 -187.478 821.483 -177.463 830.574 -167.869C835.719 -162.44 840.854 -157.021 845.209 -151.181C877.638 -106.946 889.496 -43.5235 878.027 27.8365C868.936 84.5854 856.678 124.224 841.253 145.097C836.907 162.619 836.109 175.554 835.719 188.068C835.319 200.592 834.929 213.949 830.184 231.47C821.882 261.094 800.523 339.96 733.299 357.07C717.484 359.991 701.27 361.656 684.666 361.656ZM355.667 183.06C389.674 250.246 447.008 291.561 509.088 293.227H509.487L509.877 293.648C536.771 332.865 588.57 351.23 624.165 355.404C663.307 359.99 698.503 362.911 732.509 354.15C798.545 337.462 819.904 259.428 827.807 230.216C832.552 213.106 832.951 200.592 833.341 187.657C833.741 175.133 834.14 161.786 838.885 144.255V143.843C854.301 123.391 866.559 84.174 875.26 27.415C886.329 -43.1021 874.861 -106.113 842.832 -149.926C838.486 -155.767 833.341 -161.196 828.596 -166.615C819.505 -176.219 810.413 -186.224 804.479 -199.169C800.523 -208.341 796.966 -218.356 793.41 -228.793C785.897 -250.489 778.384 -273.028 763.35 -292.215C741.601 -319.762 710.361 -336.029 678.333 -336.45C648.282 -336.872 620.209 -323.515 601.228 -300.143C576.711 -270.098 562.076 -228.793 548.239 -188.732C545.472 -180.805 542.705 -172.877 539.937 -164.949C532.815 -145.33 528.469 -124.889 524.513 -104.858C516.211 -65.631 508.698 -28.9124 482.594 1.13293C465.59 20.7416 443.052 32.8441 421.703 44.9465C403.111 54.9615 384.13 65.3881 368.715 80.4108C341.032 106.703 336.286 144.255 355.667 183.06ZM702.459 347.888C684.666 347.888 666.864 346.222 649.47 344.556L640.769 343.714C575.523 337.462 539.148 304.907 529.258 294.481C528.469 294.481 527.679 294.481 526.88 294.481C461.244 294.481 400.743 254.421 363.969 186.402C342.61 146.763 346.966 106.281 375.828 78.3235C391.253 63.3008 410.234 52.8743 428.426 42.8592C449.376 31.1783 471.125 19.0759 487.738 -0.542908C512.654 -29.3338 519.368 -65.2196 526.491 -102.771C530.447 -123.223 534.403 -144.497 541.516 -164.528C543.095 -168.702 544.283 -172.877 545.862 -177.051C560.497 -217.945 575.523 -260.504 602.017 -290.128C621.788 -312.245 649.071 -323.936 679.122 -322.682C711.55 -321.427 742.789 -304.317 764.148 -276.359C781.941 -252.998 794.199 -223.785 801.712 -186.224C807.246 -177.051 813.181 -168.702 819.105 -160.774C823.85 -154.512 828.206 -148.261 832.552 -141.577C858.257 -101.938 866.559 -45.1894 856.279 18.6544C847.187 74.5703 838.087 110.456 827.807 130.908C825.439 149.262 827.017 163.452 828.995 177.22C830.574 190.577 832.552 204.767 830.184 222.709C828.206 240.231 813.97 327.858 744.368 343.714C730.142 347.055 716.295 347.888 702.459 347.888ZM529.657 292.394C539.538 302.409 575.523 334.953 640.769 341.636L649.47 342.469C680.71 345.801 712.739 348.721 743.189 341.636C811.592 325.771 825.439 239.398 827.417 222.288C829.395 204.767 827.807 190.998 826.228 177.641C824.649 163.873 822.671 149.262 825.039 130.486V130.075C835.319 109.623 844.42 74.1589 853.511 18.2429C863.791 -44.7679 855.489 -101.517 830.184 -140.323C825.828 -146.585 821.483 -152.847 816.737 -159.109C810.803 -167.036 804.479 -175.797 798.944 -184.979V-185.391C791.432 -222.531 779.174 -252.155 761.771 -275.105C740.811 -302.652 710.361 -319.34 678.333 -320.594C649.071 -321.849 622.187 -310.158 602.806 -288.462C576.711 -258.838 561.686 -216.69 547.051 -175.797C545.472 -171.622 544.283 -167.448 542.705 -163.283C535.582 -143.664 531.626 -122.38 527.679 -101.938C520.956 -65.631 513.833 -28.0794 488.528 1.54443C471.924 21.1632 449.776 33.2656 428.426 45.358C410.234 55.373 391.643 65.8096 376.227 80.8323C347.755 108.369 343.4 147.175 364.759 186.402C401.533 254.421 462.823 294.481 528.469 293.227L529.657 292.394ZM720.251 334.541C705.226 334.541 690.201 333.287 675.565 331.621C669.241 331.2 662.917 330.367 656.584 329.945C599.649 325.359 562.475 303.663 549.029 294.059C479.037 298.234 413.391 259.007 373.46 188.911C350.522 148.851 354.079 107.124 383.74 77.912C398.765 62.8894 417.347 52.4528 435.14 42.4377C455.71 30.7568 477.458 18.6544 493.273 -0.542908C517 -28.9123 522.934 -63.5437 528.859 -100.272C532.425 -121.135 535.981 -142.832 543.095 -162.862C558.12 -205.009 573.944 -248.823 602.806 -278.035C622.976 -298.477 649.86 -308.492 678.732 -306.405C710.761 -303.906 741.211 -286.796 761.771 -258.838C779.174 -235.466 790.243 -206.254 795.388 -171.622C799.334 -164.116 803.69 -157.021 808.036 -150.338C811.992 -144.086 815.948 -137.824 819.105 -131.562C838.087 -96.0978 843.231 -47.2767 833.741 9.89368C829.785 33.677 825.439 55.7946 821.083 75.4033C817.526 91.6803 814.759 105.87 813.181 117.551C810.014 138.414 815.159 154.691 820.294 171.801C824.25 185.148 828.596 198.926 828.995 215.193C829.785 243.151 817.926 318.686 754.258 332.033C743.189 333.708 731.72 334.541 720.251 334.541ZM549.818 291.972C563.265 301.576 600.039 323.693 656.983 327.858C663.307 328.279 669.641 329.112 675.965 329.534C701.669 332.033 728.553 334.541 754.258 329.112C816.338 316.177 828.206 241.897 827.417 214.36C827.017 198.083 822.671 184.736 818.715 171.38C813.181 153.858 808.435 137.581 811.592 116.297C813.181 104.616 816.338 90.4259 819.505 74.1589C823.461 54.5401 828.206 32.4226 831.763 9.06073C840.854 -47.6881 836.109 -96.0977 817.526 -131.151C813.97 -137.402 810.413 -143.664 806.457 -149.926C802.102 -156.6 797.756 -163.695 793.8 -171.622V-172.044C788.664 -206.254 777.586 -235.466 760.582 -258.417C740.422 -285.963 710.761 -303.063 679.122 -305.15C650.659 -307.238 624.555 -297.223 604.784 -277.192C576.312 -247.99 560.897 -204.588 545.862 -162.44C538.749 -142.41 535.192 -121.135 531.626 -100.272C525.701 -64.7981 519.368 -28.0794 495.251 0.711487C479.037 20.3303 457.288 32.4226 436.329 44.525C418.536 54.5401 400.344 64.9767 385.319 79.5779C356.457 107.957 352.89 148.429 375.438 187.657C414.979 257.341 479.826 296.147 549.818 291.972ZM738.444 321.185C725.396 321.185 711.949 319.93 698.902 318.686C690.201 317.843 681.499 317.01 672.798 316.599C622.976 313.678 586.592 301.154 569.199 293.648C495.641 300.743 426.049 262.77 382.951 191.831C358.435 151.349 361.592 108.79 391.643 78.3235C406.278 63.3008 424.47 52.8743 441.863 42.8592C462.034 31.1783 483.383 19.0758 498.808 -0.12146C521.346 -28.0795 526.491 -61.8779 531.626 -97.7636C534.793 -119.048 537.959 -140.744 545.472 -161.196C558.519 -197.915 575.123 -239.641 603.995 -266.344C624.165 -285.12 650.659 -293.891 678.732 -290.549C710.361 -287.207 739.623 -269.265 759.403 -241.307C774.428 -220.032 779.963 -195.827 785.498 -172.455C786.686 -167.448 787.866 -162.44 789.054 -157.433C791.032 -149.505 794.988 -142.41 798.545 -135.737C800.922 -131.151 803.69 -126.555 805.668 -121.547C817.926 -90.6687 819.904 -50.6084 811.203 1.13293C804.479 40.3503 798.944 77.912 798.545 103.783C798.545 126.312 805.668 143.843 813.57 162.619C819.105 176.387 825.039 190.577 828.206 207.265C831.763 228.55 828.206 263.181 811.592 287.808C800.133 305.329 784.309 315.755 764.148 319.519C756.236 320.763 747.145 321.185 738.444 321.185ZM569.589 291.561C586.992 299.067 623.366 311.591 673.197 314.511C681.899 314.923 690.591 315.756 699.292 316.599C721.041 318.686 743.189 320.763 764.538 317.01C783.919 313.678 799.334 303.242 810.413 286.132C826.627 261.516 830.184 228.128 826.627 206.854C823.85 190.577 817.926 176.387 812.391 162.619C804.479 143.843 797.356 125.9 797.356 102.95C797.356 77.0791 803.29 39.5175 810.014 -0.12146C818.715 -51.4514 816.737 -91.5016 804.879 -121.547C802.901 -126.143 800.523 -130.729 797.756 -135.325C793.8 -141.999 789.844 -149.093 787.866 -157.433C786.686 -162.44 785.498 -167.448 784.309 -172.455C778.774 -195.827 773.24 -220.032 758.604 -240.895C739.233 -268.02 710.361 -285.963 679.122 -289.295C651.838 -292.215 625.744 -283.876 605.973 -265.511C577.501 -238.808 560.897 -197.915 548.239 -161.196C541.117 -141.166 537.959 -119.46 534.793 -98.1851C529.657 -63.5436 524.513 -28.0794 501.185 0.300049C485.361 19.9088 464.012 32.0112 443.452 43.6921C426.049 53.7072 408.256 63.7223 393.621 78.7449C364.359 108.369 361.202 150.095 385.319 189.744C427.627 260.682 496.44 298.656 569.589 291.561ZM755.837 307.828C743.978 307.828 731.72 306.583 719.852 305.329C709.971 304.075 699.292 303.242 689.012 302.82C667.663 301.987 647.492 299.488 630.09 297.401C615.464 295.314 601.617 293.648 589.359 293.227C499.207 290.728 433.172 257.762 392.441 194.33C365.947 153.025 368.715 109.623 399.555 77.912C413.791 62.8894 431.583 52.8743 448.587 42.8592C468.757 31.1783 489.317 19.0758 504.342 -0.12146C526.091 -27.658 530.047 -60.6234 534.793 -95.6763C537.56 -116.961 540.327 -139.078 547.45 -159.52C557.73 -188.311 574.733 -229.626 604.784 -254.242C625.344 -271.352 651.448 -278.447 678.732 -274.272C709.971 -269.686 738.444 -251.322 757.026 -223.785C773.639 -199.58 777.985 -172.044 782.73 -145.33L783.13 -142.832C784.309 -136.57 786.287 -130.729 788.265 -125.31C789.844 -120.714 791.432 -116.128 792.611 -111.532C799.734 -80.6536 794.988 -43.5135 789.054 -7.62775C782.73 29.9238 781.152 64.5552 784.708 90.0144C788.265 114.209 797.756 133.406 808.036 154.27C815.159 168.459 822.671 183.06 827.417 199.338C833.741 219.368 833.741 252.333 819.505 276.949C809.614 293.648 794.199 304.496 774.818 307.416C768.894 307.416 762.56 307.828 755.837 307.828ZM394.419 193.076C434.351 255.675 499.996 288.641 589.359 290.728C601.617 291.139 615.464 292.805 630.489 294.892C647.892 297.401 668.052 299.9 689.411 300.321C699.691 300.743 710.361 301.987 720.251 302.82C738.444 304.907 757.026 306.995 775.218 304.075C794.199 301.154 808.825 291.139 818.316 274.862C832.552 250.667 832.162 218.535 826.228 198.926C821.083 182.649 813.97 168.459 806.847 154.27C796.567 133.406 786.686 113.798 783.13 89.593C779.564 64.1438 781.152 29.0909 787.476 -8.88214C793.41 -44.3564 798.155 -81.4866 791.032 -111.953C789.844 -116.539 788.265 -120.714 786.686 -125.31C784.708 -130.729 782.331 -136.57 781.542 -143.253L781.152 -145.752C776.796 -172.044 772.45 -199.58 755.837 -223.364C737.255 -250.489 709.182 -268.432 678.732 -273.028C652.238 -277.192 626.533 -270.098 606.363 -253.409C576.711 -228.793 559.708 -187.899 549.428 -159.52C542.305 -139.49 539.538 -117.372 536.771 -96.0978C532.425 -62.2993 528.069 -27.2465 505.931 0.711487C490.506 20.3303 469.546 32.4226 449.376 44.1136C432.373 54.1287 414.979 64.1437 400.743 78.7449C371.083 110.456 368.715 153.025 394.419 193.076ZM772.84 294.892C761.381 294.892 750.302 293.227 739.233 291.972C728.164 290.728 716.695 289.052 705.616 289.052C665.685 289.052 635.234 290.306 609.929 292.394C524.113 299.9 448.587 265.269 402.721 196.839C375.039 155.945 377.416 110.045 408.256 77.4905C422.492 62.8893 439.496 52.4528 456.499 42.4377C476.27 30.7568 496.44 19.0759 511.066 -0.542908C531.626 -27.6579 535.192 -61.4664 538.749 -94.0104C541.117 -115.706 543.494 -137.824 550.607 -158.276C564.453 -197.082 583.435 -225.872 607.162 -242.982C653.027 -276.359 721.44 -259.671 755.837 -206.675C769.284 -185.812 776.406 -162.029 777.985 -128.642C778.384 -124.467 778.774 -120.714 779.174 -116.961C779.963 -111.953 780.353 -106.946 780.353 -101.938C780.353 -82.741 776.406 -62.2993 772.051 -40.5933C770.472 -33.087 768.894 -24.7377 767.705 -16.8099C762.17 14.4797 763.35 47.4453 771.262 75.8247C778.384 101.695 791.432 124.646 804.479 146.763C812.781 160.953 821.083 175.554 827.807 190.998C836.508 210.607 840.065 242.318 827.417 266.523C819.105 282.379 804.879 291.972 786.287 294.481C781.542 294.892 777.196 294.892 772.84 294.892ZM705.616 286.965C717.085 286.965 728.553 288.641 739.632 289.885C754.658 291.972 770.472 294.059 785.897 291.972C803.69 289.885 817.526 280.713 825.439 265.269C837.697 241.485 834.14 210.607 825.828 191.41C819.105 175.976 810.413 161.364 802.501 147.596C789.844 125.479 776.406 102.528 769.284 76.2361C761.381 47.4453 760.192 14.0683 765.727 -17.6428C767.306 -25.5706 768.894 -33.5084 770.073 -41.4362C774.428 -62.7108 778.384 -83.1624 778.384 -102.36C778.384 -107.367 777.586 -111.953 777.196 -116.961C776.796 -120.714 776.007 -124.889 776.007 -129.063C774.428 -162.029 767.705 -185.812 754.258 -205.842C720.251 -258.005 653.427 -274.272 608.341 -241.307C585.013 -224.197 566.432 -196.239 552.585 -157.854C545.472 -137.403 543.095 -115.295 540.727 -94.0104C537.17 -61.0449 533.604 -26.825 512.654 0.711487C497.619 20.3303 477.059 32.4226 457.288 44.1136C440.684 53.7072 423.281 64.1437 409.445 78.7449C379.385 110.456 377.017 155.103 403.91 195.163C449.376 263.181 524.113 297.401 609.53 289.885C634.835 288.219 665.685 286.965 705.616 286.965ZM590.158 295.735C520.956 295.735 455.31 261.094 412.212 199.338C383.341 158.033 384.529 111.289 416.168 77.4905C430.005 62.8893 447.008 52.4528 463.222 42.8592C482.594 31.1783 502.364 19.4872 516.6 -0.12146C536.371 -26.825 539.139 -59.7905 541.915 -91.9232C543.884 -113.619 545.472 -136.158 552.985 -156.6C564.453 -189.565 584.224 -215.857 608.341 -230.88C631.678 -245.481 660.15 -248.823 688.223 -240.062C714.717 -231.713 738.833 -212.937 753.859 -189.154C768.894 -165.36 774.818 -139.911 772.051 -114.041C771.262 -106.524 769.683 -99.018 767.306 -91.9232C764.538 -83.5739 761.771 -75.6461 758.604 -67.7183C753.469 -54.3716 747.934 -40.5933 745.557 -25.9921C740.811 0.711487 744.768 31.1782 757.026 62.0565C768.894 90.8474 785.897 117.551 802.501 143.01C810.803 155.945 819.505 169.292 827.417 182.649C841.253 206.432 844.021 236.899 834.14 256.919C827.017 271.531 814.36 279.87 796.567 281.546C783.13 282.8 770.073 280.713 757.026 278.625C745.557 276.949 733.698 274.862 721.83 275.284C700.081 276.117 677.943 281.124 656.983 285.72C648.282 287.807 638.791 289.885 630.09 291.561C616.652 294.481 603.206 295.735 590.158 295.735ZM657.373 -242.982C640.37 -242.982 623.766 -238.386 609.13 -229.204C585.413 -214.182 566.032 -188.311 554.563 -155.767C547.45 -135.325 545.472 -113.208 543.884 -91.5016C541.117 -59.3791 538.349 -25.9921 518.189 1.13293C503.553 20.7416 483.383 32.8441 464.012 44.525C447.798 54.1287 430.794 64.1437 417.347 78.7449C386.507 111.71 384.929 157.611 413.391 198.083C464.012 270.698 546.661 305.75 629.3 289.885C638.401 288.219 647.492 286.132 656.194 284.044C677.543 279.037 699.292 274.029 721.44 273.196C733.299 272.785 745.167 274.862 757.026 276.538C769.683 278.625 783.13 280.713 796.177 279.458C812.781 277.792 825.439 269.855 832.162 256.086C841.653 236.478 838.885 206.854 825.439 183.903C817.526 170.547 809.224 157.19 800.922 144.255C784.309 118.384 766.916 92.1017 755.447 62.8894C742.789 31.5897 738.833 0.711487 743.579 -26.4136C746.346 -41.0148 751.491 -54.783 757.026 -68.5512C760.192 -76.479 763.35 -84.4168 765.727 -92.756C768.095 -99.8509 769.683 -107.367 770.472 -114.452C773.24 -139.911 767.306 -164.528 752.68 -188.311C738.044 -212.104 714.317 -230.459 688.223 -238.386C677.543 -241.307 667.263 -242.982 657.373 -242.982Z" fill="white"/>
</g>
<defs>
<clipPath id="clip0_231_8140">
<rect width="1439" height="708" fill="white"/>
</clipPath>
</defs>
</svg>
