<svg width="55" height="41" viewBox="0 0 55 41" fill="none" xmlns="http://www.w3.org/2000/svg">
<g clip-path="url(#clip0_1901_6455)">
<path d="M0 17.9236C0 18.1647 0.0957789 18.396 0.266266 18.5665C0.436754 18.7369 0.667985 18.8327 0.909091 18.8327H12.2991C12.4201 18.8321 12.5401 18.8561 12.6516 18.9031C12.7632 18.9501 12.8641 19.0193 12.9482 19.1064C13.0323 19.1934 13.0979 19.2966 13.141 19.4098C13.1841 19.5229 13.2039 19.6436 13.1991 19.7645C12.82 28.4809 10.1536 29.5064 6.83454 29.8064L6.30727 29.8709C6.08712 29.8982 5.88455 30.005 5.7377 30.1713C5.59085 30.3376 5.50987 30.5518 5.51 30.7736V39.5409C5.50995 39.6644 5.53505 39.7866 5.58377 39.9C5.6325 40.0135 5.70382 40.1158 5.7934 40.2008C5.88297 40.2858 5.98892 40.3516 6.10478 40.3943C6.22063 40.437 6.34397 40.4556 6.46727 40.4491L7.03636 40.4191C11.5218 40.1682 16.48 39.3645 19.7882 35.3082C22.6882 31.7527 23.9673 25.9436 23.9673 17.0254V1.40909C23.9673 1.16798 23.8715 0.936754 23.701 0.766266C23.5305 0.595779 23.2993 0.5 23.0582 0.5H0.909091C0.667985 0.5 0.436754 0.595779 0.266266 0.766266C0.0957789 0.936754 0 1.16798 0 1.40909L0 17.9236Z" fill="url(#paint0_linear_1901_6455)"/>
<path d="M31.4882 0.5C31.2471 0.5 31.0159 0.595779 30.8454 0.766267C30.6749 0.936754 30.5791 1.16799 30.5791 1.40909V17.9236C30.5791 18.1647 30.6749 18.396 30.8454 18.5665C31.0159 18.737 31.2471 18.8327 31.4882 18.8327H42.7C42.821 18.8323 42.9409 18.8563 43.0524 18.9034C43.1639 18.9505 43.2647 19.0196 43.3488 19.1066C43.4329 19.1937 43.4985 19.2969 43.5416 19.4099C43.5848 19.523 43.6047 19.6436 43.6 19.7646C43.2273 28.4809 40.6436 29.5064 37.3236 29.8064L36.8782 29.8655C36.6595 29.8941 36.4587 30.0013 36.3132 30.1671C36.1677 30.3328 36.0874 30.5458 36.0873 30.7664V39.5382C36.0873 39.6619 36.1126 39.7843 36.1616 39.8979C36.2106 40.0115 36.2823 40.1139 36.3723 40.1989C36.4622 40.2838 36.5686 40.3495 36.6848 40.3919C36.801 40.4343 36.9247 40.4525 37.0482 40.4455L37.5264 40.4182C42.0109 40.1682 47.0145 39.3655 50.3227 35.3091C53.2236 31.7518 54.5455 25.9427 54.5455 17.0245V1.40909C54.5455 1.16799 54.4497 0.936754 54.2792 0.766267C54.1087 0.595779 53.8775 0.5 53.6364 0.5H31.4882Z" fill="url(#paint1_linear_1901_6455)"/>
</g>
<defs>
<linearGradient id="paint0_linear_1901_6455" x1="0" y1="20.4752" x2="23.9673" y2="20.4752" gradientUnits="userSpaceOnUse">
<stop stop-color="#2B388F"/>
<stop offset="1" stop-color="#304996"/>
</linearGradient>
<linearGradient id="paint1_linear_1901_6455" x1="30.5791" y1="20.4735" x2="54.5455" y2="20.4735" gradientUnits="userSpaceOnUse">
<stop stop-color="#C62F8F"/>
<stop offset="1" stop-color="#CE2786"/>
</linearGradient>
<clipPath id="clip0_1901_6455">
<rect width="54.5454" height="40" fill="white" transform="translate(0 0.5)"/>
</clipPath>
</defs>
</svg>
