<svg width="61" height="60" viewBox="0 0 61 60" fill="none" xmlns="http://www.w3.org/2000/svg">
<g id="Frame">
<path id="Vector" d="M51.2949 9.95508L31.3848 3.16992C31.1445 3.08789 30.8223 3.04688 30.5 3.04688C30.1777 3.04688 29.8555 3.08789 29.6152 3.16992L9.70508 9.95508C9.21875 10.1191 8.82031 10.6816 8.82031 11.1973V39.4629C8.82031 39.9785 9.1543 40.6582 9.55859 40.9805L29.7559 56.7187C29.9609 56.8769 30.2246 56.959 30.4941 56.959C30.7637 56.959 31.0332 56.8769 31.2324 56.7187L51.4297 40.9805C51.834 40.6641 52.168 39.9844 52.168 39.4629V11.1973C52.1797 10.6816 51.7813 10.125 51.2949 9.95508ZM47.9609 38.3379L30.5 51.9434L13.0391 38.3379V13.2832L30.5 7.33008L47.9609 13.2832V38.3379ZM24.1836 26.5605C24.0078 26.3203 23.7266 26.1738 23.4219 26.1738H20.1875C19.8066 26.1738 19.584 26.6074 19.8066 26.918L27.2129 37.1133C27.3005 37.2331 27.4151 37.3307 27.5475 37.3979C27.6798 37.4651 27.8262 37.5001 27.9746 37.5001C28.1231 37.5001 28.2694 37.4651 28.4018 37.3979C28.5341 37.3307 28.6488 37.2331 28.7363 37.1133L41.1934 19.9629C41.416 19.6523 41.1934 19.2187 40.8125 19.2187H37.5781C37.2793 19.2187 36.9922 19.3652 36.8164 19.6055L27.9746 31.7812L24.1836 26.5605Z" fill="url(#paint0_linear_646_10722)"/>
</g>
<defs>
<linearGradient id="paint0_linear_646_10722" x1="8.82031" y1="30.0029" x2="52.1682" y2="30.0029" gradientUnits="userSpaceOnUse">
<stop stop-color="#2B388F"/>
<stop offset="1" stop-color="#304996"/>
</linearGradient>
</defs>
</svg>
