<svg width="1439" height="513" viewBox="0 0 1439 513" fill="none" xmlns="http://www.w3.org/2000/svg">
<g clip-path="url(#clip0_305_22947)">
<path d="M297.534 513C270.251 513 243.757 509.842 218.451 503.508C143.714 484.533 80.446 433.904 40.895 360.734C3.3316 291.53 -8.92645 208.467 6.49834 132.539C21.9136 57.3899 57.5085 -2.7215 112.475 -46.2262C128.289 -58.4862 145.692 -69.5669 164.274 -79.0591C185.234 -89.3409 206.983 -98.8331 227.942 -107.536C263.927 -122.954 301.091 -138.381 334.308 -160.523C395.209 -201.66 445.43 -268.106 479.436 -352.737C511.066 -431.443 527.28 -516.874 542.705 -599.137C550.607 -640.264 558.519 -682.979 568.409 -724.505C585.803 -796.886 638.002 -860.165 695.336 -879.149C736.466 -892.598 778.384 -882.707 815.948 -851.063C844.81 -826.542 867.348 -795.697 889.496 -766.032C909.267 -739.533 929.437 -711.855 953.953 -688.914C999.819 -646.199 1053.21 -611.787 1105.01 -578.174C1126.75 -564.335 1149.29 -549.697 1170.65 -535.059C1268.32 -467.434 1344.24 -374.889 1389.72 -267.706C1434.79 -160.923 1449.43 -41.48 1431.64 77.5634C1421.75 142.82 1395.65 198.186 1355.31 237.344C1313.4 278.47 1256.86 300.223 1192.4 301.022C1137.03 301.412 1083.66 286.783 1032.25 272.545C971.346 255.539 908.078 238.133 842.043 246.436C751.091 257.517 681.899 315.26 615.464 371.025C570.378 408.984 523.723 447.743 470.336 472.663C413.001 499.561 353.689 513 297.534 513ZM731.72 -882.707C719.852 -882.707 707.993 -880.728 696.125 -876.772C639.19 -858.187 587.781 -795.298 570.378 -723.716C560.497 -682.589 552.585 -639.874 544.683 -598.737C529.258 -516.474 513.044 -431.044 481.414 -351.948C447.008 -266.917 396.787 -200.081 335.497 -158.945C302.28 -136.802 265.106 -120.975 228.731 -105.558C207.772 -96.4553 185.624 -87.3625 165.064 -77.0808C146.482 -67.9785 129.478 -56.9073 113.654 -44.6473C59.4866 -1.54211 23.8916 58.1793 8.47636 132.929C-6.94843 208.467 5.30962 291.13 42.4832 359.554C81.6252 431.926 144.104 482.155 218.451 501.139C295.556 520.514 384.529 509.842 469.156 470.684C522.535 446.164 568.799 407.006 613.876 369.436C680.71 313.672 749.912 255.539 841.253 244.458C907.688 236.155 970.957 253.95 1032.25 270.567C1083.66 284.805 1136.64 299.433 1192 299.043C1255.67 298.644 1311.81 276.892 1353.34 236.155C1393.27 197.396 1419.38 142.421 1429.26 77.5634C1447.05 -41.0901 1432.43 -160.133 1387.35 -266.517C1341.87 -373.7 1266.35 -465.855 1169.06 -533.09C1147.71 -547.719 1125.18 -562.357 1103.43 -576.196C1051.63 -609.809 997.841 -644.22 951.975 -686.936C927.06 -709.877 906.899 -737.555 887.128 -764.453C866.169 -794.118 843.631 -824.964 814.759 -849.094C788.664 -871.236 760.192 -882.707 731.72 -882.707ZM312.17 499.95C285.276 499.95 259.571 496.793 234.656 490.458C161.897 472.273 100.607 423.223 62.2539 352.83C25.8697 286.783 13.2217 206.099 26.659 132.139C40.1057 60.1577 72.1345 0.835754 121.966 -43.8578C138.969 -59.2757 155.183 -70.3563 172.186 -79.4492C193.536 -90.5203 216.074 -100.013 238.222 -109.505C273.018 -124.143 308.604 -139.57 340.242 -160.923C399.555 -201.66 447.408 -265.728 481.804 -351.558C512.255 -427.097 527.679 -508.171 543.095 -586.877C551.007 -628.403 559.309 -671.508 569.988 -713.434C587.381 -783.437 638.791 -844.738 694.946 -862.933C735.676 -875.982 776.796 -866.1 813.97 -834.456C842.442 -809.936 864.581 -779.481 885.94 -750.214C904.921 -724.115 924.692 -697.217 948.418 -674.676C992.306 -633.149 1044.11 -599.926 1093.94 -567.493C1114.9 -553.654 1137.03 -539.805 1157.6 -525.177C1252.11 -459.521 1325.26 -369.743 1369.16 -265.338C1412.66 -161.712 1426.89 -45.8362 1409.49 70.0494C1400 133.718 1374.29 187.514 1335.54 225.873C1294.81 265.82 1240.64 287.573 1178.55 288.762C1125.18 289.551 1074.17 276.102 1024.73 262.653C966.211 246.836 905.71 231.019 842.043 239.322C755.048 250.793 689.012 306.557 624.954 360.344C580.268 397.913 534.403 436.672 481.414 461.192C425.259 486.901 367.126 499.95 312.17 499.95ZM123.544 -41.8795C73.7226 2.41461 42.0838 61.3466 28.637 132.929C15.1997 206.499 27.8477 286.384 63.8325 352.04C102.195 422.043 162.696 470.684 235.055 488.879C310.582 507.864 397.577 497.582 480.226 459.613C533.214 435.483 579.079 396.724 623.366 359.155C687.433 304.969 753.859 249.204 841.653 237.734C905.71 229.04 966.601 245.257 1025.13 261.074C1074.56 274.124 1125.57 287.963 1178.55 286.783C1240.24 285.594 1294.02 264.232 1334.36 224.294C1372.71 186.325 1398.02 132.929 1407.51 69.65C1424.91 -45.4367 1410.68 -160.923 1367.18 -264.539C1323.28 -368.564 1250.52 -458.341 1156.42 -523.598C1135.46 -538.227 1113.71 -552.075 1092.75 -565.914C1042.53 -598.347 990.727 -631.96 946.83 -673.487C922.714 -696.028 903.333 -722.926 884.351 -749.425C863.002 -778.691 840.854 -809.146 812.781 -832.877C776.406 -864.122 735.676 -873.614 695.735 -860.954C639.98 -842.759 589.359 -781.858 571.966 -712.645C561.686 -671.118 553.375 -628.004 545.073 -586.477C530.047 -507.771 514.233 -426.298 483.782 -350.759C448.986 -264.548 401.133 -200.081 341.431 -159.344C309.792 -137.592 273.807 -122.564 239.401 -107.926C217.652 -98.8331 195.114 -88.9414 173.765 -77.8702C156.762 -68.378 140.947 -57.3068 123.544 -41.8795ZM327.195 486.501C301.091 486.501 275.386 483.344 250.87 477.409C180.488 459.613 121.167 412.551 83.6033 344.526C48.8071 281.238 35.3604 203.331 46.8291 131.35C57.8985 62.5355 86.3706 4.39294 131.846 -41.48C144.504 -54.1396 159.919 -68.378 180.488 -79.8486C202.237 -91.7092 225.565 -101.601 247.713 -111.093C280.93 -125.332 315.726 -139.96 345.777 -160.923C403.111 -200.471 449.376 -264.149 483.782 -350.369C512.654 -422.35 528.069 -500.257 542.705 -575.007C551.007 -616.933 559.708 -660.437 570.378 -702.363C587.781 -769.988 638.791 -829.31 693.757 -846.716C734.088 -859.375 774.818 -849.484 811.203 -818.239C838.885 -794.508 860.235 -764.453 881.194 -735.576C899.386 -710.267 918.358 -683.768 941.296 -662.016C983.614 -621.679 1033.44 -589.245 1081.68 -558.001C1102.24 -544.552 1123.2 -530.713 1143.76 -516.874C1235.11 -453.196 1305.49 -365.787 1347.8 -264.539C1389.72 -164.09 1403.16 -51.3718 1386.55 60.5571C1377.06 122.647 1352.54 174.854 1314.98 212.424C1275.84 251.582 1223.64 272.935 1163.53 274.913C1112.13 276.102 1063.09 263.842 1015.64 251.582C959.488 237.344 901.355 222.316 840.464 231.019C757.815 242.879 694.547 296.666 632.857 348.474C588.97 385.653 543.494 424.412 490.506 448.142C437.118 474.241 380.973 486.501 327.195 486.501ZM728.953 -849.484C717.883 -849.484 706.415 -847.905 695.336 -844.348C640.769 -827.332 590.948 -768.409 573.155 -701.564C562.475 -659.648 553.774 -616.143 545.472 -574.217C530.447 -499.078 515.421 -421.561 486.16 -349.18C451.354 -262.96 404.699 -198.892 347.356 -158.945C316.906 -137.982 282.509 -122.954 248.892 -108.715C226.354 -99.2231 203.416 -89.3409 181.668 -77.4708C161.507 -66.3997 145.692 -52.1612 133.434 -39.5017C88.3486 5.9718 59.8765 63.7149 48.8071 132.139C37.3384 203.721 50.3858 280.848 85.1914 343.728C122.355 411.362 181.278 458.034 251.269 475.43C325.217 493.625 410.234 483.734 490.506 447.353C543.095 423.622 588.57 385.254 632.467 347.684C694.157 295.477 757.815 241.3 840.854 229.43C902.544 220.727 960.677 235.765 1016.82 249.994C1064.28 262.263 1113.31 274.523 1164.32 273.334C1223.64 271.746 1275.84 250.393 1314.59 211.635C1351.75 174.455 1376.27 122.257 1385.37 60.9471C1401.98 -50.5823 1388.93 -162.901 1347.01 -262.96C1304.7 -363.818 1234.31 -450.827 1143.76 -514.496C1123.59 -528.734 1102.24 -542.583 1081.68 -555.632C1033.44 -586.877 983.215 -619.7 940.906 -660.038C917.968 -682.19 898.987 -708.289 880.405 -733.998C859.835 -762.874 838.087 -792.53 810.803 -816.261C785.098 -838.013 757.026 -849.484 728.953 -849.484ZM342.22 473.452C316.516 473.452 291.21 470.684 267.483 464.749C199.47 447.743 141.736 402.27 105.352 337.012C71.7446 276.492 57.8985 201.752 67.3892 131.35C76.49 64.1144 101.006 8.74915 142.126 -38.7122C153.994 -52.5607 168.62 -67.9785 189.19 -79.4492C211.329 -91.7092 234.656 -101.601 257.593 -111.483C290.022 -125.332 323.629 -139.57 352.5 -160.133C408.256 -199.291 452.143 -260.592 486.949 -347.991C514.622 -416.815 529.657 -490.765 543.884 -562.357C552.585 -604.672 561.287 -648.577 572.755 -690.493C590.548 -756.149 640.37 -813.103 694.157 -829.71C734.088 -841.97 774.428 -832.078 810.413 -800.843C837.297 -777.502 858.656 -747.846 878.817 -719.369C896.609 -694.45 914.802 -668.741 936.95 -647.388C977.281 -608.23 1025.52 -576.985 1072.19 -546.53C1091.96 -533.48 1112.52 -520.031 1132.29 -506.192C1220.07 -444.103 1288.1 -359.462 1328.82 -261.381C1369.16 -163.691 1382.2 -54.929 1365.6 53.4332C1356.5 113.554 1332.77 164.963 1296.79 201.353C1259.22 239.712 1208.61 261.074 1150.88 263.053C1101.45 265.031 1054.39 253.56 1008.92 242.48C955.142 229.43 899.776 215.981 840.854 224.684C762.17 236.554 704.437 286.384 643.146 338.981C599.649 376.161 554.963 414.53 502.364 437.861C449.376 461.591 394.419 473.452 342.22 473.452ZM727.365 -832.877C716.695 -832.877 705.616 -831.289 694.547 -827.731C641.168 -811.515 591.737 -754.96 574.334 -690.103C562.865 -648.177 554.173 -604.273 545.472 -561.957C530.837 -490.375 516.211 -416.415 488.528 -347.202C453.332 -259.403 409.045 -197.703 353.29 -158.555C324.028 -137.982 290.421 -123.353 257.993 -109.505C235.455 -99.6226 211.728 -89.7308 189.979 -77.4708C169.41 -66.0002 155.183 -50.5823 143.315 -37.1334C102.585 9.92853 78.0686 64.9038 69.3672 131.749C59.8765 201.353 73.7226 275.703 106.94 335.824C142.915 400.681 200.259 445.774 267.873 462.78C340.242 480.576 423.281 471.084 501.575 435.882C553.774 412.551 598.46 374.183 641.958 337.402C700.871 287.173 761.771 234.966 840.854 222.706C899.776 213.613 955.532 227.062 1009.71 240.511C1055.18 251.582 1101.84 263.053 1150.88 261.074C1208.21 259.096 1258.04 237.734 1295.21 199.774C1330.8 163.384 1354.52 112.765 1363.62 53.0432C1379.84 -55.3285 1367.18 -163.691 1326.85 -260.982C1286.12 -358.672 1218.49 -442.914 1130.71 -505.004C1110.94 -518.852 1090.38 -532.291 1070.61 -545.35C1023.94 -575.796 975.702 -607.041 935.371 -646.199C913.223 -667.552 894.641 -693.261 877.238 -718.57C857.068 -747.047 836.109 -776.313 809.224 -799.654C783.13 -821.406 755.447 -832.877 727.365 -832.877ZM356.846 460.402C331.541 460.402 307.025 457.635 283.298 451.7C216.473 435.483 162.296 392.777 126.311 328.7C93.8833 271.356 79.6472 198.975 87.1599 130.95C94.2827 66.4922 115.242 11.9069 151.227 -35.9445C163.086 -51.3718 176.133 -67.5886 197.092 -79.4492C219.241 -92.1086 242.967 -102.39 265.895 -112.273C297.534 -125.722 329.962 -139.96 358.035 -160.133C412.212 -198.892 453.732 -257.824 488.927 -346.412C515.421 -412.069 529.657 -482.462 543.884 -550.487C552.585 -593.202 561.686 -637.106 573.545 -679.022C591.337 -742.301 640.37 -797.276 693.358 -813.103C732.909 -824.964 772.84 -815.072 808.036 -784.227C834.53 -761.285 855.09 -732.019 874.87 -703.942C891.874 -679.812 909.267 -654.502 930.626 -633.939C969.378 -595.97 1015.64 -565.514 1060.32 -536.248C1079.7 -523.598 1099.47 -510.539 1118.45 -497.1C1203.07 -436.979 1268.72 -355.115 1307.87 -260.192C1346.62 -165.669 1358.88 -60.4646 1343.05 44.7399C1334.36 103.272 1311.02 153.102 1276.63 188.693C1240.24 225.873 1192 247.226 1136.25 249.994C1089.19 252.371 1044.11 242.09 1000.62 231.808C949.208 219.938 896.22 207.678 840.065 217.17C765.727 229.43 710.361 277.291 651.838 327.91C609.13 364.69 564.843 403.059 512.654 425.991C461.634 448.542 408.256 460.402 356.846 460.402ZM152.806 -34.7556C116.821 12.6963 95.8613 66.8821 89.1379 131.35C82.0246 199.375 96.2607 270.957 128.289 327.91C163.875 391.588 217.652 433.505 284.087 450.121C355.268 467.127 435.939 458.034 511.855 424.412C564.054 401.47 607.951 363.511 650.659 326.721C709.572 276.102 764.938 227.851 840.065 215.591C896.619 206.099 949.997 218.359 1001.41 230.22C1044.9 240.111 1089.58 250.393 1136.64 248.415C1191.61 245.647 1239.85 224.684 1275.44 187.904C1309.85 152.313 1332.77 102.873 1341.47 44.7399C1357.29 -60.0746 1345.03 -164.88 1306.28 -259.003C1267.14 -353.527 1202.28 -435.4 1117.66 -495.121C1098.68 -508.57 1078.91 -521.62 1059.53 -534.27C1014.84 -563.536 968.189 -593.991 929.437 -631.96C908.078 -652.923 890.285 -678.233 873.282 -702.363C853.511 -730.44 833.341 -759.307 806.847 -782.248C772.051 -812.704 733.299 -822.595 694.157 -810.725C641.958 -796.097 593.315 -741.511 575.523 -679.022C563.664 -637.106 554.563 -593.202 545.862 -550.487C531.626 -482.462 517.39 -412.069 490.905 -346.013C455.31 -257.025 413.391 -197.703 359.224 -158.555C330.752 -138.381 298.324 -124.143 266.694 -110.694C243.757 -100.812 220.03 -90.5203 197.882 -77.8702C177.721 -66.3997 164.274 -50.1829 152.806 -34.7556ZM371.872 447.353C346.966 447.353 322.84 444.585 299.512 439.05C160.318 405.427 97.05 258.307 106.94 130.56C111.686 66.8821 128.689 15.0742 160.718 -33.5762C172.186 -50.9723 184.045 -67.5886 205.005 -79.8486C227.143 -92.8981 250.87 -103.18 274.207 -113.072C305.047 -126.511 336.686 -139.96 363.969 -160.133C431.194 -208.774 467.178 -284.712 491.295 -345.223C516.211 -407.712 530.447 -474.548 544.283 -539.415C553.375 -582.131 562.475 -626.025 575.123 -668.351C592.926 -729.251 641.558 -782.248 692.968 -797.276C732.509 -808.747 771.661 -798.465 806.058 -768.01C832.162 -745.069 851.933 -716.601 870.914 -688.914C887.128 -665.183 904.132 -641.053 924.692 -620.49C961.865 -583.71 1006.15 -554.443 1049.25 -525.966C1067.83 -513.706 1087.21 -501.047 1105.8 -487.997C1187.26 -429.864 1250.13 -350.369 1287.7 -258.613C1324.87 -167.248 1336.73 -65.6102 1321.3 36.037C1303.12 155.08 1229.17 230.22 1122.41 236.944C1077.32 239.712 1034.22 230.619 993.095 221.526C944.063 210.845 893.452 200.164 840.065 209.656C770.073 222.316 717.085 268.189 661.329 316.839C619.02 353.619 575.523 391.588 523.324 414.13C473.502 436.282 421.703 447.353 371.872 447.353ZM162.696 -32.3872C131.057 15.8636 114.053 67.6716 109.308 130.56C99.4179 257.517 161.897 403.449 300.302 437.071C369.504 453.678 448.587 444.975 522.535 412.551C574.334 390 617.832 352.04 659.75 315.65C715.905 267.009 768.894 220.727 839.675 208.077C893.842 198.585 944.462 209.266 993.495 219.938C1034.62 229.04 1077.32 238.133 1122.41 235.365C1227.99 229.04 1301.53 154.291 1319.34 36.037C1334.36 -65.2107 1322.89 -166.858 1285.72 -257.824C1248.16 -349.18 1185.68 -428.276 1104.62 -486.418C1086.42 -499.468 1067.04 -512.128 1048.46 -524.388C1005.36 -552.864 960.677 -582.131 923.503 -618.911C902.943 -639.474 885.94 -663.994 869.725 -687.335C850.744 -715.013 830.973 -743.49 805.268 -766.032C771.262 -796.097 732.509 -805.979 693.757 -794.908C642.747 -780.27 594.904 -727.673 577.101 -667.162C564.843 -625.236 555.353 -580.942 546.261 -538.227C532.425 -473.369 518.578 -406.524 493.273 -343.644C469.147 -282.734 432.373 -206.805 365.148 -157.756C337.475 -137.592 305.836 -123.743 274.996 -110.694C252.059 -100.812 227.942 -90.1303 206.193 -77.4708C185.624 -66.0002 173.765 -49.3934 162.696 -32.3872ZM386.897 433.904C362.781 433.904 338.654 431.136 315.726 425.601C253.637 410.963 202.627 371.814 169.02 312.483C139.359 260.285 124.333 195.418 127.101 129.771C129.868 67.6716 143.714 16.653 170.598 -31.1983C180.878 -49.7929 191.957 -67.1891 213.307 -80.2386C235.055 -93.6876 259.181 -103.969 282.509 -114.251C312.56 -127.31 343.4 -140.749 369.894 -160.523C433.561 -207.195 468.358 -279.576 494.062 -344.034C517.789 -403.366 531.626 -467.034 545.073 -528.344C554.173 -571.05 564.054 -615.354 576.711 -657.27C594.904 -716.991 641.558 -766.821 692.569 -781.059C731.72 -792.14 770.073 -781.858 804.479 -751.403C829.785 -728.861 849.165 -700.775 867.747 -673.487C883.562 -650.545 899.776 -626.815 919.157 -607.041C954.343 -571.449 997.051 -543.372 1038.57 -516.084C1056.76 -504.214 1075.35 -491.954 1093.15 -478.905C1171.44 -422.35 1231.54 -345.623 1267.53 -257.025C1303.12 -168.836 1314.19 -70.3563 1299.56 27.7242C1282.16 143.21 1210.98 216.381 1108.96 224.294C1065.86 227.452 1025.13 219.548 985.583 211.635C938.928 202.142 891.075 192.65 839.675 202.542C773.639 215.192 723.418 259.486 670.43 306.158C628.91 342.548 585.803 380.517 534.003 402.659C485.76 423.223 435.14 433.904 386.897 433.904ZM722.619 -783.038C712.739 -783.038 702.849 -781.459 692.968 -778.691C642.348 -764.453 596.482 -715.412 578.29 -656.091C565.633 -614.165 555.752 -569.871 546.661 -527.155C533.214 -465.855 519.767 -402.177 495.641 -342.456C469.946 -277.598 434.75 -205.217 371.083 -158.155C344.199 -138.381 313.349 -124.932 283.298 -111.483C260.361 -101.201 236.244 -90.9197 214.495 -77.8702C193.536 -65.2107 182.856 -47.8146 172.576 -29.6194C145.692 17.8419 132.246 68.8605 129.478 130.56C126.711 195.817 141.337 260.285 170.998 312.093C204.605 371.025 254.826 409.783 316.516 424.412C384.529 440.629 461.244 432.325 533.214 401.081C584.614 378.929 627.722 341.359 668.842 304.969C722.229 257.907 772.45 213.613 839.275 200.953C890.685 191.071 938.928 200.563 985.982 210.056C1025.13 217.96 1065.86 225.873 1108.56 222.706C1209.4 215.192 1280.18 142.421 1297.19 28.1237C1311.81 -69.5669 1300.74 -167.647 1265.55 -255.446C1229.96 -343.644 1169.86 -420.372 1091.96 -476.527C1074.17 -489.186 1055.57 -501.446 1037.39 -513.307C995.872 -540.604 953.164 -568.682 917.569 -604.672C897.798 -624.446 881.584 -648.567 865.769 -671.508C847.187 -698.796 827.807 -726.883 802.901 -749.025C777.985 -771.967 750.702 -783.038 722.619 -783.038ZM401.533 420.854C377.806 420.854 354.479 418.087 331.94 412.941C272.229 398.703 223.197 361.533 190.369 304.579C161.897 255.539 146.872 193.439 147.271 129.371C147.661 67.2816 157.95 18.6313 180.089 -28.83C187.212 -43.4584 197.492 -65.6102 221.219 -80.2386C242.967 -93.6876 267.084 -104.369 290.022 -114.65C319.283 -127.7 349.733 -140.749 375.438 -160.133C435.539 -205.217 468.757 -274.431 496.04 -342.456C518.578 -399.01 532.025 -459.131 544.683 -517.264C554.173 -559.979 564.054 -604.273 577.101 -646.199C595.294 -703.542 641.168 -751.403 691.389 -765.242C730.142 -775.923 768.095 -765.242 801.712 -735.186C826.627 -713.035 845.209 -685.357 863.401 -658.459C878.427 -635.917 893.842 -612.976 912.824 -593.601C946.44 -559.189 987.561 -531.902 1027.11 -505.793C1044.5 -494.332 1062.7 -482.462 1079.7 -469.802C1154.44 -415.226 1212.17 -341.267 1246.57 -255.446C1280.57 -170.415 1291.25 -75.4924 1277.02 19.0308C1260.01 130.56 1192 202.142 1094.33 210.845C1053.21 214.402 1014.45 207.288 977.281 200.563C932.994 192.65 887.518 183.947 838.885 194.229C776.796 207.288 729.343 249.604 678.732 294.297C638.002 330.678 595.693 368.248 544.283 390.009C497.619 410.573 448.587 420.854 401.533 420.854ZM180.878 -28.0406L181.668 -27.6411C159.529 19.4208 149.249 67.6716 148.85 129.771C148.46 193.05 163.875 255.139 191.957 303.79C224.376 360.344 273.018 397.523 332.33 411.362C398.366 426.79 473.502 418.876 543.095 389.21C594.105 367.458 636.423 329.889 677.153 293.898C727.764 248.814 775.608 206.489 838.087 193.439C887.128 183.158 932.994 191.461 977.281 199.774C1014.45 206.499 1052.81 213.613 1093.94 210.056C1190.42 201.353 1258.04 130.161 1274.65 19.8203C1288.89 -74.313 1278.61 -169.226 1244.6 -253.867C1210.59 -339.288 1152.86 -412.858 1078.51 -467.434C1061.51 -479.694 1043.32 -491.555 1025.92 -503.425C986.381 -529.923 945.252 -556.812 911.644 -591.623C892.663 -610.997 877.238 -634.338 862.213 -656.48C844.021 -683.378 825.439 -711.056 800.922 -732.809C768.095 -762.474 730.531 -772.756 692.569 -762.075C643.146 -748.635 598.061 -701.564 579.869 -644.62C566.431 -602.694 556.941 -558.79 547.45 -516.084C534.403 -457.942 521.346 -397.431 498.418 -340.877C471.125 -272.852 437.917 -203.239 377.416 -157.756C351.312 -137.982 320.862 -124.932 291.6 -111.883C268.672 -101.601 244.546 -91.3192 223.197 -77.8702C199.86 -63.2324 189.58 -41.48 182.856 -27.2416L180.878 -28.0406ZM416.558 407.805C393.231 407.805 370.293 405.427 348.544 400.291C220.819 370.625 171.388 240.901 167.441 129.371C165.853 85.0773 167.441 31.6808 189.979 -25.6627C197.492 -45.0468 206.983 -65.6102 229.521 -79.8486C250.87 -93.6876 274.996 -103.969 297.934 -114.251C326.796 -126.911 356.457 -139.96 381.363 -159.344C441.474 -204.827 471.924 -273.641 498.418 -340.087C519.767 -393.474 532.815 -450.428 545.073 -505.403C554.563 -548.118 564.843 -592.412 578.69 -633.939C597.272 -689.304 642.348 -735.186 690.99 -747.846C729.343 -757.728 766.916 -747.447 800.133 -717.781C824.25 -696.028 842.442 -668.741 859.835 -642.242C874.071 -620.49 889.097 -597.948 906.899 -579.363C938.928 -546.14 978.07 -520.031 1015.64 -494.722C1032.25 -483.651 1049.65 -471.781 1066.25 -459.92C1137.82 -407.323 1193.19 -335.731 1225.62 -253.468C1258.04 -171.604 1267.93 -80.2386 1254.09 11.1174C1237.88 118.69 1172.63 188.693 1079.7 198.585C1040.55 202.932 1004.17 196.607 968.979 191.071C925.481 183.947 883.961 177.223 838.087 187.514C780.353 200.563 735.277 241.3 687.433 284.016C647.093 320.006 605.574 357.576 554.563 379.328C509.487 397.913 462.433 407.805 416.558 407.805ZM719.063 -750.214C709.971 -750.214 700.481 -749.025 691.389 -746.657C643.146 -733.998 598.85 -688.914 580.668 -633.939C566.821 -592.412 556.941 -548.508 547.051 -505.793C534.403 -450.827 521.745 -393.874 500.386 -340.087C473.892 -273.242 443.052 -204.428 382.951 -158.555C357.636 -139.171 327.585 -126.121 299.113 -113.072C276.185 -102.79 252.458 -92.4987 230.709 -78.6597C208.561 -64.4213 199.47 -44.6473 191.957 -25.2632C169.41 32.0803 168.23 84.6778 169.809 128.972C173.366 240.111 222.797 369.047 349.334 398.313C414.19 413.341 486.949 405.827 554.563 377.35C605.574 355.987 647.093 318.817 687.034 282.427C734.887 239.322 779.963 198.585 838.486 185.536C885.15 174.854 928.248 181.969 970.167 189.093C1005.36 195.028 1041.74 200.953 1080.49 196.607C1172.23 186.715 1237.08 117.511 1253.29 10.718C1267.14 -80.2386 1257.25 -171.205 1224.82 -252.678C1192.4 -334.942 1137.43 -406.134 1065.86 -458.341C1049.65 -470.202 1032.25 -482.072 1015.24 -493.143C977.281 -518.453 938.138 -544.552 906.1 -578.174C887.918 -596.759 873.282 -619.7 858.656 -641.453C841.253 -667.951 823.061 -695.239 798.944 -716.601C774.428 -738.744 747.145 -750.214 719.063 -750.214ZM431.583 394.746C408.646 394.746 386.108 392.378 364.759 387.232C307.814 374.183 257.993 338.981 225.165 287.963C194.325 240.511 180.878 182.368 187.602 128.582C179.699 100.895 173.765 58.5788 199.86 -23.6844C205.794 -43.0684 214.495 -65.2107 237.823 -80.6381C259.181 -94.477 282.899 -105.158 305.836 -115.44C333.918 -128.099 363.18 -140.749 387.696 -160.133C444.241 -204.028 473.502 -270.084 501.185 -339.688C521.346 -390.316 534.003 -444.103 545.862 -495.911C555.752 -538.626 566.032 -582.521 580.268 -623.657C598.85 -676.654 643.146 -720.549 690.591 -732.419C728.553 -741.911 765.727 -731.629 798.155 -701.964C821.882 -680.611 839.275 -653.313 856.279 -627.214C870.125 -606.251 884.351 -584.109 901.355 -566.304C931.805 -534.27 968.979 -508.96 1004.96 -484.84C1021.18 -474.158 1037.78 -462.688 1053.6 -451.217C1122.01 -400.199 1174.61 -331.384 1205.45 -252.279C1236.29 -173.582 1245.78 -85.7836 1232.33 2.02466C1216.52 105.641 1154.44 174.065 1065.86 185.136C1028.69 189.882 994.683 184.737 961.066 180C919.946 174.065 881.194 168.529 837.297 179.601C783.52 193.05 741.211 231.409 696.125 272.545C656.584 308.536 615.854 345.706 564.453 367.068C521.745 385.263 475.87 394.746 431.583 394.746ZM717.484 -733.608C708.783 -733.608 699.691 -732.419 690.99 -730.041C643.936 -718.18 600.438 -675.066 582.246 -622.468C568.01 -581.341 557.73 -537.437 547.84 -494.722C535.582 -442.914 523.324 -389.127 503.163 -338.109C475.48 -268.496 446.219 -202.059 388.875 -157.756C363.969 -138.381 334.708 -125.332 306.626 -113.072C283.698 -102.79 259.971 -92.4987 239.011 -78.6597C216.074 -63.6318 207.772 -41.8795 201.838 -22.895C176.133 58.9688 182.067 100.895 189.979 128.182V128.972C183.256 181.969 196.703 239.712 227.143 287.173C259.571 337.802 309.003 372.604 365.548 385.653C428.816 399.892 499.597 393.167 564.843 365.879C615.464 344.916 656.194 307.737 695.735 271.755C740.811 230.619 783.13 191.861 837.697 178.412C881.584 167.73 922.714 173.276 962.255 178.811C995.473 183.557 1029.48 188.303 1066.25 183.947C1153.65 172.876 1215.33 105.251 1230.75 2.81409C1243.8 -84.5947 1234.71 -171.994 1203.87 -250.7C1173.02 -329.796 1120.43 -398.22 1052.42 -448.849C1036.59 -460.319 1019.99 -471.781 1003.77 -482.462C967.4 -506.592 930.226 -531.902 899.776 -564.335C882.773 -582.521 868.147 -604.672 854.7 -625.635C837.697 -651.734 820.294 -678.632 796.966 -699.985C772.45 -722.137 745.557 -733.608 717.484 -733.608ZM446.219 381.307C423.681 381.307 401.932 378.929 380.573 374.183C325.607 361.922 277.364 328.31 245.335 279.659C215.285 234.576 201.448 179.201 207.372 128.182C192.746 89.424 193.136 44.7399 208.961 -20.9166C214.096 -42.6689 222.398 -64.8207 245.735 -80.6381C266.694 -94.8765 290.421 -105.158 313.349 -115.44C341.032 -127.7 369.504 -140.749 393.621 -159.734C451.354 -205.217 479.037 -275.62 503.553 -337.709C522.535 -385.57 534.793 -435.79 546.261 -484.84C556.541 -527.155 566.821 -571.05 581.457 -612.186C600.039 -663.205 643.536 -704.731 689.801 -716.202C716.295 -722.527 755.837 -722.527 796.177 -685.357C819.105 -663.994 836.109 -637.496 852.722 -611.787C866.559 -590.434 879.216 -570.261 895.43 -552.465C923.902 -521.62 959.488 -497.49 993.894 -474.158C1009.31 -463.477 1025.52 -452.796 1040.55 -441.725C1173.02 -342.066 1236.69 -179.118 1210.58 -5.88873C1203.07 42.3621 1185.28 84.2878 1158.39 114.743C1131.11 146.378 1094.33 166.551 1052.02 172.477C1017.22 177.622 984.793 173.666 953.554 170.108C914.802 165.762 878.427 161.405 837.297 172.477C787.476 185.926 747.934 222.706 705.616 261.464C666.864 297.455 626.533 334.635 575.523 355.598C534.003 372.604 489.716 381.307 446.219 381.307ZM210.14 -20.9166L210.939 -20.5172C195.114 44.7399 194.725 89.424 209.35 127.793V128.582C203.416 179.201 217.263 234.176 246.914 279.269C278.952 327.52 326.396 360.734 380.973 372.994C442.662 386.842 511.465 380.118 574.733 354.409C625.344 333.845 665.285 296.666 704.037 260.675C746.346 221.526 786.287 184.737 836.508 171.297C878.027 160.217 916.39 164.573 953.554 168.919C984.793 172.477 1016.82 176.433 1051.23 171.297C1092.75 165.362 1129.13 145.588 1156.42 114.344C1182.91 83.8884 1200.7 42.3621 1207.82 -5.48926C1233.92 -177.929 1170.65 -340.087 1038.57 -439.357C1023.55 -450.428 1007.33 -461.499 991.916 -471.781C957.51 -495.121 921.924 -519.242 893.053 -550.487C876.839 -568.282 863.002 -589.245 849.955 -609.809C833.741 -635.518 816.737 -662.016 793.8 -682.979C762.56 -711.855 726.575 -722.527 689.411 -713.434C643.536 -702.363 600.828 -661.227 582.246 -610.997C567.611 -570.261 556.941 -526.366 547.051 -484.041C535.582 -435 523.324 -384.381 504.342 -336.52C479.826 -274.031 451.754 -203.638 393.621 -157.756C369.504 -138.771 340.632 -125.722 312.959 -113.462C290.022 -103.18 266.694 -92.8981 245.735 -78.6597C222.008 -62.8424 214.885 -40.3007 210.14 -20.1272V-20.9166ZM461.244 368.248C439.496 368.248 417.747 365.879 396.787 361.533C343.799 350.062 297.135 318.028 265.505 271.746C236.244 229.04 222.398 176.433 227.143 127.793C209.75 91.4023 206.983 47.5076 218.451 -18.5483C222.398 -41.0901 229.121 -64.4213 253.637 -81.0375C274.207 -95.2664 297.934 -105.948 320.472 -115.839C347.755 -128.099 375.438 -140.749 399.165 -159.734C452.942 -202.849 478.248 -267.706 503.163 -330.195L505.531 -336.13C523.324 -380.824 534.793 -428.276 545.862 -474.158C556.151 -516.474 566.821 -560.378 582.246 -600.716C601.228 -650.155 642.747 -688.914 688.613 -699.595C714.717 -705.521 754.258 -705.131 793.41 -668.351C815.948 -647.388 832.162 -621.279 847.977 -595.97C861.024 -575.406 873.282 -555.632 888.707 -538.626C915.591 -508.57 949.598 -485.629 982.026 -463.477C997.051 -453.196 1012.08 -442.914 1026.71 -431.843C1152.46 -335.731 1212.56 -179.508 1187.26 -13.8022C1180.14 32.8698 1162.74 73.2072 1137.82 103.272C1111.33 134.517 1077.72 153.502 1036.99 160.616C1004.17 166.152 974.123 163.384 944.852 161.016C908.877 157.848 874.471 154.681 835.719 166.152C789.844 179.601 752.68 214.402 713.528 251.183C675.175 287.173 636.024 324.353 585.013 344.526C545.862 359.944 503.163 368.248 461.244 368.248ZM713.927 -700.775C704.827 -700.775 696.924 -699.595 689.411 -698.007C644.326 -687.725 602.806 -649.366 584.224 -600.326C568.799 -559.979 558.12 -516.084 547.84 -473.759C536.771 -427.886 524.912 -380.425 507.11 -335.731L504.742 -329.805C479.826 -266.917 454.122 -202.059 399.954 -158.555C376.227 -139.57 348.145 -126.911 320.862 -114.65C298.324 -104.369 274.996 -94.087 254.436 -79.8486C230.709 -63.6318 223.986 -41.0901 220.03 -18.9382C208.561 46.7087 211.329 90.2134 228.731 126.204V127.003C223.986 175.254 237.823 227.452 266.694 269.777C297.934 315.65 343.799 346.895 396.787 358.765C456.889 371.814 523.723 365.879 585.013 341.359C635.624 321.186 674.776 284.016 712.739 248.415C752.28 211.235 789.454 176.433 835.719 162.594C874.87 151.124 909.267 154.291 945.651 157.449C974.513 160.217 1004.56 162.594 1037.39 157.449C1116.87 144.009 1171.04 81.1206 1186.07 -14.9816C1210.98 -179.907 1151.27 -335.731 1025.92 -431.044C1011.69 -442.124 996.262 -452.406 981.237 -462.288C948.418 -484.44 914.412 -507.771 887.518 -537.837C872.093 -554.843 859.046 -575.406 846.788 -595.58C830.973 -620.889 814.759 -646.598 792.221 -667.552C764.538 -693.261 736.855 -700.775 713.927 -700.775ZM476.669 355.198C455.31 355.198 433.961 352.83 413.391 348.474C362.381 337.402 317.305 307.347 286.465 263.443C257.993 223.105 243.757 173.276 247.713 127.003C227.543 92.9811 221.609 48.6871 228.731 -16.1705C231.099 -38.3223 237.033 -63.6318 262.339 -81.0375C282.899 -95.2664 305.836 -105.948 328.374 -116.229C354.868 -128.489 382.551 -140.749 405.489 -159.734C455.71 -200.87 479.826 -261.771 502.764 -321.103C504.742 -325.849 506.32 -330.195 508.298 -334.942C524.912 -376.867 535.981 -421.161 546.661 -464.267C557.331 -506.192 568.01 -550.097 584.224 -590.035C603.206 -637.496 643.936 -674.276 688.613 -684.168C714.717 -689.703 753.469 -688.914 792.221 -652.524C813.97 -631.96 829.785 -606.251 845.209 -581.341C857.467 -561.168 869.326 -542.183 883.961 -525.966C909.267 -497.49 940.906 -475.737 971.746 -454.384C985.982 -444.493 1001.01 -434.211 1014.84 -423.53C1133.88 -331.774 1190.42 -182.276 1166.3 -23.2944C1152.06 69.65 1099.87 131.749 1023.94 146.378C993.095 152.313 965.022 150.724 938.138 149.145C904.522 147.167 872.892 145.588 836.508 157.059C794.589 170.508 760.192 203.331 723.808 238.533C686.245 274.523 647.492 311.693 596.872 331.467C558.12 347.294 517 355.198 476.669 355.198ZM711.949 -684.168C703.248 -684.168 695.735 -682.979 688.613 -681.79C644.725 -672.298 604.394 -635.518 585.803 -588.855C569.988 -548.908 558.919 -505.403 548.629 -463.477C537.959 -420.372 526.88 -376.078 510.276 -333.753C508.298 -329.007 506.72 -324.66 504.742 -319.914C481.414 -260.592 457.288 -199.282 406.677 -157.756C383.74 -138.771 356.057 -126.121 329.173 -113.861C306.626 -103.579 283.698 -93.2975 263.527 -79.0591C239.011 -61.6535 233.077 -37.1334 230.709 -15.381C223.587 49.486 229.521 93.3806 249.691 127.003V127.793C242.178 216.78 301.49 323.164 413.791 347.294C472.713 359.944 537.56 354.019 596.083 331.078C646.703 311.303 685.056 274.124 722.229 238.533C758.604 203.331 793.41 170.508 835.719 156.659C872.493 144.799 904.522 146.777 938.138 148.755C965.022 150.334 992.705 151.913 1023.55 145.978C1098.68 131.35 1149.69 70.4394 1164.32 -22.1055C1188.44 -180.307 1131.9 -329.007 1013.66 -420.372C999.819 -431.044 984.793 -441.335 970.557 -451.217C939.717 -472.58 907.688 -494.332 882.383 -523.199C867.747 -539.805 855.889 -558.79 843.631 -578.963C828.206 -603.883 812.781 -629.193 791.032 -649.756C762.96 -676.654 734.887 -684.168 711.949 -684.168ZM491.694 341.749C470.735 341.749 449.776 339.78 429.605 335.424C321.261 312.483 262.339 211.635 267.873 126.604C244.546 94.5696 235.455 51.4548 238.222 -13.8022C239.011 -35.5545 243.757 -62.4429 270.251 -81.4275C290.421 -95.6659 313.349 -106.347 335.497 -116.629C361.592 -128.489 388.875 -141.149 411.023 -159.734C458.477 -199.282 479.826 -254.657 502.364 -312.79C505.132 -319.514 507.509 -326.638 510.276 -333.363C525.701 -372.511 536.371 -414.038 546.661 -453.985C557.331 -495.911 568.409 -539.016 585.013 -578.573C603.995 -623.657 644.326 -658.858 687.433 -667.951C713.138 -673.487 751.89 -671.908 789.844 -635.518C811.203 -615.354 826.228 -589.645 841.253 -565.514C852.722 -546.14 863.791 -527.945 877.638 -511.728C901.355 -484.44 931.415 -463.477 960.277 -443.313C974.123 -433.821 987.96 -423.929 1001.41 -413.648C1113.71 -325.849 1167.09 -182.675 1143.76 -31.1983C1129.92 57.7894 1080.89 117.901 1009.71 133.718C980.837 140.053 955.142 139.653 930.226 139.263C898.987 138.464 869.725 138.074 835.719 149.935C797.756 163.384 766.117 194.229 732.509 227.062C695.735 263.053 657.772 300.223 607.162 319.997C570.378 334.635 530.837 341.749 491.694 341.749ZM709.971 -667.951C702.059 -667.951 694.547 -667.162 687.823 -665.583C645.115 -656.88 605.184 -622.078 586.592 -577.385C569.988 -538.227 558.919 -495.121 548.239 -453.196C537.959 -413.248 527.28 -371.722 511.855 -332.174C509.088 -325.449 506.72 -318.335 503.953 -311.61C482.204 -255.446 459.666 -197.313 411.813 -157.756C389.275 -138.771 361.991 -126.511 335.887 -114.251C313.748 -103.969 290.811 -93.6876 271.04 -79.4492C245.335 -60.8641 240.989 -34.3656 239.801 -13.4027C237.033 51.4548 245.735 94.5696 269.062 126.204L269.462 126.604V127.003C263.927 210.845 322.45 311.303 429.605 333.845C486.949 346.105 549.818 340.57 606.363 318.817C656.584 299.433 694.547 262.263 731.321 226.662C764.938 193.839 796.966 162.594 835.319 148.755C869.725 136.495 899.386 137.285 930.626 137.675C955.532 138.074 980.837 138.864 1009.71 132.539C1080.09 116.712 1128.73 57.3899 1142.18 -30.8083C1165.12 -181.886 1112.13 -323.87 1000.62 -411.27C987.561 -421.551 973.324 -431.443 959.488 -440.935C930.226 -461.109 900.176 -482.072 876.449 -509.75C862.603 -525.966 851.533 -544.162 839.675 -563.536C825.039 -588.056 810.014 -612.976 788.664 -633.149C760.982 -660.437 732.909 -667.951 709.971 -667.951ZM506.72 328.7C486.16 328.7 465.59 326.721 445.82 322.774C342.61 301.412 284.487 206.489 287.644 126.604C261.15 96.9379 248.502 53.0432 247.713 -11.0344C247.313 -33.1767 250.48 -61.254 278.153 -81.4275C297.934 -96.0654 320.472 -106.347 342.61 -116.629C368.315 -128.489 394.809 -140.749 416.957 -159.344C461.634 -197.313 481.804 -249.911 502.764 -305.276C505.931 -313.979 509.487 -322.682 513.044 -331.384C527.28 -368.165 537.56 -406.524 547.45 -443.703C558.919 -487.208 569.589 -527.945 586.592 -566.703C605.184 -610.208 644.725 -643.431 687.034 -651.734C712.739 -656.88 750.702 -654.902 787.866 -618.911C808.825 -598.737 823.461 -573.827 837.297 -549.697C848.376 -531.112 858.656 -513.307 871.703 -497.889C893.842 -471.781 921.924 -452.007 949.208 -432.632C962.255 -423.53 975.702 -414.038 988.35 -404.155C1093.94 -320.313 1143.76 -183.864 1121.62 -39.5017C1108.17 45.5293 1062.3 104.062 995.473 121.068C968.579 127.793 945.252 128.582 922.314 128.972C893.842 129.771 866.559 130.161 834.929 142.82C800.922 156.269 772.051 185.136 741.211 215.981C705.226 251.972 668.052 289.551 617.442 308.536C582.646 321.975 544.283 328.7 506.72 328.7ZM707.993 -651.734C700.481 -651.734 693.358 -650.945 687.433 -649.756C645.914 -641.453 607.162 -609.019 588.18 -566.703C571.177 -527.945 560.497 -487.208 549.029 -444.103C539.139 -406.923 528.859 -368.165 514.622 -331.384C511.066 -322.682 507.909 -313.589 504.342 -305.276C482.993 -249.511 463.222 -196.914 418.137 -158.555C395.998 -139.57 369.504 -127.31 343.4 -115.44C321.651 -105.158 298.723 -94.8765 279.342 -80.6381C252.458 -61.254 249.291 -33.5762 249.691 -11.8238C250.48 51.8543 263.128 95.359 289.232 124.625L289.622 125.025V125.415C286.065 204.52 343.799 299.043 446.219 319.997C502.364 331.467 562.865 326.721 617.042 306.158C667.663 287.173 704.437 249.994 740.422 214.012C771.262 183.158 800.133 153.891 834.53 140.443C866.559 127.793 893.842 127.393 922.714 126.604C945.252 126.204 968.579 125.415 995.073 118.69C1061.12 101.684 1106.58 43.9409 1119.64 -40.3007C1141.39 -183.864 1091.96 -319.514 987.171 -403.366C974.513 -413.248 961.066 -422.74 948.418 -431.843C921.135 -451.217 892.663 -470.991 870.515 -497.49C857.467 -512.917 847.187 -530.713 836.109 -549.697C821.882 -573.827 807.246 -598.347 786.686 -618.511C759.004 -644.22 730.931 -651.734 707.993 -651.734ZM521.745 315.65C501.575 315.65 481.414 313.672 461.634 309.715C363.18 289.941 306.236 200.953 307.424 126.204C277.764 98.9162 261.549 55.0216 257.203 -8.25708C255.615 -29.22 257.203 -59.6752 286.065 -81.4275C305.446 -96.0654 327.984 -106.347 349.733 -116.629C375.039 -128.489 401.133 -140.749 422.492 -159.344C464.801 -196.124 483.383 -245.954 503.163 -298.951C507.11 -309.233 511.066 -319.914 515.022 -330.195C528.469 -364.208 537.959 -399.799 547.45 -434.61C558.919 -477.716 569.988 -518.053 587.781 -556.022C606.762 -596.759 645.514 -628.004 686.245 -635.518C711.55 -640.264 749.513 -637.895 785.897 -602.295C806.058 -582.521 820.294 -558.001 833.741 -534.27C844.021 -516.474 853.911 -499.468 865.769 -484.44C885.94 -459.521 912.824 -440.536 938.528 -422.35C950.786 -413.648 963.444 -404.545 975.302 -395.062C1074.17 -314.768 1120.82 -185.053 1099.47 -48.2045C1086.81 32.8698 1044.11 89.8234 981.636 108.019C957.12 115.133 935.761 116.712 915.201 118.3C889.097 120.279 864.191 122.257 834.929 134.907C804.879 147.956 778.384 175.254 750.702 203.721C715.506 240.111 679.122 277.681 628.112 296.276C594.904 309.325 558.12 315.65 521.745 315.65ZM706.015 -635.518C698.902 -635.518 692.569 -634.728 686.644 -633.939C646.304 -626.425 608.341 -595.97 589.759 -555.632C572.356 -517.663 561.287 -477.326 549.818 -434.211C540.327 -399.809 530.837 -363.818 517.39 -329.805C513.443 -319.514 509.487 -308.843 505.531 -298.561C485.76 -245.564 467.178 -195.335 424.47 -158.155C402.721 -139.171 376.617 -126.911 351.312 -115.05C329.563 -104.759 307.424 -94.477 288.044 -80.2386C259.971 -59.2852 258.383 -29.6194 259.971 -9.05603C264.317 53.8326 280.531 97.3373 310.192 124.625L310.582 125.025V125.415C309.003 199.774 365.548 287.963 463.222 307.737C517.789 318.817 576.711 314.071 628.511 295.087C679.122 276.492 715.107 238.922 750.302 202.932C777.985 174.065 804.479 146.777 834.929 133.718C864.581 120.669 889.496 118.69 915.99 116.712C936.55 115.133 957.51 113.554 982.026 106.43C1043.72 88.2446 1086.02 32.0803 1098.68 -48.2045C1119.64 -184.654 1073.77 -313.589 975.302 -393.474C963.444 -402.966 950.786 -412.069 938.528 -420.762C912.824 -438.957 885.94 -457.942 865.379 -483.251C853.112 -498.279 843.231 -515.285 832.951 -533.48C819.505 -557.211 805.268 -581.341 785.498 -601.115C757.026 -628.004 728.953 -635.518 706.015 -635.518ZM537.959 302.601C518.189 302.601 498.018 300.622 478.248 296.666C422.882 285.984 387.696 255.139 368.315 231.019C343.01 200.164 328.374 161.405 327.984 125.415C295.556 100.505 274.996 56.201 267.084 -6.28821C262.738 -40.3007 271.829 -64.8207 294.367 -82.2169C313.349 -96.8548 335.497 -107.137 356.846 -117.418C381.762 -129.279 407.467 -141.149 428.426 -159.734C468.757 -195.335 485.76 -242.787 503.953 -293.415C508.298 -305.276 512.654 -317.146 517.39 -329.007C529.657 -360.251 538.749 -393.474 547.84 -425.118C559.708 -467.833 570.777 -507.771 588.97 -544.951C607.951 -584.499 645.115 -612.976 685.455 -619.7C710.761 -624.047 748.324 -621.279 783.919 -585.688C803.69 -566.304 817.137 -542.183 830.184 -518.453C839.675 -501.047 848.766 -484.84 860.235 -470.601C878.817 -446.871 903.732 -429.075 927.849 -411.669C939.318 -403.366 951.576 -394.663 962.655 -385.57C1054.78 -309.233 1097.89 -186.232 1077.72 -56.1179C1065.86 20.6097 1025.52 75.975 967.79 95.7585C945.252 103.272 926.27 106.04 908.078 108.409C884.351 111.576 861.813 114.743 834.53 128.182C808.036 141.232 784.708 166.152 759.793 192.65C726.975 227.452 690.201 267.009 638.791 285.594C606.762 296.666 572.356 302.601 537.959 302.601ZM269.062 -6.28821C272.619 23.3775 279.342 49.0865 288.443 70.0494C298.723 93.3806 312.56 111.576 329.563 124.226L329.962 124.625V125.025C329.962 161.016 344.588 198.975 369.894 229.83C389.275 253.56 424.071 284.016 478.638 294.687C532.815 305.368 588.18 301.022 638.401 283.217C689.012 265.031 726.185 225.474 758.604 191.071C783.52 164.573 807.246 139.263 833.741 126.204C861.423 112.765 883.961 109.597 907.688 106.04C925.88 103.662 944.852 100.895 967 93.3806C1023.94 74.0061 1063.49 19.4208 1075.35 -56.9073C1095.52 -185.842 1052.81 -308.443 961.066 -384.381C949.997 -393.474 938.138 -402.177 926.27 -410.48C902.154 -427.886 877.238 -445.682 858.257 -469.802C846.788 -484.041 837.697 -500.657 828.206 -518.053C815.159 -541.394 801.712 -565.514 782.331 -584.499C747.145 -619.7 710.361 -622.069 685.455 -618.121C645.514 -611.397 609.13 -583.31 590.548 -544.162C572.356 -506.982 561.287 -467.034 549.428 -424.719C540.727 -392.685 531.236 -359.861 518.978 -328.217C514.233 -316.357 509.877 -304.096 505.931 -292.626C487.738 -241.997 470.336 -193.746 429.605 -158.155C408.646 -139.57 382.551 -127.31 357.636 -115.44C336.286 -105.558 314.138 -94.8765 295.157 -80.6381C273.408 -63.6318 264.716 -39.5017 269.062 -6.28821ZM552.985 289.551C533.604 289.551 513.833 287.573 494.062 284.016C402.322 266.61 350.123 189.483 347.356 125.415C310.981 102.473 287.254 59.3682 276.185 -3.12097C270.251 -37.9228 278.553 -63.2324 301.88 -81.4275C320.472 -96.0654 342.61 -106.347 363.57 -116.229C388.086 -127.7 413.391 -139.96 433.961 -158.555C471.924 -192.957 488.128 -238.44 504.742 -287.09C509.088 -300.14 513.833 -313.589 518.978 -326.638C530.447 -355.505 538.749 -385.57 547.45 -414.836C559.309 -456.753 570.777 -496.7 589.359 -533.09C608.341 -570.261 644.725 -597.159 683.477 -603.094C719.063 -608.629 753.469 -596.369 780.752 -568.282C799.734 -548.908 812.781 -525.177 825.039 -502.236C834.14 -485.629 842.442 -469.812 853.121 -456.363C870.125 -433.821 893.452 -416.815 915.591 -400.598C926.67 -392.685 937.739 -384.381 948.418 -375.678C1033.83 -303.307 1073.77 -186.632 1054.39 -64.0313C1042.93 8.74915 1005.75 62.5355 952.764 83.0989C932.594 91.0123 915.99 94.5696 899.776 98.1268C878.427 102.873 858.257 107.22 832.951 121.068C810.413 133.718 789.454 156.269 767.705 180.789C736.066 215.981 699.691 255.929 648.282 274.124C619.02 284.016 586.592 289.551 552.985 289.551ZM278.553 -3.9104C289.622 58.1793 313.349 101.294 349.334 123.836L349.733 124.226V124.625C352.101 188.303 403.511 265.031 494.852 282.037C547.84 291.919 600.828 288.362 648.681 271.746C699.691 253.95 735.676 214.012 767.306 179.201C789.454 154.681 810.014 131.749 832.951 119.09C858.656 104.851 878.817 100.505 900.565 95.7585C916.39 92.1917 932.994 88.6345 953.164 80.7211C1005.75 60.1577 1042.53 7.16077 1053.61 -64.8207C1072.58 -186.632 1033.44 -302.508 948.418 -374.49C938.138 -383.192 926.67 -391.496 915.99 -399.409C893.452 -416.016 870.515 -432.632 853.121 -455.573C842.442 -469.412 834.14 -485.23 825.039 -501.846C812.781 -524.778 799.734 -548.118 781.152 -567.493C754.258 -594.781 720.251 -607.041 685.455 -601.505C647.093 -595.58 611.508 -569.081 592.526 -532.291C573.944 -496.301 562.475 -456.363 550.607 -414.437C542.305 -385.171 533.604 -355.115 522.135 -325.849C517 -312.79 512.255 -299.35 507.909 -286.301C490.905 -237.651 475.081 -191.768 436.329 -156.966C415.769 -138.381 390.064 -126.121 365.548 -114.251C344.588 -104.369 322.84 -94.087 304.258 -79.4492C280.93 -62.8424 272.619 -37.5328 278.553 -3.9104ZM568.409 276.102C549.428 276.102 530.047 274.523 510.276 270.957C470.336 263.842 435.14 244.458 408.646 214.802C384.929 188.693 369.894 155.87 367.526 124.625C327.984 104.452 299.902 60.9471 286.065 -1.14264C278.153 -35.9445 286.465 -63.2324 310.192 -82.2169C328.374 -96.8548 350.123 -107.137 371.083 -117.019C395.209 -128.489 420.115 -140.749 439.885 -158.945C476.27 -192.167 490.905 -236.072 506.32 -282.734C511.066 -296.972 515.811 -311.61 521.745 -325.849C532.025 -352.347 539.937 -379.635 547.84 -406.134C560.098 -447.66 571.567 -486.818 590.948 -522.409C609.929 -557.611 645.514 -582.521 683.078 -588.056C718.273 -592.802 752.28 -580.542 779.174 -552.864C797.756 -533.88 810.014 -510.539 821.882 -487.997C830.184 -472.18 838.087 -457.152 847.577 -444.103C863.401 -422.74 884.351 -406.923 905.311 -391.496C915.591 -383.982 926.27 -376.078 935.761 -367.375C1014.45 -298.951 1050.83 -189 1032.65 -73.5141C1021.97 -4.69983 987.561 47.1082 938.928 69.26C921.525 77.1639 907.289 81.5201 893.842 85.8667C874.87 91.8018 856.678 97.7273 832.951 112.765C813.97 124.625 796.177 145.189 777.196 167.34C746.346 203.331 711.55 243.669 659.351 261.464C631.278 271.356 600.438 276.102 568.409 276.102ZM698.503 -586.877C693.757 -586.877 689.012 -586.477 683.867 -585.688C646.703 -580.542 611.907 -556.022 593.315 -521.22C574.334 -486.019 562.475 -446.871 550.217 -405.344C542.305 -378.846 534.403 -351.158 524.113 -324.66C518.578 -310.421 513.833 -295.784 509.088 -281.555C493.273 -234.883 478.638 -190.589 441.863 -156.966C421.703 -138.381 396.787 -126.121 372.271 -114.65C351.711 -104.759 329.962 -94.477 311.77 -79.8486C288.443 -61.254 280.531 -34.7556 288.044 -0.743164C301.88 60.9471 329.962 104.062 369.104 123.836L369.504 124.226V124.625C373.85 183.158 424.47 253.95 510.676 269.777C562.475 279.269 613.486 276.102 658.961 260.675C710.361 243.279 745.167 202.932 776.007 167.34C794.988 145.189 812.781 124.625 832.162 112.365C855.889 97.3373 874.071 91.8018 893.452 85.4672C906.899 81.1206 921.135 76.7739 938.528 68.8605C986.771 47.1082 1020.39 -4.30988 1031.06 -72.3347C1049.25 -187.022 1013.27 -296.183 934.972 -364.208C925.481 -372.511 914.802 -380.425 904.522 -387.939C883.961 -403.366 862.213 -419.583 846.398 -440.935C836.508 -454.384 828.596 -469.412 820.294 -485.23C808.435 -507.771 796.177 -531.112 777.985 -549.697C755.837 -574.617 727.764 -586.877 698.503 -586.877ZM584.224 263.053C565.633 263.053 546.261 261.464 526.88 257.907C488.927 251.183 455.31 233.786 429.605 206.888C406.677 183.158 391.643 153.102 388.086 124.226C344.988 106.04 313.349 63.7149 295.956 1.23523C286.465 -33.9661 294.367 -62.8424 318.494 -82.6164C336.686 -97.2448 357.636 -107.526 378.205 -117.418C401.932 -128.889 426.448 -140.749 445.82 -159.344C480.226 -191.768 494.062 -234.093 508.298 -278.777C513.044 -293.815 518.189 -309.632 524.113 -324.66C533.214 -348.391 540.727 -373.31 548.239 -397.031C560.897 -438.168 572.755 -476.926 592.526 -511.338C611.907 -544.951 645.514 -567.892 682.688 -572.239C717.484 -576.595 751.491 -563.536 777.586 -536.248C795.388 -517.264 807.246 -494.332 818.316 -472.18C825.828 -457.152 832.951 -442.914 842.043 -430.254C856.279 -410.09 875.659 -395.062 894.641 -380.824C904.132 -373.7 914.012 -366.186 922.714 -357.883C994.683 -293.016 1027.5 -189.799 1010.5 -81.827C1000.22 -17.3594 968.979 32.8698 925.082 56.6005C910.846 64.1144 899.386 69.26 889.097 74.0061C870.914 82.3095 855.09 89.034 832.552 105.641C817.137 116.712 802.102 135.306 786.287 154.681C756.636 191.071 722.619 232.598 670.031 250.003C643.536 258.697 614.674 263.053 584.224 263.053ZM695.735 -571.05C691.389 -571.05 687.433 -570.66 683.078 -570.261C646.703 -565.914 613.486 -543.372 594.504 -510.149C574.733 -475.737 562.865 -436.979 550.607 -396.242C543.494 -372.121 535.582 -347.601 526.491 -323.471C520.557 -308.443 515.421 -292.626 510.676 -277.598C496.04 -232.505 482.594 -190.189 447.798 -157.366C428.027 -138.771 403.511 -126.911 379.385 -115.05C358.824 -105.158 337.865 -94.8765 320.072 -80.6381C295.956 -61.254 288.443 -33.5762 297.934 1.23523C314.937 63.325 346.566 105.251 389.275 123.046L389.674 123.436V123.836C397.976 195.817 466.38 246.047 526.88 256.328C577.501 265.031 626.533 262.263 669.241 248.415C721.44 231.409 755.048 190.282 784.708 153.891C800.523 134.517 815.548 115.922 831.363 104.452C854.301 87.8451 870.125 80.7211 888.307 72.8172C898.587 68.0711 910.056 62.9255 924.292 55.4116C967.79 32.4703 998.639 -17.3594 1008.92 -81.4275C1025.92 -189 993.495 -291.437 921.924 -355.904C913.223 -363.818 903.333 -371.332 893.842 -378.446C874.861 -393.084 855.09 -408.112 840.854 -428.276C831.763 -440.935 824.649 -455.174 817.137 -470.601C806.058 -492.743 794.589 -515.685 776.796 -534.27C753.859 -558.4 725.786 -571.05 695.735 -571.05ZM600.438 249.994C581.847 249.994 562.865 248.415 543.095 245.257C465.99 232.598 416.957 174.854 408.256 123.836C361.991 108.409 325.607 66.0927 305.836 4.00299C297.934 -20.9166 295.157 -56.1179 326.796 -82.6164C344.588 -97.2448 365.148 -107.536 385.718 -117.418C409.045 -128.889 433.172 -140.749 452.143 -158.945C484.971 -190.589 497.619 -231.326 510.676 -274.031C515.421 -289.858 520.557 -306.465 526.88 -322.682C535.192 -344.034 541.915 -366.186 548.629 -387.539C561.287 -428.276 573.545 -466.645 593.715 -500.257C613.086 -531.902 645.914 -552.864 681.899 -556.821C716.695 -560.378 749.912 -547.329 775.608 -519.641C793.01 -501.047 804.08 -478.505 814.759 -456.363C821.882 -442.124 828.206 -428.675 836.508 -416.415C849.165 -397.83 866.958 -383.592 884.351 -370.143C893.053 -363.418 902.154 -356.304 910.456 -348.391C975.702 -287.48 1004.96 -190.979 989.149 -90.1303C979.658 -30.0094 951.186 19.0308 911.644 43.551C904.921 47.8976 898.987 51.4548 893.452 54.6221C870.515 68.8605 857.857 76.3745 832.552 97.7273C820.294 108.019 808.435 123.836 795.388 140.842C768.095 176.433 734.487 220.727 681.1 237.734C655.794 246.047 628.91 249.994 600.438 249.994ZM307.424 3.20404C327.195 64.9038 363.18 107.22 409.045 122.257H409.445V123.046C417.747 173.276 466.38 230.619 542.705 243.279C592.926 251.582 638.791 249.204 679.521 236.554C732.509 219.938 766.117 175.644 793.01 140.443C806.058 123.436 817.926 107.619 830.574 96.9379C855.889 75.585 868.537 67.6716 891.874 53.4332C897.408 50.2755 903.333 46.3187 910.056 42.3621C949.208 17.8419 976.891 -30.4089 986.381 -90.1303C1002.2 -190.589 973.324 -286.291 908.478 -346.812C900.176 -354.326 891.474 -361.44 882.383 -368.165C864.98 -382.003 847.187 -395.852 834.14 -414.836C825.828 -427.097 819.505 -440.536 812.391 -455.174C801.712 -476.926 791.032 -499.468 773.639 -518.053C748.324 -544.951 715.905 -558.001 681.499 -554.443C646.304 -550.886 613.876 -529.923 594.904 -499.078C574.733 -465.855 562.475 -427.486 549.818 -387.149C543.095 -365.787 535.981 -343.644 528.069 -322.282C521.745 -306.465 517 -289.858 511.855 -274.031C498.418 -230.527 485.76 -189.799 452.942 -157.756C433.561 -139.171 409.445 -127.31 386.108 -115.839C365.947 -105.948 345.378 -95.6659 327.585 -81.4275C297.135 -55.3285 299.902 -20.9166 307.424 3.20404ZM616.253 236.944C598.061 236.944 579.079 235.365 559.309 232.198C525.701 227.062 494.852 212.424 470.336 190.672C448.587 171.297 433.961 147.567 428.027 123.436C378.205 110.786 338.264 69.26 315.327 6.37128C302.28 -29.6194 309.003 -61.254 335.098 -82.6164C352.5 -97.2448 373.061 -107.137 392.831 -117.019C415.769 -128.489 439.496 -140.359 458.078 -158.555C489.317 -189.4 500.786 -228.558 513.044 -270.084C517.789 -286.691 522.934 -304.096 529.657 -321.103C536.771 -339.688 543.095 -359.072 549.428 -378.047C562.475 -418.394 574.733 -456.363 595.693 -488.787C615.064 -518.453 647.093 -537.837 681.899 -540.994C716.295 -543.762 749.113 -530.323 774.428 -503.025C791.432 -484.44 801.712 -462.288 811.592 -440.536C817.926 -427.097 823.85 -414.437 830.973 -402.576C842.043 -385.171 858.257 -372.121 873.681 -359.462C881.584 -353.137 889.896 -346.013 897.408 -338.898C956.72 -281.155 982.026 -193.356 967 -98.0437C957.909 -41.8795 932.594 5.18237 897.798 31.2909C871.703 50.6654 863.002 59.7677 844.81 78.3528C841.253 82.3095 836.907 86.2662 832.162 91.0123C823.061 100.105 814.36 112.765 804.08 127.393C778.384 164.173 746.346 210.056 691.779 226.662C668.452 233.387 643.536 236.944 616.253 236.944ZM690.591 -539.415C687.433 -539.415 684.666 -539.415 681.499 -539.016C647.492 -536.248 615.854 -516.874 596.872 -487.997C575.922 -455.573 563.664 -417.994 550.607 -377.657C544.683 -359.072 538.349 -339.288 530.837 -320.703C524.513 -304.096 519.368 -286.691 514.622 -270.084C502.364 -228.158 490.905 -188.61 459.266 -157.756C440.285 -139.171 416.558 -127.31 393.621 -115.839C373.85 -105.948 353.29 -96.0654 336.286 -81.4275C318.494 -66.3997 300.701 -39.5016 317.305 5.58185C340.242 68.0711 379.784 109.198 429.216 121.458H430.005V122.257C443.452 181.969 505.531 221.526 559.708 230.22C609.13 237.734 653.027 236.155 690.99 224.684C745.167 208.467 776.796 162.984 802.501 126.204C812.781 111.576 821.882 98.5262 830.973 89.424C835.719 84.6778 839.675 80.3311 843.631 76.7739C861.813 58.1793 870.515 49.0865 896.609 29.7025C931.415 4.00299 956.321 -42.6689 965.022 -98.4337C980.048 -192.957 955.142 -279.966 896.22 -337.319C888.707 -344.434 880.405 -351.158 872.493 -357.483C856.678 -370.143 840.464 -383.592 829.395 -400.988C821.882 -412.459 815.948 -425.508 809.614 -438.957C799.734 -460.319 789.454 -482.462 772.45 -501.047C749.912 -525.966 721.041 -539.415 690.591 -539.415ZM632.857 223.895C615.064 223.895 596.083 222.316 575.523 219.548C505.531 209.266 460.455 162.594 448.197 123.046C395.599 113.155 350.522 71.2288 324.818 8.74915C316.116 -12.2137 307.025 -52.5607 343.01 -83.0063C360.013 -97.6442 380.183 -107.536 399.555 -117.418C422.093 -128.889 445.43 -140.359 463.612 -158.945C493.273 -189 503.953 -226.969 515.022 -267.316C519.767 -284.712 524.912 -302.908 531.626 -320.313C537.959 -336.52 543.494 -353.137 548.629 -368.954C562.076 -408.901 574.733 -446.471 596.482 -478.115C615.854 -505.793 647.093 -523.598 680.71 -525.966C715.107 -527.945 747.535 -514.106 771.661 -486.818C787.875 -468.623 797.756 -446.471 807.246 -425.118C812.781 -412.459 818.316 -400.598 824.649 -389.517C834.14 -373.31 848.766 -361.041 862.603 -349.579C869.725 -343.245 877.638 -336.92 883.961 -330.195C936.55 -276.409 958.698 -195.335 944.462 -107.137C934.572 -45.0468 912.824 -0.743164 883.172 17.4424C867.348 38.0154 859.445 47.8976 848.376 61.7461C843.631 67.6716 838.087 74.0061 831.373 82.6995C825.039 90.2134 819.105 100.505 811.592 111.966C789.054 148.356 757.815 198.186 701.669 214.402C681.1 220.727 658.172 223.895 632.857 223.895ZM687.433 -523.598C685.056 -523.598 683.078 -523.598 680.71 -523.199C647.892 -521.22 617.042 -503.824 598.061 -476.527C576.312 -445.282 564.054 -407.712 550.607 -368.165C545.073 -351.948 539.538 -335.341 533.604 -319.124C526.88 -301.719 522.135 -283.923 517.39 -266.517C506.32 -226.18 495.641 -187.821 465.59 -157.366C447.008 -138.771 423.681 -126.911 401.133 -115.44C381.762 -105.558 361.592 -95.6659 344.988 -81.4275C310.192 -51.7617 318.884 -12.6132 327.585 7.9502C352.89 70.0494 397.577 111.176 450.175 121.068H450.964V121.458C462.823 160.217 507.11 206.888 576.711 216.78C625.744 223.895 666.864 222.316 702.059 212.424C757.815 196.207 788.664 147.167 811.203 110.786C818.316 99.3157 824.649 89.034 830.973 81.5201C837.697 73.2072 843.231 66.4922 847.977 60.5571C859.046 46.7087 866.958 36.8265 883.172 16.2631L883.562 15.8636C912.034 -1.54211 934.182 -46.6257 944.063 -107.526C958.299 -194.935 936.55 -275.62 884.351 -328.617C877.638 -335.341 870.125 -341.666 863.002 -347.991C849.165 -359.861 834.53 -372.121 824.649 -388.728C817.926 -399.799 812.781 -411.669 807.246 -424.329C797.756 -445.682 788.265 -467.434 772.051 -485.629C747.934 -510.149 718.673 -523.598 687.433 -523.598ZM649.86 210.845C632.467 210.845 613.086 209.266 591.737 206.489C526.88 197.796 482.993 158.248 468.358 122.647C411.813 115.133 363.18 74.7956 334.708 11.5169C318.094 -24.8733 324.028 -59.2852 351.312 -83.0063C367.925 -97.2448 387.696 -107.536 407.067 -117.418C429.216 -128.889 452.143 -140.359 469.946 -158.555C498.418 -187.821 507.909 -224.601 517.789 -263.75C522.535 -281.945 527.28 -300.53 534.003 -318.335C539.148 -331.774 543.884 -345.623 548.629 -358.672C562.475 -398.22 575.523 -435.79 598.061 -466.245C617.442 -492.354 647.492 -508.171 680.311 -509.75C714.317 -511.338 746.346 -496.7 770.073 -469.802C785.897 -451.617 794.988 -429.864 804.08 -408.502C808.825 -396.641 813.57 -385.57 819.505 -375.279C827.807 -360.651 840.464 -349.18 852.722 -338.499C859.445 -332.573 866.169 -326.638 872.093 -320.313C917.968 -270.873 936.55 -196.124 923.503 -115.05C914.012 -56.1179 895.031 -13.8022 870.515 5.18237C862.213 19.4208 857.467 29.3126 852.722 38.8048C847.187 49.876 842.043 60.1577 832.162 75.975C828.596 81.91 824.649 88.6345 820.294 96.9379C800.922 132.929 771.661 187.514 713.138 203.331C693.358 208.077 673.197 210.845 649.86 210.845ZM336.686 10.328C365.148 73.2072 413.391 113.554 469.546 120.669H469.946L470.336 121.068C484.572 156.269 527.679 195.418 592.127 204.121C641.958 210.845 678.732 209.656 711.949 200.953C769.683 185.136 798.545 131.35 817.926 95.359C822.272 87.0556 826.228 80.3311 829.785 74.3961C839.675 58.5788 844.81 48.2971 850.345 37.2164C855.09 27.7242 859.835 17.8419 868.537 3.60352L868.936 3.20404C893.053 -14.9816 911.644 -57.3068 921.135 -115.839C934.182 -196.124 915.591 -270.084 870.515 -319.514C864.581 -325.849 857.857 -331.774 851.533 -337.709C839.275 -348.781 826.228 -359.861 817.926 -375.279C811.992 -385.57 807.646 -397.031 802.501 -408.901C793.8 -429.864 784.708 -451.617 768.894 -469.412C745.557 -496.301 713.927 -510.149 680.71 -508.96C648.681 -507.771 619.02 -491.954 600.039 -466.245C577.501 -435.79 564.843 -398.62 551.007 -359.072C546.261 -345.623 541.516 -331.774 536.371 -318.335C529.657 -300.53 524.912 -281.945 520.167 -264.149C509.877 -224.991 500.386 -187.821 471.924 -158.155C453.732 -139.57 430.794 -127.7 408.646 -116.629C389.674 -106.737 369.894 -96.8548 353.29 -82.6164C337.076 -68.378 314.538 -38.3223 336.686 10.328ZM666.864 197.796C647.093 197.796 627.322 195.817 608.341 193.439C544.683 185.536 504.342 150.334 488.927 122.257C428.816 117.511 376.227 77.9533 344.588 13.8853C326.396 -23.2944 331.94 -58.4862 359.614 -83.4058C375.828 -97.6442 395.209 -107.926 414.19 -117.418C435.939 -128.489 458.477 -140.359 475.87 -158.555C503.163 -187.022 511.465 -223.013 520.557 -260.592C524.912 -279.177 529.657 -298.561 536.371 -316.746C540.327 -327.428 544.283 -338.109 547.84 -348.391C561.287 -386.36 575.523 -425.508 598.85 -455.174C618.231 -479.694 647.492 -493.932 679.122 -494.332C712.339 -494.722 744.368 -479.694 767.306 -453.196C782.73 -435 791.432 -413.248 799.334 -392.685C803.69 -381.614 807.646 -371.722 812.391 -361.84C819.105 -348.391 830.184 -338.109 840.854 -328.217C846.788 -322.682 852.722 -317.146 857.857 -311.211C896.619 -265.728 912.034 -197.313 899.776 -123.743C893.452 -84.5947 880.405 -32.7867 855.09 -8.25708C848.376 7.16077 845.999 18.2414 843.231 28.9131C840.464 40.7832 837.697 51.8543 830.574 67.6716C828.995 70.8389 827.417 74.3961 825.828 78.7523C810.413 114.743 784.309 175.254 723.019 191.071C704.437 195.817 685.455 197.796 666.864 197.796ZM346.177 13.0958C377.416 76.7739 429.605 115.922 489.317 120.279H489.716L490.106 120.669C512.654 162.195 565.633 186.325 608.341 191.461C645.514 195.817 685.056 198.975 722.619 189.093C783.13 173.666 808.825 113.554 824.25 77.9533C825.828 74.0061 827.417 70.4394 828.995 66.8821C836.109 51.0649 838.885 39.9937 841.653 28.5231C844.42 17.8419 847.187 6.37128 853.911 -9.44598L854.301 -9.84546C879.216 -33.9661 892.263 -85.3842 898.587 -124.542C910.456 -197.703 895.43 -265.338 857.068 -310.421C851.933 -316.357 845.999 -321.892 840.464 -327.428C829.785 -337.319 818.715 -347.991 811.592 -361.84C806.847 -371.332 802.501 -381.614 798.545 -392.685C790.642 -413.248 781.941 -435 766.916 -452.796C743.579 -478.115 711.949 -493.143 679.521 -492.354C648.681 -491.954 619.81 -477.716 600.828 -453.985C577.501 -424.719 564.054 -387.539 549.818 -347.991C546.261 -337.709 542.305 -326.638 538.349 -315.957C531.236 -297.762 526.88 -278.777 522.535 -260.192C513.443 -222.223 504.742 -186.232 477.458 -156.966C460.056 -138.381 437.118 -126.511 415.369 -115.44C396.787 -105.948 377.416 -95.6659 361.202 -81.4275C333.519 -57.6968 328.374 -23.2944 346.177 13.0958ZM684.666 184.737C665.285 184.737 645.514 182.768 624.165 180.39C566.431 174.065 526.88 145.978 508.698 121.458C445.82 119.48 388.086 80.3311 354.079 16.2631C333.918 -21.3161 339.054 -57.6968 367.526 -83.4058C383.341 -97.6442 402.322 -107.536 420.914 -117.418C442.263 -128.489 464.411 -140.359 481.414 -158.555C507.509 -186.632 515.022 -221.434 522.934 -257.824C527.28 -276.809 531.236 -296.583 538.349 -315.168C541.117 -322.682 543.884 -330.195 546.661 -337.319C560.497 -375.279 575.123 -414.836 600.039 -443.703C619.42 -466.245 647.492 -478.905 677.543 -478.905C677.943 -478.905 678.333 -478.905 678.732 -478.905C711.55 -478.505 743.189 -463.087 765.328 -436.189C780.353 -417.994 788.265 -396.641 795.778 -375.678C799.334 -365.787 802.501 -356.694 806.847 -347.601C812.391 -335.731 821.483 -326.239 830.574 -317.146C835.719 -312 840.854 -306.864 845.209 -301.329C877.638 -259.403 889.496 -199.291 878.027 -131.657C868.936 -77.8702 856.678 -40.3007 841.253 -20.5172C836.907 -3.9104 836.109 8.34967 835.719 20.2103C835.319 32.0803 834.929 44.7399 830.184 61.3466C821.882 89.424 800.523 164.173 733.299 180.39C717.484 183.158 701.27 184.737 684.666 184.737ZM355.667 15.4641C389.674 79.1422 447.008 118.3 509.088 119.879H509.487L509.877 120.279C536.771 157.449 588.57 174.854 624.165 178.811C663.307 183.158 698.503 185.926 732.509 177.622C798.545 161.805 819.904 87.8451 827.807 60.1577C832.552 43.9409 832.951 32.0803 833.341 19.8203C833.741 7.9502 834.14 -4.69983 838.885 -21.3161V-21.7061C854.301 -41.0901 866.559 -78.2602 875.26 -132.056C886.329 -198.892 874.861 -258.613 842.832 -300.14C838.486 -305.675 833.341 -310.821 828.596 -315.957C819.505 -325.059 810.413 -334.542 804.479 -346.812C800.523 -355.505 796.966 -364.997 793.41 -374.889C785.897 -395.452 778.384 -416.815 763.35 -435C741.601 -461.109 710.361 -476.527 678.333 -476.926C648.282 -477.326 620.209 -464.666 601.228 -442.514C576.711 -414.038 562.076 -374.889 548.239 -336.92C545.472 -329.406 542.705 -321.892 539.937 -314.378C532.815 -295.784 528.469 -276.409 524.513 -257.424C516.211 -220.245 508.698 -185.443 482.594 -156.966C465.59 -138.381 443.052 -126.911 421.703 -115.44C403.111 -105.948 384.13 -96.0654 368.715 -81.827C341.032 -56.9073 336.286 -21.3161 355.667 15.4641ZM702.459 171.687C684.666 171.687 666.864 170.108 649.47 168.529L640.769 167.73C575.523 161.805 539.148 130.95 529.258 121.068C528.469 121.068 527.679 121.068 526.88 121.068C461.244 121.068 400.743 83.0989 363.969 18.6313C342.61 -18.9382 346.966 -57.3068 375.828 -83.8053C391.253 -98.0437 410.234 -107.926 428.426 -117.418C449.376 -128.489 471.125 -139.96 487.738 -158.555C512.654 -185.842 519.368 -219.855 526.491 -255.446C530.447 -274.83 534.403 -294.994 541.516 -313.979C543.095 -317.935 544.283 -321.892 545.862 -325.849C560.497 -364.607 575.523 -404.945 602.017 -433.022C621.788 -453.985 649.071 -465.066 679.122 -463.877C711.55 -462.688 742.789 -446.471 764.148 -419.973C781.941 -397.83 794.199 -370.143 801.712 -334.542C807.246 -325.849 813.181 -317.935 819.105 -310.421C823.85 -304.486 828.206 -298.561 832.552 -292.226C858.257 -254.657 866.559 -200.87 856.279 -140.359C847.187 -87.3625 838.087 -53.3502 827.807 -33.9661C825.439 -16.5699 827.017 -3.12097 828.995 9.92853C830.574 22.5881 832.552 36.037 830.184 53.0432C828.206 69.65 813.97 152.703 744.368 167.73C730.142 170.898 716.295 171.687 702.459 171.687ZM529.657 119.09C539.538 128.582 575.523 159.427 640.769 165.762L649.47 166.551C680.71 169.709 712.739 172.477 743.189 165.762C811.592 150.724 825.439 68.8605 827.417 52.6437C829.395 36.037 827.807 22.9875 826.228 10.328C824.649 -2.7215 822.671 -16.5699 825.039 -34.3656V-34.7556C835.319 -54.1396 844.42 -87.7525 853.511 -140.749C863.791 -200.471 855.489 -254.257 830.184 -291.037C825.828 -296.972 821.483 -302.908 816.737 -308.843C810.803 -316.357 804.479 -324.66 798.944 -333.363V-333.753C791.432 -368.954 779.174 -397.031 761.771 -418.784C740.811 -444.892 710.361 -460.709 678.333 -461.898C649.071 -463.087 622.187 -452.007 602.806 -431.443C576.711 -403.366 561.686 -363.418 547.051 -324.66C545.472 -320.703 544.283 -316.746 542.705 -312.799C535.582 -294.205 531.626 -274.031 527.679 -254.657C520.956 -220.245 513.833 -184.654 488.528 -156.576C471.924 -137.982 449.776 -126.511 428.426 -115.05C410.234 -105.558 391.643 -95.6659 376.227 -81.4275C347.755 -55.3285 343.4 -18.5483 364.759 18.6313C401.533 83.0989 462.823 121.068 528.469 119.879L529.657 119.09ZM720.251 159.037C705.226 159.037 690.201 157.848 675.565 156.269C669.241 155.87 662.917 155.08 656.584 154.681C599.649 150.334 562.475 129.771 549.029 120.669C479.037 124.625 413.391 87.4456 373.46 21.0092C350.522 -16.9599 354.079 -56.5079 383.74 -84.1953C398.765 -98.4337 417.347 -108.325 435.14 -117.818C455.71 -128.889 477.458 -140.359 493.273 -158.555C517 -185.443 522.934 -218.266 528.859 -253.078C532.425 -272.852 535.981 -293.415 543.095 -312.4C558.12 -352.347 573.944 -393.874 602.806 -421.561C622.976 -440.935 649.86 -450.428 678.732 -448.449C710.761 -446.081 741.211 -429.864 761.771 -403.366C779.174 -381.214 790.243 -353.527 795.388 -320.703C799.334 -313.589 803.69 -306.864 808.036 -300.53C811.992 -294.604 815.948 -288.669 819.105 -282.734C838.087 -249.121 843.231 -202.849 833.741 -148.663C829.785 -126.121 825.439 -105.158 821.083 -86.5731C817.526 -71.1458 814.759 -57.6968 813.181 -46.6257C810.014 -26.8517 815.159 -11.4243 820.294 4.79242C824.25 17.4424 828.596 30.5015 828.995 45.9193C829.785 72.4177 817.926 144.009 754.258 156.659C743.189 158.248 731.72 159.037 720.251 159.037ZM549.818 118.69C563.265 127.793 600.039 148.755 656.983 152.703C663.307 153.102 669.641 153.891 675.965 154.291C701.669 156.659 728.553 159.037 754.258 153.891C816.338 141.631 828.206 71.2288 827.417 45.1298C827.017 29.7025 822.671 17.0525 818.715 4.39294C813.181 -12.2137 808.435 -27.6411 811.592 -47.8146C813.181 -58.8857 816.338 -72.3347 819.505 -87.7525C823.461 -106.347 828.206 -127.31 831.763 -149.452C840.854 -203.239 836.109 -249.121 817.526 -282.344C813.97 -288.27 810.413 -294.205 806.457 -300.14C802.102 -306.465 797.756 -313.189 793.8 -320.703V-321.103C788.664 -353.527 777.586 -381.214 760.582 -402.966C740.422 -429.075 710.761 -445.282 679.122 -447.26C650.659 -449.239 624.555 -439.747 604.784 -420.762C576.312 -393.084 560.897 -351.948 545.862 -312C538.749 -293.016 535.192 -272.852 531.626 -253.078C525.701 -219.455 519.368 -184.654 495.251 -157.366C479.037 -138.771 457.288 -127.31 436.329 -115.839C418.536 -106.347 400.344 -96.4553 385.319 -82.6164C356.457 -55.7184 352.89 -17.3594 375.438 19.8203C414.979 85.8667 479.826 122.647 549.818 118.69ZM738.444 146.378C725.396 146.378 711.949 145.189 698.902 144.009C690.201 143.21 681.499 142.421 672.798 142.031C622.976 139.263 586.592 127.393 569.199 120.279C495.641 127.003 426.049 91.0123 382.951 23.777C358.435 -14.5916 361.592 -54.929 391.643 -83.8053C406.278 -98.0437 424.47 -107.926 441.863 -117.418C462.034 -128.489 483.383 -139.96 498.808 -158.155C521.346 -184.654 526.491 -216.688 531.626 -250.7C534.793 -270.873 537.959 -291.437 545.472 -310.821C558.519 -345.623 575.123 -385.171 603.995 -410.48C624.165 -428.276 650.659 -436.589 678.732 -433.422C710.361 -430.254 739.623 -413.248 759.403 -386.75C774.428 -366.586 779.963 -343.644 785.498 -321.493C786.686 -316.746 787.866 -312 789.054 -307.254C791.032 -299.74 794.988 -293.016 798.545 -286.691C800.922 -282.344 803.69 -277.988 805.668 -273.242C817.926 -243.976 819.904 -206.006 811.203 -156.966C804.479 -119.796 798.944 -84.1953 798.545 -59.6752C798.545 -38.3223 805.668 -21.7061 813.57 -3.9104C819.105 9.1391 825.039 22.5881 828.206 38.4053C831.763 58.5788 828.206 91.4023 811.592 114.743C800.133 131.35 784.309 141.232 764.148 144.799C756.236 145.978 747.145 146.378 738.444 146.378ZM569.589 118.3C586.992 125.415 623.366 137.285 673.197 140.053C681.899 140.443 690.591 141.232 699.292 142.031C721.041 144.009 743.189 145.978 764.538 142.421C783.919 139.263 799.334 129.371 810.413 113.155C826.627 89.8234 830.184 58.1793 826.627 38.0154C823.85 22.5881 817.926 9.1391 812.391 -3.9104C804.479 -21.7061 797.356 -38.7122 797.356 -60.4646C797.356 -84.9847 803.29 -120.586 810.014 -158.155C818.715 -206.805 816.737 -244.765 804.879 -273.242C802.901 -277.598 800.523 -281.945 797.756 -286.301C793.8 -292.626 789.844 -299.35 787.866 -307.254C786.686 -312 785.498 -316.746 784.309 -321.493C778.774 -343.644 773.24 -366.586 758.604 -386.36C739.233 -412.069 710.361 -429.075 679.122 -432.233C651.838 -435 625.744 -427.097 605.973 -409.691C577.501 -384.381 560.897 -345.623 548.239 -310.821C541.117 -291.836 537.959 -271.263 534.793 -251.099C529.657 -218.266 524.513 -184.654 501.185 -157.756C485.361 -139.171 464.012 -127.7 443.452 -116.629C426.049 -107.137 408.256 -97.6442 393.621 -83.4058C364.359 -55.3285 361.202 -15.7805 385.319 21.7986C427.627 89.034 496.44 125.025 569.589 118.3ZM755.837 133.718C743.978 133.718 731.72 132.539 719.852 131.35C709.971 130.161 699.292 129.371 689.012 128.972C667.663 128.182 647.492 125.814 630.09 123.836C615.464 121.857 601.617 120.279 589.359 119.879C499.207 117.511 433.172 86.2662 392.441 26.1453C365.947 -13.0032 368.715 -54.1396 399.555 -84.1953C413.791 -98.4337 431.583 -107.926 448.587 -117.418C468.757 -128.489 489.317 -139.96 504.342 -158.155C526.091 -184.254 530.047 -215.499 534.793 -248.722C537.56 -268.895 540.327 -289.858 547.45 -309.233C557.73 -336.52 574.733 -375.678 604.784 -399.01C625.344 -415.226 651.448 -421.951 678.732 -417.994C709.971 -413.648 738.444 -396.242 757.026 -370.143C773.639 -347.202 777.985 -321.103 782.73 -295.784L783.13 -293.415C784.309 -287.48 786.287 -281.945 788.265 -276.809C789.844 -272.452 791.432 -268.106 792.611 -263.75C799.734 -234.483 794.988 -199.282 789.054 -165.27C782.73 -129.678 781.152 -96.8548 784.708 -72.7247C788.265 -49.7929 797.756 -31.5978 808.036 -11.8238C815.159 1.62518 822.671 15.4641 827.417 30.8914C833.741 49.876 833.741 81.1206 819.505 104.452C809.614 120.279 794.199 130.56 774.818 133.328C768.894 133.328 762.56 133.718 755.837 133.718ZM394.419 24.9564C434.351 84.2878 499.996 115.532 589.359 117.511C601.617 117.901 615.464 119.48 630.489 121.458C647.892 123.836 668.052 126.204 689.411 126.604C699.691 127.003 710.361 128.182 720.251 128.972C738.444 130.95 757.026 132.929 775.218 130.161C794.199 127.393 808.825 117.901 818.316 102.473C832.552 79.5417 832.162 49.0865 826.228 30.5015C821.083 15.0742 813.97 1.62518 806.847 -11.8238C796.567 -31.5978 786.686 -50.1829 783.13 -73.1241C779.564 -97.2448 781.152 -130.468 787.476 -166.458C793.41 -200.081 798.155 -235.273 791.032 -264.149C789.844 -268.496 788.265 -272.452 786.686 -276.809C784.708 -281.945 782.331 -287.48 781.542 -293.815L781.152 -296.183C776.796 -321.103 772.45 -347.202 755.837 -369.743C737.255 -395.452 709.182 -412.459 678.732 -416.815C652.238 -420.762 626.533 -414.038 606.363 -398.22C576.711 -374.889 559.708 -336.13 549.428 -309.233C542.305 -290.248 539.538 -269.285 536.771 -249.121C532.425 -217.087 528.069 -183.864 505.931 -157.366C490.506 -138.771 469.546 -127.31 449.376 -116.229C432.373 -106.737 414.979 -97.2448 400.743 -83.4058C371.083 -53.3502 368.715 -13.0032 394.419 24.9564ZM772.84 121.458C761.381 121.458 750.302 119.879 739.233 118.69C728.164 117.511 716.695 115.922 705.616 115.922C665.685 115.922 635.234 117.111 609.929 119.09C524.113 126.204 448.587 93.3806 402.721 28.5231C375.039 -10.2354 377.416 -53.7401 408.256 -84.5947C422.492 -98.4337 439.496 -108.325 456.499 -117.818C476.27 -128.889 496.44 -139.96 511.066 -158.555C531.626 -184.254 535.192 -216.298 538.749 -247.143C541.117 -267.706 543.494 -288.669 550.607 -308.053C564.453 -344.833 583.435 -372.121 607.162 -388.338C653.027 -419.973 721.44 -404.155 755.837 -353.926C769.284 -334.152 776.406 -311.61 777.985 -279.966C778.384 -276.01 778.774 -272.452 779.174 -268.895C779.963 -264.149 780.353 -259.403 780.353 -254.657C780.353 -236.462 776.406 -217.087 772.051 -196.514C770.472 -189.4 768.894 -181.486 767.705 -173.972C762.17 -144.316 763.35 -113.072 771.262 -86.1736C778.384 -61.6535 791.432 -39.9012 804.479 -18.9382C812.781 -5.48926 821.083 8.34967 827.807 22.9875C836.508 41.5726 840.065 71.6283 827.417 94.5696C819.105 109.597 804.879 118.69 786.287 121.068C781.542 121.458 777.196 121.458 772.84 121.458ZM705.616 113.944C717.085 113.944 728.553 115.532 739.632 116.712C754.658 118.69 770.472 120.669 785.897 118.69C803.69 116.712 817.526 108.019 825.439 93.3806C837.697 70.8389 834.14 41.5726 825.828 23.3775C819.105 8.74915 810.413 -5.0993 802.501 -18.1488C789.844 -39.1117 776.406 -60.8641 769.284 -85.7836C761.381 -113.072 760.192 -144.706 765.727 -174.762C767.306 -182.276 768.894 -189.799 770.073 -197.313C774.428 -217.477 778.384 -236.861 778.384 -255.056C778.384 -259.802 777.586 -264.149 777.196 -268.895C776.796 -272.452 776.007 -276.409 776.007 -280.366C774.428 -311.61 767.705 -334.152 754.258 -353.137C720.251 -402.576 653.427 -417.994 608.341 -386.75C585.013 -370.533 566.431 -344.034 552.585 -307.654C545.472 -288.27 543.095 -267.316 540.727 -247.143C537.17 -215.898 533.604 -183.465 512.654 -157.366C497.619 -138.771 477.059 -127.31 457.288 -116.229C440.684 -107.137 423.281 -97.2448 409.445 -83.4058C379.385 -53.3502 377.017 -11.0344 403.91 26.9348C449.376 91.4023 524.113 123.836 609.53 116.712C634.835 115.133 665.685 113.944 705.616 113.944ZM590.158 122.257C520.956 122.257 455.31 89.424 412.212 30.8914C383.341 -8.25708 384.529 -52.5607 416.168 -84.5947C430.005 -98.4337 447.008 -108.325 463.222 -117.418C482.594 -128.489 502.364 -139.57 516.6 -158.155C536.371 -183.465 539.139 -214.709 541.915 -245.164C543.884 -265.728 545.472 -287.09 552.985 -306.465C564.453 -337.709 584.224 -362.629 608.341 -376.867C631.678 -390.706 660.15 -393.874 688.223 -385.57C714.717 -377.657 738.833 -359.861 753.859 -337.319C768.894 -314.768 774.818 -290.647 772.051 -266.127C771.262 -259.003 769.683 -251.889 767.306 -245.164C764.538 -237.251 761.771 -229.737 758.604 -222.223C753.469 -209.573 747.934 -196.514 745.557 -182.675C740.811 -157.366 744.768 -128.489 757.026 -99.2231C768.894 -71.9352 785.897 -46.6257 802.501 -22.4955C810.803 -10.2354 819.505 2.41461 827.417 15.0742C841.253 37.6159 844.021 66.4922 834.14 85.4672C827.017 99.3157 814.36 107.22 796.567 108.808C783.13 109.997 770.073 108.019 757.026 106.04C745.557 104.452 733.698 102.473 721.83 102.873C700.081 103.662 677.943 108.409 656.983 112.765C648.282 114.743 638.791 116.712 630.09 118.3C616.652 121.068 603.206 122.257 590.158 122.257ZM657.373 -388.338C640.37 -388.338 623.766 -383.982 609.13 -375.279C585.413 -361.041 566.032 -336.52 554.563 -305.675C547.45 -286.301 545.472 -265.338 543.884 -244.765C541.117 -214.319 538.349 -182.675 518.189 -156.966C503.553 -138.381 483.383 -126.911 464.012 -115.839C447.798 -106.737 430.794 -97.2448 417.347 -83.4058C386.507 -52.1612 384.929 -8.65656 413.391 29.7025C464.012 98.5262 546.661 131.749 629.3 116.712C638.401 115.133 647.492 113.155 656.194 111.176C677.543 106.43 699.292 101.684 721.44 100.895C733.299 100.505 745.167 102.473 757.026 104.062C769.683 106.04 783.13 108.019 796.177 106.83C812.781 105.251 825.439 97.7273 832.162 84.6778C841.653 66.0927 838.885 38.0154 825.439 16.2631C817.526 3.60352 809.224 -9.05603 800.922 -21.3161C784.309 -45.8362 766.916 -70.7463 755.447 -98.4337C742.789 -128.099 738.833 -157.366 743.579 -183.075C746.346 -196.914 751.491 -209.963 757.026 -223.013C760.192 -230.527 763.35 -238.05 765.727 -245.954C768.095 -252.678 769.683 -259.802 770.472 -266.517C773.24 -290.647 767.306 -313.979 752.68 -336.52C738.044 -359.072 714.317 -376.468 688.223 -383.982C677.543 -386.75 667.263 -388.338 657.373 -388.338Z" fill="white" fill-opacity="0.06"/>
</g>
<defs>
<clipPath id="clip0_305_22947">
<rect width="1439" height="513" fill="white"/>
</clipPath>
</defs>
</svg>
