<svg width="38" height="28" viewBox="0 0 38 28" fill="none" xmlns="http://www.w3.org/2000/svg">
<path d="M36.2475 4.52084H34.1453V2.90609C34.1442 2.75901 34.1008 2.61537 34.0203 2.49234C33.9398 2.36931 33.8257 2.27212 33.6914 2.21237C31.2689 1.29264 28.6525 1.00549 26.0885 1.37796C23.5246 1.75044 21.0975 2.77027 19.0358 4.34143C16.9742 2.77027 14.5471 1.75044 11.9831 1.37796C9.41918 1.00549 6.80275 1.29264 4.38023 2.21237C4.24601 2.27212 4.13183 2.36931 4.05134 2.49234C3.97084 2.61537 3.92745 2.75901 3.92634 2.90609V4.52084H1.75249C1.55292 4.52084 1.36152 4.60025 1.2204 4.74157C1.07928 4.88289 1 5.07454 1 5.27439V26.0268C1 26.2266 1.07928 26.4183 1.2204 26.5596C1.36152 26.7009 1.55292 26.7803 1.75249 26.7803H36.2475C36.4471 26.7803 36.6385 26.7009 36.7796 26.5596C36.9207 26.4183 37 26.2266 37 26.0268V5.27439C37 5.07454 36.9207 4.88289 36.7796 4.74157C36.6385 4.60025 36.4471 4.52084 36.2475 4.52084ZM2.50498 25.2852V6.02794H3.89051V23.6705C3.89228 23.7934 3.92359 23.9142 3.9818 24.0224C4.04002 24.1307 4.12342 24.2233 4.22495 24.2925C4.33428 24.3543 4.45771 24.3868 4.58328 24.3868C4.70884 24.3868 4.83228 24.3543 4.94161 24.2925C6.8073 23.5706 8.81161 23.2795 10.8052 23.441C12.7988 23.6026 14.7303 24.2125 16.4559 25.2254L2.50498 25.2852ZM18.2475 24.5915C15.6504 22.8998 12.6262 21.983 9.5282 21.9481C8.12585 21.9396 6.731 22.1535 5.39549 22.582V5.28636V3.44435C7.55644 2.73188 9.85934 2.56323 12.1008 2.95333C14.3423 3.34342 16.4533 4.28025 18.2475 5.68106V24.5915ZM19.8122 5.65715C21.6064 4.25634 23.7175 3.31951 25.9589 2.92942C28.2004 2.53932 30.5033 2.70797 32.6642 3.42044V5.26242V22.5581C30.504 21.9345 28.2333 21.7934 26.0126 22.1448C23.7919 22.4961 21.6753 23.3313 19.8122 24.5915V5.65715ZM35.5547 25.2852H21.5441C23.2697 24.2723 25.2012 23.6624 27.1948 23.5008C29.1884 23.3393 31.1927 23.6304 33.0584 24.3523C33.1677 24.4141 33.2912 24.4466 33.4167 24.4466C33.5423 24.4466 33.6657 24.4141 33.7751 24.3523C33.8766 24.2831 33.96 24.1905 34.0182 24.0822C34.0764 23.974 34.1077 23.8532 34.1095 23.7303V6.02794H35.495V25.2852H35.5547Z" fill="#E91F72" stroke="#E91F72" stroke-width="0.5" stroke-miterlimit="10"/>
</svg>
