<svg width="36" height="36" viewBox="0 0 36 36" fill="none" xmlns="http://www.w3.org/2000/svg">
<path d="M1.62104 9.69392C1.11024 9.1909 0.704018 8.59165 0.425805 7.93079C0.147592 7.26993 0.00288966 6.56051 4.28395e-05 5.84342C-0.00280398 5.12633 0.136261 4.41577 0.409219 3.75271C0.682176 3.08966 1.08362 2.48725 1.59041 1.98019C2.0972 1.47312 2.69931 1.07146 3.36201 0.798352C4.0247 0.525248 4.73488 0.386108 5.45158 0.388956C6.16829 0.391805 6.87734 0.536569 7.53784 0.814932C8.19835 1.0933 8.79725 1.49974 9.3 2.01082L15.7065 8.42078L13.6055 10.5229L7.19901 4.11291C6.73024 3.67855 6.11153 3.44278 5.47273 3.45504C4.83393 3.4673 4.22472 3.72666 3.77293 4.17869C3.32115 4.63071 3.06194 5.24024 3.04968 5.87938C3.03743 6.51853 3.2731 7.13757 3.70723 7.6066L10.1138 14.0166L8.02757 16.1039L1.62104 9.69392ZM17.7335 25.9779C17.7976 27.1203 17.6198 28.2633 17.2118 29.3322C16.8039 30.4011 16.175 31.3718 15.3662 32.1807C12.5107 35.0378 3.52968 35.7632 1.70981 35.8816L0.0379 36L0.14147 34.342C0.259835 32.5508 0.984824 23.5353 3.84039 20.6782C4.65337 19.8667 5.62851 19.2362 6.70196 18.8281C7.77541 18.4199 8.92294 18.2432 10.0694 18.3097L26.2706 2.11445C26.741 1.50448 27.3355 1.00156 28.0149 0.639057C28.6944 0.276559 29.443 0.0627456 30.2113 0.0118626C30.9796 -0.0390204 31.75 0.0741793 32.4712 0.343915C33.1924 0.61365 33.8481 1.03377 34.3946 1.57639C34.9412 2.11902 35.3662 2.77177 35.6414 3.49127C35.9166 4.21078 36.0357 4.9806 35.9908 5.74968C35.9459 6.51876 35.738 7.2695 35.381 7.95207C35.024 8.63464 34.526 9.2334 33.92 9.70869L17.6448 25.9927L17.7335 25.9779ZM13.2948 19.1831C14.0392 19.5675 14.7183 20.0671 15.307 20.6634C15.9026 21.2584 16.4018 21.9426 16.7866 22.6915L31.8486 7.69542C32.0815 7.46863 32.2659 7.19684 32.3905 6.89655C32.5151 6.59625 32.5774 6.27373 32.5736 5.9486C32.5757 5.6237 32.5127 5.30169 32.3881 5.00164C32.2636 4.70158 32.0801 4.42959 31.8486 4.20177C31.3853 3.73893 30.7574 3.47894 30.1027 3.47894C29.448 3.47894 28.8201 3.73893 28.3568 4.20177L13.3688 19.1387L13.2948 19.1831ZM13.2948 22.7508C12.8127 22.2584 12.2372 21.8672 11.602 21.6002C10.9669 21.3331 10.2849 21.1956 9.59591 21.1956C8.90697 21.1956 8.22495 21.3331 7.5898 21.6002C6.95466 21.8672 6.37915 22.2584 5.89699 22.7508C4.52099 24.1275 3.58886 29.0719 3.20418 32.7728C6.91789 32.3879 11.8596 31.4701 13.2356 30.0934C13.7241 29.6089 14.1119 29.0324 14.3765 28.3972C14.6411 27.762 14.7774 27.0806 14.7774 26.3924C14.7774 25.7043 14.6411 25.0229 14.3765 24.3877C14.1119 23.7524 13.7241 23.176 13.2356 22.6915L13.2948 22.7508ZM27.5579 20.3081L25.4569 22.4103L32.5884 29.5456V33.0393H29.0818L21.9503 25.9039L19.8641 27.9912L27.8538 36H35.5327V28.2725L27.5579 20.3081Z" fill="#E91F72"/>
</svg>
