<svg width="34" height="38" viewBox="0 0 34 38" fill="none" xmlns="http://www.w3.org/2000/svg">
<path d="M32.5709 9.84332C32.4027 9.57888 32.1833 9.35091 31.9255 9.17289C31.6677 8.99487 31.3769 8.87042 31.0702 8.80692L20.8657 6.70409L20.1604 2.97904C20.1027 2.6662 19.9838 2.36786 19.8107 2.10106C19.6376 1.83426 19.4136 1.60428 19.1515 1.42428C18.8894 1.24429 18.5944 1.11781 18.2834 1.05212C17.9724 0.986427 17.6515 0.982798 17.3391 1.04144L2.96278 3.76011C2.33428 3.88027 1.77907 4.24507 1.41896 4.77446C1.05885 5.30385 0.923256 5.95459 1.04192 6.58392L4.80859 26.6059C4.87489 26.9686 5.02468 27.3108 5.24609 27.6054C5.4675 27.9 5.75444 28.1389 6.08416 28.3032V33.7856C6.08415 34.209 6.16771 34.6282 6.33004 35.0192C6.49237 35.4101 6.73026 35.7652 7.03006 36.0638C7.32986 36.3625 7.68566 36.599 8.07702 36.7596C8.46838 36.9203 8.8876 37.0019 9.31059 37H22.3364C23.1881 37 24.0049 36.6613 24.6072 36.0585C25.2094 35.4557 25.5478 34.6381 25.5478 33.7856V33.4101C25.9191 33.5332 26.3127 33.5741 26.7013 33.5301C27.09 33.486 27.4644 33.3579 27.7988 33.1548C28.3267 32.8087 28.6983 32.2696 28.8342 31.6528L32.9461 11.6608C33.0096 11.3482 33.0091 11.0259 32.9446 10.7136C32.8801 10.4012 32.753 10.1051 32.5709 9.84332ZM6.05414 26.3656L2.27247 6.31355C2.24424 6.16753 2.24517 6.01737 2.27522 5.87171C2.30527 5.72606 2.36384 5.5878 2.44755 5.46492C2.53126 5.34204 2.63845 5.23695 2.76294 5.15574C2.88743 5.07453 3.02675 5.01881 3.17287 4.99178L17.5492 2.33318C17.843 2.28414 18.1443 2.35049 18.3903 2.51839C18.6364 2.6863 18.8081 2.94282 18.8698 3.23441L19.4701 6.44875L16.7089 5.87797C16.0829 5.75734 15.4346 5.88608 14.902 6.23677C14.3695 6.58745 13.9947 7.13238 13.8576 7.7555L13.0322 11.826H9.31059C8.45886 11.826 7.64203 12.1646 7.03977 12.7675C6.43751 13.3703 6.09916 14.1878 6.09916 15.0403C6.09916 15.0403 6.09916 26.666 6.09916 26.4257L6.05414 26.3656ZM24.3172 33.7856C24.3172 34.0394 24.2671 34.2906 24.1696 34.5249C24.0721 34.7591 23.9293 34.9717 23.7493 35.1504C23.5694 35.3292 23.3558 35.4705 23.1211 35.5662C22.8863 35.6619 22.6349 35.7102 22.3814 35.7082H9.31059C9.05708 35.7102 8.80568 35.6619 8.5709 35.5662C8.33612 35.4705 8.12259 35.3292 7.94263 35.1504C7.76267 34.9717 7.61984 34.7591 7.52237 34.5249C7.4249 34.2906 7.37472 34.0394 7.37473 33.7856V14.9802C7.37473 14.4664 7.57869 13.9735 7.94173 13.6101C8.30477 13.2468 8.79716 13.0426 9.31059 13.0426H22.3364C22.5943 13.0366 22.8509 13.0823 23.091 13.177C23.3311 13.2717 23.5499 13.4134 23.7344 13.594C23.919 13.7745 24.0656 13.9901 24.1657 14.2282C24.2658 14.4663 24.3173 14.722 24.3172 14.9802V33.7856ZM31.6555 11.3453L27.5437 31.3223C27.515 31.4687 27.4576 31.608 27.3748 31.7321C27.2919 31.8561 27.1852 31.9625 27.061 32.0449C26.9367 32.1273 26.7973 32.1843 26.6509 32.2124C26.5045 32.2405 26.354 32.2391 26.2081 32.2085L25.5178 32.0583V14.9802C25.5178 14.1278 25.1794 13.3102 24.5772 12.7074C23.9749 12.1046 23.1581 11.7659 22.3063 11.7659H14.3378L15.1182 7.96579C15.1796 7.67197 15.3543 7.41424 15.6043 7.24837C15.8542 7.08251 16.1594 7.02187 16.4537 7.07959L30.7851 10.0836C31.0759 10.1485 31.3297 10.3247 31.4924 10.5746C31.655 10.8244 31.7136 11.128 31.6555 11.4205V11.3453Z" fill="#E91F72" stroke="#E91F72" stroke-miterlimit="10"/>
</svg>
