<svg width="38" height="38" viewBox="0 0 38 38" fill="none" xmlns="http://www.w3.org/2000/svg">
<path d="M18.2623 13.1347C17.2648 13.1347 16.2896 13.4309 15.4602 13.9859C14.6307 14.5409 13.9843 15.3298 13.6025 16.2527C13.2207 17.1756 13.1209 18.1912 13.3155 19.1709C13.5101 20.1507 13.9905 21.0507 14.6959 21.7571C15.4012 22.4634 16.3 22.9445 17.2784 23.1393C18.2568 23.3342 19.2709 23.2342 20.1925 22.8519C21.1141 22.4696 21.9019 21.8222 22.4561 20.9916C23.0103 20.161 23.3061 19.1845 23.3061 18.1856C23.3061 16.846 22.7747 15.5613 21.8288 14.6141C20.8829 13.6668 19.6 13.1347 18.2623 13.1347ZM18.2623 21.759C17.5591 21.759 16.8716 21.5502 16.2868 21.1589C15.7021 20.7676 15.2463 20.2115 14.9772 19.5609C14.708 18.9102 14.6376 18.1942 14.7748 17.5035C14.912 16.8128 15.2507 16.1783 15.748 15.6803C16.2453 15.1823 16.8789 14.8431 17.5686 14.7057C18.2584 14.5683 18.9734 14.6389 19.6231 14.9084C20.2729 15.1779 20.8282 15.6343 21.2189 16.2199C21.6097 16.8055 21.8182 17.4939 21.8182 18.1982C21.8182 18.6658 21.7262 19.1289 21.5475 19.5609C21.3688 19.9929 21.1069 20.3854 20.7767 20.7161C20.4465 21.0467 20.0545 21.309 19.6231 21.488C19.1917 21.6669 18.7293 21.759 18.2623 21.759ZM1 19.4735V16.9481C1 16.3252 1.2471 15.7278 1.68694 15.2873C2.12678 14.8469 2.72333 14.5995 3.34536 14.5995H5.86725C6.04648 14.6056 6.22333 14.5569 6.37425 14.4599C6.52518 14.3629 6.64302 14.2222 6.71208 14.0565C6.84077 13.6996 6.98808 13.3498 7.15341 13.0084C7.21453 12.849 7.22678 12.6749 7.1886 12.5085C7.15041 12.342 7.06353 12.1908 6.93905 12.074L5.16112 10.2431C4.94152 10.0248 4.76723 9.76509 4.6483 9.47902C4.52936 9.19296 4.46813 8.88615 4.46813 8.57629C4.46813 8.26642 4.52936 7.95963 4.6483 7.67356C4.76723 7.3875 4.94152 7.12782 5.16112 6.90951L6.95166 5.10382C7.39524 4.66581 7.99316 4.42027 8.61611 4.42027C9.23907 4.42027 9.83699 4.66581 10.2806 5.10382L12.1089 6.94739C12.2265 7.07457 12.3798 7.16314 12.5486 7.20145C12.7174 7.23977 12.8938 7.22603 13.0546 7.16205C13.3951 6.9979 13.7482 6.85901 14.1012 6.72011C14.2647 6.65173 14.4038 6.53567 14.5005 6.38704C14.5972 6.23841 14.647 6.06407 14.6434 5.88672V3.36129C14.6434 2.73722 14.8901 2.13852 15.3296 1.69606C15.7691 1.25359 16.3656 1.00334 16.9888 1H19.5107C20.1339 1.00334 20.7304 1.25359 21.1699 1.69606C21.6094 2.13852 21.8561 2.73722 21.856 3.36129V5.88672C21.8489 6.0648 21.8972 6.24071 21.9944 6.39004C22.0915 6.53937 22.2327 6.65473 22.3983 6.72011C22.7513 6.85901 23.1044 6.9979 23.4448 7.16205C23.6035 7.22682 23.7783 7.24097 23.9453 7.20255C24.1123 7.16413 24.2634 7.07502 24.3779 6.94739L26.2189 5.11646C26.4369 4.89655 26.6962 4.72203 26.9819 4.60292C27.2676 4.48382 27.5739 4.4225 27.8834 4.4225C28.1928 4.4225 28.4992 4.48382 28.7848 4.60292C29.0705 4.72203 29.3298 4.89655 29.5478 5.11646L31.351 6.92213C31.7884 7.36633 32.0336 7.9651 32.0336 8.58892C32.0336 9.21275 31.7884 9.8115 31.351 10.2557L29.51 12.0866C29.3825 12.2014 29.2936 12.3526 29.2552 12.5199C29.2168 12.6871 29.2309 12.8622 29.2956 13.0211C29.4595 13.362 29.5982 13.7155 29.737 14.0691C29.8022 14.2349 29.9174 14.3763 30.0666 14.4736C30.2157 14.5709 30.3913 14.6192 30.5692 14.6121H33.0911C33.7143 14.612 34.3121 14.8591 34.754 15.2992C35.1958 15.7393 35.4457 16.3367 35.449 16.9607V19.4862C35.4254 19.6687 35.3362 19.8363 35.1981 19.9577C35.06 20.0792 34.8825 20.1462 34.6988 20.1462C34.515 20.1462 34.3375 20.0792 34.1994 19.9577C34.0614 19.8363 33.9722 19.6687 33.9485 19.4862V16.9607C33.9485 16.8486 33.9263 16.7375 33.883 16.634C33.8398 16.5306 33.7764 16.4367 33.6966 16.358C33.6168 16.2793 33.5222 16.2172 33.4182 16.1754C33.3143 16.1337 33.2031 16.113 33.0911 16.1147H30.5692C30.0835 16.1226 29.6072 15.98 29.2054 15.7065C28.8037 15.433 28.4961 15.042 28.3247 14.5868C28.2128 14.2721 28.0823 13.9642 27.9338 13.665C27.7364 13.2266 27.6789 12.7379 27.7692 12.2656C27.8594 11.7933 28.0931 11.3604 28.4382 11.026L30.2792 9.1824C30.4355 9.02201 30.523 8.80675 30.523 8.58261C30.523 8.35846 30.4355 8.14322 30.2792 7.98283L28.4886 6.17714C28.4073 6.09156 28.3095 6.02341 28.2012 5.97685C28.0928 5.93029 27.9761 5.90629 27.8581 5.90629C27.7402 5.90629 27.6235 5.93029 27.5151 5.97685C27.4067 6.02341 27.3089 6.09156 27.2277 6.17714L25.3867 8.02071C25.0528 8.3663 24.6204 8.60026 24.1488 8.69066C23.6771 8.78105 23.1891 8.72348 22.7513 8.52579C22.4525 8.37711 22.1451 8.2464 21.8308 8.13435C21.3763 7.96272 20.9858 7.65469 20.7127 7.25238C20.4396 6.85007 20.2972 6.37312 20.3051 5.88672V3.36129C20.3067 3.24913 20.2861 3.13775 20.2444 3.03365C20.2027 2.92954 20.1408 2.83479 20.0621 2.75488C19.9835 2.67498 19.8898 2.61152 19.7865 2.56822C19.6832 2.52492 19.5723 2.50262 19.4602 2.50263H16.9384C16.8263 2.50262 16.7154 2.52492 16.6121 2.56822C16.5088 2.61152 16.4151 2.67498 16.3365 2.75488C16.2578 2.83479 16.1959 2.92954 16.1542 3.03365C16.1125 3.13775 16.0918 3.24913 16.0935 3.36129V5.88672C16.0978 6.37232 15.954 6.84764 15.6814 7.24926C15.4087 7.65087 15.0202 7.95965 14.5678 8.13435C14.2493 8.24635 13.9378 8.37705 13.6347 8.52579C13.1955 8.71631 12.7093 8.77003 12.2393 8.67994C11.7692 8.58986 11.3371 8.36014 10.9993 8.02071L9.17093 6.17714C9.08966 6.09156 8.99186 6.02341 8.88347 5.97685C8.77509 5.93029 8.65839 5.90629 8.54046 5.90629C8.42252 5.90629 8.30582 5.93029 8.19743 5.97685C8.08905 6.02341 7.99125 6.09156 7.90998 6.17714L6.27075 7.93231C6.18529 8.01369 6.11725 8.11163 6.07075 8.22016C6.02426 8.3287 6.00028 8.44557 6.00028 8.56367C6.00028 8.68177 6.02426 8.79863 6.07075 8.90717C6.11725 9.0157 6.18529 9.11364 6.27075 9.19502L8.09912 11.0386C8.44423 11.373 8.67787 11.8059 8.76814 12.2782C8.85841 12.7506 8.80092 13.2393 8.6035 13.6777C8.4648 13.9807 8.3387 14.2838 8.22522 14.5995C8.05001 15.0546 7.73974 15.445 7.33619 15.7182C6.93263 15.9914 6.45518 16.1342 5.96813 16.1273H3.44623C3.33529 16.1273 3.22543 16.1492 3.12293 16.1917C3.02043 16.2342 2.9273 16.2966 2.84885 16.3751C2.7704 16.4537 2.70817 16.547 2.66571 16.6496C2.62325 16.7522 2.6014 16.8622 2.6014 16.9733V19.4988C2.6014 19.6099 2.62325 19.7199 2.66571 19.8225C2.70817 19.9252 2.7704 20.0185 2.84885 20.097C2.9273 20.1756 3.02043 20.2379 3.12293 20.2804C3.22543 20.3229 3.33529 20.3448 3.44623 20.3448H5.96813C6.45518 20.338 6.93263 20.4807 7.33619 20.7539C7.73974 21.0271 8.05001 21.4175 8.22522 21.8727C8.3387 22.1883 8.4648 22.504 8.6035 22.8071C8.79909 23.2458 8.8556 23.7341 8.76541 24.206C8.67522 24.6779 8.44267 25.1108 8.09912 25.4462L6.27075 27.2518C6.1144 27.4122 6.02688 27.6275 6.02688 27.8516C6.02688 28.0758 6.1144 28.291 6.27075 28.4514L8.0613 30.2445C8.14055 30.3334 8.23768 30.4047 8.34634 30.4534C8.45499 30.5022 8.57271 30.5274 8.69177 30.5274C8.81083 30.5274 8.92854 30.5022 9.0372 30.4534C9.14585 30.4047 9.24299 30.3334 9.32224 30.2445L11.1506 28.4262C11.4875 28.0811 11.922 27.8476 12.3954 27.7573C12.8689 27.667 13.3586 27.7242 13.7986 27.9211C14.0886 28.06 14.4039 28.1862 14.7191 28.2999C15.1736 28.4753 15.5635 28.786 15.8363 29.1901C16.1091 29.5943 16.2517 30.0724 16.2448 30.5601V33.0856C16.2448 33.31 16.3338 33.5251 16.4923 33.6838C16.6507 33.8424 16.8656 33.9316 17.0897 33.9316H19.6116C19.7103 33.9316 19.8081 33.9513 19.8992 33.9895C19.9903 34.0277 20.0729 34.0837 20.1421 34.1543C20.2114 34.2248 20.2659 34.3084 20.3025 34.4002C20.3392 34.4921 20.3572 34.5903 20.3555 34.6892C20.3572 34.7875 20.3391 34.8852 20.3024 34.9763C20.2656 35.0675 20.2108 35.1503 20.1414 35.2198C20.072 35.2894 19.9893 35.3442 19.8983 35.381C19.8072 35.4178 19.7097 35.436 19.6116 35.4342H17.0897C16.4676 35.4342 15.8711 35.1868 15.4312 34.7463C14.9914 34.3059 14.7443 33.7085 14.7443 33.0856V30.5601C14.7487 30.381 14.6994 30.2047 14.6028 30.0539C14.5061 29.9031 14.3666 29.7848 14.2021 29.7141C13.8458 29.5853 13.4964 29.4378 13.1555 29.2722C12.9942 29.2116 12.8186 29.1997 12.6506 29.2378C12.4825 29.276 12.3293 29.3625 12.2098 29.4868L10.3814 31.3178C10.1634 31.5377 9.90413 31.7122 9.61846 31.8313C9.3328 31.9504 9.02642 32.0118 8.71699 32.0118C8.40755 32.0118 8.10118 31.9504 7.81551 31.8313C7.52985 31.7122 7.27054 31.5377 7.05254 31.3178L5.24939 29.5121C5.03017 29.2949 4.85614 29.0363 4.73738 28.7512C4.61861 28.4662 4.55745 28.1605 4.55745 27.8516C4.55745 27.5428 4.61861 27.237 4.73738 26.952C4.85614 26.667 5.03017 26.4084 5.24939 26.1912L7.09037 24.3602C7.21484 24.2435 7.30172 24.0922 7.33991 23.9258C7.37809 23.7593 7.36584 23.5853 7.30473 23.4258C7.14081 23.0849 7.0021 22.7313 6.8634 22.3777C6.79433 22.212 6.67649 22.0713 6.52557 21.9743C6.37464 21.8773 6.19779 21.8286 6.01856 21.8348H3.49667C2.87349 21.8314 2.27696 21.5812 1.83748 21.1387C1.398 20.6963 1.1513 20.0976 1.15131 19.4735H1ZM28.7408 20.4584C27.1073 20.4584 25.5105 20.9435 24.1522 21.8523C22.794 22.7611 21.7354 24.0528 21.1103 25.5641C20.4852 27.0754 20.3216 28.7384 20.6403 30.3428C20.959 31.9471 21.7456 33.4208 22.9007 34.5775C24.0557 35.7342 25.5274 36.5219 27.1295 36.8411C28.7316 37.1602 30.3923 36.9964 31.9015 36.3704C33.4106 35.7444 34.7005 34.6843 35.6081 33.3242C36.5156 31.9641 37 30.365 37 28.7292C37 26.5401 36.1333 24.4401 34.5899 22.8898C33.0464 21.3394 30.9521 20.4651 28.766 20.4584H28.7408ZM28.7408 35.4847C27.4035 35.4847 26.0963 35.0875 24.9846 34.3432C23.8729 33.5989 23.0066 32.5412 22.4954 31.3037C21.9842 30.0663 21.8511 28.7048 22.1129 27.3915C22.3747 26.0783 23.0197 24.8723 23.9662 23.9263C24.9127 22.9803 26.1181 22.3367 27.43 22.0769C28.7419 21.8172 30.1012 21.9531 31.336 22.4673C32.5707 22.9815 33.6254 23.8509 34.3666 24.9656C35.1077 26.0803 35.502 27.3901 35.4995 28.7292C35.4995 30.5199 34.7909 32.2376 33.5288 33.5061C32.2668 34.7747 30.5542 35.4907 28.766 35.4974L28.7408 35.4847ZM32.6497 26.3806C32.7884 26.5222 32.866 26.7126 32.866 26.9109C32.866 27.1092 32.7884 27.2996 32.6497 27.4412L28.4382 31.7092C28.2968 31.848 28.1066 31.9258 27.9086 31.9258C27.7105 31.9258 27.5204 31.848 27.379 31.7092L25.248 29.5752C25.1668 29.5083 25.1004 29.4252 25.0531 29.3312C25.0057 29.2372 24.9785 29.1343 24.9731 29.0291C24.9677 28.924 24.9842 28.8188 25.0217 28.7204C25.0591 28.622 25.1166 28.5325 25.1905 28.4576C25.2644 28.3827 25.3531 28.3241 25.451 28.2854C25.5488 28.2468 25.6535 28.229 25.7586 28.2331C25.8637 28.2373 25.9667 28.2633 26.0612 28.3096C26.1556 28.3559 26.2394 28.4214 26.3072 28.5019L27.9086 30.1182L31.6158 26.4058C31.7539 26.2636 31.9422 26.1812 32.1402 26.1765C32.3383 26.1718 32.5303 26.2451 32.675 26.3806H32.6497Z" fill="#E91F72" stroke="#E91F72" stroke-miterlimit="10"/>
</svg>
