<svg width="37" height="36" viewBox="0 0 37 36" fill="none" xmlns="http://www.w3.org/2000/svg">
<path d="M28.1061 36C27.8031 35.9947 27.5046 35.9252 27.2303 35.7963C26.956 35.6674 26.7121 35.4819 26.5146 35.252L23.8886 32.3077H13.8461C13.5545 32.3163 13.2641 32.2662 12.9922 32.1604C12.7203 32.0547 12.4723 31.8954 12.2631 31.6921C12.0538 31.4888 11.8875 31.2455 11.774 30.9767C11.6604 30.708 11.602 30.4191 11.6021 30.1274V19.3528C11.6021 19.0109 11.7379 18.683 11.9797 18.4413C12.2214 18.1995 12.5493 18.0637 12.8912 18.0637C13.2331 18.0637 13.561 18.1995 13.8028 18.4413C14.0445 18.683 14.1804 19.0109 14.1804 19.3528V29.7136H24.0159C24.3196 29.7239 24.6178 29.7971 24.8918 29.9286C25.1657 30.0601 25.4094 30.247 25.6074 30.4775L27.7719 32.9603L28.1698 31.3687C28.3037 30.9106 28.5822 30.5081 28.9636 30.2213C29.3451 29.9344 29.8092 29.7787 30.2865 29.7772H33.5491V14.3237H23.3156C22.9723 14.3237 22.6427 14.1884 22.3984 13.9471C22.1541 13.7058 22.0148 13.3779 22.0106 13.0345C22.0106 12.6884 22.1481 12.3565 22.3928 12.1117C22.6376 11.867 22.9695 11.7295 23.3156 11.7295H34.0743C34.6554 11.7379 35.21 11.9746 35.618 12.3886C36.026 12.8025 36.2547 13.3605 36.2546 13.9417V30.1274C36.2546 30.4137 36.1982 30.6972 36.0887 30.9618C35.9791 31.2263 35.8185 31.4667 35.616 31.6691C35.4135 31.8716 35.1732 32.0322 34.9087 32.1418C34.6441 32.2513 34.3606 32.3077 34.0743 32.3077H30.7003L30.191 34.329C30.0767 34.8046 29.8059 35.2279 29.422 35.531C29.0381 35.8341 28.5634 35.9993 28.0743 36H28.1061Z" fill="#E91F72"/>
<path d="M8.16446 24.3501C7.98974 24.3657 7.81398 24.3657 7.63926 24.3501C7.25432 24.2547 6.9027 24.056 6.62227 23.7756C6.34183 23.4952 6.1432 23.1436 6.04775 22.7586L5.52255 20.6897H2.19629C1.61089 20.6813 1.0523 20.4429 0.641306 20.0259C0.230313 19.609 -5.97321e-05 19.047 1.16174e-08 18.4615V2.19629C1.16174e-08 1.6138 0.231393 1.05516 0.643277 0.643277C1.05516 0.231394 1.6138 7.73768e-10 2.19629 7.73768e-10H22.4244C22.7121 -7.66288e-06 22.9969 0.0569123 23.2625 0.16748C23.5281 0.278048 23.7691 0.440078 23.9718 0.644232C24.1745 0.848387 24.3348 1.09063 24.4434 1.35701C24.552 1.62338 24.6069 1.90862 24.6048 2.19629V18.4615C24.609 18.7513 24.5558 19.039 24.4483 19.3081C24.3408 19.5772 24.1811 19.8224 23.9785 20.0295C23.7758 20.2366 23.5341 20.4016 23.2674 20.5149C23.0007 20.6282 22.7142 20.6876 22.4244 20.6897H12.382L9.80371 23.618C9.60701 23.8501 9.3636 24.038 9.08938 24.1696C8.81516 24.3013 8.51627 24.3736 8.2122 24.382L8.16446 24.3501ZM2.59416 17.9841H5.77719C6.28934 17.9765 6.78826 18.1469 7.18879 18.4662C7.58933 18.7854 7.86667 19.2338 7.97347 19.7347L8.37135 21.3263L10.5517 18.8276C10.7524 18.6015 10.997 18.4185 11.2706 18.2899C11.5442 18.1613 11.8411 18.0898 12.1432 18.0796H21.9629V2.59416H2.59416V17.9841Z" fill="#E91F72"/>
<path d="M11.0133 14.7692C9.98782 14.7723 8.98443 14.4715 8.12983 13.9047C7.27523 13.3379 6.60775 12.5306 6.21171 11.5847C5.81566 10.6388 5.7088 9.59674 5.90462 8.59014C6.10045 7.58354 6.59018 6.65754 7.31196 5.9291C8.03373 5.20066 8.95519 4.70244 9.95995 4.49738C10.9647 4.29231 12.0077 4.38959 12.9572 4.77693C13.9067 5.16427 14.7201 5.8243 15.2948 6.67366C15.8694 7.52301 16.1794 8.5236 16.1857 9.54906C16.1899 10.2317 16.0593 10.9085 15.8015 11.5406C15.5436 12.1728 15.1635 12.7478 14.683 13.2327C14.2025 13.7177 13.631 14.103 13.0013 14.3667C12.3715 14.6303 11.696 14.7671 11.0133 14.7692ZM11.0133 6.98672C10.4989 6.98676 9.99607 7.13974 9.5688 7.42622C9.14153 7.71271 8.80908 8.11975 8.6137 8.59563C8.41833 9.07151 8.36884 9.59474 8.47155 10.0988C8.57425 10.6029 8.8245 11.065 9.19049 11.4265C9.55649 11.788 10.0217 12.0326 10.527 12.129C11.0323 12.2255 11.5549 12.1696 12.0283 11.9683C12.5017 11.7671 12.9046 11.4296 13.1858 10.9989C13.467 10.5681 13.6138 10.0634 13.6075 9.54906C13.5991 8.86657 13.3221 8.21488 12.8365 7.73525C12.3509 7.25561 11.6958 6.98667 11.0133 6.98672Z" fill="#E91F72"/>
<path d="M14.244 15.4058C14.0359 15.401 13.832 15.3465 13.6493 15.2468C13.4666 15.1472 13.3103 15.0052 13.1936 14.8329L10.5835 10.9496C10.394 10.6639 10.3244 10.3152 10.39 9.97864C10.4555 9.64211 10.6508 9.34489 10.9337 9.1512C11.0773 9.05748 11.2383 8.99337 11.407 8.96263C11.5758 8.9319 11.749 8.93515 11.9165 8.97221C12.084 9.00926 12.2424 9.07937 12.3824 9.17843C12.5225 9.27749 12.6414 9.4035 12.7321 9.54908L15.3263 13.4324C15.4214 13.5741 15.4875 13.7334 15.5206 13.9009C15.5538 14.0684 15.5533 14.2408 15.5192 14.4081C15.4852 14.5754 15.4182 14.7343 15.3223 14.8755C15.2263 15.0168 15.1032 15.1375 14.9602 15.2308C14.7449 15.3639 14.4972 15.4355 14.244 15.4377V15.4058Z" fill="#E91F72"/>
<path d="M28.4881 27.0557C28.2476 27.0534 28.0122 26.9855 27.8075 26.8593C27.6028 26.7331 27.4364 26.5534 27.3263 26.3395L23.7613 19.1936C23.6025 19.255 23.4332 19.2843 23.263 19.2799C23.0928 19.2754 22.9252 19.2374 22.7699 19.1678C22.6145 19.0983 22.4745 18.9986 22.3578 18.8747C22.2411 18.7507 22.1502 18.6049 22.0902 18.4456C22.0158 18.2833 21.9773 18.1069 21.9773 17.9284C21.9773 17.7499 22.0158 17.5734 22.0902 17.4111L22.7268 16.1061C22.9117 15.8015 23.2093 15.5823 23.555 15.4958C23.9007 15.4094 24.2665 15.4629 24.5729 15.6446C24.772 15.7508 24.9374 15.9107 25.0504 16.1061L29.5862 25.1777C29.7493 25.4745 29.7906 25.823 29.7015 26.1496C29.6125 26.4763 29.3999 26.7555 29.1088 26.9284C28.9303 27.0168 28.7349 27.0656 28.5358 27.0716L28.4881 27.0557Z" fill="#E91F72"/>
<path d="M19.4323 27.0557C19.0875 27.0516 18.758 26.9128 18.5141 26.6689C18.2703 26.4251 18.1314 26.0955 18.1273 25.7507C18.1256 25.5506 18.1749 25.3535 18.2705 25.1777L21.4536 18.7321C21.5296 18.5803 21.6348 18.4451 21.7632 18.3341C21.8917 18.2231 22.0407 18.1385 22.2019 18.0853C22.3631 18.0321 22.5332 18.0112 22.7025 18.0239C22.8718 18.0365 23.0369 18.0825 23.1883 18.1592C23.496 18.3158 23.729 18.588 23.8364 18.9162C23.9437 19.2443 23.9167 19.6016 23.7613 19.9098L20.5782 26.2759C20.4767 26.4982 20.3163 26.6884 20.1142 26.8259C19.9122 26.9634 19.6764 27.0429 19.4323 27.0557Z" fill="#E91F72"/>
<path d="M28.4881 24.4775H19.4324C19.0862 24.4775 18.7543 24.34 18.5096 24.0952C18.2648 23.8505 18.1273 23.5185 18.1273 23.1724C18.1315 22.8291 18.2708 22.5012 18.5151 22.2599C18.7594 22.0186 19.089 21.8833 19.4324 21.8833H28.4881C28.8314 21.8833 29.161 22.0186 29.4053 22.2599C29.6496 22.5012 29.7889 22.8291 29.7931 23.1724C29.7931 23.3438 29.7593 23.5135 29.6938 23.6718C29.6282 23.8302 29.532 23.974 29.4109 24.0952C29.2897 24.2164 29.1458 24.3125 28.9875 24.3781C28.8291 24.4437 28.6594 24.4775 28.4881 24.4775Z" fill="#E91F72"/>
</svg>
