<svg width="36" height="34" viewBox="0 0 36 34" fill="none" xmlns="http://www.w3.org/2000/svg">
<path d="M17.8826 0.55702C16.6121 0.554443 15.3694 0.928831 14.3117 1.6328C13.2541 2.33677 12.429 3.33869 11.941 4.51172C11.453 5.68476 11.324 6.97619 11.5703 8.22258C11.8166 9.46897 12.4271 10.6143 13.3246 11.5136C14.2221 12.4129 15.3662 13.0257 16.6121 13.2745C17.8581 13.5233 19.1498 13.3969 20.3239 12.9113C21.4979 12.4257 22.5015 11.6028 23.2077 10.5466C23.9138 9.49037 24.2907 8.24845 24.2907 6.97796C24.2908 5.27728 23.616 3.64606 22.4146 2.44228C21.2133 1.2385 19.5834 0.56047 17.8826 0.55702ZM17.8826 11.2759C17.0289 11.2785 16.1936 11.0275 15.4826 10.5548C14.7717 10.0821 14.2171 9.40894 13.8892 8.62068C13.5612 7.83242 13.4748 6.96457 13.6407 6.1271C13.8066 5.28964 14.2175 4.52029 14.8212 3.9166C15.4249 3.31291 16.1943 2.90205 17.0318 2.73613C17.8693 2.5702 18.7372 2.65668 19.5254 2.98458C20.3137 3.31248 20.9869 3.86705 21.4596 4.57798C21.9324 5.28891 22.1833 6.12422 22.1808 6.97796C22.1773 8.11679 21.7234 9.208 20.9181 10.0133C20.1128 10.8186 19.0215 11.2725 17.8826 11.2759Z" fill="#E91F72"/>
<path d="M6.42101 20.6012C5.14937 20.6012 3.90638 20.9788 2.8496 21.6861C1.79282 22.3934 0.969847 23.3985 0.485017 24.574C0.000186008 25.7496 -0.124671 27.0426 0.126273 28.2892C0.377217 29.5358 0.992662 30.6798 1.89459 31.5762C2.79651 32.4726 3.9443 33.081 5.19244 33.3243C6.44058 33.5677 7.73286 33.4349 8.90547 32.9429C10.0781 32.451 11.0782 31.6219 11.779 30.5609C12.4799 29.4998 12.8499 28.2546 12.8421 26.983C12.8318 25.2869 12.1508 23.6637 10.9477 22.468C9.7446 21.2723 8.11725 20.6012 6.42101 20.6012ZM6.42101 31.32C5.56779 31.32 4.73376 31.0669 4.02452 30.5926C3.31528 30.1183 2.76272 29.4443 2.4368 28.6558C2.11089 27.8673 2.02628 26.9999 2.19368 26.1633C2.36109 25.3266 2.77298 24.5585 3.37721 23.9561C3.98144 23.3537 4.75083 22.9442 5.58796 22.7793C6.4251 22.6145 7.29233 22.7017 8.07986 23.03C8.86739 23.3583 9.53979 23.9129 10.0119 24.6235C10.4841 25.3342 10.7347 26.1689 10.7322 27.0221C10.7322 27.5876 10.6206 28.1476 10.4037 28.6699C10.1869 29.1922 9.86916 29.6666 9.46867 30.0658C9.06817 30.4651 8.59281 30.7814 8.06983 30.9966C7.54685 31.2119 6.98654 31.3218 6.42101 31.32Z" fill="#E91F72"/>
<path d="M29.6048 20.6012C28.332 20.5961 27.0865 20.9693 26.0263 21.6734C24.9661 22.3775 24.139 23.3809 23.6502 24.556C23.1614 25.731 23.0328 27.0249 23.2808 28.2732C23.5288 29.5215 24.1422 30.668 25.0431 31.567C25.9439 32.466 27.0917 33.077 28.3405 33.3225C29.5894 33.5679 30.883 33.4367 32.0571 32.9455C33.2313 32.4543 34.2329 31.6252 34.9349 30.5636C35.6369 29.502 36.0076 28.2558 35.9999 26.9831C35.9896 25.2914 35.3121 23.6722 34.1146 22.4772C32.9172 21.2822 31.2965 20.6081 29.6048 20.6012ZM29.6048 31.3201C28.7516 31.3201 27.9175 31.0669 27.2083 30.5927C26.499 30.1184 25.9465 29.4443 25.6206 28.6558C25.2947 27.8674 25.21 26.9999 25.3774 26.1633C25.5449 25.3267 25.9567 24.5586 26.561 23.9562C27.1652 23.3538 27.9346 22.9443 28.7717 22.7794C29.6089 22.6145 30.4761 22.7018 31.2636 23.03C32.0512 23.3583 32.7236 23.9129 33.1957 24.6236C33.6678 25.3342 33.9185 26.169 33.9159 27.0221C33.9159 27.5877 33.8043 28.1476 33.5875 28.6699C33.3707 29.1922 33.0529 29.6666 32.6524 30.0659C32.2519 30.4652 31.7766 30.7815 31.2536 30.9967C30.7306 31.2119 30.1703 31.3218 29.6048 31.3201Z" fill="#E91F72"/>
<path d="M14.1576 13.6593C13.912 13.5229 13.6225 13.4888 13.3519 13.5644C13.0813 13.64 12.8513 13.8191 12.7119 14.0631L9.88558 19.0774C9.74918 19.323 9.71507 19.6125 9.79065 19.8831C9.86622 20.1537 10.0454 20.3836 10.2893 20.5231C10.4443 20.6102 10.6195 20.6551 10.7973 20.6533C10.985 20.6546 11.1697 20.6058 11.3322 20.5119C11.4948 20.4181 11.6294 20.2825 11.722 20.1193L14.5484 15.105C14.6182 14.9846 14.6635 14.8515 14.6816 14.7135C14.6997 14.5754 14.6904 14.4352 14.654 14.3008C14.6177 14.1664 14.5552 14.0406 14.47 13.9305C14.3848 13.8204 14.2786 13.7282 14.1576 13.6593Z" fill="#E91F72"/>
<path d="M25.8928 19.0773L23.0925 14.063C22.9556 13.82 22.728 13.6411 22.4595 13.5654C22.191 13.4898 21.9035 13.5235 21.6598 13.6593C21.4159 13.7987 21.2367 14.0286 21.1611 14.2992C21.0856 14.5698 21.1197 14.8593 21.2561 15.105L24.0954 20.1193C24.186 20.2815 24.3183 20.4165 24.4786 20.5104C24.6389 20.6043 24.8214 20.6536 25.0071 20.6533C25.1923 20.6546 25.3746 20.6071 25.5356 20.5156C25.6966 20.4242 25.8307 20.292 25.9244 20.1322C26.0182 19.9725 26.0682 19.791 26.0695 19.6058C26.0708 19.4206 26.0233 19.2384 25.9319 19.0773H25.8928Z" fill="#E91F72"/>
<path d="M20.9825 25.9672H14.9651C14.6853 25.9672 14.417 26.0783 14.2192 26.2762C14.0213 26.474 13.9102 26.7423 13.9102 27.0221C13.9102 27.3019 14.0213 27.5702 14.2192 27.7681C14.417 27.9659 14.6853 28.0771 14.9651 28.0771H20.9825C21.2623 28.0771 21.5307 27.9659 21.7285 27.7681C21.9264 27.5702 22.0375 27.3019 22.0375 27.0221C22.0375 26.7423 21.9264 26.474 21.7285 26.2762C21.5307 26.0783 21.2623 25.9672 20.9825 25.9672Z" fill="#E91F72"/>
<path d="M18.4297 4.07353C18.3182 3.99775 18.1867 3.95694 18.052 3.95632C17.971 3.93416 17.8855 3.93416 17.8045 3.95632L16.7365 4.60752C16.6581 4.65103 16.5935 4.71551 16.5498 4.79374C16.506 4.87196 16.485 4.96082 16.489 5.05034C16.488 5.17731 16.5293 5.30098 16.6062 5.40198C16.637 5.45006 16.6793 5.4896 16.7294 5.51693C16.7795 5.54425 16.8357 5.55846 16.8928 5.55826C16.961 5.57713 17.033 5.57713 17.1012 5.55826L17.3356 5.40198V9.56973C17.3367 9.62964 17.3543 9.68809 17.3865 9.73865C17.4186 9.7892 17.4641 9.8299 17.5179 9.85626C17.6592 9.92738 17.8157 9.96312 17.9738 9.96043C18.1278 9.96312 18.28 9.92732 18.4166 9.85626C18.4739 9.83312 18.5229 9.79353 18.5577 9.74254C18.5925 9.69155 18.6114 9.63144 18.612 9.56973V4.36006C18.6109 4.30015 18.5933 4.2417 18.5612 4.19114C18.529 4.14058 18.4835 4.09989 18.4297 4.07353Z" fill="#E91F72"/>
<path d="M7.97097 28.8064H5.82191V28.7283C5.83469 28.6429 5.8643 28.561 5.90902 28.4872C5.95374 28.4135 6.01267 28.3493 6.0824 28.2985C6.28626 28.1264 6.49931 27.9656 6.7206 27.8166L7.46301 27.2696C7.71526 27.0641 7.93103 26.8175 8.10121 26.5402C8.26848 26.2558 8.35829 25.9324 8.3617 25.6025C8.36886 25.3696 8.32064 25.1384 8.22101 24.9278C8.12138 24.7173 7.97319 24.5334 7.78862 24.3912C7.41518 24.104 6.95727 23.9484 6.48616 23.9484C6.01515 23.9353 5.55439 24.0873 5.1837 24.3782C5.00847 24.5095 4.86732 24.6809 4.77212 24.8781C4.67693 25.0753 4.63048 25.2924 4.63667 25.5113C4.63667 25.9541 4.81901 26.1755 5.19673 26.1755C5.36966 26.1901 5.54172 26.1389 5.67864 26.0322C5.73324 25.9938 5.77815 25.9432 5.8098 25.8845C5.84145 25.8257 5.85897 25.7604 5.86098 25.6936C5.85195 25.6058 5.86244 25.5171 5.89171 25.4337C5.92098 25.3504 5.96831 25.2746 6.0303 25.2118C6.15733 25.1044 6.32 25.0486 6.48616 25.0554C6.57286 25.05 6.65971 25.0635 6.74067 25.095C6.82164 25.1265 6.89478 25.1752 6.95505 25.2378C7.05677 25.3475 7.11268 25.4919 7.11134 25.6415C7.09679 25.868 6.99944 26.0813 6.83783 26.2406C6.64873 26.465 6.42959 26.6623 6.1866 26.8267L5.43117 27.3868C5.19111 27.566 4.98022 27.7812 4.80599 28.0249C4.63804 28.2218 4.54164 28.4697 4.53247 28.7283V29.5879C4.53473 29.6492 4.55427 29.7086 4.58883 29.7593C4.6234 29.81 4.67159 29.8499 4.72784 29.8744C4.83453 29.9499 4.96183 29.9908 5.09253 29.9916H7.97097C8.02829 29.9869 8.08348 29.9677 8.13133 29.9358C8.17919 29.9039 8.21813 29.8604 8.24448 29.8093C8.32525 29.6954 8.36643 29.5581 8.3617 29.4185C8.36453 29.2833 8.3234 29.1507 8.24448 29.0408C8.22702 28.9792 8.19175 28.9241 8.1431 28.8824C8.09444 28.8407 8.03457 28.8142 7.97097 28.8064Z" fill="#E91F72"/>
<path d="M30.79 26.7616C30.998 26.6547 31.1634 26.4801 31.2589 26.2667C31.3772 26.005 31.435 25.7201 31.4283 25.4331C31.4283 24.4433 30.8161 23.9484 29.6048 23.9484C29.0917 23.9031 28.5815 24.0622 28.1851 24.3912C28.044 24.5206 27.9308 24.6774 27.8524 24.8521C27.774 25.0268 27.7321 25.2156 27.7293 25.4071C27.7194 25.4809 27.7247 25.5559 27.7449 25.6275C27.765 25.6992 27.7996 25.766 27.8465 25.8238C28.0199 25.9099 28.2138 25.946 28.4065 25.928C28.5677 25.9459 28.7299 25.9042 28.8624 25.8108C28.9099 25.7685 28.9473 25.7162 28.9721 25.6576C28.9969 25.599 29.0083 25.5357 29.0057 25.4722C28.997 25.41 29.0058 25.3466 29.0311 25.2891C29.0564 25.2316 29.0972 25.1822 29.1489 25.1466C29.2912 25.0794 29.4477 25.0481 29.6048 25.0554C29.6853 25.0424 29.7677 25.0485 29.8454 25.0731C29.9231 25.0978 29.994 25.1403 30.0523 25.1973C30.1105 25.2543 30.1546 25.3242 30.181 25.4014C30.2073 25.4785 30.2152 25.5608 30.2039 25.6415C30.2212 25.7668 30.2212 25.8939 30.2039 26.0192C30.1772 26.1045 30.122 26.1781 30.0476 26.2276C29.9879 26.2684 29.9219 26.2992 29.8523 26.3187H29.6048C29.3704 26.3187 29.2401 26.4881 29.2401 26.8137C29.2401 27.1393 29.3704 27.2956 29.6048 27.2956C29.8102 27.2829 30.0146 27.3328 30.1909 27.4388C30.2641 27.5027 30.3203 27.5837 30.3544 27.6747C30.3885 27.7656 30.3994 27.8636 30.3863 27.9598V28.103C30.4082 28.2051 30.4042 28.3111 30.3746 28.4112C30.3451 28.5113 30.2909 28.6024 30.2171 28.6762C30.1433 28.75 30.0521 28.8042 29.952 28.8338C29.8519 28.8633 29.746 28.8673 29.6439 28.8454C29.162 28.8454 28.9145 28.6892 28.9145 28.3766C28.923 28.3137 28.9155 28.2498 28.8927 28.1906C28.8699 28.1314 28.8327 28.0789 28.7843 28.0379C28.6219 27.9615 28.442 27.93 28.2633 27.9468C28.0972 27.9305 27.93 27.9621 27.7814 28.0379C27.7316 28.0863 27.6938 28.1457 27.6712 28.2113C27.6486 28.2769 27.6417 28.3469 27.6511 28.4156C27.6524 28.6187 27.6973 28.8191 27.7827 29.0033C27.8681 29.1876 27.992 29.3514 28.1461 29.4836C28.5518 29.8256 29.0758 29.994 29.6048 29.9525C30.1359 29.9795 30.6601 29.8232 31.0896 29.5097C31.287 29.338 31.4417 29.1227 31.5412 28.8807C31.6406 28.6388 31.6823 28.3769 31.6627 28.1161V27.9598C31.6751 27.6906 31.5954 27.4253 31.4368 27.2074C31.2782 26.9896 31.0501 26.8323 30.79 26.7616Z" fill="#E91F72"/>
</svg>
