<svg width="38" height="38" viewBox="0 0 38 38" fill="none" xmlns="http://www.w3.org/2000/svg">
<path d="M34.4086 31.6035H29.8701C29.6232 30.7322 29.0987 29.9652 28.3763 29.4191C27.6539 28.8729 26.773 28.5774 25.8674 28.5774C24.9617 28.5774 24.0808 28.8729 23.3584 29.4191C22.636 29.9652 22.1115 30.7322 21.8646 31.6035H2.19768C1.9017 31.6374 1.62853 31.779 1.43022 32.0013C1.23191 32.2236 1.12231 32.5111 1.12231 32.8091C1.12231 33.107 1.23191 33.3945 1.43022 33.6168C1.62853 33.8391 1.9017 33.9807 2.19768 34.0146H21.8016C22.0581 34.877 22.5864 35.6335 23.3076 36.1714C24.0289 36.7094 24.9046 37 25.8043 37C26.7041 37 27.5798 36.7094 28.301 36.1714C29.0223 35.6335 29.5505 34.877 29.807 34.0146H34.3929C34.5627 34.0341 34.7348 34.0174 34.8978 33.9657C35.0608 33.914 35.211 33.8284 35.3386 33.7146C35.4663 33.6007 35.5684 33.4612 35.6383 33.3052C35.7082 33.1491 35.7443 32.9801 35.7443 32.8091C35.7443 32.6381 35.7082 32.469 35.6383 32.3129C35.5684 32.1569 35.4663 32.0174 35.3386 31.9035C35.211 31.7897 35.0608 31.7041 34.8978 31.6524C34.7348 31.6007 34.5627 31.5841 34.3929 31.6035H34.4086ZM25.8043 34.6134C25.4446 34.6166 25.092 34.5125 24.7916 34.3146C24.4912 34.1167 24.2565 33.8338 24.1173 33.502C23.9782 33.1702 23.941 32.8045 24.0104 32.4515C24.0799 32.0985 24.2528 31.7742 24.5072 31.5198C24.7616 31.2654 25.0859 31.0925 25.4389 31.023C25.7919 30.9536 26.1576 30.9908 26.4894 31.13C26.8212 31.2691 27.104 31.5038 27.302 31.8042C27.4999 32.1046 27.6039 32.4572 27.6008 32.8169C27.6008 33.2934 27.4115 33.7503 27.0746 34.0873C26.7377 34.4242 26.2808 34.6134 25.8043 34.6134Z" fill="#E91F72" stroke="#E91F72" stroke-width="0.5" stroke-miterlimit="10"/>
<path d="M33.2424 1H4.76635C3.766 1.00417 2.80805 1.40447 2.10218 2.1133C1.3963 2.82214 0.999991 3.78176 1 4.78211V23.6926C1 24.6915 1.39681 25.6495 2.10314 26.3558C2.80946 27.0622 3.76745 27.459 4.76635 27.459H33.2424C34.2413 27.459 35.1993 27.0622 35.9057 26.3558C36.612 25.6495 37.0088 24.6915 37.0088 23.6926V4.78211C37.0088 3.78176 36.6125 2.82214 35.9066 2.1133C35.2007 1.40447 34.2428 1.00417 33.2424 1ZM34.5977 23.6454C34.5977 24.0048 34.4549 24.3495 34.2008 24.6037C33.9466 24.8578 33.6019 25.0006 33.2424 25.0006H4.76635C4.58705 25.0027 4.40912 24.9692 4.24287 24.902C4.07662 24.8348 3.92535 24.7353 3.79783 24.6093C3.67031 24.4832 3.56907 24.3331 3.49998 24.1677C3.43089 24.0022 3.39532 23.8247 3.39533 23.6454V4.73483C3.39533 4.37122 3.53978 4.02249 3.79689 3.76537C4.05401 3.50826 4.40273 3.36382 4.76635 3.36382H33.2424C33.6033 3.36796 33.948 3.51424 34.2017 3.7709C34.4554 4.02757 34.5977 4.37393 34.5977 4.73483V23.6454Z" fill="#E91F72" stroke="#E91F72" stroke-width="0.5" stroke-miterlimit="10"/>
<path d="M25.631 13.1972L16.0339 7.19315C15.9005 7.10901 15.7518 7.05203 15.5964 7.02549C15.4409 6.99896 15.2817 7.0034 15.128 7.03854C14.9742 7.07368 14.829 7.13883 14.7005 7.23027C14.572 7.32171 14.4628 7.43762 14.3792 7.57136C14.267 7.76258 14.2072 7.98001 14.2059 8.20171V20.2099C14.2059 20.5275 14.3321 20.8322 14.5567 21.0568C14.7813 21.2814 15.0859 21.4076 15.4035 21.4076C15.6277 21.4082 15.8471 21.3424 16.0339 21.2185L25.631 15.2301C25.8827 15.065 26.0629 14.8112 26.136 14.5192C26.209 14.2272 26.1693 13.9184 26.0249 13.6542C25.9269 13.4934 25.7918 13.3583 25.631 13.2603V13.1972ZM16.6012 18.0509V10.3607L22.7314 14.2058L16.6012 18.0509Z" fill="#E91F72" stroke="#E91F72" stroke-width="0.5" stroke-miterlimit="10"/>
</svg>
