<svg width="74" height="70" viewBox="0 0 74 70" fill="none" xmlns="http://www.w3.org/2000/svg">
<g clip-path="url(#clip0_5_6994)">
<path d="M48.1258 23.5762H43.4766V28.2254H48.1258V23.5762Z" fill="white"/>
<path d="M39.7536 23.5762H35.1045V28.2254H39.7536V23.5762Z" fill="white"/>
<path d="M39.7536 31.9875H35.1045V36.6367H39.7536V31.9875Z" fill="white"/>
<path d="M14.6472 40.3916H9.99805V45.0407H14.6472V40.3916Z" fill="white"/>
<path d="M14.6472 31.9875H9.99805V36.6367H14.6472V31.9875Z" fill="white"/>
<path d="M14.6472 23.5762H9.99805V28.2254H14.6472V23.5762Z" fill="white"/>
<path d="M23.0183 40.3916H18.3691V45.0407H23.0183V40.3916Z" fill="white"/>
<path d="M23.0183 31.9875H18.3691V36.6367H23.0183V31.9875Z" fill="white"/>
<path d="M23.0183 23.5762H18.3691V28.2254H23.0183V23.5762Z" fill="white"/>
<path d="M31.3825 40.3917H26.7334V45.0409H31.3825V40.3917Z" fill="white"/>
<path d="M31.3825 31.9875H26.7334V36.6368H31.3825V31.9875Z" fill="white"/>
<path d="M31.3825 23.5762H26.7334V28.2254H31.3825V23.5762Z" fill="white"/>
<path d="M14.6472 23.5762H9.99805V28.2254H14.6472V23.5762Z" fill="white"/>
<path d="M14.6472 31.9875H9.99805V36.6367H14.6472V31.9875Z" fill="white"/>
<path d="M14.6472 40.3916H9.99805V45.0407H14.6472V40.3916Z" fill="white"/>
<path d="M23.0183 23.5762H18.3691V28.2254H23.0183V23.5762Z" fill="white"/>
<path d="M23.0183 31.9875H18.3691V36.6367H23.0183V31.9875Z" fill="white"/>
<path d="M23.0183 40.3916H18.3691V45.0407H23.0183V40.3916Z" fill="white"/>
<path d="M31.3825 23.5762H26.7334V28.2254H31.3825V23.5762Z" fill="white"/>
<path d="M31.3825 31.9875H26.7334V36.6368H31.3825V31.9875Z" fill="white"/>
<path d="M31.3825 40.3917H26.7334V45.0409H31.3825V40.3917Z" fill="white"/>
<path d="M39.7536 23.5762H35.1045V28.2254H39.7536V23.5762Z" fill="white"/>
<path d="M39.7536 31.9875H35.1045V36.6367H39.7536V31.9875Z" fill="white"/>
<path d="M48.1258 23.5762H43.4766V28.2254H48.1258V23.5762Z" fill="white"/>
<path d="M13.0262 12.2987C13.3319 12.2978 13.6345 12.2367 13.9166 12.1188C14.1987 12.0009 14.4548 11.8287 14.6703 11.6119C14.8858 11.395 15.0565 11.1378 15.1727 10.855C15.2888 10.5722 15.3481 10.2693 15.3472 9.96354V2.32105C15.3453 1.70605 15.1002 1.11676 14.6653 0.681883C14.2304 0.247005 13.6411 0.0018665 13.0262 0C12.4105 0 11.8202 0.244541 11.3849 0.679821C10.9496 1.11511 10.7051 1.70547 10.7051 2.32105V9.96354C10.7041 10.2693 10.7634 10.5722 10.8796 10.855C10.9957 11.1378 11.1665 11.395 11.382 11.6119C11.5975 11.8287 11.8537 12.0009 12.1358 12.1188C12.4179 12.2367 12.7204 12.2978 13.0262 12.2987Z" fill="white"/>
<path d="M36.3077 50.2983H8.70986C7.64758 50.2983 6.62882 49.8763 5.87772 49.1252C5.1266 48.3741 4.70462 47.3553 4.70462 46.293V18.3131H53.383V32.4658C54.0879 32.388 54.7967 32.3502 55.5059 32.3526C56.36 32.3532 57.2132 32.4076 58.0605 32.5153V7.23144C58.0605 7.04378 57.9859 6.86375 57.8532 6.73107C57.7205 6.59839 57.5405 6.5238 57.3529 6.5238H48.9532V10.2743C48.9532 11.2971 48.5469 12.2781 47.8236 13.0013C47.1003 13.7246 46.1194 14.1309 45.0966 14.1309C44.0737 14.1309 43.0928 13.7246 42.3696 13.0013C41.6463 12.2781 41.2399 11.2971 41.2399 10.2743V6.5238H16.8689V10.2743C16.8689 11.2971 16.4626 12.2781 15.7393 13.0013C15.0161 13.7246 14.0351 14.1309 13.0123 14.1309C11.9894 14.1309 11.0085 13.7246 10.2852 13.0013C9.56195 12.2781 9.15563 11.2971 9.15563 10.2743V6.5238H0.763075C0.581597 6.5329 0.410571 6.61143 0.285422 6.74316C0.160273 6.87489 0.0905936 7.04976 0.0908209 7.23144V48.7839C0.0908209 50.1971 0.652213 51.5524 1.6515 52.5517C2.65079 53.551 4.00612 54.1124 5.41933 54.1124H36.4351C36.3215 53.2633 36.2647 52.4075 36.2652 51.5508C36.2652 51.1356 36.2794 50.7181 36.3077 50.2983Z" fill="white"/>
<path d="M45.0961 12.2987C45.4019 12.2978 45.7044 12.2367 45.9865 12.1188C46.2686 12.0009 46.5248 11.8287 46.7403 11.6119C46.9559 11.395 47.1266 11.1378 47.2427 10.855C47.3589 10.5722 47.4182 10.2693 47.4172 9.96354V2.32105C47.4154 1.70605 47.1702 1.11676 46.7353 0.681883C46.3005 0.247005 45.7112 0.0018665 45.0961 0C44.4799 -2.84654e-06 43.8888 0.244311 43.4524 0.679388C43.016 1.11447 42.7699 1.70482 42.7681 2.32105V9.96354C42.768 10.5816 43.0131 11.1745 43.4495 11.6123C43.8859 12.05 44.478 12.2969 45.0961 12.2987Z" fill="white"/>
<path d="M58.9364 66.019C66.9312 64.1131 71.8669 56.0866 69.961 48.0918C68.0551 40.0969 60.0286 35.1611 52.0338 37.0672C44.039 38.9733 39.1031 46.9996 41.0092 54.9944C42.9154 62.9892 50.9417 67.9249 58.9364 66.019Z" fill="white"/>
<path d="M66.2894 56.3911C66.2908 56.7146 66.2182 57.0341 66.0771 57.3252C65.9545 57.5816 65.7824 57.8114 65.5708 58.0011C65.3591 58.191 65.1121 58.337 64.8438 58.4311C64.5755 58.5251 64.2913 58.5652 64.0075 58.549C63.7237 58.5329 63.4458 58.4609 63.19 58.3371L53 53.4673V43.1653C53 42.5911 53.2281 42.0403 53.6342 41.6342C54.0403 41.2281 54.5911 41 55.1654 41C55.7397 41 56.2904 41.2281 56.6965 41.6342C57.1026 42.0403 57.3308 42.5911 57.3308 43.1653V50.73L65.0652 54.4593C65.4298 54.6343 65.7378 54.9082 65.9543 55.2497C66.1707 55.5912 66.2868 55.9867 66.2894 56.3911Z" fill="#FB705C"/>
</g>
<defs>
<clipPath id="clip0_5_6994">
<rect width="73.8182" height="70" fill="white" transform="translate(0.0908203)"/>
</clipPath>
</defs>
</svg>
