<svg width="56" height="70" viewBox="0 0 56 70" fill="none" xmlns="http://www.w3.org/2000/svg">
<g clip-path="url(#clip0_5_6970)">
<path d="M25.6409 0C26.4337 0.207944 27.1838 0.55359 27.8569 1.02117C28.7441 1.72475 29.3741 2.70153 29.6492 3.79987C29.6689 3.9848 29.7255 4.16389 29.8156 4.32654C29.9058 4.48918 30.0277 4.63208 30.1741 4.74675C30.3205 4.86141 30.4884 4.94552 30.6679 4.99408C30.8475 5.04264 31.0349 5.05467 31.2192 5.02945C32.5738 5.02945 33.9353 5.02945 35.2969 5.02945C35.7345 5.02945 35.8527 5.16143 35.8457 5.57825C35.8457 8.06516 35.8457 10.5498 35.8457 13.0321C35.8457 13.4489 35.7276 13.5948 35.2969 13.5948C28.2529 13.5948 21.2089 13.5948 14.1648 13.5948C13.7272 13.5948 13.623 13.435 13.623 13.0252C13.623 10.5452 13.623 8.05822 13.623 5.57129C13.623 5.14059 13.762 5.0225 14.1788 5.02945C15.5195 5.02945 16.8602 5.02945 18.2009 5.02945C18.5397 5.06955 18.8808 4.97693 19.1528 4.77101C19.4248 4.56508 19.6065 4.26186 19.6597 3.92491C19.8606 2.97796 20.336 2.11119 21.0267 1.4329C21.7174 0.754612 22.5925 0.294881 23.543 0.111148C23.6012 0.0852929 23.6533 0.0474139 23.6958 0H25.6409Z" fill="#FB705C"/>
<path d="M49.4817 38.1573C49.4817 46.197 49.4817 54.2344 49.4817 62.2696C49.5462 63.1954 49.2748 64.114 48.7173 64.8566C48.1598 65.5992 47.3535 66.116 46.446 66.3126C46.1484 66.3698 45.8458 66.3954 45.5429 66.3887H3.93186C3.4224 66.4002 2.91583 66.3095 2.44153 66.1233C1.96722 65.937 1.53463 65.6588 1.16885 65.304C0.803076 64.9491 0.511407 64.5248 0.310757 64.0567C0.110109 63.5881 0.00447906 63.0847 0 62.5752V13.9479C0 11.9472 1.0559 10.5579 2.86901 10.1758C3.07869 10.1283 3.29312 10.105 3.50811 10.1063C5.84222 10.1063 8.1763 10.1063 10.5104 10.1063C10.9828 10.1063 11.1495 10.2105 11.1287 10.7107C11.1287 11.9194 11.1287 13.1282 11.1287 14.3369C11.1287 15.7263 11.5247 16.0805 12.8376 16.0805H36.6788C37.8598 16.0805 38.3461 15.6012 38.36 14.3994C38.3739 13.1976 38.36 12.107 38.36 10.926C38.36 9.97433 38.2488 10.0855 39.1727 10.0855H45.7235C46.2212 10.0544 46.7199 10.129 47.1868 10.3043C47.6537 10.4796 48.0782 10.7516 48.4324 11.1027C48.7867 11.4536 49.0628 11.8756 49.2424 12.3408C49.422 12.806 49.5012 13.304 49.4748 13.802C49.4748 15.8165 49.4748 17.8242 49.4748 19.8318L49.4817 38.1573Z" fill="white"/>
<path d="M6.89778 24.4794C6.65455 24.4615 6.41174 24.5185 6.20186 24.6427C5.99202 24.7669 5.82517 24.9523 5.72375 25.174C5.60246 25.4071 5.55992 25.6732 5.6025 25.9323C5.64508 26.1916 5.77049 26.4301 5.95995 26.612C7.11308 27.8069 8.26625 29.0017 9.4333 30.1688C9.53428 30.2923 9.6615 30.3918 9.80564 30.4602C9.94984 30.5285 10.1074 30.564 10.2669 30.564C10.4265 30.564 10.584 30.5285 10.7282 30.4602C10.8724 30.3918 10.9995 30.2923 11.1005 30.1688C13.3003 28.1264 15.4909 26.0771 17.6722 24.0209C17.8584 23.8689 17.9945 23.6643 18.0627 23.4338C18.1309 23.2033 18.1279 22.9576 18.0543 22.7288C17.9941 22.5142 17.8776 22.3196 17.7169 22.1652C17.5563 22.0107 17.3572 21.902 17.1405 21.8503C16.9237 21.7986 16.6971 21.8057 16.4839 21.8711C16.2709 21.9363 16.0791 22.0574 15.9285 22.2217C14.2057 23.8194 12.4552 25.4241 10.7949 27.0844C10.392 27.4734 10.1905 27.4317 9.85014 27.0358C9.21795 26.2994 8.53024 25.6117 7.87029 24.9032C7.75044 24.764 7.60076 24.6537 7.4324 24.5803C7.26403 24.5069 7.0813 24.4724 6.89778 24.4794Z" fill="#FB705C"/>
<path d="M10.2466 57.8521C10.4193 57.8516 10.5902 57.8163 10.7489 57.7482C10.9077 57.6802 11.0511 57.5809 11.1706 57.4562C13.3101 55.4486 15.4567 53.4479 17.5963 51.4334C17.7416 51.3264 17.8624 51.1896 17.9505 51.0321C18.0386 50.8746 18.0919 50.7001 18.107 50.5203C18.122 50.3405 18.0983 50.1595 18.0376 49.9895C17.9769 49.8197 17.8805 49.6647 17.7549 49.5351C17.6294 49.4055 17.4775 49.3043 17.3096 49.2383C17.1416 49.1723 16.9615 49.143 16.7813 49.1523C16.6011 49.1618 16.425 49.2096 16.2648 49.2927C16.1047 49.3758 15.9641 49.4922 15.8526 49.6341C14.1993 51.1833 12.5321 52.7185 10.9135 54.3023C10.4272 54.7817 10.1702 54.7192 9.77428 54.2398C9.17684 53.5452 8.52383 52.8505 7.87776 52.2044C7.76613 52.0693 7.62802 51.9585 7.47188 51.8788C7.31582 51.799 7.14508 51.752 6.97014 51.7407C6.7952 51.7294 6.61983 51.754 6.45475 51.813C6.28974 51.8719 6.13848 51.964 6.01032 52.0836C5.88218 52.2032 5.77985 52.3478 5.70964 52.5084C5.63944 52.669 5.60282 52.8423 5.60206 53.0176C5.6013 53.1929 5.6364 53.3665 5.70521 53.5276C5.77401 53.6889 5.87508 53.8343 6.00217 53.955C7.10673 55.1082 8.23208 56.2474 9.3505 57.3867C9.57712 57.6527 9.89869 57.8197 10.2466 57.8521Z" fill="#FB705C"/>
<path d="M6.9121 38.1036C6.66723 38.0868 6.42302 38.1441 6.21113 38.2679C5.99929 38.3919 5.82961 38.5767 5.72421 38.7983C5.60163 39.0197 5.55432 39.2748 5.5894 39.5254C5.62448 39.776 5.74006 40.0084 5.91871 40.1876C7.09964 41.4172 8.28757 42.6468 9.50326 43.8347C9.59907 43.9487 9.71874 44.0403 9.85375 44.1031C9.98869 44.166 10.1358 44.1986 10.2848 44.1986C10.4337 44.1986 10.5808 44.166 10.7158 44.1031C10.8508 44.0403 10.9704 43.9487 11.0663 43.8347C13.3031 41.7738 15.5237 39.6898 17.7282 37.5826C17.8534 37.4693 17.9534 37.331 18.0219 37.1767C18.0904 37.0223 18.1257 36.8553 18.1257 36.6865C18.1257 36.5176 18.0904 36.3507 18.0219 36.1963C17.9534 36.0419 17.8534 35.9036 17.7282 35.7904C17.6029 35.6711 17.4547 35.5787 17.2925 35.5184C17.1304 35.4581 16.9577 35.4314 16.785 35.4399C16.6122 35.4483 16.4429 35.4917 16.2875 35.5675C16.132 35.6433 15.9935 35.7498 15.8804 35.8806C14.1923 37.4576 12.4973 39.0206 10.844 40.6322C10.3994 41.0699 10.1493 41.0004 9.80195 40.5767C9.1837 39.882 8.50987 39.1873 7.8638 38.4926C7.74352 38.3618 7.59585 38.2591 7.43138 38.1919C7.26685 38.1247 7.0896 38.0945 6.9121 38.1036Z" fill="#FB705C"/>
<path d="M41.1874 33.9747C40.8142 33.5912 40.6028 33.0788 40.597 32.5436V19.4421H25.3141C24.8879 19.4402 24.4632 19.4916 24.0498 19.5949H24.0081H23.9039C23.6505 19.6663 23.4022 19.7545 23.1606 19.8589C22.2134 20.2732 21.4063 20.9528 20.8368 21.8157C20.2673 22.6785 19.9598 23.6878 19.9512 24.7216V24.7911V64.0957C19.9531 65.517 20.5189 66.8792 21.5244 67.8836C22.53 68.8879 23.893 69.4516 25.3141 69.4516H50.3224C50.7221 69.4534 51.1207 69.409 51.5103 69.3195C51.8242 69.2477 52.1311 69.1479 52.4273 69.0212C53.0573 68.7558 53.6287 68.3687 54.1084 67.8818C54.9551 67.0387 55.4935 65.9352 55.6367 64.7488C55.6644 64.5321 55.6783 64.3142 55.6784 64.0957V34.5652H42.6185C42.0833 34.5594 41.5709 34.3479 41.1874 33.9747Z" fill="#FB705C"/>
<path d="M40.5972 32.5436C40.5963 32.8093 40.6479 33.0726 40.7492 33.3183C40.8505 33.564 40.9993 33.7872 41.1873 33.9751C41.3752 34.163 41.5984 34.3118 41.844 34.4131C42.0897 34.5144 42.353 34.566 42.6187 34.5651H55.7203L40.5972 19.442V32.5436Z" fill="#FB705C"/>
<path d="M27.4327 39.1785H47.6825C48.2352 39.1785 48.7653 39.3981 49.1561 39.7889C49.5469 40.1797 49.7665 40.7098 49.7665 41.2625C49.7665 41.8152 49.5469 42.3453 49.1561 42.7362C48.7653 43.127 48.2352 43.3466 47.6825 43.3466H27.4327C26.88 43.3466 26.3499 43.127 25.959 42.7362C25.5682 42.3453 25.3486 41.8152 25.3486 41.2625C25.3486 40.7098 25.5682 40.1797 25.959 39.7889C26.3499 39.3981 26.88 39.1785 27.4327 39.1785Z" fill="white"/>
<path d="M27.4327 48.959H47.6825C48.2352 48.959 48.7653 49.1785 49.1561 49.5694C49.5469 49.9602 49.7665 50.4903 49.7665 51.043C49.7665 51.5957 49.5469 52.1258 49.1561 52.5166C48.7653 52.9075 48.2352 53.127 47.6825 53.127H27.4327C26.88 53.127 26.3499 52.9075 25.959 52.5166C25.5682 52.1258 25.3486 51.5957 25.3486 51.043C25.3486 50.4903 25.5682 49.9602 25.959 49.5694C26.3499 49.1785 26.88 48.959 27.4327 48.959Z" fill="white"/>
<path d="M27.4327 58.7489H47.6825C48.2352 58.7489 48.7653 58.9685 49.1561 59.3593C49.5469 59.7501 49.7665 60.2802 49.7665 60.833C49.7665 61.3857 49.5469 61.9159 49.1561 62.3067C48.7653 62.6975 48.2352 62.9172 47.6825 62.9172H27.4327C26.88 62.9172 26.3499 62.6975 25.959 62.3067C25.5682 61.9159 25.3486 61.3857 25.3486 60.833C25.3486 60.2802 25.5682 59.7501 25.959 59.3593C26.3499 58.9685 26.88 58.7489 27.4327 58.7489Z" fill="white"/>
</g>
<defs>
<clipPath id="clip0_5_6970">
<rect width="56" height="70" fill="white"/>
</clipPath>
</defs>
</svg>
