<svg width="96" height="70" viewBox="0 0 96 70" fill="none" xmlns="http://www.w3.org/2000/svg">
<g clip-path="url(#clip0_5_6952)">
<path d="M40.5779 0H6.27804C4.77799 0 3.33937 0.595896 2.27866 1.65659C1.21796 2.7173 0.62207 4.15592 0.62207 5.65597V30.7438C0.62207 32.2439 1.21796 33.6825 2.27866 34.7432C3.33937 35.8039 4.77799 36.3998 6.27804 36.3998H40.5779C42.0785 36.3998 43.5179 35.8041 44.5797 34.7436C45.6415 33.6831 46.2389 32.2446 46.2408 30.7438V5.65597C46.2389 4.15527 45.6415 2.71667 44.5797 1.65617C43.5179 0.595668 42.0785 -1.14648e-06 40.5779 0Z" fill="#FB705C"/>
<path d="M31.4073 16.7452L19.6473 9.92725C19.3889 9.78084 19.0972 9.70367 18.8003 9.70325C18.505 9.70589 18.2154 9.78537 17.9601 9.93382C17.7048 10.0824 17.4925 10.2948 17.3443 10.5502C17.1938 10.8069 17.1163 11.0997 17.1203 11.3972V25.0472C17.1174 25.3445 17.1948 25.6371 17.3443 25.8942C17.4925 26.1496 17.7048 26.3621 17.9601 26.5105C18.2154 26.659 18.505 26.7385 18.8003 26.7412C19.0972 26.7407 19.3889 26.6636 19.6473 26.5172L31.4073 19.6922C31.6723 19.5496 31.8928 19.3364 32.0443 19.0762C32.1592 18.8829 32.234 18.6683 32.2642 18.4454C32.2944 18.2224 32.2793 17.9958 32.2198 17.7788C32.1604 17.5619 32.0577 17.3591 31.9181 17.1827C31.7785 17.0063 31.6047 16.8599 31.4073 16.7522V16.7452Z" fill="white"/>
<path d="M90.0541 30.3312H54.3122C53.6927 30.3312 53.0791 30.4532 52.5068 30.6903C51.9343 30.9274 51.4142 31.2749 50.9761 31.713C50.538 32.1511 50.1904 32.6712 49.9534 33.2436C49.7162 33.8161 49.5942 34.4295 49.5942 35.0491V65.2749C49.5942 66.5269 50.0911 67.7276 50.9756 68.6136C51.8603 69.4994 53.0603 69.998 54.3122 69.9999H90.0541C91.3055 69.998 92.5058 69.4994 93.3902 68.6136C94.2754 67.7276 94.7722 66.5269 94.7722 65.2749V35.0491C94.7722 33.7978 94.2746 32.5978 93.3902 31.713C92.5049 30.8282 91.3055 30.3312 90.0541 30.3312Z" fill="#FB705C"/>
<path d="M94.7713 43.4412V65.2601C94.7721 65.8821 94.65 66.4981 94.4127 67.0731C94.1754 67.6479 93.8271 68.1705 93.3875 68.6106C92.9478 69.0507 92.4263 69.3999 91.8518 69.6382C91.2772 69.8764 90.6609 69.999 90.0394 69.999H54.3394C53.7174 69.999 53.1015 69.8764 52.5269 69.6382C51.9523 69.3999 51.4304 69.0507 50.991 68.6106C50.5514 68.1705 50.203 67.6479 49.9656 67.0731C49.7282 66.4981 49.6065 65.8821 49.6074 65.2601V60.8501L67.4223 50.1611C67.6812 50.0074 67.9807 49.9364 68.281 49.9577C68.5812 49.979 68.8678 50.0914 69.1023 50.2801L77.9223 57.6301C78.0178 57.7177 78.1427 57.7662 78.2723 57.7662C78.4018 57.7662 78.5267 57.7177 78.6223 57.6301L94.7713 43.4412Z" fill="white"/>
<path d="M78.2018 49.6792C79.4328 49.6807 80.6366 49.3168 81.6609 48.6339C82.6853 47.9509 83.4839 46.9795 83.956 45.8425C84.4281 44.7055 84.5524 43.4542 84.313 42.2465C84.0737 41.0389 83.4815 39.9294 82.6116 39.0584C81.7415 38.1874 80.6327 37.594 79.4254 37.3534C78.2181 37.1127 76.9664 37.2355 75.8289 37.7063C74.6914 38.1771 73.7191 38.9747 73.0351 39.9982C72.3509 41.0217 71.9858 42.2251 71.9858 43.4563C71.9858 45.1055 72.6405 46.6873 73.806 47.8541C74.9715 49.0209 76.5526 49.6774 78.2018 49.6792Z" fill="white"/>
<path d="M64.5669 5.03244L66.7999 9.60343C66.8783 9.76546 66.9962 9.90503 67.1429 10.0094C67.2851 10.1196 67.4543 10.1897 67.6328 10.2124L72.6238 10.9124C72.8294 10.9388 73.022 11.0267 73.1768 11.1644C73.3387 11.2975 73.4579 11.4752 73.5198 11.6754C73.576 11.8769 73.576 12.0899 73.5198 12.2914C73.4704 12.4931 73.3662 12.6772 73.2188 12.8234L69.6068 16.3793C69.4786 16.5065 69.3826 16.6626 69.3268 16.8343C69.2815 17.0088 69.2815 17.1919 69.3268 17.3663L70.1738 22.3853C70.2098 22.5902 70.188 22.8012 70.1108 22.9943C70.0365 23.1891 69.9081 23.3583 69.7406 23.4824C69.5732 23.6064 69.3738 23.68 69.1658 23.6943C68.9602 23.7141 68.7531 23.6727 68.5708 23.5753L64.1119 21.2093C63.9531 21.1224 63.7749 21.0768 63.5939 21.0768C63.4128 21.0768 63.2347 21.1224 63.0759 21.2093L58.6169 23.5753C58.4345 23.6727 58.2276 23.7141 58.0219 23.6943C57.8141 23.682 57.6146 23.609 57.4479 23.4843C57.2815 23.3604 57.1528 23.1927 57.0762 22.9998C56.9995 22.8071 56.9779 22.5967 57.0139 22.3923L57.8609 17.3733C57.8949 17.196 57.8828 17.0128 57.8259 16.8413C57.7701 16.6696 57.6741 16.5135 57.5459 16.3863L53.9339 12.8304C53.7865 12.6842 53.6823 12.5001 53.6329 12.2984C53.5768 12.0969 53.5768 11.8839 53.6329 11.6824C53.6948 11.4822 53.814 11.3045 53.9759 11.1714C54.1307 11.0337 54.3234 10.9458 54.5289 10.9194L59.5199 10.2194C59.6984 10.1967 59.8676 10.1266 60.0099 10.0164C60.1565 9.91203 60.2745 9.77237 60.3529 9.61043L62.5859 5.03943C62.6786 4.85828 62.8189 4.70582 62.9919 4.59844C63.1673 4.4929 63.3682 4.43713 63.5729 4.43713C63.7776 4.43713 63.9785 4.4929 64.1539 4.59844C64.33 4.70087 64.4732 4.85143 64.5669 5.03244Z" fill="white"/>
</g>
<defs>
<clipPath id="clip0_5_6952">
<rect width="94.7561" height="70" fill="white" transform="translate(0.62207)"/>
</clipPath>
</defs>
</svg>
