<svg width="106" height="70" viewBox="0 0 106 70" fill="none" xmlns="http://www.w3.org/2000/svg">
<g clip-path="url(#clip0_5_6961)">
<path d="M38.2577 28.762C39.6874 28.762 41.0587 29.3285 42.0715 30.3373C43.0844 31.3462 43.6562 32.7154 43.6617 34.145V68.6338C43.6604 68.9008 43.58 69.1614 43.4307 69.3828C43.3208 69.5534 43.1737 69.697 43.0004 69.8028C42.8271 69.9085 42.632 69.9735 42.4299 69.9931C42.2278 70.0126 42.024 69.9862 41.8336 69.9156C41.6432 69.8451 41.4713 69.7322 41.3307 69.5858L33.6308 61.8858C33.3806 61.6364 33.0835 61.4388 32.7568 61.3042C32.4301 61.1697 32.0801 61.1009 31.7268 61.1018H5.89697C4.46617 61.0999 3.0945 60.5307 2.08278 59.519C1.07106 58.5073 0.501852 57.1356 0.5 55.7049V34.145C0.501852 32.7142 1.07106 31.3426 2.08278 30.3308C3.0945 29.3191 4.46617 28.7499 5.89697 28.748L38.2577 28.762Z" fill="#FB705C"/>
<path d="M57.1931 1.66878e-06C55.3854 0.00025352 53.6504 0.711852 52.3632 1.98099C51.7312 2.60802 51.2296 3.35389 50.8872 4.17563C50.5448 4.99737 50.3684 5.87874 50.3682 6.76895V50.0847C50.3679 50.4207 50.4676 50.7493 50.6546 51.0284C50.8416 51.3076 51.1073 51.5249 51.4182 51.6526C51.7308 51.7803 52.0744 51.812 52.4052 51.7436C52.7368 51.6818 53.042 51.5207 53.2802 51.2816L63.0311 41.6217C63.3485 41.3054 63.7252 41.0549 64.1396 40.8843C64.5539 40.7137 64.9979 40.6265 65.4461 40.6277H98.1914C99.9995 40.629 101.736 39.9172 103.021 38.6467C103.655 38.02 104.157 37.2744 104.501 36.4527C104.844 35.631 105.022 34.7495 105.024 33.8588V6.76895C105.022 5.8783 104.844 4.99676 104.501 4.17504C104.157 3.35333 103.655 2.60767 103.021 1.98099C101.736 0.710566 99.9995 -0.00125791 98.1914 1.66878e-06H57.1931Z" fill="white"/>
<path d="M10.062 42.1904C10.6311 42.1904 11.1873 42.3592 11.6604 42.6753C12.1335 42.9914 12.5023 43.4407 12.72 43.9664C12.9378 44.4921 12.9948 45.0706 12.8838 45.6286C12.7727 46.1867 12.4987 46.6993 12.0964 47.1018C11.6941 47.5041 11.1814 47.7781 10.6233 47.8891C10.0653 48.0001 9.48677 47.9431 8.96107 47.7254C8.43537 47.5076 7.98604 47.1389 7.66992 46.6657C7.3538 46.1926 7.18506 45.6364 7.18506 45.0673C7.18506 44.3043 7.48817 43.5726 8.02771 43.033C8.56725 42.4935 9.29902 42.1904 10.062 42.1904Z" fill="white"/>
<path d="M22.5572 42.1903C23.1262 42.1903 23.6824 42.359 24.1556 42.6752C24.6286 42.9913 24.9974 43.4406 25.2151 43.9664C25.4329 44.492 25.4899 45.0705 25.3789 45.6286C25.2678 46.1867 24.9938 46.6993 24.5915 47.1016C24.1892 47.504 23.6765 47.7781 23.1185 47.889C22.5604 48 21.9819 47.9431 21.4562 47.7253C20.9305 47.5075 20.4812 47.1388 20.165 46.6657C19.8489 46.1926 19.6802 45.6363 19.6802 45.0673C19.6802 44.3043 19.9833 43.5725 20.5228 43.033C21.0624 42.4934 21.7942 42.1903 22.5572 42.1903Z" fill="white"/>
<path d="M35.024 42.1904C35.5929 42.1904 36.1491 42.3592 36.6223 42.6753C37.0954 42.9914 37.4641 43.4407 37.6819 43.9664C37.8997 44.4921 37.9566 45.0706 37.8456 45.6286C37.7346 46.1867 37.4606 46.6993 37.0583 47.1018C36.6559 47.5041 36.1432 47.7781 35.5852 47.8891C35.0271 48.0001 34.4487 47.9431 33.9229 47.7254C33.3973 47.5076 32.9479 47.1389 32.6318 46.6657C32.3157 46.1926 32.147 45.6364 32.147 45.0673C32.147 44.3043 32.4501 43.5726 32.9896 43.033C33.5291 42.4935 34.2609 42.1904 35.024 42.1904Z" fill="white"/>
<path d="M80.8741 28.2243V33.6213C80.8749 33.7382 80.8523 33.8542 80.8078 33.9623C80.7634 34.0705 80.6978 34.1687 80.6151 34.2513C80.537 34.3347 80.4427 34.4013 80.338 34.4471C80.2333 34.4928 80.1203 34.5167 80.0061 34.5173H74.7771C74.6626 34.518 74.5494 34.4947 74.4444 34.4488C74.3395 34.403 74.2454 34.3357 74.1681 34.2513C74.0844 34.169 74.0178 34.071 73.9721 33.9629C73.9264 33.8547 73.9027 33.7387 73.9021 33.6213V28.2243C73.9027 28.1069 73.9264 27.9909 73.9721 27.8827C74.0178 27.7746 74.0844 27.6766 74.1681 27.5943C74.2454 27.5099 74.3395 27.4426 74.4444 27.3968C74.5494 27.351 74.6626 27.3276 74.7771 27.3283H80.0061C80.1203 27.3289 80.2333 27.3528 80.338 27.3985C80.4427 27.4443 80.537 27.5109 80.6151 27.5943C80.6978 27.677 80.7634 27.7751 80.8078 27.8833C80.8523 27.9915 80.8749 28.1074 80.8741 28.2243ZM87.762 14.7424C87.7639 16.1474 87.384 17.5265 86.663 18.7323C86.3266 19.2303 85.9239 19.6801 85.466 20.0693C85.0703 20.423 84.6516 20.7504 84.213 21.0493L82.862 21.8473C82.2529 22.2028 81.7408 22.7029 81.371 23.3033C81.0394 23.7421 80.8315 24.2619 80.7691 24.8083C80.7559 25.0626 80.6655 25.3067 80.5101 25.5083C80.443 25.6112 80.3519 25.6963 80.2445 25.756C80.1372 25.8158 80.0169 25.8485 79.8941 25.8513H74.6651C74.5433 25.842 74.4266 25.7983 74.3287 25.7252C74.2307 25.652 74.1556 25.5526 74.1121 25.4383C73.9647 25.1827 73.8852 24.8934 73.8811 24.5983V23.6463C73.905 22.3479 74.4029 21.103 75.2811 20.1463C76.1276 19.1133 77.1911 18.2793 78.3961 17.7034C79.0864 17.4187 79.7089 16.9918 80.2231 16.4504C80.6027 15.9642 80.7963 15.3586 80.7691 14.7424C80.7528 14.402 80.6513 14.0711 80.474 13.78C80.2966 13.489 80.0491 13.247 79.7541 13.0764C79.0695 12.5993 78.2502 12.3541 77.4161 12.3764C76.5816 12.3457 75.7578 12.573 75.0571 13.0274C74.1862 13.8013 73.4044 14.67 72.7261 15.6174C72.6474 15.7294 72.5425 15.8206 72.4204 15.8828C72.2985 15.9451 72.1631 15.9765 72.0261 15.9744C71.8306 15.9665 71.6413 15.9034 71.4801 15.7924L67.9031 12.9924C67.7231 12.8561 67.6027 12.6554 67.5671 12.4324C67.5322 12.215 67.5743 11.9922 67.6862 11.8024C70.0195 7.81246 73.3911 5.8198 77.8011 5.82447C79.0015 5.83539 80.1889 6.07288 81.3011 6.52446C82.4531 6.97448 83.5258 7.6054 84.479 8.39345C85.4344 9.18209 86.2202 10.156 86.789 11.2564C87.3909 12.3226 87.7247 13.5188 87.762 14.7424Z" fill="#FB705C"/>
</g>
<defs>
<clipPath id="clip0_5_6961">
<rect width="105" height="70" fill="white" transform="translate(0.5)"/>
</clipPath>
</defs>
</svg>
