<svg width="46" height="70" viewBox="0 0 46 70" fill="none" xmlns="http://www.w3.org/2000/svg">
<g clip-path="url(#clip0_5_6983)">
<path d="M38.2965 0C40.062 0 41.7552 0.701351 43.0036 1.94977C44.252 3.19818 44.9533 4.8914 44.9533 6.65694V55.4393C44.9515 57.2036 44.2493 58.8951 43.0011 60.142C41.7529 61.3889 40.0608 62.0894 38.2965 62.0894H7.24483C5.4805 62.0894 3.78835 61.3889 2.54013 60.142C1.29192 58.8951 0.589746 57.2036 0.587891 55.4393V22.1828H16.1137C17.8768 22.1828 19.5679 21.4833 20.8159 20.2379C22.064 18.9925 22.7669 17.3029 22.7706 15.5398V0H38.2965ZM1.70088 17.7448H16.1137C16.6992 17.743 17.2605 17.5105 17.6758 17.0978C18.0911 16.6851 18.3272 16.1253 18.3327 15.5398V1.10599L1.70088 17.7448Z" fill="white"/>
<path d="M35.706 28.0982H10.5693C10.2295 28.0982 9.8931 28.1652 9.57927 28.2954C9.26543 28.4257 8.98034 28.6166 8.74043 28.8572C8.50047 29.0977 8.31036 29.3833 8.18099 29.6975C8.05155 30.0117 7.98542 30.3483 7.98634 30.6881C7.98634 31.3732 8.25848 32.0301 8.74289 32.5145C9.2273 32.999 9.88426 33.2711 10.5693 33.2711H35.706C36.0458 33.272 36.3825 33.2059 36.6967 33.0765C37.0109 32.9471 37.2964 32.757 37.537 32.517C37.7776 32.2771 37.9685 31.992 38.0987 31.6782C38.229 31.3643 38.296 31.0279 38.296 30.6881C38.2969 30.3477 38.2306 30.0105 38.1007 29.6959C37.9709 29.3812 37.7802 29.0953 37.5395 28.8546C37.2988 28.614 37.0129 28.4232 36.6983 28.2934C36.3836 28.1635 36.0464 28.0972 35.706 28.0982Z" fill="#FB705C"/>
<path d="M35.706 38.4509H10.5693C9.88426 38.4509 9.2273 38.7231 8.74289 39.2075C8.25848 39.6919 7.98634 40.3489 7.98634 41.0339C7.98542 41.3737 8.05155 41.7104 8.18099 42.0246C8.31036 42.3387 8.50047 42.6243 8.74043 42.8649C8.98034 43.1055 9.26543 43.2963 9.57927 43.4266C9.8931 43.5569 10.2295 43.6239 10.5693 43.6239H35.706C36.0464 43.6248 36.3836 43.5585 36.6983 43.4286C37.0129 43.2988 37.2988 43.108 37.5395 42.8674C37.7802 42.6267 37.9709 42.3408 38.1007 42.0262C38.2306 41.7115 38.2969 41.3743 38.296 41.0339C38.296 40.6941 38.229 40.3577 38.0987 40.0439C37.9685 39.73 37.7776 39.4449 37.537 39.205C37.2964 38.9651 37.0109 38.775 36.6967 38.6456C36.3825 38.5161 36.0458 38.45 35.706 38.4509Z" fill="#FB705C"/>
<path d="M31.2048 45.2963C31.5394 45.3694 31.8557 45.5094 32.1347 45.708C32.4138 45.9064 32.6499 46.1593 32.8288 46.4512C32.8941 46.562 32.9525 46.6765 33.0038 46.7942C33.1195 47.0606 33.3059 47.2901 33.5428 47.458C33.7797 47.6258 34.0582 47.7255 34.3478 47.7462C34.9492 47.7802 35.5168 48.0358 35.9408 48.4637C36.3648 48.8916 36.6153 49.4615 36.6437 50.0632C36.651 50.2728 36.6297 50.4823 36.5807 50.6862C36.4973 50.9868 36.5047 51.3053 36.6019 51.6018C36.699 51.8982 36.8816 52.1593 37.1267 52.3522C37.3848 52.5762 37.5918 52.8531 37.7336 53.1641C37.8755 53.4751 37.9489 53.8129 37.9489 54.1547C37.9489 54.4965 37.8755 54.8343 37.7336 55.1452C37.5918 55.4562 37.3848 55.7331 37.1267 55.9572C36.8066 56.2199 36.5886 56.5864 36.5107 56.9931C36.4852 57.2279 36.5042 57.4654 36.5667 57.6931C36.6292 58.0094 36.6276 58.3349 36.5619 58.6504C36.4962 58.966 36.3678 59.2652 36.1844 59.5302C36.001 59.7952 35.7662 60.0207 35.494 60.1934C35.2218 60.366 34.9177 60.4822 34.5998 60.5351C34.4388 60.5351 34.2778 60.5351 34.1238 60.5981C33.8739 60.6506 33.6402 60.7618 33.4418 60.9225C33.2434 61.0831 33.0861 61.2887 32.9828 61.522C32.8519 61.853 32.65 62.1508 32.3912 62.3952C32.1325 62.6395 31.8232 62.8238 31.4853 62.9355C31.1474 63.0467 30.7892 63.0829 30.4359 63.0405C30.0826 62.9981 29.743 62.879 29.4409 62.6911C29.1763 62.537 28.8756 62.4553 28.5694 62.4553C28.2631 62.4553 27.9623 62.537 27.6979 62.6911C27.3985 62.8723 27.0637 62.9859 26.7162 63.0258C26.3687 63.0651 26.0167 63.0295 25.6844 62.9202C25.3521 62.8115 25.0472 62.6316 24.7907 62.3939C24.5341 62.1563 24.3319 61.8659 24.1979 61.5429C24.081 61.2717 23.892 61.0375 23.6514 60.8659C23.4107 60.6943 23.1276 60.592 22.8329 60.5701C22.2483 60.5379 21.6954 60.2944 21.2768 59.8849C20.8584 59.4754 20.6029 58.9279 20.5579 58.3441C20.555 58.0717 20.5927 57.8004 20.6699 57.5391C20.737 57.2557 20.722 56.9589 20.6265 56.6837C20.531 56.4085 20.3591 56.1662 20.131 55.9851C19.7208 55.6419 19.4374 55.1712 19.326 54.6482C19.2273 54.2296 19.2471 53.7919 19.3831 53.3839C19.519 52.9759 19.7659 52.6138 20.0959 52.3382C20.426 52.0642 20.643 51.6777 20.7049 51.2532C20.7097 50.9728 20.6791 50.6929 20.6139 50.4202C20.5388 49.808 20.7028 49.1903 21.0719 48.696C21.4409 48.2018 21.9865 47.8691 22.5949 47.7672C22.7629 47.7672 22.9379 47.7672 23.0989 47.6902C23.3338 47.6473 23.555 47.5487 23.7438 47.4025C23.9326 47.2563 24.0835 47.0669 24.1839 46.8503C24.3409 46.4567 24.5911 46.1071 24.913 45.8316C25.2349 45.556 25.6189 45.3627 26.0319 45.2683H26.9489C27.2852 45.3727 27.611 45.5086 27.9219 45.6743C28.1381 45.7866 28.3782 45.8452 28.6219 45.8452C28.8655 45.8452 29.1056 45.7866 29.3219 45.6743C29.6321 45.5075 29.958 45.3715 30.2949 45.2683L31.2048 45.2963ZM28.6009 48.0122C27.3827 48.0095 26.1912 48.3683 25.1772 49.0434C24.1632 49.7184 23.3724 50.6792 22.905 51.8041C22.4375 52.9289 22.3145 54.1673 22.5515 55.3621C22.7885 56.557 23.3747 57.6546 24.2361 58.5159C25.0974 59.3773 26.1951 59.9636 27.3899 60.2005C28.5848 60.4375 29.8231 60.3145 30.9479 59.847C32.0728 59.3796 33.0336 58.5888 33.7086 57.5748C34.3836 56.5608 34.7426 55.3693 34.7398 54.1512C34.7407 53.3448 34.5825 52.546 34.2744 51.8008C33.9662 51.0556 33.514 50.3785 32.9438 49.8082C32.3735 49.238 31.6964 48.7859 30.9512 48.4777C30.2059 48.1695 29.4073 48.0113 28.6009 48.0122Z" fill="#FB705C"/>
<path d="M24.3735 69.9993C24.1425 69.9993 24.0305 69.8593 23.9325 69.6843L22.6445 67.3393C22.4625 67.0035 22.4625 67.0108 22.1125 67.1367L19.5715 68.0467C19.4845 68.0952 19.3841 68.1155 19.2849 68.1044C19.1857 68.0928 19.0925 68.051 19.0186 67.9835C18.9546 67.9104 18.9149 67.8195 18.9049 67.7231C18.8948 67.6267 18.915 67.5291 18.9626 67.4443C19.7699 65.3492 20.5679 63.2492 21.3565 61.1446C21.4195 60.9836 21.4755 60.9277 21.6505 61.0187C21.99 61.1841 22.3586 61.2816 22.7355 61.3057C22.9133 61.3141 23.0849 61.3733 23.2301 61.4765C23.3752 61.5791 23.4878 61.7215 23.5545 61.8867C23.7931 62.4504 24.1911 62.9324 24.6997 63.2732C25.2083 63.614 25.8053 63.7982 26.4175 63.8043C26.5465 63.8031 26.6753 63.7914 26.8025 63.7693C26.9565 63.7693 27.0055 63.8117 26.9495 63.9658L26.5505 65.0017L24.8075 69.5935C24.782 69.669 24.7492 69.7414 24.7095 69.8108C24.6751 69.8685 24.6258 69.9171 24.5669 69.9502C24.5079 69.9834 24.4412 70.0006 24.3735 69.9993Z" fill="#FB705C"/>
<path d="M30.4288 63.7688C31.1043 63.8406 31.7849 63.6914 32.3681 63.3427C32.9513 62.9945 33.4057 62.4658 33.6627 61.837C33.7284 61.6835 33.8361 61.5509 33.9736 61.4557C34.111 61.3604 34.2726 61.3057 34.4397 61.2981C34.8309 61.2693 35.2132 61.1672 35.5666 60.9971C35.7136 60.9201 35.7836 60.9551 35.8396 61.1021C36.6376 63.2205 37.4403 65.3395 38.2476 67.4579C38.2936 67.5396 38.311 67.6341 38.297 67.7269C38.2831 67.8196 38.2386 67.9043 38.1706 67.9688C38.1004 68.0302 38.0131 68.0683 37.9204 68.0787C37.8278 68.0885 37.7343 68.0701 37.6526 68.0253C36.7706 67.7103 35.8816 67.3953 34.9997 67.0662C34.7967 66.9888 34.7057 67.0662 34.6007 67.2203C34.1807 68.0179 33.7467 68.802 33.3127 69.5929C33.3127 69.6488 33.2567 69.7053 33.2217 69.7612C33.1843 69.8373 33.1251 69.9005 33.0515 69.9429C32.9779 69.9853 32.8934 70.0049 32.8087 69.9988C32.7237 69.9914 32.643 69.9583 32.5778 69.903C32.5126 69.8477 32.4661 69.7734 32.4447 69.6912L31.4997 67.2203C31.0867 66.142 30.6808 65.0712 30.2678 64.0003C30.2118 63.8388 30.1838 63.7203 30.4288 63.7688Z" fill="#FB705C"/>
<path d="M23.1837 54.1655C23.1837 53.0952 23.5008 52.0488 24.0949 51.1584C24.689 50.2681 25.5335 49.5737 26.5219 49.1628C27.5102 48.7519 28.5982 48.643 29.6484 48.8498C30.6986 49.0566 31.664 49.5698 32.4228 50.3247C33.1816 51.0796 33.6998 52.0424 33.912 53.0915C34.1242 54.1407 34.021 55.2291 33.6151 56.2196C33.2094 57.21 32.5193 58.0581 31.632 58.6568C30.7447 59.2555 29.7 59.5779 28.6296 59.5835C27.9147 59.591 27.2055 59.4561 26.5433 59.1868C25.881 58.9175 25.2789 58.5192 24.7721 58.0149C24.2653 57.5107 23.8638 56.9107 23.5911 56.2498C23.3184 55.589 23.1799 54.8804 23.1837 54.1655ZM26.3967 56.7065C26.3967 57.1055 26.6487 57.2525 26.9777 57.0915C27.4397 56.8605 27.9017 56.6155 28.3776 56.3915C28.4498 56.3422 28.5352 56.3158 28.6226 56.3158C28.71 56.3158 28.7955 56.3422 28.8676 56.3915C29.3016 56.6365 29.7496 56.8605 30.1906 57.0915C30.2642 57.1406 30.3507 57.1667 30.4391 57.1667C30.5275 57.1667 30.614 57.1406 30.6876 57.0915C30.8696 56.9725 30.8416 56.7905 30.8136 56.6155C30.7296 56.1115 30.6456 55.6145 30.5546 55.1175C30.5334 55.0411 30.5347 54.9602 30.5583 54.8845C30.5819 54.8088 30.6268 54.7414 30.6876 54.6905C31.0866 54.3265 31.4646 53.9415 31.8426 53.5636C31.8899 53.5282 31.9277 53.4817 31.9526 53.4281C31.9775 53.3745 31.9887 53.3156 31.9852 53.2566C31.9818 53.1977 31.9638 53.1405 31.9327 53.0902C31.9017 53.0399 31.8588 52.9981 31.8076 52.9686C31.7044 52.9267 31.5961 52.8985 31.4856 52.8846L30.0296 52.6816C29.9545 52.6762 29.8824 52.6497 29.8217 52.6051C29.761 52.5606 29.7142 52.4996 29.6866 52.4296C29.4696 51.9676 29.2386 51.5196 28.9866 51.0296C28.9026 50.8616 28.8116 50.7216 28.6016 50.7216C28.3917 50.7216 28.2866 50.8546 28.2026 51.0226C27.9857 51.4706 27.7547 51.9116 27.5447 52.3666C27.5107 52.4511 27.4529 52.5238 27.3784 52.576C27.3038 52.6282 27.2157 52.6576 27.1247 52.6606C26.6137 52.7166 26.1097 52.8006 25.5987 52.8776C25.5224 52.8783 25.4482 52.9021 25.3857 52.9459C25.3233 52.9896 25.2755 53.0512 25.2487 53.1226C25.2268 53.2006 25.2285 53.2835 25.2533 53.3607C25.2783 53.4378 25.3253 53.5059 25.3887 53.5566C25.7597 53.9135 26.1237 54.2565 26.5017 54.6275C26.5722 54.6854 26.6244 54.7626 26.6517 54.8496C26.6791 54.9366 26.6804 55.0297 26.6557 55.1175C26.5647 55.6845 26.4737 56.2235 26.3967 56.7065Z" fill="#FB705C"/>
<path d="M28.6149 55.4887C28.516 55.4859 28.4186 55.5127 28.3349 55.5657C28.0409 55.7267 27.7399 55.8807 27.4389 56.0347C27.39 56.0347 27.3339 56.1047 27.285 56.0767C27.236 56.0487 27.285 55.9577 27.285 55.8947C27.3409 55.6007 27.3899 55.2997 27.4459 54.9987C27.4782 54.8821 27.4761 54.7588 27.4401 54.6434C27.4042 54.5279 27.3357 54.4253 27.243 54.3477C27.012 54.1587 26.816 53.9347 26.606 53.7247C26.557 53.6757 26.466 53.6337 26.487 53.5567C26.508 53.4797 26.606 53.4937 26.676 53.4797C26.984 53.4377 27.292 53.3747 27.607 53.3467C27.7144 53.3404 27.8175 53.3025 27.9034 53.2377C27.9894 53.173 28.0542 53.0842 28.0899 52.9827C28.2229 52.6887 28.3769 52.4017 28.5169 52.1147C28.5169 52.0657 28.5589 51.9957 28.6219 51.9957C28.6849 51.9957 28.7129 52.0657 28.7409 52.1217C28.8949 52.4297 29.0559 52.7377 29.2029 53.0527C29.2369 53.1338 29.293 53.2037 29.3648 53.2544C29.4366 53.3052 29.5212 53.3348 29.6089 53.3397L30.6099 53.4797C30.6729 53.4797 30.7499 53.4797 30.7709 53.5567C30.7919 53.6337 30.7289 53.6547 30.6869 53.6967C30.4559 53.9277 30.2249 54.1657 29.9869 54.3967C29.9106 54.4632 29.8535 54.5489 29.8215 54.6449C29.7895 54.7409 29.7838 54.8437 29.8049 54.9427C29.8609 55.2647 29.9239 55.5867 29.9799 55.9157C29.9799 55.9717 29.9799 56.0347 29.9799 56.0767C29.9799 56.1187 29.8609 56.0767 29.8049 56.0767L28.9089 55.6077C28.8291 55.5329 28.7243 55.4905 28.6149 55.4887Z" fill="#FB705C"/>
</g>
<defs>
<clipPath id="clip0_5_6983">
<rect width="44.8246" height="70" fill="white" transform="translate(0.587891)"/>
</clipPath>
</defs>
</svg>
