<svg width="100" height="48" viewBox="0 0 100 48" fill="none" xmlns="http://www.w3.org/2000/svg">
<path d="M30.3084 14.7098C31.2727 14.7098 32.0545 13.928 32.0545 12.9637C32.0545 11.9993 31.2727 11.2175 30.3084 11.2175C29.344 11.2175 28.5623 11.9993 28.5623 12.9637C28.5623 13.928 29.344 14.7098 30.3084 14.7098Z" fill="url(#paint0_linear_305_14051)"/>
<path d="M3.45529 42.5208C3.86272 43.87 4.84161 44.7537 7.20152 44.7537C9.40798 44.7537 10.0482 44.0129 10.0482 43.0076C10.0482 41.9281 9.39211 41.3249 6.40253 40.7641C1.47635 39.8381 0.57683 38.0761 0.57683 35.9807C0.57683 32.8642 3.30713 31.2662 6.6671 31.2662C11.5404 31.2662 12.8632 34.023 13.0272 35.8379H9.57731C9.37624 35.0653 8.90531 34.0283 6.56127 34.0283C4.92097 34.0283 4.08495 34.605 4.08495 35.6104C4.08495 36.5152 4.67228 36.9649 7.3338 37.494C12.7309 38.5576 13.5722 40.3513 13.5722 42.616C13.5722 45.3251 11.6409 47.5105 6.87875 47.5105C2.43407 47.5105 0.433965 45.3304 0.00537109 42.5208H3.46058H3.45529Z" fill="#404041"/>
<path d="M19.6732 30.6895V37.1766C20.07 36.5363 20.9642 35.4304 23.1284 35.4304C25.6999 35.4304 27.2133 37.039 27.2133 40.3249V47.1983H23.885V40.727C23.885 39.2613 23.5252 38.2454 22.0278 38.2454C20.5304 38.2454 19.689 39.51 19.689 41.6953V47.1983H16.3926V30.6895H19.6679H19.6732Z" fill="#404041"/>
<path d="M30.4619 30.6895H33.7584V33.5838H30.4619V30.6895ZM30.4619 35.7426H33.7584V47.1983H30.4619V35.7426Z" fill="#404041"/>
<path d="M40.3303 40.6847C41.3674 39.473 43.4681 37.2506 44.7909 35.7373H48.6747L44.2882 40.1238L49.1297 47.1983H45.1454L41.96 42.1451L40.325 43.7007V47.1983H37.0286V30.6895H40.325V40.69L40.3303 40.6847Z" fill="#404041"/>
<path d="M54.0189 30.6895V37.1766C54.4157 36.5363 55.31 35.4304 57.4741 35.4304C60.0457 35.4304 61.559 37.039 61.559 40.3249V47.1983H58.2307V40.727C58.2307 39.2613 57.8709 38.2454 56.3735 38.2454C54.8761 38.2454 54.0348 39.51 54.0348 41.6953V47.1983H50.7383V30.6895H54.0136H54.0189Z" fill="#404041"/>
<path d="M75.3745 43.8648C75.3745 44.9706 75.3586 46.0924 75.3745 47.1983H72.1574C72.1151 46.8861 72.1098 46.3623 72.0939 45.8596C71.5701 46.7591 70.7817 47.5105 68.5911 47.5105C66.4005 47.5105 64.7073 46.1136 64.7073 42.743V35.7426H68.0037V42.1451C68.0037 43.669 68.5064 44.6955 69.8769 44.6955C71.4748 44.6955 72.0727 43.6637 72.0727 41.0392V35.7426H75.3692V43.8648H75.3745Z" fill="#404041"/>
<path d="M78.5334 38.6317C78.5334 37.6581 78.5334 36.5628 78.5122 35.7373H81.7293C81.7716 36.0601 81.8087 36.7533 81.8245 37.2189C82.3008 36.4252 83.2532 35.4305 85.285 35.4305C87.8513 35.4305 89.3699 37.1766 89.3699 40.1291V47.1983H86.0417V40.7112C86.0417 39.3989 85.5814 38.2454 84.0998 38.2454C82.6182 38.2454 81.8457 39.4148 81.8457 41.4837V47.1983H78.5334V38.6317Z" fill="#404041"/>
<path d="M10.7043 12.2811C9.2915 11.6038 7.64591 11.2651 5.76221 11.2651H0V27.9009H5.7675C7.64591 27.9009 9.2915 27.5729 10.7096 26.9062C12.1223 26.2448 13.2176 25.2923 13.9849 24.0436C14.7574 22.8001 15.1384 21.3292 15.1384 19.6412C15.1384 17.9533 14.7521 16.4718 13.9849 15.2019C13.2123 13.9319 12.1223 12.9583 10.7096 12.2811H10.7043ZM10.5138 24.0965C9.4132 25.1495 7.8311 25.6733 5.76221 25.6733H2.89433V13.4875H5.76221C7.82581 13.4875 9.4132 14.0325 10.5138 15.1172C11.6144 16.2019 12.1647 17.7099 12.1647 19.6412C12.1647 21.5726 11.6144 23.0382 10.5138 24.0965Z" fill="url(#paint1_linear_305_14051)"/>
<path d="M21.4139 16.6305V14.7151H18.5195V27.9062H21.4139V20.9641C21.4139 19.6254 21.7049 18.6835 22.2922 18.1385C22.8796 17.5935 23.7367 17.3237 24.8691 17.3237H25.6046V14.4981C24.6415 14.4981 23.8055 14.6833 23.1018 15.059C22.398 15.4347 21.8372 15.9585 21.4139 16.6252V16.6305Z" fill="url(#paint2_linear_305_14051)"/>
<path d="M30.1021 15.4029C29.4248 15.3394 28.9592 15.0167 28.7793 14.8738C28.7793 19.218 28.7793 23.5621 28.7793 27.9062H31.6736V15.0378C31.4884 15.1542 30.9011 15.4823 30.1021 15.4082V15.4029Z" fill="url(#paint3_linear_305_14051)"/>
<path d="M60.6751 15.313C59.6433 14.7733 58.4633 14.4981 57.1458 14.4981C55.8283 14.4981 54.5584 14.7785 53.5001 15.3341C52.4418 15.895 51.6217 16.6887 51.0344 17.7152C50.4523 18.747 50.156 19.9376 50.156 21.2921C50.156 22.6467 50.4576 23.8425 51.0555 24.869C51.6587 25.9008 52.4842 26.6945 53.5424 27.2607C54.6007 27.8269 55.7965 28.1126 57.1352 28.1126C58.7755 28.1126 60.1512 27.7263 61.2624 26.9538C62.3736 26.1813 63.1355 25.1865 63.5588 23.9748H60.437C59.7914 25.2024 58.6908 25.8162 57.1352 25.8162C56.0505 25.8162 55.1351 25.4987 54.3943 24.8584C53.6483 24.2182 53.2355 23.3769 53.1509 22.3239H63.8446C63.9133 21.9271 63.9451 21.4773 63.9451 20.9852C63.9451 19.71 63.6594 18.5777 63.0826 17.5988C62.5059 16.6146 61.7016 15.8527 60.6698 15.313H60.6751ZM53.1826 20.1227C53.3202 19.1015 53.7435 18.292 54.4525 17.694C55.1616 17.0961 56.0188 16.7945 57.0188 16.7945C58.1194 16.7945 59.0401 17.0961 59.7861 17.7046C60.5322 18.3131 60.9132 19.1174 60.9291 20.1227H53.1826Z" fill="url(#paint4_linear_305_14051)"/>
<path d="M94.4495 35.2135C94.1109 35.2029 93.7987 35.0971 93.5288 34.9331L92.1372 38.5576L96.5554 38.6899L95.3808 34.9913C95.1003 35.1394 94.7828 35.2294 94.4442 35.2188L94.4495 35.2135Z" fill="url(#paint5_linear_305_14051)"/>
<path d="M95.0421 31.5466L95.2326 25.123L94.259 25.4511L94.0791 31.5149C94.2325 31.4779 94.3966 31.4514 94.5606 31.4567C94.7299 31.4567 94.8887 31.4937 95.0421 31.5413V31.5466Z" fill="url(#paint6_linear_305_14051)"/>
<path d="M93.5923 33.3086C93.5764 33.8113 93.9732 34.2346 94.4812 34.2505C94.9839 34.2664 95.4072 33.8695 95.423 33.3616C95.4389 32.8589 95.0421 32.4356 94.5341 32.4197C94.0314 32.4038 93.6081 32.8007 93.5923 33.3086Z" fill="url(#paint7_linear_305_14051)"/>
<path d="M77.4537 25.4405C77.1945 25.3453 76.9564 25.2024 76.7447 25.0172L68.3104 17.7364L65.5166 25.1812L74.5753 33.1182L86.6182 33.1076L89.412 25.6627L78.2686 25.5992C77.9882 25.5992 77.713 25.5463 77.4537 25.4511V25.4405Z" fill="url(#paint8_linear_305_14051)"/>
<path d="M77.3745 24.2923C77.6232 24.5092 77.946 24.6309 78.274 24.6309L100 24.7579L83.4436 10.4609C83.2637 10.3074 83.0362 10.2228 82.8034 10.2228L60.9292 10.0958L77.3745 24.2976V24.2923Z" fill="url(#paint9_linear_305_14051)"/>
<path d="M59.7175 0C56.2676 2.33346 45.775 19.255 43.468 23.0383C43.5897 22.7472 43.7378 22.4668 43.8807 22.1811L43.6373 22.0594C43.5685 22.1916 43.505 22.3186 43.4468 22.4509C46.1454 15.1013 55.3892 0.984179 56.003 0.0423303C53.4579 3.34409 50.8123 7.1062 48.1878 11.3286C45.4416 15.7733 43.1664 20.0222 41.2774 23.9431L37.4359 14.7151H34.3352L39.6477 27.9062H43.0976C45.1083 23.5991 47.4946 18.9904 50.3308 14.1754C53.4579 8.87348 56.6486 4.15366 59.7175 0ZM42.997 23.7843C43.0658 23.5621 43.1293 23.3399 43.2087 23.1017L43.378 23.1705C43.1346 23.5621 42.997 23.7843 42.997 23.7843Z" fill="url(#paint10_linear_305_14051)"/>
<path d="M44.3833 21.1863C44.5632 20.8635 44.7272 20.5302 44.8965 20.1916L44.6531 20.0699C44.4838 20.4032 44.3092 20.726 44.1399 21.0646L44.3833 21.1863Z" fill="url(#paint11_linear_305_14051)"/>
<path d="M45.4204 19.2074C45.6003 18.8846 45.7643 18.5618 45.9548 18.2232L45.7114 18.0909C45.5209 18.4243 45.3516 18.747 45.177 19.0751L45.4204 19.2074Z" fill="url(#paint12_linear_305_14051)"/>
<path d="M46.4892 17.2549C46.6692 16.9321 46.8438 16.6094 47.0237 16.2813L46.7909 16.1384C46.6004 16.4612 46.4205 16.7945 46.2458 17.1226L46.4892 17.2549Z" fill="url(#paint13_linear_305_14051)"/>
<path d="M47.5846 15.313C47.7751 14.9902 47.955 14.6675 48.1402 14.3553L47.9074 14.2124C47.7169 14.5352 47.5264 14.8579 47.3359 15.1701L47.5793 15.313H47.5846Z" fill="url(#paint14_linear_305_14051)"/>
<path d="M48.7116 13.3922C48.9021 13.0695 49.1031 12.7573 49.2936 12.4345L49.0608 12.2917C48.8597 12.6144 48.6692 12.9266 48.4788 13.2494L48.7116 13.3922Z" fill="url(#paint15_linear_305_14051)"/>
<path d="M49.6375 11.3392L49.8703 11.4821C50.0502 11.2016 50.2301 10.9265 50.4047 10.6461L50.4735 10.5455L50.2301 10.3868L50.1719 10.4979C49.992 10.7783 49.8121 11.0535 49.6375 11.3339V11.3392Z" fill="url(#paint16_linear_305_14051)"/>
<path d="M51.0663 9.5984C51.278 9.28622 51.479 8.97403 51.6801 8.66185L51.4473 8.51898C51.2462 8.83117 51.0451 9.13277 50.8335 9.45554L51.0663 9.5984Z" fill="url(#paint17_linear_305_14051)"/>
<path d="M52.2939 7.73587C52.5055 7.42368 52.7066 7.12208 52.9182 6.80989L52.6854 6.65115C52.4843 6.96334 52.2727 7.26494 52.061 7.57713L52.2939 7.73587Z" fill="url(#paint18_linear_305_14051)"/>
<path d="M53.5585 5.8945C53.7702 5.58232 53.9818 5.28072 54.1935 4.97911L53.9606 4.82037C53.749 5.12198 53.5373 5.42358 53.3257 5.73577L53.5585 5.8945Z" fill="url(#paint19_linear_305_14051)"/>
<path d="M54.8388 4.07428C55.0504 3.77268 55.2727 3.47108 55.4843 3.16947L55.2621 3.00015C55.0504 3.30176 54.8282 3.60336 54.606 3.90496L54.8388 4.07428Z" fill="url(#paint20_linear_305_14051)"/>
<path d="M56.1458 2.26466C56.3681 1.96306 56.5903 1.67204 56.8178 1.37043L56.5956 1.20111C56.3733 1.50271 56.1511 1.79373 55.9236 2.09534L56.1458 2.26466Z" fill="url(#paint21_linear_305_14051)"/>
<path d="M57.8762 0H57.5322C57.4423 0.100534 57.3629 0.211651 57.2729 0.322768L57.4952 0.49209C57.6169 0.322768 57.7545 0.158739 57.8762 0Z" fill="url(#paint22_linear_305_14051)"/>
<path d="M30.4143 9.65659V10.3762C31.7318 10.3868 32.806 11.4662 32.806 12.789H33.5256C33.5256 11.0747 32.1287 9.67246 30.4196 9.65659H30.4143Z" fill="url(#paint23_linear_305_14051)"/>
<path d="M34.4621 12.7837H35.1818C35.1818 10.154 33.0441 8.0057 30.4143 7.99512V8.71473C32.6472 8.72531 34.4621 10.5508 34.4621 12.7837Z" fill="url(#paint24_linear_305_14051)"/>
<path d="M30.0174 12.4504L30.8428 12.9372C30.8692 12.9531 30.8692 12.9901 30.8428 13.006L30.0121 13.4822C29.9856 13.4981 29.9539 13.4822 29.9539 13.4452V12.4874C29.9591 12.4557 29.9909 12.4398 30.0226 12.4504H30.0174Z" fill="white"/>
<defs>
<linearGradient id="paint0_linear_305_14051" x1="28.5623" y1="12.9637" x2="32.0545" y2="12.9637" gradientUnits="userSpaceOnUse">
<stop stop-color="#CE278C"/>
<stop offset="1" stop-color="#C62F8F"/>
</linearGradient>
<linearGradient id="paint1_linear_305_14051" x1="5.48706" y1="10.064" x2="8.59305" y2="29.9222" gradientUnits="userSpaceOnUse">
<stop stop-color="#2B388F"/>
<stop offset="1" stop-color="#304996"/>
</linearGradient>
<linearGradient id="paint2_linear_305_14051" x1="19.9641" y1="7.79934" x2="23.07" y2="27.6575" gradientUnits="userSpaceOnUse">
<stop stop-color="#2B388F"/>
<stop offset="1" stop-color="#304996"/>
</linearGradient>
<linearGradient id="paint3_linear_305_14051" x1="27.8904" y1="6.55591" x2="30.9963" y2="26.4141" gradientUnits="userSpaceOnUse">
<stop stop-color="#2B388F"/>
<stop offset="1" stop-color="#304996"/>
</linearGradient>
<linearGradient id="paint4_linear_305_14051" x1="54.1298" y1="2.44985" x2="57.2357" y2="22.3133" gradientUnits="userSpaceOnUse">
<stop stop-color="#2B388F"/>
<stop offset="1" stop-color="#304996"/>
</linearGradient>
<linearGradient id="paint5_linear_305_14051" x1="87.8671" y1="-2.82557" x2="90.9731" y2="17.0326" gradientUnits="userSpaceOnUse">
<stop stop-color="#2B388F"/>
<stop offset="1" stop-color="#304996"/>
</linearGradient>
<linearGradient id="paint6_linear_305_14051" x1="89.735" y1="-3.11657" x2="92.841" y2="16.7416" gradientUnits="userSpaceOnUse">
<stop stop-color="#2B388F"/>
<stop offset="1" stop-color="#304996"/>
</linearGradient>
<linearGradient id="paint7_linear_305_14051" x1="88.8248" y1="-2.97902" x2="91.9308" y2="16.8845" gradientUnits="userSpaceOnUse">
<stop stop-color="#2B388F"/>
<stop offset="1" stop-color="#304996"/>
</linearGradient>
<linearGradient id="paint8_linear_305_14051" x1="73.4006" y1="-0.560874" x2="76.5066" y2="19.2973" gradientUnits="userSpaceOnUse">
<stop stop-color="#2B388F"/>
<stop offset="1" stop-color="#304996"/>
</linearGradient>
<linearGradient id="paint9_linear_305_14051" x1="77.5491" y1="-1.21171" x2="80.6551" y2="18.6465" gradientUnits="userSpaceOnUse">
<stop stop-color="#2B388F"/>
<stop offset="1" stop-color="#304996"/>
</linearGradient>
<linearGradient id="paint10_linear_305_14051" x1="46.447" y1="3.65628" x2="49.5582" y2="23.5145" gradientUnits="userSpaceOnUse">
<stop stop-color="#2B388F"/>
<stop offset="1" stop-color="#304996"/>
</linearGradient>
<linearGradient id="paint11_linear_305_14051" x1="41.9705" y1="4.35473" x2="45.0765" y2="24.2129" gradientUnits="userSpaceOnUse">
<stop stop-color="#2B388F"/>
<stop offset="1" stop-color="#304996"/>
</linearGradient>
<linearGradient id="paint12_linear_305_14051" x1="43.2986" y1="4.14837" x2="46.4046" y2="24.0066" gradientUnits="userSpaceOnUse">
<stop stop-color="#2B388F"/>
<stop offset="1" stop-color="#304996"/>
</linearGradient>
<linearGradient id="paint13_linear_305_14051" x1="44.6373" y1="3.93672" x2="47.7486" y2="23.7949" gradientUnits="userSpaceOnUse">
<stop stop-color="#2B388F"/>
<stop offset="1" stop-color="#304996"/>
</linearGradient>
<linearGradient id="paint14_linear_305_14051" x1="46.0131" y1="3.71978" x2="49.1244" y2="23.5833" gradientUnits="userSpaceOnUse">
<stop stop-color="#2B388F"/>
<stop offset="1" stop-color="#304996"/>
</linearGradient>
<linearGradient id="paint15_linear_305_14051" x1="47.4258" y1="3.50283" x2="50.5318" y2="23.361" gradientUnits="userSpaceOnUse">
<stop stop-color="#2B388F"/>
<stop offset="1" stop-color="#304996"/>
</linearGradient>
<linearGradient id="paint16_linear_305_14051" x1="48.8596" y1="3.27529" x2="51.9656" y2="23.1335" gradientUnits="userSpaceOnUse">
<stop stop-color="#2B388F"/>
<stop offset="1" stop-color="#304996"/>
</linearGradient>
<linearGradient id="paint17_linear_305_14051" x1="50.3202" y1="3.0478" x2="53.4262" y2="22.906" gradientUnits="userSpaceOnUse">
<stop stop-color="#2B388F"/>
<stop offset="1" stop-color="#304996"/>
</linearGradient>
<linearGradient id="paint18_linear_305_14051" x1="51.8071" y1="2.81497" x2="54.913" y2="22.6732" gradientUnits="userSpaceOnUse">
<stop stop-color="#2B388F"/>
<stop offset="1" stop-color="#304996"/>
</linearGradient>
<linearGradient id="paint19_linear_305_14051" x1="53.3257" y1="2.57687" x2="56.4317" y2="22.4351" gradientUnits="userSpaceOnUse">
<stop stop-color="#2B388F"/>
<stop offset="1" stop-color="#304996"/>
</linearGradient>
<linearGradient id="paint20_linear_305_14051" x1="54.8599" y1="2.33874" x2="57.9659" y2="22.1969" gradientUnits="userSpaceOnUse">
<stop stop-color="#2B388F"/>
<stop offset="1" stop-color="#304996"/>
</linearGradient>
<linearGradient id="paint21_linear_305_14051" x1="56.4263" y1="2.09534" x2="59.5322" y2="21.9535" gradientUnits="userSpaceOnUse">
<stop stop-color="#2B388F"/>
<stop offset="1" stop-color="#304996"/>
</linearGradient>
<linearGradient id="paint22_linear_305_14051" x1="57.8444" y1="1.87311" x2="60.9504" y2="21.7313" gradientUnits="userSpaceOnUse">
<stop stop-color="#2B388F"/>
<stop offset="1" stop-color="#304996"/>
</linearGradient>
<linearGradient id="paint23_linear_305_14051" x1="31.118" y1="6.05322" x2="34.224" y2="25.9114" gradientUnits="userSpaceOnUse">
<stop stop-color="#2B388F"/>
<stop offset="1" stop-color="#304996"/>
</linearGradient>
<linearGradient id="paint24_linear_305_14051" x1="32.0652" y1="5.90506" x2="35.1712" y2="25.7633" gradientUnits="userSpaceOnUse">
<stop stop-color="#2B388F"/>
<stop offset="1" stop-color="#304996"/>
</linearGradient>
</defs>
</svg>
