<svg width="100" height="48" viewBox="0 0 100 48" fill="none" xmlns="http://www.w3.org/2000/svg">
<path d="M30.3085 14.7098C31.2729 14.7098 32.0546 13.928 32.0546 12.9637C32.0546 11.9993 31.2729 11.2175 30.3085 11.2175C29.3441 11.2175 28.5624 11.9993 28.5624 12.9637C28.5624 13.928 29.3441 14.7098 30.3085 14.7098Z" fill="url(#paint0_linear_305_23603)"/>
<path d="M3.45523 42.5208C3.86266 43.87 4.84154 44.7537 7.20146 44.7537C9.40792 44.7537 10.0482 44.0129 10.0482 43.0076C10.0482 41.9281 9.39205 41.3249 6.40247 40.7641C1.47629 39.8381 0.576769 38.0761 0.576769 35.9807C0.576769 32.8642 3.30707 31.2662 6.66704 31.2662C11.5403 31.2662 12.8631 34.023 13.0272 35.8379H9.57724C9.37618 35.0653 8.90525 34.0283 6.56121 34.0283C4.92091 34.0283 4.08489 34.605 4.08489 35.6104C4.08489 36.5152 4.67222 36.9649 7.33374 37.494C12.7309 38.5576 13.5722 40.3513 13.5722 42.616C13.5722 45.3251 11.6408 47.5105 6.87869 47.5105C2.43401 47.5105 0.433904 45.3304 0.00531006 42.5208H3.46052H3.45523Z" fill="white"/>
<path d="M19.673 30.6895V37.1766C20.0698 36.5363 20.9641 35.4304 23.1282 35.4304C25.6998 35.4304 27.2131 37.039 27.2131 40.3249V47.1983H23.8849V40.727C23.8849 39.2613 23.525 38.2454 22.0276 38.2454C20.5302 38.2454 19.6889 39.51 19.6889 41.6953V47.1983H16.3924V30.6895H19.6677H19.673Z" fill="white"/>
<path d="M30.462 30.6895H33.7584V33.5838H30.462V30.6895ZM30.462 35.7426H33.7584V47.1983H30.462V35.7426Z" fill="white"/>
<path d="M40.3302 40.6847C41.3673 39.473 43.4679 37.2506 44.7908 35.7373H48.6746L44.2881 40.1238L49.1296 47.1983H45.1453L41.9599 42.1451L40.3249 43.7007V47.1983H37.0284V30.6895H40.3249V40.69L40.3302 40.6847Z" fill="white"/>
<path d="M54.0188 30.6895V37.1766C54.4156 36.5363 55.3098 35.4304 57.474 35.4304C60.0455 35.4304 61.5588 37.039 61.5588 40.3249V47.1983H58.2306V40.727C58.2306 39.2613 57.8708 38.2454 56.3734 38.2454C54.8759 38.2454 54.0346 39.51 54.0346 41.6953V47.1983H50.7382V30.6895H54.0135H54.0188Z" fill="white"/>
<path d="M75.3744 43.8648C75.3744 44.9706 75.3585 46.0924 75.3744 47.1983H72.1573C72.1149 46.8861 72.1097 46.3623 72.0938 45.8596C71.5699 46.7591 70.7816 47.5105 68.591 47.5105C66.4004 47.5105 64.7072 46.1136 64.7072 42.743V35.7426H68.0036V42.1451C68.0036 43.669 68.5063 44.6955 69.8767 44.6955C71.4747 44.6955 72.0726 43.6637 72.0726 41.0392V35.7426H75.3691V43.8648H75.3744Z" fill="white"/>
<path d="M78.5332 38.6317C78.5332 37.6581 78.5333 36.5628 78.5121 35.7373H81.7292C81.7715 36.0601 81.8086 36.7533 81.8244 37.2189C82.3006 36.4252 83.2531 35.4305 85.2849 35.4305C87.8512 35.4305 89.3698 37.1766 89.3698 40.1291V47.1983H86.0416V40.7112C86.0416 39.3989 85.5812 38.2454 84.0997 38.2454C82.6181 38.2454 81.8456 39.4148 81.8456 41.4837V47.1983H78.5332V38.6317Z" fill="white"/>
<path d="M10.7043 12.2811C9.2915 11.6038 7.64591 11.2651 5.76221 11.2651H0V27.9009H5.7675C7.64591 27.9009 9.2915 27.5729 10.7096 26.9062C12.1223 26.2448 13.2176 25.2923 13.9849 24.0436C14.7574 22.8001 15.1384 21.3292 15.1384 19.6412C15.1384 17.9533 14.7521 16.4718 13.9849 15.2019C13.2123 13.9319 12.1223 12.9583 10.7096 12.2811H10.7043ZM10.5138 24.0965C9.4132 25.1495 7.8311 25.6733 5.76221 25.6733H2.89433V13.4875H5.76221C7.82581 13.4875 9.4132 14.0325 10.5138 15.1172C11.6144 16.2019 12.1647 17.7099 12.1647 19.6412C12.1647 21.5726 11.6144 23.0382 10.5138 24.0965Z" fill="white"/>
<path d="M21.4138 16.6305V14.7151H18.5195V27.9062H21.4138V20.9641C21.4138 19.6254 21.7048 18.6835 22.2922 18.1385C22.8795 17.5935 23.7367 17.3237 24.869 17.3237H25.6045V14.4981C24.6415 14.4981 23.8055 14.6833 23.1017 15.059C22.398 15.4347 21.8371 15.9585 21.4138 16.6252V16.6305Z" fill="white"/>
<path d="M30.1021 15.4029C29.4248 15.3394 28.9592 15.0167 28.7793 14.8738C28.7793 19.218 28.7793 23.5621 28.7793 27.9062H31.6736V15.0378C31.4884 15.1542 30.9011 15.4823 30.1021 15.4082V15.4029Z" fill="white"/>
<path d="M60.6751 15.313C59.6433 14.7733 58.4634 14.4981 57.1459 14.4981C55.8283 14.4981 54.5584 14.7785 53.5002 15.3341C52.4419 15.895 51.6218 16.6887 51.0344 17.7152C50.4524 18.747 50.1561 19.9376 50.1561 21.2921C50.1561 22.6467 50.4577 23.8425 51.0556 24.869C51.6588 25.9008 52.4842 26.6945 53.5425 27.2607C54.6007 27.8269 55.7966 28.1126 57.1353 28.1126C58.7756 28.1126 60.1513 27.7263 61.2625 26.9538C62.3736 26.1813 63.1356 25.1865 63.5589 23.9748H60.437C59.7915 25.2024 58.6909 25.8162 57.1353 25.8162C56.0506 25.8162 55.1352 25.4987 54.3944 24.8584C53.6483 24.2182 53.2356 23.3769 53.1509 22.3239H63.8446C63.9134 21.9271 63.9452 21.4773 63.9452 20.9852C63.9452 19.71 63.6594 18.5777 63.0827 17.5988C62.5059 16.6146 61.7017 15.8527 60.6699 15.313H60.6751ZM53.1827 20.1227C53.3203 19.1015 53.7436 18.292 54.4526 17.694C55.1616 17.0961 56.0188 16.7945 57.0189 16.7945C58.1195 16.7945 59.0401 17.0961 59.7862 17.7046C60.5323 18.3131 60.9132 19.1174 60.9291 20.1227H53.1827Z" fill="white"/>
<path d="M94.4494 35.2135C94.1108 35.2029 93.7986 35.0971 93.5287 34.9331L92.1371 38.5576L96.5554 38.6899L95.3807 34.9913C95.1003 35.1394 94.7828 35.2294 94.4441 35.2188L94.4494 35.2135Z" fill="white"/>
<path d="M95.0421 31.5466L95.2325 25.123L94.2589 25.4511L94.079 31.5149C94.2325 31.4779 94.3965 31.4514 94.5605 31.4567C94.7299 31.4567 94.8886 31.4937 95.0421 31.5413V31.5466Z" fill="white"/>
<path d="M93.5923 33.3086C93.5764 33.8113 93.9732 34.2346 94.4812 34.2505C94.9839 34.2664 95.4072 33.8695 95.423 33.3616C95.4389 32.8589 95.0421 32.4356 94.5341 32.4197C94.0314 32.4038 93.6081 32.8007 93.5923 33.3086Z" fill="white"/>
<path d="M77.4539 25.4405C77.1946 25.3453 76.9565 25.2024 76.7448 25.0172L68.3105 17.7364L65.5167 25.1812L74.5754 33.1182L86.6184 33.1076L89.4122 25.6627L78.2687 25.5992C77.9883 25.5992 77.7131 25.5463 77.4539 25.4511V25.4405Z" fill="white"/>
<path d="M77.3744 24.2923C77.6231 24.5092 77.9459 24.6309 78.274 24.6309L100 24.7579L83.4436 10.4609C83.2636 10.3074 83.0361 10.2228 82.8033 10.2228L60.9291 10.0958L77.3744 24.2976V24.2923Z" fill="white"/>
<path d="M59.7174 0C56.2675 2.33346 45.7749 19.255 43.4679 23.0383C43.5896 22.7472 43.7378 22.4668 43.8806 22.1811L43.6372 22.0594C43.5684 22.1916 43.5049 22.3186 43.4467 22.4509C46.1453 15.1013 55.3892 0.984179 56.003 0.0423303C53.4578 3.34409 50.8122 7.1062 48.1877 11.3286C45.4416 15.7733 43.1663 20.0222 41.2773 23.9431L37.4358 14.7151H34.3351L39.6476 27.9062H43.0975C45.1082 23.5991 47.4946 18.9904 50.3307 14.1754C53.4578 8.87348 56.6485 4.15366 59.7174 0ZM42.997 23.7843C43.0658 23.5621 43.1293 23.3399 43.2086 23.1017L43.378 23.1705C43.1346 23.5621 42.997 23.7843 42.997 23.7843Z" fill="white"/>
<path d="M44.3833 21.1863C44.5632 20.8635 44.7272 20.5302 44.8965 20.1916L44.6531 20.0699C44.4838 20.4032 44.3092 20.726 44.1399 21.0646L44.3833 21.1863Z" fill="white"/>
<path d="M45.4204 19.2074C45.6003 18.8846 45.7643 18.5618 45.9548 18.2232L45.7114 18.0909C45.5209 18.4243 45.3516 18.747 45.177 19.0751L45.4204 19.2074Z" fill="white"/>
<path d="M46.4892 17.2549C46.6692 16.9321 46.8438 16.6094 47.0237 16.2813L46.7909 16.1384C46.6004 16.4612 46.4205 16.7945 46.2458 17.1226L46.4892 17.2549Z" fill="white"/>
<path d="M47.5845 15.313C47.775 14.9902 47.9549 14.6675 48.1401 14.3553L47.9073 14.2124C47.7168 14.5352 47.5263 14.8579 47.3358 15.1701L47.5792 15.313H47.5845Z" fill="white"/>
<path d="M48.7116 13.3922C48.9021 13.0695 49.1031 12.7573 49.2936 12.4345L49.0608 12.2917C48.8597 12.6144 48.6692 12.9266 48.4788 13.2494L48.7116 13.3922Z" fill="white"/>
<path d="M49.6376 11.3392L49.8704 11.4821C50.0503 11.2016 50.2302 10.9265 50.4048 10.6461L50.4736 10.5455L50.2302 10.3868L50.172 10.4979C49.9921 10.7783 49.8122 11.0535 49.6376 11.3339V11.3392Z" fill="white"/>
<path d="M51.0662 9.5984C51.2778 9.28622 51.4789 8.97403 51.68 8.66185L51.4472 8.51898C51.2461 8.83117 51.045 9.13277 50.8334 9.45554L51.0662 9.5984Z" fill="white"/>
<path d="M52.2938 7.73587C52.5054 7.42368 52.7065 7.12208 52.9182 6.80989L52.6853 6.65115C52.4843 6.96334 52.2726 7.26494 52.061 7.57713L52.2938 7.73587Z" fill="white"/>
<path d="M53.5584 5.8945C53.77 5.58232 53.9817 5.28072 54.1933 4.97911L53.9605 4.82037C53.7489 5.12198 53.5372 5.42358 53.3256 5.73577L53.5584 5.8945Z" fill="white"/>
<path d="M54.8389 4.07428C55.0505 3.77268 55.2728 3.47108 55.4844 3.16947L55.2622 3.00015C55.0505 3.30176 54.8283 3.60336 54.6061 3.90496L54.8389 4.07428Z" fill="white"/>
<path d="M56.1458 2.26466C56.3681 1.96306 56.5903 1.67204 56.8178 1.37043L56.5956 1.20111C56.3733 1.50271 56.1511 1.79373 55.9236 2.09534L56.1458 2.26466Z" fill="white"/>
<path d="M57.8761 0H57.5322C57.4422 0.100534 57.3628 0.211651 57.2729 0.322768L57.4951 0.49209C57.6168 0.322768 57.7544 0.158739 57.8761 0Z" fill="white"/>
<path d="M30.4143 9.65659V10.3762C31.7318 10.3868 32.806 11.4662 32.806 12.789H33.5256C33.5256 11.0747 32.1287 9.67246 30.4196 9.65659H30.4143Z" fill="white"/>
<path d="M34.4621 12.7837H35.1818C35.1818 10.154 33.0441 8.0057 30.4143 7.99512V8.71473C32.6472 8.72531 34.4621 10.5508 34.4621 12.7837Z" fill="white"/>
<path d="M30.0175 12.4504L30.8429 12.9372C30.8694 12.9531 30.8694 12.9901 30.8429 13.006L30.0122 13.4822C29.9857 13.4981 29.954 13.4822 29.954 13.4452V12.4874C29.9593 12.4557 29.991 12.4398 30.0228 12.4504H30.0175Z" fill="white"/>
<defs>
<linearGradient id="paint0_linear_305_23603" x1="28.5624" y1="12.9637" x2="32.0546" y2="12.9637" gradientUnits="userSpaceOnUse">
<stop stop-color="#CE278C"/>
<stop offset="1" stop-color="#C62F8F"/>
</linearGradient>
</defs>
</svg>
