<svg width="24" height="25" viewBox="0 0 24 25" fill="none" xmlns="http://www.w3.org/2000/svg">
<g id="autoplay">
<mask id="mask0_737_16302" style="mask-type:alpha" maskUnits="userSpaceOnUse" x="0" y="0" width="24" height="25">
<rect id="Bounding box" y="0.272705" width="24" height="24" fill="#D9D9D9"/>
</mask>
<g mask="url(#mask0_737_16302)">
<path id="autoplay_2" d="M9.5 16.7728V7.77275L16.5 12.2728L9.5 16.7728ZM12 23.2728C10.2 23.2728 8.5125 22.8603 6.9375 22.0353C5.3625 21.2103 4.05 20.0561 3 18.5728V21.2728H1V15.2728H7V17.2728H4.55C5.4 18.5228 6.47917 19.5019 7.7875 20.2103C9.09583 20.9186 10.5 21.2728 12 21.2728C13.9167 21.2728 15.6542 20.7228 17.2125 19.6228C18.7708 18.5228 19.8667 17.0644 20.5 15.2478L22.45 15.6978C21.7 17.9644 20.3667 19.7936 18.45 21.1853C16.5333 22.5769 14.3833 23.2728 12 23.2728ZM1.05 11.2728C1.16667 10.1561 1.43333 9.08525 1.85 8.06025C2.26667 7.03525 2.84167 6.08942 3.575 5.22275L5 6.64775C4.46667 7.33109 4.03333 8.06025 3.7 8.83525C3.36667 9.61025 3.15833 10.4228 3.075 11.2728H1.05ZM6.4 5.24775L4.975 3.82275C5.85833 3.08942 6.80833 2.51025 7.825 2.08525C8.84167 1.66025 9.9 1.40609 11 1.32275V3.32275C10.15 3.40609 9.34167 3.61442 8.575 3.94775C7.80833 4.28109 7.08333 4.71442 6.4 5.24775ZM17.625 5.24775C16.9417 4.71442 16.2125 4.28109 15.4375 3.94775C14.6625 3.61442 13.85 3.40609 13 3.32275V1.32275C14.1167 1.42275 15.1875 1.68109 16.2125 2.09775C17.2375 2.51442 18.1833 3.08942 19.05 3.82275L17.625 5.24775ZM20.95 11.2728C20.8667 10.4228 20.6583 9.61025 20.325 8.83525C19.9917 8.06025 19.5583 7.33109 19.025 6.64775L20.45 5.22275C21.1833 6.08942 21.7583 7.03525 22.175 8.06025C22.5917 9.08525 22.85 10.1561 22.95 11.2728H20.95Z" fill="url(#paint0_linear_737_16302)"/>
</g>
</g>
<defs>
<linearGradient id="paint0_linear_737_16302" x1="1" y1="12.2978" x2="22.95" y2="12.2978" gradientUnits="userSpaceOnUse">
<stop stop-color="#C62F8F"/>
<stop offset="1" stop-color="#CE2786"/>
</linearGradient>
</defs>
</svg>
