<svg width="47" height="60" viewBox="0 0 47 60" fill="none" xmlns="http://www.w3.org/2000/svg">
<g clip-path="url(#clip0_347_18542)">
<path d="M18.9379 18.6917C16.5296 18.6917 14.5694 17.5307 14.5694 16.4186C14.5694 15.8136 15.1668 14.9305 15.9322 14.9305C16.6976 14.9305 17.463 15.9771 18.9379 16.2061V13.3606C17.071 12.7392 14.9427 11.9869 14.9427 9.81194C14.9276 8.86607 15.3384 7.95304 16.0861 7.27051C16.8338 6.58798 17.8584 6.19088 18.9379 6.16517V5.67458C18.9379 5.42928 19.2552 5.20033 19.7033 5.20033C20.1513 5.20033 20.4687 5.42928 20.4687 5.67458V6.11611C21.7195 6.11611 24.0531 6.42682 24.0531 7.63696C24.0531 8.11121 23.6984 9.07605 22.821 9.07605C21.9436 9.07605 21.7755 8.52004 20.4687 8.43827V11.0057C22.3356 11.5944 24.4265 12.4285 24.4265 14.7997C24.4581 15.7617 24.0638 16.6971 23.3262 17.4103C22.5886 18.1235 21.5647 18.5592 20.4687 18.6263V19.1333C20.4687 19.3786 20.0953 19.6075 19.7033 19.6075C19.3113 19.6075 18.9379 19.3786 18.9379 19.1333V18.6917ZM19.1432 10.5151V8.48733C18.2471 8.65086 17.8551 9.04334 17.8551 9.46853C17.8551 9.89371 18.3965 10.3025 19.1619 10.5805L19.1432 10.5151ZM20.2634 13.7858V16.1897C20.9541 16.0425 21.4955 15.7155 21.4955 15.0777C21.4955 14.4399 21.0101 14.1292 20.282 13.8348L20.2634 13.7858Z" fill="#F9F9F9"/>
<path d="M19.722 43.287C17.0745 43.2827 14.537 42.3595 12.6649 40.7197C10.7929 39.0799 9.73907 36.8571 9.73413 34.538V30.4334C9.77285 30.1471 9.93013 29.8832 10.1761 29.6917C10.4222 29.5002 10.7398 29.3944 11.069 29.3944C11.3981 29.3944 11.7157 29.5002 11.9618 29.6917C12.2078 29.8832 12.3651 30.1471 12.4038 30.4334V34.538C12.4038 36.2382 13.1748 37.8687 14.5472 39.0709C15.9196 40.2731 17.7811 40.9485 19.722 40.9485C21.6629 40.9485 23.5243 40.2731 24.8967 39.0709C26.2691 37.8687 27.0401 36.2382 27.0401 34.538V30.4334C27.0401 30.1211 27.1818 29.8216 27.4338 29.6008C27.6859 29.38 28.0278 29.2559 28.3843 29.2559C28.7408 29.2559 29.0827 29.38 29.3348 29.6008C29.5868 29.8216 29.7284 30.1211 29.7284 30.4334V34.538C29.7235 36.8599 28.6671 39.0852 26.791 40.7255C24.915 42.3658 22.3726 43.287 19.722 43.287Z" fill="#F9F9F9"/>
<path d="M44.9249 29.9918C45.2814 29.9918 45.6233 29.8678 45.8754 29.647C46.1274 29.4261 46.269 29.1267 46.269 28.8144V23.9084C46.2691 23.7546 46.2342 23.6022 46.1664 23.4603C46.0986 23.3183 45.9993 23.1896 45.8742 23.0816C45.7492 22.9735 45.6008 22.8884 45.4379 22.831C45.2749 22.7736 45.1005 22.7452 44.9249 22.7473H27.9549C30.393 21.1953 32.2117 19.0104 33.1531 16.5024C34.0945 13.9944 34.111 11.2905 33.2001 8.7738C32.2893 6.25715 30.4973 4.05543 28.0782 2.48069C25.6591 0.90594 22.7356 0.0380446 19.722 0C15.9474 0.0216219 12.3369 1.35474 9.68359 3.70654C7.03029 6.05833 5.55112 9.23649 5.57099 12.5429C5.56935 14.5303 6.10268 16.49 7.12769 18.2631C8.1527 20.0361 9.6405 21.5724 11.4703 22.7473H1.6132C1.43757 22.7452 1.2632 22.7736 1.10022 22.831C0.937245 22.8884 0.788913 22.9735 0.663846 23.0816C0.538779 23.1896 0.439472 23.3183 0.371695 23.4603C0.303919 23.6022 0.269026 23.7546 0.269043 23.9084V52.6247C0.269043 54.5807 1.15611 56.4567 2.7351 57.8398C4.31409 59.223 6.45566 60 8.68869 60H37.8307C40.0655 60 42.209 59.2235 43.7909 57.8408C45.3729 56.4581 46.2641 54.5823 46.269 52.6247V39.4113C46.269 39.099 46.1274 38.7995 45.8754 38.5787C45.6233 38.3579 45.2814 38.2339 44.9249 38.2339C44.5684 38.2339 44.2265 38.3579 43.9744 38.5787C43.7223 38.7995 43.5807 39.099 43.5807 39.4113V52.6247C43.583 53.7573 43.1494 54.8574 42.35 55.7476C41.5506 56.6377 40.432 57.2659 39.1749 57.5307V25.0859H43.5807V28.8144C43.5807 29.1267 43.7223 29.4261 43.9744 29.647C44.2265 29.8678 44.5684 29.9918 44.9249 29.9918ZM8.2593 12.5429C8.2394 9.8595 9.43473 7.2786 11.5834 5.36583C13.732 3.45305 16.6586 2.36442 19.722 2.33851C22.8116 2.33851 25.7746 3.41362 27.9593 5.32732C30.144 7.24102 31.3713 9.83655 31.3713 12.5429C31.3713 15.2493 30.144 17.8448 27.9593 19.7585C25.7746 21.6722 22.8116 22.7473 19.722 22.7473C16.6586 22.7214 13.732 21.6328 11.5834 19.72C9.43473 17.8073 8.2394 15.2264 8.2593 12.5429ZM2.93869 52.6247V25.0859H36.5426V57.6615H8.68869C7.16369 57.6615 5.70116 57.1308 4.62282 56.1862C3.54449 55.2417 2.93869 53.9605 2.93869 52.6247Z" fill="#F9F9F9"/>
<path d="M44.9249 35.2739C44.6443 35.274 44.3708 35.1971 44.1426 35.0541C43.9144 34.9111 43.7431 34.7092 43.6525 34.4766C43.5619 34.244 43.5567 33.9924 43.6376 33.7571C43.7185 33.5218 43.8814 33.3145 44.1035 33.1644C44.3143 33.0279 44.5655 32.9477 44.8271 32.9332C45.0887 32.9187 45.3495 32.9705 45.5783 33.0826C45.8301 33.2127 46.0266 33.4111 46.1381 33.6478C46.2495 33.8845 46.2698 34.1466 46.196 34.3943C46.1221 34.6421 45.9581 34.862 45.7287 35.0207C45.4993 35.1794 45.2171 35.2683 44.9249 35.2739Z" fill="#F9F9F9"/>
</g>
<defs>
<clipPath id="clip0_347_18542">
<rect width="46" height="60" fill="white" transform="translate(0.269043)"/>
</clipPath>
</defs>
</svg>
