<svg width="66" height="60" viewBox="0 0 66 60" fill="none" xmlns="http://www.w3.org/2000/svg">
<g clip-path="url(#clip0_347_18547)">
<path d="M15.265 16.3532H45.2731C45.6346 16.3489 45.9798 16.2023 46.2339 15.9452C46.488 15.688 46.6305 15.3411 46.6305 14.9796C46.6305 14.6196 46.4875 14.2743 46.2329 14.0198C45.9784 13.7652 45.6331 13.6222 45.2731 13.6222H15.265C14.905 13.6222 14.5597 13.7652 14.3052 14.0198C14.0506 14.2743 13.9076 14.6196 13.9076 14.9796C13.9076 15.3411 14.0501 15.688 14.3042 15.9452C14.5583 16.2023 14.9035 16.3489 15.265 16.3532Z" fill="#F9F9F9"/>
<path d="M31.6345 30.0082H15.2813C14.9213 30.0082 14.5761 30.1512 14.3215 30.4057C14.067 30.6603 13.924 31.0055 13.924 31.3655C13.924 31.7255 14.067 32.0707 14.3215 32.3253C14.5761 32.5798 14.9213 32.7228 15.2813 32.7228H31.6345C31.9945 32.7228 32.3398 32.5798 32.5943 32.3253C32.8489 32.0707 32.9919 31.7255 32.9919 31.3655C32.9919 31.0055 32.8489 30.6603 32.5943 30.4057C32.3398 30.1512 31.9945 30.0082 31.6345 30.0082Z" fill="#F9F9F9"/>
<path d="M60.498 5.46198H60.269C60.2647 4.0147 59.6879 2.62793 58.6645 1.60454C57.6411 0.581156 56.2543 0.00431383 54.8071 0L5.74738 0C4.29726 -6.46071e-06 2.9063 0.574928 1.87938 1.59878C0.852462 2.62263 0.273372 4.01187 0.269043 5.46198L0.269043 58.6427C0.269831 58.9111 0.349241 59.1734 0.497462 59.3972C0.645683 59.621 0.856219 59.7964 1.10306 59.9019C1.27096 59.963 1.44774 59.9961 1.62636 60C1.80523 60.0022 1.98275 59.9687 2.14845 59.9013C2.31415 59.8339 2.46469 59.734 2.5912 59.6075L15.8373 46.3614H54.8071C55.5257 46.3614 56.2373 46.2196 56.9011 45.9441C57.5648 45.6686 58.1677 45.2648 58.6751 44.7559C59.1825 44.2469 59.5845 43.6429 59.858 42.9783C60.1315 42.3137 60.2712 41.6017 60.269 40.8831V18.2993L64.1938 14.3581C64.9287 13.6307 65.4301 12.7008 65.6338 11.6871C65.8376 10.6734 65.7346 9.62193 65.3379 8.66706C64.9412 7.71219 64.2689 6.89726 63.4068 6.32636C62.5447 5.75546 61.532 5.45452 60.498 5.46198ZM57.5053 40.8831C57.5054 41.2409 57.4346 41.5953 57.2972 41.9257C57.1597 42.2561 56.9583 42.5561 56.7045 42.8084C56.4507 43.0607 56.1495 43.2603 55.8182 43.3958C55.487 43.5312 55.1322 43.5999 54.7744 43.5977H15.265C15.0851 43.5985 14.9071 43.6351 14.7415 43.7053C14.5759 43.7754 14.4258 43.8779 14.3001 44.0065L3.00003 55.3393V5.46198C3.00003 4.73768 3.28776 4.04304 3.79992 3.53088C4.31208 3.01872 5.00672 2.73099 5.73102 2.73099H54.7907C55.5122 2.73531 56.2026 3.02494 56.7113 3.53664C57.2199 4.04833 57.5054 4.7405 57.5053 5.46198V6.39411C57.2407 6.55795 56.9988 6.75589 56.7858 6.98283L41.9698 21.8152H15.265C14.9286 21.8521 14.6176 22.0118 14.3917 22.2638C14.1659 22.5158 14.0409 22.8423 14.0409 23.1807C14.0409 23.5191 14.1659 23.8456 14.3917 24.0976C14.6176 24.3496 14.9286 24.5093 15.265 24.5462H39.7948L38.4702 31.0875C38.4325 31.3071 38.4468 31.5325 38.5122 31.7455C38.5775 31.9586 38.692 32.1533 38.8463 32.314C38.9728 32.4405 39.1234 32.5403 39.2891 32.6077C39.4548 32.6751 39.6323 32.7087 39.8112 32.7065H40.0892L46.8921 31.3328C47.1603 31.2847 47.4064 31.1531 47.5953 30.9567L57.5053 21.0139V40.8831ZM45.9273 28.7163L41.5282 29.5993L42.395 25.184L54.7744 12.8046L58.3394 16.3532L45.9273 28.7163ZM62.2805 12.363L60.269 14.4399L56.7367 10.9076L58.7482 8.91251C58.9801 8.68165 59.2553 8.49873 59.5579 8.3742C59.8605 8.24967 60.1847 8.18597 60.5119 8.18673C60.8392 8.18749 61.1631 8.2527 61.4651 8.37863C61.7672 8.50456 62.0415 8.68875 62.2723 8.92069C62.5032 9.15262 62.6861 9.42776 62.8106 9.73038C62.9352 10.033 62.9989 10.3572 62.9981 10.6844C62.9973 11.0117 62.9321 11.3356 62.8062 11.6376C62.6803 11.9397 62.4961 12.2139 62.2641 12.4448L62.2805 12.363Z" fill="#F9F9F9"/>
</g>
<defs>
<clipPath id="clip0_347_18547">
<rect width="65.462" height="60" fill="white" transform="translate(0.269043)"/>
</clipPath>
</defs>
</svg>
