<svg width="61" height="60" viewBox="0 0 61 60" fill="none" xmlns="http://www.w3.org/2000/svg">
<g clip-path="url(#clip0_347_18537)">
<path d="M56.9657 49.9264V24.8242C56.9614 23.6126 56.477 22.4522 55.6188 21.597C54.7606 20.7418 53.5984 20.2616 52.3868 20.2616H48.969L49.7212 18.8062C50.1581 17.9725 50.316 17.0206 50.1718 16.0904C50.0275 15.1602 49.5888 14.3009 48.9199 13.6386L55.4612 1.89697C55.5413 1.74893 55.5913 1.58651 55.6083 1.41905C55.6254 1.2516 55.6091 1.08243 55.5605 0.921289C55.5118 0.760152 55.4318 0.610237 55.3249 0.480183C55.2181 0.350129 55.0865 0.24251 54.9379 0.163528C54.7923 0.0799372 54.6316 0.0262891 54.465 0.00573702C54.2984 -0.014815 54.1294 -0.00185616 53.9679 0.0438518C53.8064 0.0895597 53.6556 0.167094 53.5245 0.271897C53.3934 0.3767 53.2846 0.506656 53.2044 0.654124L46.6632 12.4448C45.7307 12.2558 44.7621 12.3754 43.9036 12.7855C43.0451 13.1955 42.3434 13.8738 41.9044 14.7179L38.4702 21.2592C37.6623 20.0377 36.5643 19.0355 35.2745 18.342C33.9846 17.6486 32.543 17.2855 31.0785 17.2854H17.489C16.2543 17.287 15.0338 17.5484 13.9068 18.0528C12.7798 18.5571 11.7716 19.293 10.9477 20.2126H8.52742C7.31435 20.2169 6.15219 20.7007 5.29441 21.5585C4.43663 22.4163 3.95283 23.5784 3.94852 24.7915V49.8283C2.91772 50.0221 1.98659 50.5688 1.31513 51.3746C0.643663 52.1804 0.273784 53.1948 0.269043 54.2437L0.269043 55.601C0.269043 56.7894 0.741124 57.9291 1.58143 58.7694C2.42174 59.6097 3.56145 60.0818 4.74983 60.0818H55.87C57.0442 60.0603 58.163 59.5788 58.9857 58.7408C59.8084 57.9028 60.2692 56.7753 60.269 55.601V54.3254C60.2697 53.3475 59.9504 52.3962 59.3599 51.6167C58.7693 50.8372 57.94 50.2723 56.9984 50.0082L56.9657 49.9264ZM17.489 19.8528H31.0785C32.4655 19.8558 33.8129 20.3155 34.9125 21.1608C36.0121 22.0062 36.8026 23.1902 37.1619 24.5298C37.2223 24.7818 37.3589 25.0091 37.5532 25.1806C37.7475 25.352 37.9899 25.4594 38.2474 25.488C38.505 25.5166 38.7651 25.4651 38.9922 25.3404C39.2194 25.2158 39.4026 25.0241 39.5168 24.7915L44.1611 15.928C44.2339 15.6621 44.3647 15.4156 44.5442 15.2063C44.7236 14.9971 44.9473 14.8302 45.199 14.7178C45.4508 14.6053 45.7243 14.5501 45.9999 14.5561C46.2756 14.5621 46.5464 14.6292 46.793 14.7525C47.0396 14.8758 47.2558 15.0523 47.426 15.2692C47.5962 15.4861 47.7161 15.738 47.7772 16.0069C47.8383 16.2757 47.839 16.5548 47.7793 16.8239C47.7196 17.0931 47.6009 17.3456 47.4318 17.5634L38.1595 35.4702H11.193V26.1652C11.1973 24.4967 11.862 22.8978 13.0418 21.718C14.2216 20.5382 15.8205 19.8735 17.489 19.8692V19.8528ZM8.52742 22.7964H9.31238C8.87014 23.8645 8.64232 25.0091 8.6419 26.1652V36.7457C8.6419 36.9132 8.67489 37.0791 8.73899 37.2338C8.80309 37.3886 8.89705 37.5292 9.0155 37.6477C9.13394 37.7661 9.27456 37.8601 9.42932 37.9242C9.58407 37.9883 9.74994 38.0213 9.91745 38.0213H38.1758C38.3571 38.1176 38.5592 38.1681 38.7645 38.1684C38.8887 38.1931 39.0165 38.1931 39.1407 38.1684C39.3028 38.1237 39.4535 38.0452 39.5832 37.9381C39.7128 37.831 39.8184 37.6977 39.8929 37.547L47.5789 22.8291H52.3214C52.8579 22.8334 53.3712 23.0484 53.7505 23.4278C54.1299 23.8071 54.3449 24.3204 54.3492 24.8569V49.7629H6.49962V24.8242C6.5039 24.2877 6.71891 23.7744 7.09828 23.3951C7.47764 23.0157 7.99094 22.8007 8.52742 22.7964ZM57.7343 55.601C57.7105 56.0877 57.5065 56.5482 57.1619 56.8928C56.8173 57.2374 56.3568 57.4415 55.87 57.4652H4.74983C4.2504 57.4615 3.77153 57.2659 3.41234 56.9188C3.05314 56.5718 2.84112 56.1 2.82015 55.601V54.3254C2.81137 54.0666 2.85479 53.8086 2.94783 53.5669C3.04086 53.3251 3.18161 53.1046 3.36168 52.9185C3.54175 52.7323 3.75746 52.5843 3.99594 52.4832C4.23443 52.3822 4.49082 52.3302 4.74983 52.3303H55.87C56.3833 52.3303 56.8758 52.5331 57.2403 52.8945C57.6048 53.2559 57.8117 53.7467 57.8161 54.26L57.7343 55.601Z" fill="white"/>
<path d="M38.601 53.6059H21.9371C21.5988 53.6059 21.2743 53.7403 21.0351 53.9795C20.7959 54.2187 20.6615 54.5431 20.6615 54.8814C20.6615 55.2197 20.7959 55.5442 21.0351 55.7834C21.2743 56.0226 21.5988 56.157 21.9371 56.157H38.601C38.9393 56.157 39.2637 56.0226 39.5029 55.7834C39.7422 55.5442 39.8765 55.2197 39.8765 54.8814C39.8765 54.5431 39.7422 54.2187 39.5029 53.9795C39.2637 53.7403 38.9393 53.6059 38.601 53.6059Z" fill="white"/>
<path d="M24.2919 15.6337C25.838 15.6337 27.3493 15.1752 28.6347 14.3163C29.9202 13.4574 30.9221 12.2366 31.5138 10.8082C32.1054 9.37987 32.2602 7.80816 31.9586 6.29184C31.657 4.77552 30.9125 3.38269 29.8193 2.28949C28.7261 1.19628 27.3333 0.451801 25.8169 0.150187C24.3006 -0.151428 22.7289 0.00337168 21.3006 0.59501C19.8722 1.18665 18.6514 2.18855 17.7925 3.47403C16.9335 4.7595 16.4751 6.27081 16.4751 7.81683C16.4751 9.88999 17.2987 11.8782 18.7646 13.3442C20.2305 14.8101 22.2188 15.6337 24.2919 15.6337ZM24.2919 2.55109C25.3327 2.55432 26.3492 2.8659 27.213 3.44647C28.0768 4.02704 28.7491 4.85056 29.1452 5.81303C29.5412 6.7755 29.6432 7.83374 29.4381 8.85412C29.2331 9.87449 28.7303 10.8112 27.9933 11.546C27.2562 12.2808 26.3179 12.7807 25.2969 12.9826C24.2759 13.1844 23.218 13.0792 22.2567 12.6802C21.2955 12.2811 20.474 11.6062 19.8962 10.7406C19.3183 9.87503 19.0099 8.8576 19.0098 7.81683C19.0098 7.12395 19.1466 6.43787 19.4122 5.79794C19.6779 5.158 20.0672 4.57678 20.5579 4.0876C21.0486 3.59841 21.6311 3.21088 22.2718 2.94722C22.9126 2.68355 23.5991 2.54894 24.2919 2.55109Z" fill="white"/>
</g>
<defs>
<clipPath id="clip0_347_18537">
<rect width="60" height="60" fill="white" transform="translate(0.269043)"/>
</clipPath>
</defs>
</svg>
