<svg width="399" height="112" viewBox="0 0 399 112" fill="none" xmlns="http://www.w3.org/2000/svg">
<mask id="mask0_627_15587" style="mask-type:luminance" maskUnits="userSpaceOnUse" x="0" y="0" width="399" height="2">
<path d="M0 0H399V1.11959H0V0Z" fill="white"/>
</mask>
<g mask="url(#mask0_627_15587)">
<path d="M-0.608948 0.849258H412.71V0.0822754H-0.608948V0.849258Z" fill="black" fill-opacity="0.03"/>
<path d="M-0.608948 0.849258H412.71V0.0822754H-0.608948V0.849258Z" fill="black" fill-opacity="0.03"/>
<path d="M-0.608948 0.859624H412.71V0.0952148H-0.608948V0.859624Z" fill="black" fill-opacity="0.03"/>
<path d="M-0.608948 0.905899H412.71V0.138916H-0.608948V0.905899Z" fill="black" fill-opacity="0.03"/>
</g>
<mask id="mask1_627_15587" style="mask-type:luminance" maskUnits="userSpaceOnUse" x="0" y="2" width="399" height="2">
<path d="M0 2.84155H399V3.70119H0V2.84155Z" fill="white"/>
</mask>
<g mask="url(#mask1_627_15587)">
<path d="M-0.608948 3.68324H412.798V2.91626H-0.608948V3.68324Z" fill="black" fill-opacity="0.05"/>
</g>
<mask id="mask2_627_15587" style="mask-type:luminance" maskUnits="userSpaceOnUse" x="0" y="6" width="399" height="2">
<path d="M0 6.7124H399V7.84229H0V6.7124Z" fill="white"/>
</mask>
<g mask="url(#mask2_627_15587)">
<path d="M-0.608948 7.76514H412.918V7.00073H-0.608948V7.76514Z" fill="black" fill-opacity="0.05"/>
</g>
<mask id="mask3_627_15587" style="mask-type:luminance" maskUnits="userSpaceOnUse" x="0" y="10" width="399" height="2">
<path d="M0 10.1536H399V11.0158H0V10.1536Z" fill="white"/>
</mask>
<g mask="url(#mask3_627_15587)">
<path d="M-0.608948 10.9799H413.017V10.2129H-0.608948V10.9799Z" fill="black" fill-opacity="0.05"/>
</g>
<mask id="mask4_627_15587" style="mask-type:luminance" maskUnits="userSpaceOnUse" x="0" y="14" width="399" height="2">
<path d="M0 14.0271H399V15.3166H0V14.0271Z" fill="white"/>
</mask>
<g mask="url(#mask4_627_15587)">
<path d="M-0.608948 15.1957H413.141V14.4287H-0.608948V15.1957Z" fill="black" fill-opacity="0.05"/>
</g>
<mask id="mask5_627_15587" style="mask-type:luminance" maskUnits="userSpaceOnUse" x="0" y="19" width="399" height="2">
<path d="M0 19.7021H399V20.9092H0V19.7021Z" fill="white"/>
</mask>
<g mask="url(#mask5_627_15587)">
<path d="M-0.608948 20.608H413.308V19.8411H-0.608948V20.608Z" fill="black" fill-opacity="0.05"/>
</g>
<mask id="mask6_627_15587" style="mask-type:luminance" maskUnits="userSpaceOnUse" x="0" y="26" width="399" height="2">
<path d="M0 26.5022H399V27.6089H0V26.5022Z" fill="white"/>
</mask>
<g mask="url(#mask6_627_15587)">
<path d="M-0.608948 27.4287H413.511V26.6592H-0.608948V27.4287Z" fill="black" fill-opacity="0.05"/>
</g>
<mask id="mask7_627_15587" style="mask-type:luminance" maskUnits="userSpaceOnUse" x="0" y="35" width="399" height="1">
<path d="M0 35.1062H399V35.9658H0V35.1062Z" fill="white"/>
</mask>
<g mask="url(#mask7_627_15587)">
<path d="M-0.608948 35.8706H413.766V35.1062H-0.608948V35.8706Z" fill="black" fill-opacity="0.05"/>
</g>
<mask id="mask8_627_15587" style="mask-type:luminance" maskUnits="userSpaceOnUse" x="0" y="45" width="399" height="2">
<path d="M0 45.3987H399V46.2918H0V45.3987Z" fill="white"/>
</mask>
<g mask="url(#mask8_627_15587)">
<path d="M-0.608948 46.1889H414.078V45.4219H-0.608948V46.1889Z" fill="black" fill-opacity="0.05"/>
</g>
<mask id="mask9_627_15587" style="mask-type:luminance" maskUnits="userSpaceOnUse" x="0" y="57" width="399" height="2">
<path d="M0 57.4773H399V58.7693H0V57.4773Z" fill="white"/>
</mask>
<g mask="url(#mask9_627_15587)">
<path d="M-0.608948 58.6277H414.453V57.8633H-0.608948V58.6277Z" fill="black" fill-opacity="0.05"/>
</g>
<mask id="mask10_627_15587" style="mask-type:luminance" maskUnits="userSpaceOnUse" x="0" y="72" width="399" height="2">
<path d="M0 72.5366H399V73.7308H0V72.5366Z" fill="white"/>
</mask>
<g mask="url(#mask10_627_15587)">
<path d="M-0.608948 73.4761H414.901V72.7117H-0.608948V73.4761Z" fill="black" fill-opacity="0.05"/>
</g>
<mask id="mask11_627_15587" style="mask-type:luminance" maskUnits="userSpaceOnUse" x="0" y="90" width="399" height="2">
<path d="M0 90.2029H399V91.0342H0V90.2029Z" fill="white"/>
</mask>
<g mask="url(#mask11_627_15587)">
<path d="M-0.608948 91.0085H415.432V90.2441H-0.608948V91.0085Z" fill="black" fill-opacity="0.05"/>
</g>
<mask id="mask12_627_15587" style="mask-type:luminance" maskUnits="userSpaceOnUse" x="0" y="110" width="399" height="2">
<path d="M0 110.628H399V111.686H0V110.628Z" fill="white"/>
</mask>
<g mask="url(#mask12_627_15587)">
<path d="M-0.608948 111.542H416.046V110.775H-0.608948V111.542Z" fill="black" fill-opacity="0.05"/>
</g>
<mask id="mask13_627_15587" style="mask-type:luminance" maskUnits="userSpaceOnUse" x="0" y="0" width="28" height="127">
<path d="M0 0.26001H27.6122V127H0V0.26001Z" fill="white"/>
</mask>
<g mask="url(#mask13_627_15587)">
<path d="M27.4404 0.311523L-262.448 146.499L27.4404 0.311523Z" fill="black" fill-opacity="0.05"/>
</g>
<mask id="mask14_627_15587" style="mask-type:luminance" maskUnits="userSpaceOnUse" x="0" y="0" width="29" height="127">
<path d="M0 0H28.1066V127H0V0Z" fill="white"/>
</mask>
<g mask="url(#mask14_627_15587)">
<path d="M26.8471 0.0231934L-263.047 146.211L-261.855 146.787L28.039 0.602291L26.8471 0.0231934Z" fill="black" fill-opacity="0.05"/>
</g>
<mask id="mask15_627_15587" style="mask-type:luminance" maskUnits="userSpaceOnUse" x="371" y="0" width="28" height="127">
<path d="M371.388 0.26001H399V127H371.388V0.26001Z" fill="white"/>
</mask>
<g mask="url(#mask15_627_15587)">
<path d="M371.559 0.311523L661.448 146.499L371.559 0.311523Z" fill="black" fill-opacity="0.05"/>
</g>
<mask id="mask16_627_15587" style="mask-type:luminance" maskUnits="userSpaceOnUse" x="370" y="0" width="29" height="127">
<path d="M370.893 0H399V127H370.893V0Z" fill="white"/>
</mask>
<g mask="url(#mask16_627_15587)">
<path d="M372.153 0.0231934L370.961 0.602291L660.855 146.787L662.047 146.211L372.153 0.0231934Z" fill="black" fill-opacity="0.05"/>
</g>
<mask id="mask17_627_15587" style="mask-type:luminance" maskUnits="userSpaceOnUse" x="344" y="0" width="55" height="127">
<path d="M344.796 0.26001H399V127H344.796V0.26001Z" fill="white"/>
</mask>
<g mask="url(#mask17_627_15587)">
<path d="M345.087 0.311523L590.38 146.499L345.087 0.311523Z" fill="black" fill-opacity="0.05"/>
</g>
<mask id="mask18_627_15587" style="mask-type:luminance" maskUnits="userSpaceOnUse" x="343" y="0" width="56" height="127">
<path d="M343.927 0H399V127H343.927V0Z" fill="white"/>
</mask>
<g mask="url(#mask18_627_15587)">
<path d="M345.733 0.0463867L344.447 0.574009L589.74 146.764L591.026 146.234L345.733 0.0463867Z" fill="black" fill-opacity="0.05"/>
</g>
<mask id="mask19_627_15587" style="mask-type:luminance" maskUnits="userSpaceOnUse" x="318" y="0" width="81" height="127">
<path d="M318.089 0.26001H399V127H318.089V0.26001Z" fill="white"/>
</mask>
<g mask="url(#mask19_627_15587)">
<path d="M318.615 0.311523L519.312 146.499L318.615 0.311523Z" fill="black" fill-opacity="0.05"/>
</g>
<mask id="mask20_627_15587" style="mask-type:luminance" maskUnits="userSpaceOnUse" x="317" y="0" width="82" height="127">
<path d="M317.824 0H399V127H317.824V0Z" fill="white"/>
</mask>
<g mask="url(#mask20_627_15587)">
<path d="M319.307 0.079834L317.928 0.545686L518.62 146.731L520.004 146.267L319.307 0.079834Z" fill="black" fill-opacity="0.05"/>
</g>
<mask id="mask21_627_15587" style="mask-type:luminance" maskUnits="userSpaceOnUse" x="291" y="0" width="108" height="127">
<path d="M291.721 0.26001H399V127H291.721V0.26001Z" fill="white"/>
</mask>
<g mask="url(#mask21_627_15587)">
<path d="M292.148 0.311523L448.244 146.499L292.148 0.311523Z" fill="black" fill-opacity="0.05"/>
</g>
<mask id="mask22_627_15587" style="mask-type:luminance" maskUnits="userSpaceOnUse" x="290" y="0" width="109" height="127">
<path d="M290.852 0H399V127H290.852V0Z" fill="white"/>
</mask>
<g mask="url(#mask22_627_15587)">
<path d="M292.887 0.118408L291.404 0.507047L447.5 146.692L448.983 146.306L292.887 0.118408Z" fill="black" fill-opacity="0.05"/>
</g>
<mask id="mask23_627_15587" style="mask-type:luminance" maskUnits="userSpaceOnUse" x="265" y="0" width="113" height="127">
<path d="M265.624 0.26001H377.857V127H265.624V0.26001Z" fill="white"/>
</mask>
<g mask="url(#mask23_627_15587)">
<path d="M265.675 0.311523L377.17 146.499L265.675 0.311523Z" fill="black" fill-opacity="0.05"/>
</g>
<mask id="mask24_627_15587" style="mask-type:luminance" maskUnits="userSpaceOnUse" x="264" y="0" width="115" height="127">
<path d="M264.791 0H378.05V127H264.791V0Z" fill="white"/>
</mask>
<g mask="url(#mask24_627_15587)">
<path d="M266.456 0.164795L264.89 0.455631L376.39 146.646L377.957 146.352L266.456 0.164795Z" fill="black" fill-opacity="0.05"/>
</g>
<mask id="mask25_627_15587" style="mask-type:luminance" maskUnits="userSpaceOnUse" x="238" y="0" width="69" height="127">
<path d="M238.652 0.26001H306.514V127H238.652V0.26001Z" fill="white"/>
</mask>
<g mask="url(#mask25_627_15587)">
<path d="M239.203 0.311523L306.102 146.499L239.203 0.311523Z" fill="black" fill-opacity="0.05"/>
</g>
<mask id="mask26_627_15587" style="mask-type:luminance" maskUnits="userSpaceOnUse" x="238" y="0" width="70" height="127">
<path d="M238.141 0H307.383V127H238.141V0Z" fill="white"/>
</mask>
<g mask="url(#mask26_627_15587)">
<path d="M240.026 0.221436L238.391 0.404173L305.29 146.592L306.919 146.406L240.026 0.221436Z" fill="black" fill-opacity="0.05"/>
</g>
<mask id="mask27_627_15587" style="mask-type:luminance" maskUnits="userSpaceOnUse" x="212" y="0" width="24" height="127">
<path d="M212.549 0.26001H235.169V127H212.549V0.26001Z" fill="white"/>
</mask>
<g mask="url(#mask27_627_15587)">
<path d="M212.736 0.311523L235.034 146.499L212.736 0.311523Z" fill="black" fill-opacity="0.05"/>
</g>
<mask id="mask28_627_15587" style="mask-type:luminance" maskUnits="userSpaceOnUse" x="211" y="0" width="26" height="127">
<path d="M211.68 0.26001H236.039V127H211.68V0.26001Z" fill="white"/>
</mask>
<g mask="url(#mask28_627_15587)">
<path d="M213.569 0.280518L211.903 0.342288L234.201 146.532L235.867 146.468L213.569 0.280518Z" fill="black" fill-opacity="0.05"/>
</g>
<mask id="mask29_627_15587" style="mask-type:luminance" maskUnits="userSpaceOnUse" x="163" y="0" width="24" height="127">
<path d="M163.831 0.26001H186.451V127H163.831V0.26001Z" fill="white"/>
</mask>
<g mask="url(#mask29_627_15587)">
<path d="M186.264 0.311523L163.966 146.499L186.264 0.311523Z" fill="black" fill-opacity="0.05"/>
</g>
<mask id="mask30_627_15587" style="mask-type:luminance" maskUnits="userSpaceOnUse" x="162" y="0" width="26" height="127">
<path d="M162.956 0.26001H187.321V127H162.956V0.26001Z" fill="white"/>
</mask>
<g mask="url(#mask30_627_15587)">
<path d="M185.431 0.280518L163.128 146.468L164.799 146.532L187.102 0.342288L185.431 0.280518Z" fill="black" fill-opacity="0.05"/>
</g>
<mask id="mask31_627_15587" style="mask-type:luminance" maskUnits="userSpaceOnUse" x="92" y="0" width="69" height="127">
<path d="M92.4867 0.26001H160.349V127H92.4867V0.26001Z" fill="white"/>
</mask>
<g mask="url(#mask31_627_15587)">
<path d="M159.797 0.311523L92.8927 146.499L159.797 0.311523Z" fill="black" fill-opacity="0.05"/>
</g>
<mask id="mask32_627_15587" style="mask-type:luminance" maskUnits="userSpaceOnUse" x="91" y="0" width="70" height="127">
<path d="M91.6174 0H160.859V127H91.6174V0Z" fill="white"/>
</mask>
<g mask="url(#mask32_627_15587)">
<path d="M158.974 0.221436L92.0807 146.406L93.7098 146.592L160.609 0.404173L158.974 0.221436Z" fill="black" fill-opacity="0.05"/>
</g>
<mask id="mask33_627_15587" style="mask-type:luminance" maskUnits="userSpaceOnUse" x="21" y="0" width="113" height="127">
<path d="M21.1425 0.26001H133.376V127H21.1425V0.26001Z" fill="white"/>
</mask>
<g mask="url(#mask33_627_15587)">
<path d="M133.324 0.311523L21.8295 146.499L133.324 0.311523Z" fill="black" fill-opacity="0.05"/>
</g>
<mask id="mask34_627_15587" style="mask-type:luminance" maskUnits="userSpaceOnUse" x="20" y="0" width="115" height="127">
<path d="M20.9502 0H134.21V127H20.9502V0Z" fill="white"/>
</mask>
<g mask="url(#mask34_627_15587)">
<path d="M132.539 0.164795L21.0439 146.352L22.6106 146.646L134.105 0.455631L132.539 0.164795Z" fill="black" fill-opacity="0.05"/>
</g>
<mask id="mask35_627_15587" style="mask-type:luminance" maskUnits="userSpaceOnUse" x="0" y="0" width="108" height="127">
<path d="M0 0.26001H107.279V127H0V0.26001Z" fill="white"/>
</mask>
<g mask="url(#mask35_627_15587)">
<path d="M106.857 0.311523L-49.2438 146.499L106.857 0.311523Z" fill="black" fill-opacity="0.05"/>
</g>
<mask id="mask36_627_15587" style="mask-type:luminance" maskUnits="userSpaceOnUse" x="0" y="0" width="109" height="127">
<path d="M0 0H108.148V127H0V0Z" fill="white"/>
</mask>
<g mask="url(#mask36_627_15587)">
<path d="M106.113 0.118408L-49.983 146.306L-48.5048 146.692L107.596 0.507047L106.113 0.118408Z" fill="black" fill-opacity="0.05"/>
</g>
<mask id="mask37_627_15587" style="mask-type:luminance" maskUnits="userSpaceOnUse" x="0" y="0" width="81" height="127">
<path d="M0 0.26001H80.9107V127H0V0.26001Z" fill="white"/>
</mask>
<g mask="url(#mask37_627_15587)">
<path d="M80.385 0.311523L-120.312 146.499L80.385 0.311523Z" fill="black" fill-opacity="0.05"/>
</g>
<mask id="mask38_627_15587" style="mask-type:luminance" maskUnits="userSpaceOnUse" x="0" y="0" width="82" height="127">
<path d="M0 0H81.1761V127H0V0Z" fill="white"/>
</mask>
<g mask="url(#mask38_627_15587)">
<path d="M79.6928 0.079834L-121.004 146.267L-119.614 146.731L81.0721 0.545686L79.6928 0.079834Z" fill="black" fill-opacity="0.05"/>
</g>
<mask id="mask39_627_15587" style="mask-type:luminance" maskUnits="userSpaceOnUse" x="0" y="0" width="55" height="127">
<path d="M0 0.26001H54.2042V127H0V0.26001Z" fill="white"/>
</mask>
<g mask="url(#mask39_627_15587)">
<path d="M53.9127 0.311523L-191.375 146.499L53.9127 0.311523Z" fill="black" fill-opacity="0.05"/>
</g>
<mask id="mask40_627_15587" style="mask-type:luminance" maskUnits="userSpaceOnUse" x="0" y="0" width="56" height="127">
<path d="M0 0H55.0734V127H0V0Z" fill="white"/>
</mask>
<g mask="url(#mask40_627_15587)">
<path d="M53.2673 0.0463867L-192.026 146.234L-190.74 146.764L54.5529 0.574009L53.2673 0.0463867Z" fill="black" fill-opacity="0.05"/>
</g>
</svg>
