<svg width="40" height="52" viewBox="0 0 40 52" fill="none" xmlns="http://www.w3.org/2000/svg">
<g clip-path="url(#clip0_675_14393)">
<path d="M19.6458 0C1.35534 0 3.38343 22.2426 3.46694 38.3607C3.47009 38.9694 3.78897 39.5183 4.31035 39.8326C6.33725 41.0545 11.9033 43.911 19.6458 43.911C27.3883 43.911 32.9544 41.0545 34.9813 39.8326C35.5026 39.5183 35.8216 38.9694 35.8247 38.3607C35.9082 22.2424 37.9363 0 19.6458 0Z" fill="#694B4B"/>
<path d="M18.4681 0.0458984C1.45728 0.999524 3.386 22.6012 3.46768 38.361C3.47082 38.9697 3.7897 39.5185 4.31109 39.8328C6.33798 41.0547 11.9041 43.9112 19.6466 43.9112L24.2688 11.5558" fill="#5A4146"/>
<path d="M19.6457 0C9.24577 0 8.52344 12.5667 8.52344 12.5667C14.5179 11.5556 18.2012 14.0833 24.2679 11.5556L19.6457 43.911C27.3882 43.911 32.9544 41.0545 34.9813 39.8326C35.5025 39.5183 35.8215 38.9694 35.8247 38.3607C35.9082 22.2424 37.9362 0 19.6457 0Z" fill="#694B4B"/>
<path d="M35.8224 38.3611C35.8941 24.5108 37.3892 6.15188 26.2071 1.25586C26.012 2.26918 25.6589 5.09759 26.5769 6.93363C28.888 11.5558 31.1991 11.5558 33.5103 15.0225C35.8214 27.7335 29.0943 41.225 26.8602 43.0616C30.8186 42.1201 33.6564 40.6303 34.9791 39.833C35.5002 39.5187 35.8193 38.9698 35.8224 38.3611Z" fill="#785550"/>
<path d="M37.1558 41.8663L26.8446 37.5699C25.9834 37.2111 25.4223 36.3695 25.4223 35.4365V32.644H13.8668V35.4366C13.8668 36.3695 13.3057 37.2111 12.4445 37.57L2.13332 41.8664C0.841573 42.4044 0 43.6667 0 45.0663V49.6885C0 50.9648 1.03479 51.9996 2.31109 51.9996H36.9778C38.2541 51.9996 39.2888 50.9648 39.2888 49.6885V45.0663C39.2891 43.6667 38.4475 42.4044 37.1558 41.8663Z" fill="#E6AF78"/>
<path d="M37.1555 41.8668L27.186 37.7129L19.6444 40.9677L12.1029 37.7129L2.13332 41.8668C0.841573 42.405 0 43.6673 0 45.0669V49.689C0 50.9653 1.03479 52.0001 2.31109 52.0001H36.9778C38.2541 52.0001 39.2888 50.9653 39.2888 49.689V45.0669C39.2888 43.6673 38.4473 42.405 37.1555 41.8668Z" fill="#B4E1FA"/>
<path d="M25.4222 32.6445H13.8667V35.4371C13.8667 36.37 13.3056 37.2116 12.4444 37.5705L10.834 38.2417C23.1577 41.3839 25.4222 32.6445 25.4222 32.6445Z" fill="#D29B6E"/>
<path d="M5.63235 46.3373L0.994074 42.6479C0.372549 43.2835 0 44.1429 0 45.0672V49.6894C0 50.9657 1.03479 52.0005 2.31109 52.0005H6.93326V49.0444C6.93326 47.9913 6.45468 46.9952 5.63235 46.3373Z" fill="#A0D2F0"/>
<path d="M39.2889 49.6894V45.0673C39.2889 44.1502 38.9226 43.2967 38.3099 42.6626L33.6566 46.3376C32.8342 46.9955 32.3555 47.9914 32.3555 49.0446V52.0005H36.9777C38.2541 52.0005 39.2889 50.9657 39.2889 49.6894Z" fill="#A0D2F0"/>
<path d="M19.6439 49.6895C19.0058 49.6895 18.4883 49.172 18.4883 48.5339V40.9707H20.7994V48.534C20.7994 49.172 20.2821 49.6895 19.6439 49.6895Z" fill="#A0D2F0"/>
<path d="M19.6449 40.9676L13.0311 36.0072C12.6065 35.6889 12.0016 35.7924 11.7072 36.2339L10.4004 38.1942L14.4553 43.8709C14.7636 44.3025 15.3709 44.3867 15.785 44.0555L19.6449 40.9676Z" fill="#A0D2F0"/>
<path d="M19.6445 40.9676L26.2584 36.0072C26.6829 35.6889 27.2878 35.7924 27.5822 36.2339L28.889 38.1942L24.8341 43.8709C24.5259 44.3025 23.9185 44.3867 23.5044 44.0555L19.6445 40.9676Z" fill="#A0D2F0"/>
<path d="M25.4234 10.3999C19.6456 16.1777 8.30664 11.5555 8.30664 20.7999L9.02425 27.6095C9.16262 29.1327 10.0459 30.4889 11.3828 31.2316L17.9621 34.8868C19.0092 35.4685 20.2822 35.4685 21.3291 34.8868L27.9084 31.2316C29.2455 30.4887 30.1283 29.1327 30.2668 27.6095L31.0952 19.5221C31.1542 18.9473 31.1667 18.369 31.1472 17.7921C30.715 14.8503 26.5789 12.711 25.4234 10.3999Z" fill="#F0C087"/>
<path d="M8.30664 20.7999L9.02425 27.6095C9.16262 29.1327 10.0459 30.4889 11.3828 31.2316L17.9621 34.8868C18.6885 35.2904 19.5218 35.395 20.3149 35.2385C20.3149 35.2385 16.9976 34.2333 15.0234 28.8889C14.4187 27.2515 13.5791 18.5852 14.3012 17.5258C15.7287 15.4322 23.69 15.2148 26.0425 11.3306C25.9262 11.1865 25.819 11.042 25.7211 10.8973C25.7131 10.8857 25.7035 10.8739 25.6958 10.8623C25.5937 10.7087 25.5009 10.5548 25.4235 10.3999C19.6455 16.1777 8.30664 11.5554 8.30664 20.7999Z" fill="#E6AF78"/>
<path d="M28.8891 49.6885H24.2669C23.6288 49.6885 23.1113 50.2059 23.1113 50.8441V51.9996H30.0447V50.844C30.0446 50.2058 29.5272 49.6885 28.8891 49.6885Z" fill="#A0D2F0"/>
</g>
<defs>
<clipPath id="clip0_675_14393">
<rect width="40" height="52" fill="white"/>
</clipPath>
</defs>
</svg>
