<svg width="45" height="52" viewBox="0 0 45 52" fill="none" xmlns="http://www.w3.org/2000/svg">
<g clip-path="url(#clip0_675_14371)">
<path d="M30.5648 36.5878V30.3418H14.4316V36.5878L22.4982 43.7262L30.5648 36.5878Z" fill="#E6AF78"/>
<path d="M42.3312 39.8204L31.6228 37.2368C31.4612 37.1976 31.3125 37.1316 31.1731 37.0513L22.5 42.2391L14.165 36.8003C13.9492 37.0086 13.6814 37.1634 13.3772 37.2369L2.66877 39.8205C1.10521 40.1978 0 41.6285 0 43.2757V50.2255C0 51.2056 0.774975 52.0003 1.73083 52.0003H43.2692C44.225 52.0003 45 51.2056 45 50.2255V43.2757C44.9998 41.6283 43.8948 40.1976 42.3312 39.8204Z" fill="#707487"/>
<path d="M14.4316 30.3415V36.9316C24.5933 40.5765 30.5648 31.4542 30.5648 31.4542V30.3413L14.4316 30.3415Z" fill="#D29B6E"/>
<path d="M10.8477 9.81836L11.6287 26.9251C11.7018 28.5233 12.4888 30.0053 13.7742 30.9651L17.48 33.7321C18.4109 34.4271 19.543 34.8029 20.7066 34.8029H24.2919C25.4555 34.8029 26.5876 34.4271 27.5185 33.7321L31.2243 30.9651C32.5097 30.0051 33.2968 28.5233 33.3698 26.9251L34.1508 9.81836H10.8477Z" fill="#F0C087"/>
<path d="M19.8106 13.3872C23.3959 13.3872 28.7735 12.4949 30.049 9.81787H10.8477L11.6287 26.9246C11.7018 28.5228 12.4888 30.0048 13.7742 30.9646L17.48 33.7316C18.4109 34.4266 19.543 34.8024 20.7066 34.8024H22.4994C20.7068 34.8024 17.1218 31.233 17.1218 26.7717C17.1218 24.5895 17.1218 18.7409 17.1218 16.0639C17.1218 15.1719 18.0182 13.3872 19.8106 13.3872Z" fill="#E6AF78"/>
<path d="M38.6445 45.9651L44.252 40.771C44.7218 41.3844 44.9974 42.1565 44.9974 42.9829V49.9714C44.9974 50.957 44.2225 51.7561 43.2666 51.7561H37.209V49.2843C37.209 48.0179 37.7309 46.8114 38.6445 45.9651Z" fill="#5B5D6E"/>
<path d="M6.35297 45.9651L0.745436 40.771C0.275638 41.3844 0 42.1565 0 42.9829V49.9714C0 50.957 0.774974 51.7561 1.73083 51.7561H7.78842V49.2843C7.78842 48.0179 7.26651 46.8114 6.35297 45.9651Z" fill="#5B5D6E"/>
<path d="M24.6611 51.7558H20.334L20.875 43.7251H24.1201L24.6611 51.7558Z" fill="#5B5D6E"/>
<path d="M24.743 41.9414H20.2617V42.9294C20.2617 43.8621 21.021 44.6181 21.9579 44.6181H23.0468C23.9836 44.6181 24.743 43.8621 24.743 42.9294V41.9414Z" fill="#515262"/>
<path d="M14.3071 34.6008L22.4995 41.9412C22.4995 41.9412 20.2053 43.0943 17.3739 45.4184C16.7897 45.8978 15.9064 45.7034 15.5931 45.0175L11.7441 36.5874L12.9617 34.7691C13.2649 34.3164 13.9008 34.2366 14.3071 34.6008Z" fill="#5B5D6E"/>
<path d="M30.6925 34.6008L22.5 41.9412C22.5 41.9412 24.7942 43.0943 27.6256 45.4184C28.2098 45.8978 29.0931 45.7034 29.4064 45.0175L33.2555 36.5874L32.038 34.7691C31.7346 34.3164 31.0985 34.2366 30.6925 34.6008Z" fill="#5B5D6E"/>
<path d="M27.9355 3.90637L28.7758 9.8179C32.6114 10.5816 33.1643 16.5742 33.2439 18.286C33.2583 18.5966 33.358 18.8967 33.5273 19.158L34.9906 21.418C34.9906 21.418 34.4898 17.6815 36.7833 15.1719C36.7833 15.1719 37.5706 0.337178 27.9355 3.90637Z" fill="#785550"/>
<path d="M35.8893 21.036L34.8772 25.0667C34.7574 25.5442 34.3261 25.8793 33.8318 25.8793C33.2885 25.8793 32.8301 25.4763 32.7626 24.9395L32.2451 20.817C32.1065 19.7145 32.97 18.7407 34.086 18.7407H34.0896C35.2964 18.7411 36.1822 19.8702 35.8893 21.036Z" fill="#F0C087"/>
<path d="M11.7089 2.30793L13.0346 3.20951C7.04079 7.61527 8.16107 15.1718 8.16107 15.1718C9.95372 16.9565 9.95372 21.4179 9.95372 21.4179L11.7464 19.6332C11.7464 19.6332 11.0546 14.4782 14.4354 12.4948C17.5724 10.6545 20.3172 11.6025 23.1181 11.6025C30.6244 11.6025 32.7252 8.78618 32.3612 5.35644C32.1724 3.58185 29.4472 -0.114651 22.5018 0.00273081C19.6988 0.0502995 14.4352 0.895072 11.7089 2.30793Z" fill="#694B4B"/>
<path d="M11.186 10.8225C11.186 10.8225 10.2339 7.08596 13.0345 3.20996C7.04079 7.61571 8.16107 15.1723 8.16107 15.1723C9.95371 16.957 9.95372 21.4183 9.95372 21.4183L11.7463 19.6337C11.7463 19.6337 11.0545 14.4786 14.4353 12.4953C17.5724 10.655 20.3172 11.6029 23.1181 11.6029C24.3389 11.6029 25.4026 11.5215 26.3502 11.382C20.569 11.5752 17.1612 7.216 11.186 10.8225Z" fill="#5A4146"/>
<path d="M9.11104 21.036L10.1232 25.0667C10.243 25.5442 10.6742 25.8793 11.1685 25.8793C11.7118 25.8793 12.1702 25.4763 12.2378 24.9395L12.7553 20.817C12.8938 19.7145 12.0303 18.7407 10.9143 18.7407H10.9107C9.70384 18.7411 8.81817 19.8702 9.11104 21.036Z" fill="#E6AF78"/>
<path d="M33.6486 49.9717H28.383C27.6096 49.9717 26.9824 50.5959 26.9824 51.3661V51.7564H35.049V51.3661C35.049 50.5959 34.422 49.9717 33.6486 49.9717Z" fill="#5B5D6E"/>
</g>
<defs>
<clipPath id="clip0_675_14371">
<rect width="45" height="52" fill="white"/>
</clipPath>
</defs>
</svg>
