<svg width="36" height="56" viewBox="0 0 36 56" fill="none" xmlns="http://www.w3.org/2000/svg">
<g clip-path="url(#clip0_1341_33145)">
<mask id="mask0_1341_33145" style="mask-type:luminance" maskUnits="userSpaceOnUse" x="-9" y="1" width="54" height="54">
<path d="M44.842 1.12012H-8.91797V54.8801H44.842V1.12012Z" fill="white"/>
</mask>
<g mask="url(#mask0_1341_33145)">
<path d="M7.88367 12.3201H28.0437C28.6619 12.3201 29.1637 11.8184 29.1637 11.2001V8.96012C29.1637 7.10764 27.6562 5.60012 25.8037 5.60012H22.4437C22.4437 3.1294 20.4344 1.12012 17.9637 1.12012C15.493 1.12012 13.4837 3.1294 13.4837 5.60012H10.1237C8.27119 5.60012 6.76367 7.10764 6.76367 8.96012V11.2001C6.76367 11.8184 7.26543 12.3201 7.88367 12.3201Z" fill="url(#paint0_linear_1341_33145)"/>
<path d="M32.523 7.84033H31.2887C31.3626 8.20321 31.403 8.57729 31.403 8.96033V11.2003C31.403 13.0528 29.8954 14.5603 28.043 14.5603H7.88297C6.03049 14.5603 4.52297 13.0528 4.52297 11.2003V8.96033C4.52297 8.57729 4.56329 8.20321 4.63721 7.84033H3.40297C1.55049 7.84033 0.0429688 9.34785 0.0429688 11.2003V51.5203C0.0429688 53.3728 1.55049 54.8803 3.40297 54.8803H32.523C34.3755 54.8803 35.883 53.3728 35.883 51.5203V11.2003C35.883 9.34785 34.3755 7.84033 32.523 7.84033ZM7.88297 43.6803C7.26473 43.6803 6.76297 43.1786 6.76297 42.5603C6.76297 41.9421 7.26473 41.4403 7.88297 41.4403C8.50121 41.4403 9.00297 41.9421 9.00297 42.5603C9.00297 43.1786 8.50121 43.6803 7.88297 43.6803ZM7.88297 36.9603C7.26473 36.9603 6.76297 36.4586 6.76297 35.8403C6.76297 35.2221 7.26473 34.7203 7.88297 34.7203C8.50121 34.7203 9.00297 35.2221 9.00297 35.8403C9.00297 36.4586 8.50121 36.9603 7.88297 36.9603ZM7.88297 30.2403C7.26473 30.2403 6.76297 29.7386 6.76297 29.1203C6.76297 28.5021 7.26473 28.0003 7.88297 28.0003C8.50121 28.0003 9.00297 28.5021 9.00297 29.1203C9.00297 29.7386 8.50121 30.2403 7.88297 30.2403ZM7.88297 23.5203C7.26473 23.5203 6.76297 23.0186 6.76297 22.4003C6.76297 21.7821 7.26473 21.2803 7.88297 21.2803C8.50121 21.2803 9.00297 21.7821 9.00297 22.4003C9.00297 23.0186 8.50121 23.5203 7.88297 23.5203ZM28.043 43.6803H12.363C11.7447 43.6803 11.243 43.1786 11.243 42.5603C11.243 41.9421 11.7447 41.4403 12.363 41.4403H28.043C28.6612 41.4403 29.163 41.9421 29.163 42.5603C29.163 43.1786 28.6612 43.6803 28.043 43.6803ZM28.043 36.9603H12.363C11.7447 36.9603 11.243 36.4586 11.243 35.8403C11.243 35.2221 11.7447 34.7203 12.363 34.7203H28.043C28.6612 34.7203 29.163 35.2221 29.163 35.8403C29.163 36.4586 28.6612 36.9603 28.043 36.9603ZM28.043 30.2403H12.363C11.7447 30.2403 11.243 29.7386 11.243 29.1203C11.243 28.5021 11.7447 28.0003 12.363 28.0003H28.043C28.6612 28.0003 29.163 28.5021 29.163 29.1203C29.163 29.7386 28.6612 30.2403 28.043 30.2403ZM28.043 23.5203H12.363C11.7447 23.5203 11.243 23.0186 11.243 22.4003C11.243 21.7821 11.7447 21.2803 12.363 21.2803H28.043C28.6612 21.2803 29.163 21.7821 29.163 22.4003C29.163 23.0186 28.6612 23.5203 28.043 23.5203Z" fill="url(#paint1_linear_1341_33145)"/>
</g>
</g>
<defs>
<linearGradient id="paint0_linear_1341_33145" x1="17.9637" y1="1.12012" x2="17.9637" y2="54.8801" gradientUnits="userSpaceOnUse">
<stop stop-color="#FD7800"/>
<stop offset="1" stop-color="#FFC900"/>
</linearGradient>
<linearGradient id="paint1_linear_1341_33145" x1="17.963" y1="1.12033" x2="17.963" y2="54.8803" gradientUnits="userSpaceOnUse">
<stop stop-color="#FD7800"/>
<stop offset="1" stop-color="#FFC900"/>
</linearGradient>
<clipPath id="clip0_1341_33145">
<rect width="36" height="56" fill="white"/>
</clipPath>
</defs>
</svg>
